<svg class="main-svg" xmlns="http://www.w3.org/2000/svg" xmlns:xlink="http://www.w3.org/1999/xlink" width="2200" height="1000" style="" viewBox="0 0 1100 500"><rect x="0" y="0" width="1100" height="500" style="fill: rgb(255, 255, 255); fill-opacity: 1;"/><defs id="defs-a86cff"><g class="clips"><clipPath id="clipa86cffxyplot" class="plotclip"><rect width="1021" height="385"/></clipPath><clipPath class="axesclip" id="clipa86cffx"><rect x="60" y="0" width="1021" height="500"/></clipPath><clipPath class="axesclip" id="clipa86cffy"><rect x="0" y="50" width="1100" height="385"/></clipPath><clipPath class="axesclip" id="clipa86cffxy"><rect x="60" y="50" width="1021" height="385"/></clipPath></g><g class="gradients"/><g class="patterns"/></defs><g class="bglayer"/><g class="layer-below"><g class="imagelayer"/><g class="shapelayer"/></g><g class="cartesianlayer"><g class="subplot xy"><g class="layer-subplot"><g class="shapelayer"/><g class="imagelayer"/></g><g class="minor-gridlayer"><g class="x"/><g class="y"/></g><g class="gridlayer"><g class="x"><path class="xgrid crisp" transform="translate(253.99,0)" d="M0,50v385" style="stroke: rgb(0, 0, 0); stroke-opacity: 0.05; stroke-width: 1px;"/><path class="xgrid crisp" transform="translate(458.19,0)" d="M0,50v385" style="stroke: rgb(0, 0, 0); stroke-opacity: 0.05; stroke-width: 1px;"/><path class="xgrid crisp" transform="translate(662.39,0)" d="M0,50v385" style="stroke: rgb(0, 0, 0); stroke-opacity: 0.05; stroke-width: 1px;"/><path class="xgrid crisp" transform="translate(866.59,0)" d="M0,50v385" style="stroke: rgb(0, 0, 0); stroke-opacity: 0.05; stroke-width: 1px;"/><path class="xgrid crisp" transform="translate(1070.79,0)" d="M0,50v385" style="stroke: rgb(0, 0, 0); stroke-opacity: 0.05; stroke-width: 1px;"/></g><g class="y"><path class="ygrid crisp" transform="translate(0,378.01)" d="M60,0h1021" style="stroke: rgb(0, 0, 0); stroke-opacity: 0.05; stroke-width: 1px;"/><path class="ygrid crisp" transform="translate(0,321.03)" d="M60,0h1021" style="stroke: rgb(0, 0, 0); stroke-opacity: 0.05; stroke-width: 1px;"/><path class="ygrid crisp" transform="translate(0,264.03999999999996)" d="M60,0h1021" style="stroke: rgb(0, 0, 0); stroke-opacity: 0.05; stroke-width: 1px;"/><path class="ygrid crisp" transform="translate(0,207.06)" d="M60,0h1021" style="stroke: rgb(0, 0, 0); stroke-opacity: 0.05; stroke-width: 1px;"/><path class="ygrid crisp" transform="translate(0,150.07)" d="M60,0h1021" style="stroke: rgb(0, 0, 0); stroke-opacity: 0.05; stroke-width: 1px;"/><path class="ygrid crisp" transform="translate(0,93.09)" d="M60,0h1021" style="stroke: rgb(0, 0, 0); stroke-opacity: 0.05; stroke-width: 1px;"/></g></g><g class="zerolinelayer"><path class="yzl zl crisp" transform="translate(0,435)" d="M60,0h1021" style="stroke: rgb(0, 0, 0); stroke-opacity: 0.05; stroke-width: 1px;"/></g><g class="layer-between"><g class="shapelayer"/><g class="imagelayer"/></g><path class="xlines-below"/><path class="ylines-below"/><g class="overlines-below"/><g class="xaxislayer-below"/><g class="yaxislayer-below"/><g class="overaxes-below"/><g class="overplot"><g class="xy" transform="translate(60,50)" clip-path="url(#clipa86cffxyplot)"><g class="scatterlayer mlayer"><g class="trace scatter tracef5a776" style="stroke-miterlimit: 2; opacity: 1;"><g class="fills"/><g class="errorbars"/><g class="lines"><path class="js-line" d="M0,384.96L81.68,384.51L91.89,383.48L102.1,378.6L112.31,380.18L122.52,351.51L132.73,382.19L153.15,317.67L163.36,371.85L173.57,338.97L183.78,353.61L193.99,373.08L204.2,351.25L214.41,351.69L224.62,334.68L234.83,357.56L245.04,360.01L255.25,376.06L265.46,354.05L275.67,378.86L285.88,364.49L296.09,369.57L306.3,365.71L316.51,362.73L326.72,372.99L336.93,373.52L347.14,381.05L357.35,375.18L367.56,371.5L377.77,381.58L387.98,377.2L398.19,379.21L408.4,379.65L428.82,379.21L439.03,379.74L449.24,375.44L459.45,383.42L469.66,381.84L479.87,383.6L490.08,380.7L500.29,381.05L520.71,382.9L530.92,382.72L541.13,383.86L551.34,384.04L571.76,384.39L581.97,384.04L592.18,384.82L602.39,384.39L622.81,384.21L633.02,384.91L643.23,383.86L653.44,384.12L663.65,384.04L673.86,384.91L684.07,383.68L694.28,384.3L755.54,384.04L765.75,384.65L786.17,383.77L796.38,384.3L806.59,384.91L816.8,383.25L847.43,384.82L857.64,383.6L878.06,383.33L888.27,384.3L898.48,382.46L908.69,384.91L929.11,384.21L939.32,383.68L959.74,384.47L969.95,384.47L1000.58,383.68L1010.79,381.14L1021,253.15" style="vector-effect: none; fill: none; stroke: rgb(124, 181, 236); stroke-opacity: 1; stroke-width: 2px; opacity: 1;"/></g><g class="points"/><g class="text"/></g><g class="trace scatter traceb4842c" style="stroke-miterlimit: 2; opacity: 1;"><g class="fills"/><g class="errorbars"/><g class="lines"><path class="js-line" d="M0,384.96L81.68,384.56L91.89,384.01L102.1,380.35L112.31,375.71L122.52,363.26L132.73,374.48L142.94,363.17L153.15,367.82L163.36,312.06L173.57,344.58L183.78,369.39L193.99,373.25L204.2,379.3L214.41,362.03L224.62,376.41L234.83,364.31L245.04,378.69L255.25,376.58L265.46,373.52L275.67,372.11L285.88,376.32L296.09,377.64L306.3,374.13L316.51,380.53L336.93,372.64L347.14,381.32L357.35,380.7L367.56,379.3L377.77,381.32L387.98,378.25L398.19,382.81L408.4,379.48L418.61,376.76L428.82,381.67L439.03,383.51L449.24,378.86L459.45,382.9L469.66,382.11L479.87,382.37L490.08,379.48L500.29,382.81L510.5,382.46L530.92,383.77L541.13,383.07L551.34,382.81L561.55,383.6L571.76,382.28L581.97,383.77L612.6,383.16L622.81,380.09L633.02,383.77L643.23,383.16L653.44,380.7L663.65,383.16L673.86,383.86L684.07,381.49L694.28,383.25L704.49,380.97L714.7,384.3L724.91,381.49L745.33,383.42L755.54,383.33L765.75,382.46L775.96,378.95L796.38,383.07L806.59,381.84L816.8,383.42L827.01,384.04L837.22,384.04L847.43,380.97L867.85,383.6L878.06,381.93L898.48,383.95L908.69,383.07L918.9,384.3L929.11,383.95L949.53,382.19L959.74,382.81L980.16,383.86L990.37,383.51L1000.58,383.77L1010.79,381.41L1021,295.75" style="vector-effect: none; fill: none; stroke: rgb(67, 67, 72); stroke-opacity: 1; stroke-width: 2px; opacity: 1;"/></g><g class="points"/><g class="text"/></g><g class="trace scatter trace0eb7bc" style="stroke-miterlimit: 2; opacity: 1;"><g class="fills"/><g class="errorbars"/><g class="lines"><path class="js-line" d="M0,384.96L81.68,384.52L91.89,383.74L102.1,379.82L112.31,380.06L122.52,353.09L132.73,382.19L142.94,356.43L153.15,315.33L163.36,373.22L173.57,335.23L183.78,357.42L193.99,373.22L204.2,352.18L214.41,357.57L224.62,340.32L234.83,359.47L245.04,362.51L255.25,374.44L265.46,352.56L275.67,380.29L285.88,368.36L296.09,370.79L306.3,370.18L316.51,364.33L326.72,378.24L336.93,373.91L347.14,372.77L357.35,373.75L387.98,378.16L398.19,378.24L408.4,378.62L418.61,380.44L428.82,379.99L439.03,380.52L449.24,376.03L459.45,381.66L469.66,381.2L479.87,383.25L490.08,379L500.29,383.71L510.5,382.49L520.71,382.87L541.13,384.54L551.34,384.39L581.97,383.33L592.18,384.85L602.39,383.94L612.6,384.24L633.02,384.16L643.23,383.18L653.44,382.49L663.65,383.86L673.86,384.47L684.07,383.71L694.28,384.47L704.49,383.63L714.7,384.24L724.91,383.71L735.12,384.54L745.33,384.47L765.75,384.62L775.96,383.71L786.17,382.11L796.38,384.47L806.59,384.47L816.8,382.19L837.22,383.56L847.43,383.94L867.85,382.8L878.06,383.78L888.27,384.01L898.48,380.67L908.69,384.24L918.9,383.56L929.11,384.54L939.32,384.24L969.95,384.24L980.16,383.33L990.37,383.86L1000.58,383.48L1010.79,380.21L1021,320.42" style="vector-effect: none; fill: none; stroke: rgb(144, 237, 125); stroke-opacity: 1; stroke-width: 2px; opacity: 1;"/></g><g class="points"/><g class="text"/></g><g class="trace scatter traceb70c64" style="stroke-miterlimit: 2; opacity: 1;"><g class="fills"/><g class="errorbars"/><g class="lines"><path class="js-line" d="M0,384.96L81.68,384.42L91.89,383.9L102.1,378.24L112.31,371.1L122.52,356.89L132.73,362.51L153.15,365.78L163.36,201.51L173.57,335.92L183.78,349.82L193.99,370.72L204.2,376.72L214.41,355.29L224.62,376.34L234.83,364.41L245.04,377.71L255.25,373.53L265.46,360.31L275.67,361.14L285.88,368.59L296.09,373.91L306.3,371.17L316.51,378.47L326.72,370.18L336.93,364.41L347.14,377.17L357.35,378.39L367.56,371.4L377.77,378.85L387.98,378.92L398.19,381.81L408.4,376.57L418.61,361.07L428.82,381.73L439.03,380.75L449.24,373.91L459.45,380.21L469.66,381.2L479.87,381.28L490.08,374.29L500.29,381.58L510.5,380.75L541.13,383.02L551.34,381.28L561.55,382.26L571.76,381.28L581.97,381.73L592.18,383.33L602.39,381.2L612.6,381.58L622.81,373.3L633.02,382.11L653.44,380.82L663.65,382.19L673.86,382.19L684.07,380.52L694.28,381.58L704.49,377.25L714.7,383.71L724.91,376.79L745.33,381.88L755.54,382.8L765.75,380.75L775.96,369.12L786.17,378.01L796.38,382.87L806.59,380.67L816.8,383.02L827.01,381.2L837.22,383.02L847.43,372.24L857.64,381.66L867.85,382.04L878.06,380.29L888.27,381.13L898.48,383.33L908.69,377.17L918.9,382.87L929.11,381.58L939.32,381.66L949.53,380.9L959.74,381.66L990.37,382.87L1000.58,382.95L1010.79,377.33L1021,340.7" style="vector-effect: none; fill: none; stroke: rgb(247, 163, 92); stroke-opacity: 1; stroke-width: 2px; opacity: 1;"/></g><g class="points"/><g class="text"/></g><g class="trace scatter trace00e9b3" style="stroke-miterlimit: 2; opacity: 1;"><g class="fills"/><g class="errorbars"/><g class="lines"><path class="js-line" d="M0,384.96L81.68,384.51L91.89,383.82L102.1,378.44L112.31,381.87L122.52,354.89L132.73,380.35L142.94,350.33L153.15,312.63L163.36,368.57L173.57,326.88L183.78,353.75L193.99,371.04L204.2,348.43L214.41,350.05L224.62,332.86L234.83,358.22L245.04,357.55L255.25,373.32L265.46,352.14L275.67,379.59L285.88,362.97L296.09,369.42L306.3,364.58L316.51,361.83L326.72,378.35L336.93,370.09L347.14,374.55L357.35,376.64L367.56,375.6L377.77,371.23L387.98,381.49L398.19,378.54L408.4,375.22L418.61,379.4L428.82,382.15L439.03,378.45L449.24,374.55L459.45,381.96L479.87,381.77L490.08,378.64L510.5,380.44L520.71,382.34L541.13,381.3L551.34,383.77L561.55,383.48L571.76,384.24L592.18,383.67L602.39,383.67L612.6,384.34L622.81,383.48L633.02,382.91L643.23,384.05L684.07,383.77L694.28,382.91L704.49,383.67L714.7,383.48L724.91,384.62L735.12,384.72L745.33,383.67L755.54,384.05L775.96,383.86L786.17,383.77L796.38,384.24L806.59,383.86L837.22,383.58L847.43,383.86L857.64,384.43L867.85,383.96L878.06,383.2L888.27,384.24L898.48,383.48L908.69,384.05L918.9,383.67L929.11,384.53L949.53,384.34L959.74,384.53L969.95,384.72L980.16,384.05L990.37,382.34L1000.58,382.06L1010.79,380.82L1021,19.25" style="vector-effect: none; fill: none; stroke: rgb(128, 133, 233); stroke-opacity: 1; stroke-width: 2px; opacity: 1;"/></g><g class="points"/><g class="text"/></g><g class="trace scatter tracec03abe" style="stroke-miterlimit: 2; opacity: 1;"><g class="fills"/><g class="errorbars"/><g class="lines"><path class="js-line" d="M0,384.97L91.89,384.33L102.1,379.25L112.31,378.45L122.52,358.03L132.73,377.78L142.94,357.17L153.15,364.3L163.36,347.39L173.57,349.86L183.78,376.64L193.99,375.6L204.2,377.97L214.41,356.98L224.62,376.64L234.83,362.21L245.04,379.21L255.25,378.73L265.46,375.88L275.67,374.74L285.88,377.88L296.09,377.97L306.3,373.89L316.51,380.73L326.72,377.78L336.93,374.93L347.14,380.82L357.35,381.49L367.56,380.35L377.77,379.4L387.98,382.44L418.61,379.3L428.82,382.63L439.03,382.53L449.24,380.16L459.45,383.58L469.66,382.34L479.87,382.72L490.08,381.01L500.29,383.77L510.5,383.39L520.71,384.05L530.92,383.86L541.13,384.24L551.34,383.67L561.55,384.43L571.76,383.48L602.39,383.58L612.6,383.67L633.02,383.67L643.23,384.15L653.44,382.44L663.65,383.2L684.07,384.05L694.28,383.48L704.49,383.2L714.7,384.24L724.91,382.91L735.12,383.48L765.75,384.34L775.96,383.29L796.38,383.29L806.59,383.96L837.22,384.24L847.43,382.53L867.85,384.43L878.06,383.29L898.48,384.34L908.69,383.01L929.11,384.34L939.32,384.05L949.53,381.68L959.74,383.77L969.95,382.63L980.16,383.2L1000.58,383.67L1010.79,382.91L1021,152.12" style="vector-effect: none; fill: none; stroke: rgb(241, 92, 128); stroke-opacity: 1; stroke-width: 2px; opacity: 1;"/></g><g class="points"/><g class="text"/></g><g class="trace scatter tracee1b903" style="stroke-miterlimit: 2; opacity: 1;"><g class="fills"/><g class="errorbars"/><g class="lines"><path class="js-line" d="M0,384.96L81.68,384.56L91.89,383.62L102.1,378.39L112.31,380.03L122.52,354.39L132.73,381.01L142.94,355.53L153.15,320.44L163.36,371.32L173.57,336.4L183.78,350.16L193.99,371.49L204.2,354.15L214.41,355.53L224.62,341.53L234.83,358.62L245.04,361.07L255.25,374.58L265.46,355.2L275.67,379.87L285.88,365.87L296.09,371.81L306.3,368.56L316.51,361.72L326.72,378.98L336.93,376.62L347.14,376.21L357.35,374.17L367.56,376.37L377.77,373.85L387.98,381.91L398.19,371.16L408.4,383.05L418.61,381.74L428.82,383.62L439.03,380.77L449.24,375.88L459.45,381.66L469.66,381.34L479.87,383.05L490.08,378.73L500.29,382.31L520.71,381.58L530.92,382.64L541.13,383.94L551.34,383.62L571.76,384.35L581.97,383.62L592.18,384.59L602.39,383.62L612.6,383.29L622.81,384.27L633.02,383.62L643.23,380.93L663.65,383.78L673.86,384.19L704.49,384.02L714.7,383.37L724.91,382.72L735.12,383.94L755.54,384.76L765.75,384.51L786.17,381.99L796.38,383.94L806.59,384.1L816.8,382.39L827.01,383.05L837.22,384.51L867.85,382.8L878.06,383.37L888.27,383.86L898.48,382.15L908.69,384.1L918.9,383.29L929.11,384.76L939.32,383.62L949.53,384.76L959.74,384.02L969.95,384.1L980.16,383.37L990.37,382.48L1000.58,383.29L1010.79,379.14L1021,246.36" style="vector-effect: none; fill: none; stroke: rgb(228, 211, 84); stroke-opacity: 1; stroke-width: 2px; opacity: 1;"/></g><g class="points"/><g class="text"/></g><g class="trace scatter tracec2e819" style="stroke-miterlimit: 2; opacity: 1;"><g class="fills"/><g class="errorbars"/><g class="lines"><path class="js-line" d="M0,384.96L81.68,384.28L91.89,383.73L102.1,377.56L112.31,366.19L122.52,360.66L132.73,348.77L142.94,365.06L153.15,367.99L163.36,97.39L173.57,332.25L183.78,332.66L193.99,372.63L204.2,376.37L214.41,355.69L224.62,376.13L234.83,364.89L245.04,376.7L255.25,371.24L265.46,351.38L275.67,354.07L296.09,374.99L306.3,368.47L316.51,378.49L326.72,360.9L336.93,357.24L347.14,378L357.35,381.17L367.56,377.75L377.77,374.58L387.98,375.23L398.19,383.05L408.4,376.21L418.61,356.18L428.82,381.91L439.03,381.5L449.24,372.63L459.45,382.07L469.66,381.17L479.87,380.44L490.08,370.92L500.29,383.45L510.5,380.93L541.13,383.7L551.34,381.26L561.55,382.96L571.76,381.17L592.18,383.21L602.39,382.07L612.6,383.37L622.81,376.29L633.02,382.64L643.23,383.13L653.44,381.91L663.65,382.72L673.86,382.88L684.07,381.74L694.28,381.58L704.49,379.71L714.7,383.45L724.91,378.24L735.12,381.01L745.33,382.8L755.54,383.21L765.75,380.85L775.96,372.95L786.17,380.03L796.38,383.53L806.59,381.42L816.8,383.29L827.01,382.88L837.22,382.48L847.43,375.31L857.64,382.31L867.85,383.21L878.06,380.6L888.27,380.85L898.48,383.62L908.69,377.43L918.9,384.1L929.11,383.86L939.32,381.99L949.53,383.05L980.16,382.88L990.37,382.96L1000.58,383.86L1010.79,379.79L1021,297.49" style="vector-effect: none; fill: none; stroke: rgb(43, 144, 143); stroke-opacity: 1; stroke-width: 2px; opacity: 1;"/></g><g class="points"/><g class="text"/></g><g class="trace scatter tracea9987b" style="stroke-miterlimit: 2; opacity: 1;"><g class="fills"/><g class="errorbars"/><g class="lines"><path class="js-line" d="M0,384.96L81.68,384.61L91.89,383.81L102.1,380.26L112.31,381.87L122.52,352.87L132.73,383.01L142.94,356.15L153.15,319.54L163.36,371.54L173.57,336.14L183.78,359.5L193.99,374.96L204.2,356.22L214.41,355.8L224.62,340.84L234.83,360.78L245.04,361.21L255.25,377.02L265.46,355.01L275.67,380.3L285.88,364.27L296.09,370.82L316.51,365.77L326.72,379.94L336.93,374.1L347.14,375.88L357.35,374.74L367.56,375.6L387.98,374.6L398.19,378.09L408.4,382.51L418.61,379.73L428.82,380.44L439.03,380.16L449.24,376.59L459.45,383.29L469.66,384L479.87,383.93L490.08,382.58L500.29,383.65L520.71,383.29L530.92,382.51L551.34,383.72L561.55,384.43L867.85,384.36L878.06,383.65L888.27,384.64L898.48,383.01L908.69,384.86L918.9,384.36L959.74,384.79L969.95,384.79L990.37,383.79L1000.58,384.22L1010.79,384L1021,318.47" style="vector-effect: none; fill: none; stroke: rgb(244, 91, 91); stroke-opacity: 1; stroke-width: 2px; opacity: 1;"/></g><g class="points"/><g class="text"/></g><g class="trace scatter trace06930e" style="stroke-miterlimit: 2; opacity: 1;"><g class="fills"/><g class="errorbars"/><g class="lines"><path class="js-line" d="M0,384.97L91.89,384.44L102.1,380.84L112.31,377.31L122.52,364.06L132.73,374.96L142.94,363.92L153.15,368.9L163.36,291.12L173.57,350.74L183.78,365.06L193.99,376.02L204.2,378.66L214.41,359.71L224.62,378.52L234.83,367.69L245.04,379.37L255.25,378.59L265.46,371.68L275.67,373.39L285.88,375.95L296.09,378.66L306.3,375.74L316.51,381.94L326.72,374.39L336.93,372.68L347.14,379.44L357.35,381.94L367.56,380.37L377.77,378.73L387.98,381.15L408.4,380.65L418.61,372.53L428.82,383.36L439.03,383.29L449.24,378.3L459.45,382.44L479.87,382.93L490.08,378.52L500.29,383.65L510.5,383.36L520.71,383.15L530.92,384L541.13,384.36L551.34,382.65L561.55,384.22L571.76,382.86L592.18,384.29L602.39,384.36L612.6,383.43L622.81,379.09L633.02,383.36L643.23,384.43L653.44,382.72L663.65,383.93L673.86,384.43L684.07,383.79L694.28,383.86L704.49,381.94L714.7,384.36L724.91,380.44L745.33,383.72L755.54,384.07L765.75,383.72L775.96,378.52L786.17,382.01L796.38,384.64L806.59,383.29L816.8,383.79L827.01,383.65L837.22,384.5L847.43,379.87L857.64,383.86L867.85,384.29L878.06,383.15L888.27,384.15L898.48,383.29L908.69,381.72L918.9,384.43L959.74,383.36L969.95,384.07L1000.58,384.29L1010.79,381.58L1021,339.13" style="vector-effect: none; fill: none; stroke: rgb(145, 232, 225); stroke-opacity: 1; stroke-width: 2px; opacity: 1;"/></g><g class="points"/><g class="text"/></g><g class="trace scatter tracea94ff8" style="stroke-miterlimit: 2; opacity: 1;"><g class="fills"/><g class="errorbars"/><g class="lines"><path class="js-line" d="M0,384.96L81.68,384.59L91.89,383.76L102.1,379.3L112.31,381.15L122.52,355.23L132.73,382.08L142.94,357.43L153.15,317.83L163.36,372.89L173.57,339.98L183.78,355.94L193.99,374.1L204.2,353.09L214.41,360L224.62,337.77L234.83,359.78L245.04,363.13L255.25,376.02L265.46,353.66L275.67,378.87L285.88,367.62L296.09,369.83L306.3,369.69L316.51,366.55L326.72,379.16L336.93,373.46L347.14,376.31L357.35,375.1L387.98,377.24L398.19,375.81L408.4,374.03L418.61,383.36L439.03,381.22L449.24,375.95L459.45,382.36L469.66,382.93L479.87,383.65L490.08,379.3L500.29,383.36L510.5,382.72L551.34,384.93L561.55,384.22L571.76,384.86L581.97,384.29L643.23,384.72L653.44,383.93L663.65,384.79L673.86,384.5L796.38,383.79L806.59,384.72L816.8,383.29L827.01,384.15L837.22,384.93L847.43,384.57L878.06,383.29L888.27,384.86L898.48,383.22L908.69,384.5L929.11,384.5L939.32,384.64L969.95,384.57L980.16,382.58L990.37,383.93L1000.58,384.22L1010.79,382.58L1021,303.01" style="vector-effect: none; fill: none; stroke: rgb(124, 181, 236); stroke-opacity: 1; stroke-width: 2px; opacity: 1;"/></g><g class="points"/><g class="text"/></g><g class="trace scatter trace22f822" style="stroke-miterlimit: 2; opacity: 1;"><g class="fills"/><g class="errorbars"/><g class="lines"><path class="js-line" d="M0,384.96L81.68,384.54L91.89,384.26L112.31,374.96L122.52,363.92L132.73,371.32L142.94,365.2L153.15,368.9L163.36,283.78L173.57,352.16L183.78,364.7L193.99,373.32L204.2,380.01L214.41,360.5L224.62,377.88L234.83,365.41L245.04,379.59L255.25,377.59L265.46,367.19L275.67,369.83L285.88,374.96L296.09,376.81L306.3,374.6L316.51,379.8L326.72,374.39L336.93,370.68L347.14,380.09L357.35,379.16L367.56,380.51L377.77,378.45L387.98,381.22L398.19,381.37L408.4,379.73L418.61,371.68L428.82,382.65L439.03,383.43L449.24,377.73L459.45,382.65L469.66,382.15L479.87,383.01L490.08,377.88L500.29,383.29L510.5,382.44L520.71,382.36L530.92,383.15L541.13,384.07L551.34,383.29L561.55,383.79L571.76,382.86L581.97,381.87L592.18,383.36L602.39,380.58L612.6,382.44L622.81,376.81L633.02,382.51L643.23,381.01L653.44,382.15L663.65,382.44L673.86,381.51L694.28,383.15L704.49,379.44L714.7,383.36L724.91,379.09L735.12,381.37L745.33,382.86L755.54,383.65L765.75,382.44L775.96,376.81L786.17,380.58L796.38,383.22L806.59,382.86L816.8,383.58L827.01,382.93L837.22,383.65L847.43,376.74L857.64,383.01L867.85,382.86L878.06,382.29L888.27,382.58L898.48,383.22L908.69,381.08L918.9,382.79L929.11,383.5L939.32,382.51L949.53,383.29L959.74,382.65L969.95,383.58L980.16,384.5L990.37,383.86L1000.58,384.57L1010.79,381.08L1021,331.93" style="vector-effect: none; fill: none; stroke: rgb(67, 67, 72); stroke-opacity: 1; stroke-width: 2px; opacity: 1;"/></g><g class="points"/><g class="text"/></g></g></g></g><path class="xlines-above crisp" d="M0,0" style="fill: none;"/><path class="ylines-above crisp" d="M0,0" style="fill: none;"/><g class="overlines-above"/><g class="xaxislayer-above"><g class="xtick"><text text-anchor="middle" x="0" y="451" transform="translate(253.99,0)" style="font-family: 'Lucida Grande', 'Open Sans', verdana, arial, sans-serif; font-size: 10px; fill: rgb(0, 0, 0); fill-opacity: 1; white-space: pre; opacity: 1;">20 bp</text></g><g class="xtick"><text text-anchor="middle" x="0" y="451" style="font-family: 'Lucida Grande', 'Open Sans', verdana, arial, sans-serif; font-size: 10px; fill: rgb(0, 0, 0); fill-opacity: 1; white-space: pre; opacity: 1;" transform="translate(458.19,0)">40 bp</text></g><g class="xtick"><text text-anchor="middle" x="0" y="451" style="font-family: 'Lucida Grande', 'Open Sans', verdana, arial, sans-serif; font-size: 10px; fill: rgb(0, 0, 0); fill-opacity: 1; white-space: pre; opacity: 1;" transform="translate(662.39,0)">60 bp</text></g><g class="xtick"><text text-anchor="middle" x="0" y="451" style="font-family: 'Lucida Grande', 'Open Sans', verdana, arial, sans-serif; font-size: 10px; fill: rgb(0, 0, 0); fill-opacity: 1; white-space: pre; opacity: 1;" transform="translate(866.59,0)">80 bp</text></g><g class="xtick"><text text-anchor="middle" x="0" y="451" style="font-family: 'Lucida Grande', 'Open Sans', verdana, arial, sans-serif; font-size: 10px; fill: rgb(0, 0, 0); fill-opacity: 1; white-space: pre; opacity: 1;" transform="translate(1070.79,0)">100 bp</text></g></g><g class="yaxislayer-above"><g class="ytick"><text text-anchor="end" x="54" y="3.5" transform="translate(0,435)" style="font-family: 'Lucida Grande', 'Open Sans', verdana, arial, sans-serif; font-size: 10px; fill: rgb(0, 0, 0); fill-opacity: 1; white-space: pre; opacity: 1;">0</text></g><g class="ytick"><text text-anchor="end" x="54" y="3.5" style="font-family: 'Lucida Grande', 'Open Sans', verdana, arial, sans-serif; font-size: 10px; fill: rgb(0, 0, 0); fill-opacity: 1; white-space: pre; opacity: 1;" transform="translate(0,378.01)">500</text></g><g class="ytick"><text text-anchor="end" x="54" y="3.5" style="font-family: 'Lucida Grande', 'Open Sans', verdana, arial, sans-serif; font-size: 10px; fill: rgb(0, 0, 0); fill-opacity: 1; white-space: pre; opacity: 1;" transform="translate(0,321.03)">1000</text></g><g class="ytick"><text text-anchor="end" x="54" y="3.5" style="font-family: 'Lucida Grande', 'Open Sans', verdana, arial, sans-serif; font-size: 10px; fill: rgb(0, 0, 0); fill-opacity: 1; white-space: pre; opacity: 1;" transform="translate(0,264.03999999999996)">1500</text></g><g class="ytick"><text text-anchor="end" x="54" y="3.5" style="font-family: 'Lucida Grande', 'Open Sans', verdana, arial, sans-serif; font-size: 10px; fill: rgb(0, 0, 0); fill-opacity: 1; white-space: pre; opacity: 1;" transform="translate(0,207.06)">2000</text></g><g class="ytick"><text text-anchor="end" x="54" y="3.5" style="font-family: 'Lucida Grande', 'Open Sans', verdana, arial, sans-serif; font-size: 10px; fill: rgb(0, 0, 0); fill-opacity: 1; white-space: pre; opacity: 1;" transform="translate(0,150.07)">2500</text></g><g class="ytick"><text text-anchor="end" x="54" y="3.5" style="font-family: 'Lucida Grande', 'Open Sans', verdana, arial, sans-serif; font-size: 10px; fill: rgb(0, 0, 0); fill-opacity: 1; white-space: pre; opacity: 1;" transform="translate(0,93.09)">3000</text></g></g><g class="overaxes-above"/></g></g><g class="polarlayer"/><g class="smithlayer"/><g class="ternarylayer"/><g class="geolayer"/><g class="funnelarealayer"/><g class="pielayer"/><g class="iciclelayer"/><g class="treemaplayer"/><g class="sunburstlayer"/><g class="glimages"/><defs id="topdefs-a86cff"><g class="clips"/></defs><g class="layer-above"><g class="imagelayer"/><g class="shapelayer"/></g><g class="infolayer"><g class="g-gtitle"><text class="gtitle" x="550" y="25" text-anchor="middle" dy="0em" style="opacity: 1; font-family: 'Lucida Grande', 'Open Sans', verdana, arial, sans-serif; font-size: 20px; fill: rgb(68, 68, 68); fill-opacity: 1; white-space: pre;"><tspan class="line" dy="0em" x="550" y="25">Cutadapt: Lengths of Trimmed Sequences (3' end)</tspan><tspan class="line" dy="1.3em" x="550" y="25">​<tspan style="font-size:70%" dy="-0.6em">Obs/Exp, 12 samples</tspan><tspan dy="0.42em">​</tspan></tspan></text></g><g class="g-xtitle"><text class="xtitle" x="570.5" y="487" text-anchor="middle" style="opacity: 0.3; font-family: 'Lucida Grande', 'Open Sans', verdana, arial, sans-serif; font-size: 14px; fill: rgb(0, 0, 0); fill-opacity: 1; white-space: pre;">Length Trimmed (bp)</text></g><g class="g-ytitle"><text class="ytitle" transform="rotate(-90,22,242.5)" x="22" y="242.5" text-anchor="middle" style="opacity: 0.3; font-family: 'Lucida Grande', 'Open Sans', verdana, arial, sans-serif; font-size: 14px; fill: rgb(0, 0, 0); fill-opacity: 1; white-space: pre;">Observed / Expected</text></g></g></svg>