<svg class="main-svg" xmlns="http://www.w3.org/2000/svg" xmlns:xlink="http://www.w3.org/1999/xlink" width="2200" height="1000" style="" viewBox="0 0 1100 500"><rect x="0" y="0" width="1100" height="500" style="fill: rgb(255, 255, 255); fill-opacity: 1;"/><defs id="defs-579550"><g class="clips"><clipPath id="clip579550xyplot" class="plotclip"><rect width="1014" height="385"/></clipPath><clipPath class="axesclip" id="clip579550x"><rect x="60" y="0" width="1014" height="500"/></clipPath><clipPath class="axesclip" id="clip579550y"><rect x="0" y="50" width="1100" height="385"/></clipPath><clipPath class="axesclip" id="clip579550xy"><rect x="60" y="50" width="1014" height="385"/></clipPath></g><g class="gradients"/><g class="patterns"/></defs><g class="bglayer"/><g class="layer-below"><g class="imagelayer"/><g class="shapelayer"/></g><g class="cartesianlayer"><g class="subplot xy"><g class="layer-subplot"><g class="shapelayer"/><g class="imagelayer"/></g><g class="minor-gridlayer"><g class="x"/><g class="y"/></g><g class="gridlayer"><g class="x"><path class="xgrid crisp" transform="translate(262.8,0)" d="M0,50v385" style="stroke: rgb(0, 0, 0); stroke-opacity: 0.05; stroke-width: 1px;"/><path class="xgrid crisp" transform="translate(465.6,0)" d="M0,50v385" style="stroke: rgb(0, 0, 0); stroke-opacity: 0.05; stroke-width: 1px;"/><path class="xgrid crisp" transform="translate(668.4,0)" d="M0,50v385" style="stroke: rgb(0, 0, 0); stroke-opacity: 0.05; stroke-width: 1px;"/><path class="xgrid crisp" transform="translate(871.2,0)" d="M0,50v385" style="stroke: rgb(0, 0, 0); stroke-opacity: 0.05; stroke-width: 1px;"/></g><g class="y"><path class="ygrid crisp" transform="translate(0,381.1)" d="M60,0h1014" style="stroke: rgb(0, 0, 0); stroke-opacity: 0.05; stroke-width: 1px;"/><path class="ygrid crisp" transform="translate(0,327.19)" d="M60,0h1014" style="stroke: rgb(0, 0, 0); stroke-opacity: 0.05; stroke-width: 1px;"/><path class="ygrid crisp" transform="translate(0,273.28999999999996)" d="M60,0h1014" style="stroke: rgb(0, 0, 0); stroke-opacity: 0.05; stroke-width: 1px;"/><path class="ygrid crisp" transform="translate(0,219.38)" d="M60,0h1014" style="stroke: rgb(0, 0, 0); stroke-opacity: 0.05; stroke-width: 1px;"/><path class="ygrid crisp" transform="translate(0,165.48000000000002)" d="M60,0h1014" style="stroke: rgb(0, 0, 0); stroke-opacity: 0.05; stroke-width: 1px;"/><path class="ygrid crisp" transform="translate(0,111.57)" d="M60,0h1014" style="stroke: rgb(0, 0, 0); stroke-opacity: 0.05; stroke-width: 1px;"/><path class="ygrid crisp" transform="translate(0,57.67)" d="M60,0h1014" style="stroke: rgb(0, 0, 0); stroke-opacity: 0.05; stroke-width: 1px;"/></g></g><g class="zerolinelayer"><path class="xzl zl crisp" transform="translate(60,0)" d="M0,50v385" style="stroke: rgb(0, 0, 0); stroke-opacity: 0.05; stroke-width: 1px;"/><path class="yzl zl crisp" transform="translate(0,435)" d="M60,0h1014" style="stroke: rgb(0, 0, 0); stroke-opacity: 0.05; stroke-width: 1px;"/></g><g class="layer-between"><g class="shapelayer"/><g class="imagelayer"/></g><path class="xlines-below"/><path class="ylines-below"/><g class="overlines-below"/><g class="xaxislayer-below"/><g class="yaxislayer-below"/><g class="overaxes-below"/><g class="overplot"><g class="xy" transform="translate(60,50)" clip-path="url(#clip579550xyplot)"><g class="scatterlayer mlayer"><g class="trace scatter trace12d32d" style="stroke-miterlimit: 2; opacity: 1;"><g class="fills"/><g class="errorbars"/><g class="lines"><path class="js-line" d="M0,371.31L20.28,385L30.42,385L223.08,384.36L233.22,384.12L243.36,383.72L253.5,381.9L273.78,376.64L283.92,367.79L314.34,344.69L324.48,339.99L334.62,334.14L344.76,324.36L365.04,292.53L375.18,269.27L385.32,240.83L395.46,233.6L405.6,222.48L415.74,194.63L425.88,179.3L436.02,156.24L446.16,131.62L456.3,110.3L466.44,98.39L476.58,96.58L486.72,110.03L496.86,138.32L507,143.95L517.14,143.64L527.28,159.16L537.42,167.61L547.56,170.41L557.7,181.39L567.84,193.42L577.98,214.34L588.12,238.79L598.26,254.02L618.54,277.27L628.68,288.72L659.1,330.4L669.24,342.07L679.38,351.16L689.52,357.97L709.8,369.38L719.94,373.86L730.08,377.07L740.22,379.47L760.5,382.4L770.64,383.18L790.92,384.24L801.06,384.39L861.9,384.98L872.04,384.99L1014,385" style="vector-effect: none; fill: none; stroke: rgb(240, 173, 78); stroke-opacity: 1; stroke-width: 2px; opacity: 1;"/></g><g class="points"/><g class="text"/></g><g class="trace scatter trace551ba4" style="stroke-miterlimit: 2; opacity: 1;"><g class="fills"/><g class="errorbars"/><g class="lines"><path class="js-line" d="M0,371.2L20.28,385L30.42,385L223.08,384.54L233.22,384.12L243.36,383.54L253.5,380.87L263.64,377.91L273.78,376.22L294.06,367.68L304.2,357.64L314.34,343.98L324.48,337.4L334.62,329.92L344.76,313.87L354.9,299.67L365.04,282.4L375.18,266.7L385.32,254.58L395.46,243.04L405.6,229.26L415.74,204.19L425.88,176.98L436.02,142.82L446.16,121.02L456.3,115.26L466.44,103.78L476.58,102.52L486.72,123.03L496.86,140.27L507,133.35L517.14,127.13L527.28,141.52L537.42,158.88L547.56,171.29L557.7,187.63L567.84,201.29L577.98,218.51L588.12,238.93L598.26,253.45L608.4,266.57L618.54,278.53L628.68,291.9L648.96,319.49L659.1,331.89L669.24,343.1L679.38,352.35L689.52,359.02L699.66,364.7L719.94,374.05L730.08,377.32L750.36,381.28L760.5,382.45L790.92,384.11L801.06,384.29L861.9,384.92L872.04,384.96L1003.86,384.86L1014,383.82" style="vector-effect: none; fill: none; stroke: rgb(240, 173, 78); stroke-opacity: 1; stroke-width: 2px; opacity: 1;"/></g><g class="points"/><g class="text"/></g><g class="trace scatter trace6c80a0" style="stroke-miterlimit: 2; opacity: 1;"><g class="fills"/><g class="errorbars"/><g class="lines"><path class="js-line" d="M0,378.37L20.28,385L30.42,385L212.94,384.37L223.08,384.11L243.36,383.47L253.5,381.98L273.78,376.52L283.92,366.87L294.06,358.52L304.2,348.93L314.34,339.68L324.48,334.95L334.62,327.37L344.76,315.5L354.9,296.33L365.04,273.97L385.32,220.93L395.46,214.8L405.6,203.6L415.74,172.26L446.16,108.53L456.3,91.64L466.44,85.38L476.58,90.18L486.72,108.18L496.86,138.94L507,148.17L517.14,142.5L527.28,147.1L537.42,146.79L547.56,145L557.7,145.77L567.84,146.49L577.98,164.65L588.12,187.14L598.26,196.89L608.4,203.34L618.54,217.12L669.24,308.01L679.38,322.99L689.52,334.46L699.66,344.68L719.94,362.57L730.08,370.25L740.22,374.67L750.36,378.01L770.64,381.64L780.78,382.77L811.2,384.3L821.34,384.57L892.32,385L902.46,385L1014,385" style="vector-effect: none; fill: none; stroke: rgb(240, 173, 78); stroke-opacity: 1; stroke-width: 2px; opacity: 1;"/></g><g class="points"/><g class="text"/></g><g class="trace scatter traceea304c" style="stroke-miterlimit: 2; opacity: 1;"><g class="fills"/><g class="errorbars"/><g class="lines"><path class="js-line" d="M0,378.31L20.28,385L30.42,385L223.08,384.34L233.22,383.95L243.36,383.32L253.5,380.9L273.78,375.1L283.92,369.95L294.06,364.41L304.2,353.62L314.34,339.07L324.48,330.19L334.62,319.91L344.76,301.77L354.9,285.35L365.04,266.17L375.18,247.55L385.32,234.2L395.46,223.26L405.6,207.7L425.88,152.05L436.02,119.01L446.16,98.76L456.3,94.89L466.44,90.77L476.58,98.62L486.72,119.79L496.86,136.43L507,131.52L517.14,120.24L527.28,127.14L537.42,141.66L547.56,149.62L557.7,152.87L567.84,156.74L577.98,170.78L588.12,186.41L598.26,195.71L608.4,208.09L618.54,223.09L628.68,237.75L638.82,254.45L659.1,293.88L669.24,310.56L679.38,325.43L689.52,336.36L709.8,356.78L719.94,364.65L730.08,370.76L740.22,375.06L750.36,378.25L760.5,380.41L780.78,382.68L790.92,383.38L831.48,384.65L841.62,384.73L973.44,384.96L983.58,384.95L1003.86,384.83L1014,383.57" style="vector-effect: none; fill: none; stroke: rgb(217, 83, 79); stroke-opacity: 1; stroke-width: 2px; opacity: 1;"/></g><g class="points"/><g class="text"/></g><g class="trace scatter trace996734" style="stroke-miterlimit: 2; opacity: 1;"><g class="fills"/><g class="errorbars"/><g class="lines"><path class="js-line" d="M0,352.73L20.28,385L30.42,385L141.96,384.71L152.1,384.2L172.38,383.17L182.52,381.37L192.66,377.96L202.8,377.66L212.94,377.51L223.08,375.31L233.22,376.14L243.36,378.87L253.5,379.99L263.64,378.76L273.78,376.89L283.92,372.12L304.2,365.18L314.34,357.42L324.48,346.84L334.62,334.4L344.76,327.8L354.9,312.73L365.04,279.85L375.18,265.17L385.32,263.71L395.46,264.06L405.6,256.83L415.74,235.31L436.02,211.75L446.16,198.72L456.3,186.35L466.44,179.08L476.58,179.39L486.72,188.42L496.86,188.02L507,167.45L517.14,142.25L527.28,124.87L537.42,109.93L547.56,106.04L567.84,122.92L577.98,143.97L588.12,184.61L598.26,229.74L608.4,263.01L618.54,289.98L638.82,333.31L648.96,346.85L659.1,354.14L669.24,357.97L679.38,361.7L689.52,367.55L699.66,371.52L709.8,373.38L719.94,375.82L730.08,377.02L750.36,379.64L760.5,380.6L770.64,380.03L780.78,380.63L790.92,380.44L801.06,379.31L831.48,382.37L841.62,382.68L861.9,384.72L872.04,384.95L1014,385" style="vector-effect: none; fill: none; stroke: rgb(217, 83, 79); stroke-opacity: 1; stroke-width: 2px; opacity: 1;"/></g><g class="points"/><g class="text"/></g><g class="trace scatter trace6a30b9" style="stroke-miterlimit: 2; opacity: 1;"><g class="fills"/><g class="errorbars"/><g class="lines"><path class="js-line" d="M0,352.44L20.28,385L30.42,385L111.54,384.51L121.68,383.92L141.96,383.32L152.1,380.02L172.38,378.16L182.52,378.65L192.66,379.29L202.8,378.22L212.94,379.89L223.08,379.64L243.36,379.39L253.5,377.66L263.64,375.22L273.78,374.16L283.92,374.8L294.06,371.54L304.2,364.47L314.34,352.25L324.48,336.48L334.62,325.76L344.76,310.72L354.9,302.58L365.04,298.54L375.18,288.63L405.6,257.89L415.74,241.22L425.88,223.81L436.02,202.81L446.16,191.3L456.3,190.28L466.44,184.34L476.58,181.42L486.72,193.08L496.86,192.39L507,168.23L517.14,141.59L527.28,119.85L537.42,112.22L547.56,116.94L557.7,114.23L567.84,111.14L577.98,145.09L588.12,194.43L598.26,224.18L608.4,255.02L618.54,291.57L628.68,318.66L638.82,336.3L648.96,345.28L659.1,350.82L669.24,359.66L679.38,366.42L689.52,369.51L699.66,371.59L709.8,372.95L719.94,375.16L730.08,378.06L740.22,379.18L750.36,378.72L760.5,379.49L780.78,380.87L790.92,379.96L801.06,378.57L811.2,378.26L821.34,378.87L831.48,380.88L851.76,381.88L861.9,383.96L882.18,384.96L892.32,384.97L1003.86,384.87L1014,384.1" style="vector-effect: none; fill: none; stroke: rgb(217, 83, 79); stroke-opacity: 1; stroke-width: 2px; opacity: 1;"/></g><g class="points"/><g class="text"/></g><g class="trace scatter trace36569e" style="stroke-miterlimit: 2; opacity: 1;"><g class="fills"/><g class="errorbars"/><g class="lines"><path class="js-line" d="M0,368.84L20.28,385L30.42,385L212.94,384.44L223.08,384.2L253.5,383.22L263.64,382.22L273.78,380.8L283.92,376.98L304.2,369.57L314.34,364.98L324.48,360.58L334.62,353.47L344.76,343.76L354.9,329.55L365.04,311.61L375.18,291.6L385.32,270.98L395.46,257.96L405.6,243.63L415.74,221.34L446.16,166.52L456.3,150.56L466.44,142.03L476.58,141.75L486.72,147.67L496.86,158.44L507,156.98L517.14,148.33L527.28,146.36L537.42,145.58L547.56,144.71L557.7,141.93L567.84,141.59L577.98,156.06L588.12,174.86L598.26,185.41L608.4,192.98L618.54,206.68L659.1,286.39L669.24,305.82L679.38,321.52L689.52,333.18L699.66,343.78L709.8,353.09L730.08,370.72L740.22,375L750.36,378.25L760.5,380.44L780.78,382.98L790.92,383.7L831.48,384.79L841.62,384.89L1014,385" style="vector-effect: none; fill: none; stroke: rgb(92, 184, 92); stroke-opacity: 1; stroke-width: 2px; opacity: 1;"/></g><g class="points"/><g class="text"/></g><g class="trace scatter tracee1447f" style="stroke-miterlimit: 2; opacity: 1;"><g class="fills"/><g class="errorbars"/><g class="lines"><path class="js-line" d="M0,368.71L20.28,385L30.42,385L233.22,384.31L243.36,384.02L273.78,380.93L283.92,378.83L294.06,376L304.2,371.33L324.48,358.4L334.62,350.11L354.9,324.63L365.04,308.49L385.32,274.86L395.46,259.02L405.6,242.46L415.74,222.11L425.88,202.16L436.02,178.51L446.16,160.96L456.3,151.58L466.44,142.59L476.58,144.3L486.72,152.37L496.86,156.48L517.14,132.28L527.28,136.57L537.42,141.99L547.56,144.61L557.7,144.8L567.84,149.35L588.12,173.63L598.26,183.53L608.4,197.88L618.54,214.39L628.68,230.43L638.82,248.97L659.1,291.25L669.24,308.86L679.38,324.52L689.52,335.48L709.8,356.7L719.94,365L730.08,371.24L740.22,375.47L750.36,378.6L760.5,380.76L780.78,382.93L790.92,383.6L821.34,384.62L831.48,384.75L932.88,384.98L943.02,384.98L1003.86,384.86L1014,383.9" style="vector-effect: none; fill: none; stroke: rgb(92, 184, 92); stroke-opacity: 1; stroke-width: 2px; opacity: 1;"/></g><g class="points"/><g class="text"/></g><g class="trace scatter trace5c9c52" style="stroke-miterlimit: 2; opacity: 1;"><g class="fills"/><g class="errorbars"/><g class="lines"><path class="js-line" d="M0,376.67L20.28,385L30.42,385L202.8,384.27L212.94,384.22L233.22,383.83L243.36,383.95L253.5,380.62L263.64,375.73L273.78,371.44L283.92,356.03L304.2,327.05L314.34,315.73L324.48,312.8L334.62,312.17L344.76,307.39L354.9,282.02L375.18,220.4L385.32,182.83L395.46,192.43L405.6,194.41L415.74,155.52L425.88,135.13L446.16,80.75L456.3,40.83L466.44,21.21L476.58,21.82L486.72,49.94L496.86,102.97L507,125.04L517.14,124.77L527.28,106.61L537.42,90.66L547.56,97.77L557.7,119.37L567.84,124.5L577.98,142.35L588.12,196.03L598.26,239.96L618.54,293.83L628.68,312.84L638.82,327.37L648.96,338.45L659.1,347.8L669.24,355.45L679.38,361.55L689.52,366.45L709.8,373.94L719.94,377L740.22,380.88L750.36,382.03L780.78,383.97L790.92,384.3L872.04,384.99L882.18,384.99L1014,385" style="vector-effect: none; fill: none; stroke: rgb(240, 173, 78); stroke-opacity: 1; stroke-width: 2px; opacity: 1;"/></g><g class="points"/><g class="text"/></g><g class="trace scatter trace1fc156" style="stroke-miterlimit: 2; opacity: 1;"><g class="fills"/><g class="errorbars"/><g class="lines"><path class="js-line" d="M0,376.61L20.28,385L30.42,385L223.08,384.36L233.22,383.78L243.36,382.92L253.5,377.07L263.64,371.13L273.78,369.91L294.06,359.76L304.2,339.95L314.34,310.29L324.48,302.4L334.62,298.48L344.76,274.55L354.9,253.59L365.04,229.07L375.18,216.98L385.32,214.94L395.46,214L405.6,206.95L415.74,173.44L425.88,129.89L436.02,77.34L446.16,53.98L456.3,55.53L466.44,46.55L476.58,48.15L486.72,89.58L496.86,122.85L507,122.52L527.28,80.57L537.42,86.94L547.56,108.29L557.7,132.33L567.84,128.96L577.98,135.03L588.12,177.3L598.26,226.42L608.4,269.14L618.54,294.92L628.68,314.65L638.82,329.61L648.96,340.1L659.1,348.23L669.24,355.64L679.38,361.86L689.52,366.71L699.66,370.67L719.94,377.02L730.08,379.31L750.36,382.11L760.5,382.99L790.92,384.32L801.06,384.45L912.6,384.98L922.74,384.98L1014,384.25" style="vector-effect: none; fill: none; stroke: rgb(240, 173, 78); stroke-opacity: 1; stroke-width: 2px; opacity: 1;"/></g><g class="points"/><g class="text"/></g><g class="trace scatter tracefb9542" style="stroke-miterlimit: 2; opacity: 1;"><g class="fills"/><g class="errorbars"/><g class="lines"><path class="js-line" d="M0,373.83L20.28,384.98L30.42,384.99L172.38,384.52L182.52,383.85L192.66,382.18L202.8,381.85L212.94,381.87L223.08,380.53L233.22,380.2L243.36,380.98L253.5,378.82L263.64,374.58L273.78,369.66L283.92,353.31L294.06,339.54L304.2,327.62L314.34,315.14L324.48,306.6L334.62,296.22L344.76,284.06L354.9,261.49L365.04,232.83L375.18,205.54L385.32,174.3L395.46,175.16L405.6,166.77L415.74,130.03L425.88,116.52L436.02,90.63L446.16,57.59L456.3,28.57L466.44,19.25L476.58,23.9L486.72,49.96L496.86,99.43L507,116.79L517.14,122.85L527.28,147.76L537.42,157.46L547.56,160.64L557.7,177.63L567.84,191.91L577.98,216.51L588.12,244.04L598.26,259.34L608.4,272.12L628.68,294.31L638.82,306.76L659.1,334.56L669.24,346.25L679.38,355.01L689.52,361.48L699.66,367L709.8,371.57L719.94,375.55L730.08,378.31L750.36,381.76L760.5,382.68L790.92,384.32L801.06,384.42L882.18,385L892.32,385L1014,385" style="vector-effect: none; fill: none; stroke: rgb(92, 184, 92); stroke-opacity: 1; stroke-width: 2px; opacity: 1;"/></g><g class="points"/><g class="text"/></g><g class="trace scatter trace75897b" style="stroke-miterlimit: 2; opacity: 1;"><g class="fills"/><g class="errorbars"/><g class="lines"><path class="js-line" d="M0,373.75L20.28,385L30.42,385L131.82,384.49L141.96,384.21L152.1,382.67L162.24,382.19L172.38,381.64L182.52,381.91L192.66,382.82L202.8,382.38L212.94,382.7L223.08,382.24L233.22,381.65L243.36,380.24L263.64,368.76L273.78,365.9L283.92,360.32L294.06,351.92L304.2,334.21L314.34,309.47L324.48,297.45L334.62,290.4L344.76,267.57L354.9,247.83L365.04,224.92L375.18,209.05L385.32,202.98L395.46,194.51L405.6,181.3L415.74,149.02L425.88,113.02L436.02,65.29L446.16,35.2L456.3,34.17L466.44,31.66L476.58,41.23L486.72,76.11L496.86,103.29L507,102.86L517.14,100.12L527.28,119.99L537.42,147.14L547.56,164.45L557.7,184.33L567.84,199.85L577.98,219.7L588.12,243.63L598.26,258.15L618.54,282.73L628.68,296.86L638.82,310.84L648.96,323.33L669.24,346.92L679.38,355.77L689.52,362.1L699.66,367.22L719.94,375.54L730.08,378.31L750.36,381.73L760.5,382.8L780.78,384.01L790.92,384.25L902.46,384.97L912.6,384.97L1003.86,384.86L1014,383.85" style="vector-effect: none; fill: none; stroke: rgb(240, 173, 78); stroke-opacity: 1; stroke-width: 2px; opacity: 1;"/></g><g class="points"/><g class="text"/></g></g></g></g><path class="xlines-above crisp" d="M0,0" style="fill: none;"/><path class="ylines-above crisp" d="M0,0" style="fill: none;"/><g class="overlines-above"/><g class="xaxislayer-above"><g class="xtick"><text text-anchor="middle" x="0" y="451" transform="translate(60,0)" style="font-family: 'Lucida Grande', 'Open Sans', verdana, arial, sans-serif; font-size: 10px; fill: rgb(0, 0, 0); fill-opacity: 1; white-space: pre; opacity: 1;">0%</text></g><g class="xtick"><text text-anchor="middle" x="0" y="451" style="font-family: 'Lucida Grande', 'Open Sans', verdana, arial, sans-serif; font-size: 10px; fill: rgb(0, 0, 0); fill-opacity: 1; white-space: pre; opacity: 1;" transform="translate(262.8,0)">20%</text></g><g class="xtick"><text text-anchor="middle" x="0" y="451" style="font-family: 'Lucida Grande', 'Open Sans', verdana, arial, sans-serif; font-size: 10px; fill: rgb(0, 0, 0); fill-opacity: 1; white-space: pre; opacity: 1;" transform="translate(465.6,0)">40%</text></g><g class="xtick"><text text-anchor="middle" x="0" y="451" style="font-family: 'Lucida Grande', 'Open Sans', verdana, arial, sans-serif; font-size: 10px; fill: rgb(0, 0, 0); fill-opacity: 1; white-space: pre; opacity: 1;" transform="translate(668.4,0)">60%</text></g><g class="xtick"><text text-anchor="middle" x="0" y="451" style="font-family: 'Lucida Grande', 'Open Sans', verdana, arial, sans-serif; font-size: 10px; fill: rgb(0, 0, 0); fill-opacity: 1; white-space: pre; opacity: 1;" transform="translate(871.2,0)">80%</text></g><g class="xtick"><text text-anchor="middle" x="0" y="451" style="font-family: 'Lucida Grande', 'Open Sans', verdana, arial, sans-serif; font-size: 10px; fill: rgb(0, 0, 0); fill-opacity: 1; white-space: pre; opacity: 1;" transform="translate(1074,0)">100%</text></g></g><g class="yaxislayer-above"><g class="ytick"><text text-anchor="end" x="54" y="3.5" transform="translate(0,435)" style="font-family: 'Lucida Grande', 'Open Sans', verdana, arial, sans-serif; font-size: 10px; fill: rgb(0, 0, 0); fill-opacity: 1; white-space: pre; opacity: 1;">0</text></g><g class="ytick"><text text-anchor="end" x="54" y="3.5" style="font-family: 'Lucida Grande', 'Open Sans', verdana, arial, sans-serif; font-size: 10px; fill: rgb(0, 0, 0); fill-opacity: 1; white-space: pre; opacity: 1;" transform="translate(0,381.1)">0.2M</text></g><g class="ytick"><text text-anchor="end" x="54" y="3.5" style="font-family: 'Lucida Grande', 'Open Sans', verdana, arial, sans-serif; font-size: 10px; fill: rgb(0, 0, 0); fill-opacity: 1; white-space: pre; opacity: 1;" transform="translate(0,327.19)">0.4M</text></g><g class="ytick"><text text-anchor="end" x="54" y="3.5" style="font-family: 'Lucida Grande', 'Open Sans', verdana, arial, sans-serif; font-size: 10px; fill: rgb(0, 0, 0); fill-opacity: 1; white-space: pre; opacity: 1;" transform="translate(0,273.28999999999996)">0.6M</text></g><g class="ytick"><text text-anchor="end" x="54" y="3.5" style="font-family: 'Lucida Grande', 'Open Sans', verdana, arial, sans-serif; font-size: 10px; fill: rgb(0, 0, 0); fill-opacity: 1; white-space: pre; opacity: 1;" transform="translate(0,219.38)">0.8M</text></g><g class="ytick"><text text-anchor="end" x="54" y="3.5" style="font-family: 'Lucida Grande', 'Open Sans', verdana, arial, sans-serif; font-size: 10px; fill: rgb(0, 0, 0); fill-opacity: 1; white-space: pre; opacity: 1;" transform="translate(0,165.48000000000002)">1M</text></g><g class="ytick"><text text-anchor="end" x="54" y="3.5" style="font-family: 'Lucida Grande', 'Open Sans', verdana, arial, sans-serif; font-size: 10px; fill: rgb(0, 0, 0); fill-opacity: 1; white-space: pre; opacity: 1;" transform="translate(0,111.57)">1.2M</text></g><g class="ytick"><text text-anchor="end" x="54" y="3.5" style="font-family: 'Lucida Grande', 'Open Sans', verdana, arial, sans-serif; font-size: 10px; fill: rgb(0, 0, 0); fill-opacity: 1; white-space: pre; opacity: 1;" transform="translate(0,57.67)">1.4M</text></g></g><g class="overaxes-above"/></g></g><g class="polarlayer"/><g class="smithlayer"/><g class="ternarylayer"/><g class="geolayer"/><g class="funnelarealayer"/><g class="pielayer"/><g class="iciclelayer"/><g class="treemaplayer"/><g class="sunburstlayer"/><g class="glimages"/><defs id="topdefs-579550"><g class="clips"/></defs><g class="layer-above"><g class="imagelayer"/><g class="shapelayer"/></g><g class="infolayer"><g class="g-gtitle"><text class="gtitle" x="550" y="25" text-anchor="middle" dy="0em" style="opacity: 1; font-family: 'Lucida Grande', 'Open Sans', verdana, arial, sans-serif; font-size: 20px; fill: rgb(68, 68, 68); fill-opacity: 1; white-space: pre;"><tspan class="line" dy="0em" x="550" y="25">FastQC: Per Sequence GC Content</tspan><tspan class="line" dy="1.3em" x="550" y="25">​<tspan style="font-size:70%" dy="-0.6em">Counts, 12 samples</tspan><tspan dy="0.42em">​</tspan></tspan></text></g><g class="g-xtitle"><text class="xtitle" x="567" y="487" text-anchor="middle" style="opacity: 0.3; font-family: 'Lucida Grande', 'Open Sans', verdana, arial, sans-serif; font-size: 14px; fill: rgb(0, 0, 0); fill-opacity: 1; white-space: pre;">% GC</text></g><g class="g-ytitle"><text class="ytitle" transform="rotate(-90,22,242.5)" x="22" y="242.5" text-anchor="middle" style="opacity: 0.3; font-family: 'Lucida Grande', 'Open Sans', verdana, arial, sans-serif; font-size: 14px; fill: rgb(0, 0, 0); fill-opacity: 1; white-space: pre;">Count</text></g></g></svg>