<svg class="main-svg" xmlns="http://www.w3.org/2000/svg" xmlns:xlink="http://www.w3.org/1999/xlink" width="2200" height="546" style="" viewBox="0 0 1100 273"><rect x="0" y="0" width="1100" height="273" style="fill: rgb(255, 255, 255); fill-opacity: 1;"/><defs id="defs-458923"><g class="clips"><clipPath id="clip458923xyplot" class="plotclip"><rect width="1005" height="42.230769230769226"/></clipPath><clipPath id="clip458923x2y2plot" class="plotclip"><rect width="1005" height="42.230769230769226"/></clipPath><clipPath id="clip458923x3y3plot" class="plotclip"><rect width="1005" height="42.230769230769226"/></clipPath><clipPath class="axesclip" id="clip458923x"><rect x="80" y="0" width="1005" height="273"/></clipPath><clipPath class="axesclip" id="clip458923y"><rect x="0" y="50.00000000000002" width="1100" height="42.230769230769226"/></clipPath><clipPath class="axesclip" id="clip458923xy"><rect x="80" y="50.00000000000002" width="1005" height="42.230769230769226"/></clipPath><clipPath class="axesclip" id="clip458923y2"><rect x="0" y="120.3846153846154" width="1100" height="42.230769230769226"/></clipPath><clipPath class="axesclip" id="clip458923xy2"><rect x="80" y="120.3846153846154" width="1005" height="42.230769230769226"/></clipPath><clipPath class="axesclip" id="clip458923y3"><rect x="0" y="190.76923076923077" width="1100" height="42.230769230769226"/></clipPath><clipPath class="axesclip" id="clip458923xy3"><rect x="80" y="190.76923076923077" width="1005" height="42.230769230769226"/></clipPath><clipPath class="axesclip" id="clip458923x2"><rect x="80" y="0" width="1005" height="273"/></clipPath><clipPath class="axesclip" id="clip458923x2y"><rect x="80" y="50.00000000000002" width="1005" height="42.230769230769226"/></clipPath><clipPath class="axesclip" id="clip458923x2y2"><rect x="80" y="120.3846153846154" width="1005" height="42.230769230769226"/></clipPath><clipPath class="axesclip" id="clip458923x2y3"><rect x="80" y="190.76923076923077" width="1005" height="42.230769230769226"/></clipPath><clipPath class="axesclip" id="clip458923x3"><rect x="80" y="0" width="1005" height="273"/></clipPath><clipPath class="axesclip" id="clip458923x3y"><rect x="80" y="50.00000000000002" width="1005" height="42.230769230769226"/></clipPath><clipPath class="axesclip" id="clip458923x3y2"><rect x="80" y="120.3846153846154" width="1005" height="42.230769230769226"/></clipPath><clipPath class="axesclip" id="clip458923x3y3"><rect x="80" y="190.76923076923077" width="1005" height="42.230769230769226"/></clipPath></g><g class="gradients"/><g class="patterns"/></defs><g class="bglayer"/><g class="layer-below"><g class="imagelayer"/><g class="shapelayer"/></g><g class="cartesianlayer"><g class="subplot xy"><g class="layer-subplot"><g class="shapelayer"/><g class="imagelayer"/></g><g class="minor-gridlayer"><g class="x"/><g class="y"/></g><g class="gridlayer"><g class="x"><path class="xgrid crisp" transform="translate(283.98,0)" d="M0,50.00000000000002v42.230769230769226" style="stroke: rgb(0, 0, 0); stroke-opacity: 0.1; stroke-width: 1px;"/><path class="xgrid crisp" transform="translate(482.99,0)" d="M0,50.00000000000002v42.230769230769226" style="stroke: rgb(0, 0, 0); stroke-opacity: 0.1; stroke-width: 1px;"/><path class="xgrid crisp" transform="translate(681.99,0)" d="M0,50.00000000000002v42.230769230769226" style="stroke: rgb(0, 0, 0); stroke-opacity: 0.1; stroke-width: 1px;"/><path class="xgrid crisp" transform="translate(881,0)" d="M0,50.00000000000002v42.230769230769226" style="stroke: rgb(0, 0, 0); stroke-opacity: 0.1; stroke-width: 1px;"/><path class="xgrid crisp" transform="translate(1080,0)" d="M0,50.00000000000002v42.230769230769226" style="stroke: rgb(0, 0, 0); stroke-opacity: 0.1; stroke-width: 1px;"/></g><g class="y"/></g><g class="zerolinelayer"><path class="xzl zl crisp" transform="translate(84.98,0)" d="M0,50.00000000000002v42.230769230769226" style="stroke: rgb(0, 0, 0); stroke-opacity: 0.1; stroke-width: 1px;"/><path class="yzl zl crisp" transform="translate(0,71.12000000000002)" d="M80,0h1005" style="stroke: rgb(0, 0, 0); stroke-opacity: 0.1; stroke-width: 1px;"/></g><g class="layer-between"><g class="shapelayer"/><g class="imagelayer"/></g><path class="xlines-below"/><path class="ylines-below"/><g class="overlines-below"/><g class="xaxislayer-below"/><g class="yaxislayer-below"/><g class="overaxes-below"/><g class="overplot"><g class="xy" transform="translate(80,50.00000000000002)" clip-path="url(#clip458923xyplot)"><g class="violinlayer mlayer"><g class="trace violins" style="opacity: 0.5;"><path class="violin" d="M118.17,19.17Q127.66,18.21 132.4,17.55C137.15,16.89 141.89,16.08 146.63,15.23C151.38,14.38 156.12,13.37 160.86,12.43C165.6,11.49 170.34,10.44 175.09,9.6C179.82,8.76 184.57,7.94 189.32,7.39C194.05,6.85 198.8,6.46 203.55,6.33C208.29,6.2 213.04,6.34 217.78,6.6C222.53,6.86 227.27,7.39 232.01,7.89C236.76,8.39 241.49,9.06 246.24,9.6C250.98,10.14 255.72,10.69 260.47,11.12C265.21,11.55 269.95,11.89 274.7,12.17C279.44,12.45 284.19,12.62 288.93,12.82C293.67,13.01 298.42,13.15 303.16,13.34C307.9,13.53 312.65,13.73 317.39,13.96C322.13,14.19 326.88,14.45 331.62,14.7C336.36,14.95 341.11,15.22 345.85,15.44C350.59,15.65 355.34,15.84 360.08,15.99C364.82,16.13 369.57,16.22 374.31,16.31C379.05,16.39 383.8,16.43 388.54,16.5C393.28,16.57 398.03,16.63 402.77,16.75C407.51,16.87 412.26,17.02 417,17.21C421.74,17.4 426.49,17.64 431.23,17.89C435.97,18.14 440.72,18.43 445.46,18.69C450.2,18.95 454.95,19.23 459.69,19.47C464.43,19.71 469.18,19.94 473.92,20.12C478.66,20.3 483.41,20.45 488.15,20.57C492.89,20.69 497.64,20.78 502.38,20.85C507.12,20.92 511.87,20.96 516.61,21C521.35,21.04 526.1,21.05 530.84,21.07C535.58,21.09 540.33,21.09 545.07,21.1C549.81,21.11 554.56,21.11 559.3,21.11C564.04,21.11 568.79,21.11 573.53,21.11C578.27,21.11 583.02,21.12 587.76,21.12C592.5,21.12 597.25,21.12 601.99,21.12C606.73,21.12 611.48,21.12 616.22,21.12C620.96,21.12 625.71,21.12 630.45,21.12C635.19,21.12 639.94,21.12 644.68,21.12C649.42,21.12 654.17,21.12 658.91,21.12C663.65,21.12 668.4,21.12 673.14,21.12C677.88,21.12 682.63,21.12 687.37,21.12C692.11,21.12 696.86,21.12 701.6,21.12C706.34,21.12 711.09,21.12 715.83,21.12C720.57,21.12 725.32,21.12 730.06,21.12C734.8,21.12 739.55,21.12 744.29,21.12C749.03,21.12 753.78,21.12 758.52,21.12C763.26,21.12 768.01,21.12 772.75,21.12C777.49,21.12 782.24,21.12 786.98,21.12C791.72,21.12 796.47,21.12 801.21,21.12C805.95,21.12 810.7,21.12 815.44,21.12C820.18,21.12 824.93,21.11 829.67,21.11C834.41,21.11 839.16,21.11 843.9,21.11C848.64,21.11 853.39,21.11 858.13,21.11C862.87,21.11 867.62,21.1 872.36,21.1C877.1,21.09 881.85,21.09 886.59,21.08C891.33,21.07 896.08,21.05 900.82,21.03C905.56,21 910.31,20.97 915.05,20.93C919.79,20.89 924.54,20.84 929.28,20.78C934.02,20.72 938.77,20.65 943.51,20.57C948.25,20.49 953,20.4 957.74,20.31C962.48,20.23 967.23,20.13 971.97,20.06C976.71,19.99 981.46,19.92 986.2,19.88C990.94,19.84 995.69,19.81 1000.43,19.81C1005.17,19.81 1009.92,19.84 1014.66,19.88C1019.4,19.93 1024.15,20.01 1028.89,20.08C1033.63,20.16 1038.38,20.25 1043.12,20.33C1047.86,20.41 1052.61,20.5 1057.35,20.58C1062.09,20.66 1066.84,20.73 1071.58,20.79Q1076.32,20.85 1085.81,20.94L1085.81,21.29Q1076.32,21.38 1071.58,21.44C1066.84,21.5 1062.09,21.57 1057.35,21.65C1052.61,21.73 1047.86,21.82 1043.12,21.9C1038.38,21.99 1033.63,22.08 1028.89,22.16C1024.15,22.23 1019.4,22.31 1014.66,22.35C1009.92,22.39 1005.17,22.42 1000.43,22.42C995.69,22.42 990.94,22.39 986.2,22.35C981.46,22.31 976.71,22.24 971.97,22.17C967.23,22.1 962.48,22 957.74,21.92C953,21.83 948.25,21.74 943.51,21.66C938.77,21.58 934.02,21.51 929.28,21.45C924.54,21.39 919.79,21.34 915.05,21.3C910.31,21.26 905.56,21.23 900.82,21.21C896.08,21.19 891.33,21.17 886.59,21.16C881.85,21.15 877.1,21.14 872.36,21.13C867.62,21.12 862.87,21.12 858.13,21.12C853.39,21.12 848.64,21.12 843.9,21.12C839.16,21.12 834.41,21.12 829.67,21.12C824.93,21.12 820.18,21.12 815.44,21.12C810.7,21.12 805.95,21.12 801.21,21.12C796.47,21.12 791.72,21.12 786.98,21.12C782.24,21.12 777.49,21.12 772.75,21.12C768.01,21.12 763.26,21.12 758.52,21.12C753.78,21.12 749.03,21.12 744.29,21.12C739.55,21.12 734.8,21.12 730.06,21.12C725.32,21.12 720.57,21.12 715.83,21.12C711.09,21.12 706.34,21.12 701.6,21.12C696.86,21.12 692.11,21.12 687.37,21.12C682.63,21.12 677.88,21.12 673.14,21.12C668.4,21.12 663.65,21.12 658.91,21.12C654.17,21.12 649.42,21.12 644.68,21.12C639.94,21.12 635.19,21.12 630.45,21.12C625.71,21.12 620.96,21.12 616.22,21.12C611.48,21.12 606.73,21.12 601.99,21.12C597.25,21.12 592.5,21.12 587.76,21.12C583.02,21.12 578.27,21.12 573.53,21.12C568.79,21.12 564.04,21.12 559.3,21.12C554.56,21.12 549.81,21.12 545.07,21.13C540.33,21.14 535.58,21.14 530.84,21.16C526.1,21.18 521.35,21.19 516.61,21.23C511.87,21.27 507.12,21.31 502.38,21.38C497.64,21.45 492.89,21.54 488.15,21.66C483.41,21.78 478.66,21.94 473.92,22.12C469.18,22.3 464.43,22.52 459.69,22.76C454.95,23 450.2,23.28 445.46,23.54C440.72,23.8 435.97,24.09 431.23,24.34C426.49,24.59 421.74,24.83 417,25.02C412.26,25.21 407.51,25.36 402.77,25.48C398.03,25.6 393.28,25.66 388.54,25.73C383.8,25.8 379.05,25.84 374.31,25.92C369.57,26.01 364.82,26.1 360.08,26.24C355.34,26.39 350.59,26.58 345.85,26.79C341.11,27.01 336.36,27.28 331.62,27.53C326.88,27.78 322.13,28.04 317.39,28.27C312.65,28.5 307.9,28.7 303.16,28.89C298.42,29.08 293.67,29.22 288.93,29.41C284.19,29.61 279.44,29.78 274.7,30.06C269.95,30.34 265.21,30.68 260.47,31.11C255.72,31.54 250.98,32.09 246.24,32.63C241.49,33.17 236.76,33.84 232.01,34.34C227.27,34.84 222.53,35.37 217.78,35.63C213.04,35.89 208.29,36.03 203.55,35.9C198.8,35.77 194.05,35.38 189.32,34.84C184.57,34.29 179.82,33.47 175.09,32.63C170.34,31.79 165.6,30.74 160.86,29.8C156.12,28.86 151.38,27.85 146.63,27C141.89,26.15 137.15,25.35 132.4,24.69Q127.66,24.03 118.17,23.06Z" style="vector-effect: none; stroke-width: 2px; stroke: rgb(181, 181, 181); stroke-opacity: 1; fill: rgb(181, 181, 181); fill-opacity: 1;"/><path class="box" d="M204.98,24.81V17.42M203.98,24.81V17.42H303.48V24.81ZM203.98,21.12H203.98M303.48,21.12H402.99" style="vector-effect: non-scaling-stroke; stroke-width: 2px; stroke: rgb(181, 181, 181); stroke-opacity: 1; fill: rgb(181, 181, 181); fill-opacity: 1;"/><path class="mean" d="M298.51,24.81V17.42" style="fill: none; vector-effect: non-scaling-stroke; stroke-width: 2px; stroke-dasharray: 4px, 2px; stroke: rgb(181, 181, 181); stroke-opacity: 1;"/></g></g><g class="scatterlayer mlayer"><g class="trace scatter trace1cdf4e" style="stroke-miterlimit: 2; opacity: 1;"><g class="fills"/><g class="errorbars"/><g class="lines"/><g class="points"><path class="point" transform="translate(1000,21.12)" d="M2,0A2,2 0 1,1 0,-2A2,2 0 0,1 2,0Z" style="opacity: 1; stroke-width: 0px; fill: rgb(11, 121, 230); fill-opacity: 1;"/></g><g class="text"/></g><g class="trace scatter tracef552de" style="stroke-miterlimit: 2; opacity: 1;"><g class="fills"/><g class="errorbars"/><g class="lines"/><g class="points"><path class="point" transform="translate(402.99,21.12)" d="M2,0A2,2 0 1,1 0,-2A2,2 0 0,1 2,0Z" style="opacity: 1; stroke-width: 0px; fill: rgb(11, 121, 230); fill-opacity: 1;"/></g><g class="text"/></g><g class="trace scatter trace4f7744" style="stroke-miterlimit: 2; opacity: 1;"><g class="fills"/><g class="errorbars"/><g class="lines"/><g class="points"><path class="point" transform="translate(402.99,21.12)" d="M2,0A2,2 0 1,1 0,-2A2,2 0 0,1 2,0Z" style="opacity: 1; stroke-width: 0px; fill: rgb(11, 121, 230); fill-opacity: 1;"/></g><g class="text"/></g><g class="trace scatter trace22e5cf" style="stroke-miterlimit: 2; opacity: 1;"><g class="fills"/><g class="errorbars"/><g class="lines"/><g class="points"><path class="point" transform="translate(303.48,21.12)" d="M2,0A2,2 0 1,1 0,-2A2,2 0 0,1 2,0Z" style="opacity: 1; stroke-width: 0px; fill: rgb(11, 121, 230); fill-opacity: 1;"/></g><g class="text"/></g><g class="trace scatter tracebec26b" style="stroke-miterlimit: 2; opacity: 1;"><g class="fills"/><g class="errorbars"/><g class="lines"/><g class="points"><path class="point" transform="translate(303.48,21.12)" d="M2,0A2,2 0 1,1 0,-2A2,2 0 0,1 2,0Z" style="opacity: 1; stroke-width: 0px; fill: rgb(11, 121, 230); fill-opacity: 1;"/></g><g class="text"/></g><g class="trace scatter trace1b7553" style="stroke-miterlimit: 2; opacity: 1;"><g class="fills"/><g class="errorbars"/><g class="lines"/><g class="points"><path class="point" transform="translate(303.48,21.12)" d="M2,0A2,2 0 1,1 0,-2A2,2 0 0,1 2,0Z" style="opacity: 1; stroke-width: 0px; fill: rgb(11, 121, 230); fill-opacity: 1;"/></g><g class="text"/></g><g class="trace scatter trace905f52" style="stroke-miterlimit: 2; opacity: 1;"><g class="fills"/><g class="errorbars"/><g class="lines"/><g class="points"><path class="point" transform="translate(402.99,21.12)" d="M2,0A2,2 0 1,1 0,-2A2,2 0 0,1 2,0Z" style="opacity: 1; stroke-width: 0px; fill: rgb(11, 121, 230); fill-opacity: 1;"/></g><g class="text"/></g><g class="trace scatter tracedf98e2" style="stroke-miterlimit: 2; opacity: 1;"><g class="fills"/><g class="errorbars"/><g class="lines"/><g class="points"><path class="point" transform="translate(303.48,21.12)" d="M2,0A2,2 0 1,1 0,-2A2,2 0 0,1 2,0Z" style="opacity: 1; stroke-width: 0px; fill: rgb(11, 121, 230); fill-opacity: 1;"/></g><g class="text"/></g><g class="trace scatter trace26d5fa" style="stroke-miterlimit: 2; opacity: 1;"><g class="fills"/><g class="errorbars"/><g class="lines"/><g class="points"><path class="point" transform="translate(203.98,21.12)" d="M2,0A2,2 0 1,1 0,-2A2,2 0 0,1 2,0Z" style="opacity: 1; stroke-width: 0px; fill: rgb(11, 121, 230); fill-opacity: 1;"/></g><g class="text"/></g><g class="trace scatter trace054107" style="stroke-miterlimit: 2; opacity: 1;"><g class="fills"/><g class="errorbars"/><g class="lines"/><g class="points"><path class="point" transform="translate(303.48,21.12)" d="M2,0A2,2 0 1,1 0,-2A2,2 0 0,1 2,0Z" style="opacity: 1; stroke-width: 0px; fill: rgb(11, 121, 230); fill-opacity: 1;"/></g><g class="text"/></g><g class="trace scatter trace92cc6a" style="stroke-miterlimit: 2; opacity: 1;"><g class="fills"/><g class="errorbars"/><g class="lines"/><g class="points"><path class="point" transform="translate(203.98,21.12)" d="M2,0A2,2 0 1,1 0,-2A2,2 0 0,1 2,0Z" style="opacity: 1; stroke-width: 0px; fill: rgb(11, 121, 230); fill-opacity: 1;"/></g><g class="text"/></g><g class="trace scatter traceedace2" style="stroke-miterlimit: 2; opacity: 1;"><g class="fills"/><g class="errorbars"/><g class="lines"/><g class="points"><path class="point" transform="translate(203.98,21.12)" d="M2,0A2,2 0 1,1 0,-2A2,2 0 0,1 2,0Z" style="opacity: 1; stroke-width: 0px; fill: rgb(11, 121, 230); fill-opacity: 1;"/></g><g class="text"/></g><g class="trace scatter trace5bc2fa" style="stroke-miterlimit: 2; opacity: 1;"><g class="fills"/><g class="errorbars"/><g class="lines"/><g class="points"><path class="point" transform="translate(203.98,21.12)" d="M2,0A2,2 0 1,1 0,-2A2,2 0 0,1 2,0Z" style="opacity: 1; stroke-width: 0px; fill: rgb(11, 121, 230); fill-opacity: 1;"/></g><g class="text"/></g><g class="trace scatter traceb34288" style="stroke-miterlimit: 2; opacity: 1;"><g class="fills"/><g class="errorbars"/><g class="lines"/><g class="points"><path class="point" transform="translate(203.98,21.12)" d="M2,0A2,2 0 1,1 0,-2A2,2 0 0,1 2,0Z" style="opacity: 1; stroke-width: 0px; fill: rgb(11, 121, 230); fill-opacity: 1;"/></g><g class="text"/></g><g class="trace scatter trace99a292" style="stroke-miterlimit: 2; opacity: 1;"><g class="fills"/><g class="errorbars"/><g class="lines"/><g class="points"><path class="point" transform="translate(203.98,21.12)" d="M2,0A2,2 0 1,1 0,-2A2,2 0 0,1 2,0Z" style="opacity: 1; stroke-width: 0px; fill: rgb(11, 121, 230); fill-opacity: 1;"/></g><g class="text"/></g><g class="trace scatter trace757b40" style="stroke-miterlimit: 2; opacity: 1;"><g class="fills"/><g class="errorbars"/><g class="lines"/><g class="points"><path class="point" transform="translate(203.98,21.12)" d="M2,0A2,2 0 1,1 0,-2A2,2 0 0,1 2,0Z" style="opacity: 1; stroke-width: 0px; fill: rgb(11, 121, 230); fill-opacity: 1;"/></g><g class="text"/></g><g class="trace scatter tracec8c451" style="stroke-miterlimit: 2; opacity: 1;"><g class="fills"/><g class="errorbars"/><g class="lines"/><g class="points"><path class="point" transform="translate(203.98,21.12)" d="M2,0A2,2 0 1,1 0,-2A2,2 0 0,1 2,0Z" style="opacity: 1; stroke-width: 0px; fill: rgb(11, 121, 230); fill-opacity: 1;"/></g><g class="text"/></g><g class="trace scatter trace56b939" style="stroke-miterlimit: 2; opacity: 1;"><g class="fills"/><g class="errorbars"/><g class="lines"/><g class="points"><path class="point" transform="translate(203.98,21.12)" d="M2,0A2,2 0 1,1 0,-2A2,2 0 0,1 2,0Z" style="opacity: 1; stroke-width: 0px; fill: rgb(11, 121, 230); fill-opacity: 1;"/></g><g class="text"/></g><g class="trace scatter traceff3da7" style="stroke-miterlimit: 2; opacity: 1;"><g class="fills"/><g class="errorbars"/><g class="lines"/><g class="points"><path class="point" transform="translate(203.98,21.12)" d="M2,0A2,2 0 1,1 0,-2A2,2 0 0,1 2,0Z" style="opacity: 1; stroke-width: 0px; fill: rgb(11, 121, 230); fill-opacity: 1;"/></g><g class="text"/></g><g class="trace scatter traceab84cb" style="stroke-miterlimit: 2; opacity: 1;"><g class="fills"/><g class="errorbars"/><g class="lines"/><g class="points"><path class="point" transform="translate(203.98,21.12)" d="M2,0A2,2 0 1,1 0,-2A2,2 0 0,1 2,0Z" style="opacity: 1; stroke-width: 0px; fill: rgb(11, 121, 230); fill-opacity: 1;"/></g><g class="text"/></g></g></g></g><path class="xlines-above crisp" d="M0,0" style="fill: none;"/><path class="ylines-above crisp" d="M0,0" style="fill: none;"/><g class="overlines-above"/><g class="xaxislayer-above"><g class="xtick"><text text-anchor="middle" x="0" y="102.23076923076925" transform="translate(84.98,0)" style="font-family: 'Lucida Grande', 'Open Sans', verdana, arial, sans-serif; font-size: 9px; fill: rgb(0, 0, 0); fill-opacity: 0.5; white-space: pre; opacity: 1;">0</text></g><g class="xtick"><text text-anchor="middle" x="0" y="102.23076923076925" style="font-family: 'Lucida Grande', 'Open Sans', verdana, arial, sans-serif; font-size: 9px; fill: rgb(0, 0, 0); fill-opacity: 0.5; white-space: pre; opacity: 1;" transform="translate(283.98,0)">2</text></g><g class="xtick"><text text-anchor="middle" x="0" y="102.23076923076925" style="font-family: 'Lucida Grande', 'Open Sans', verdana, arial, sans-serif; font-size: 9px; fill: rgb(0, 0, 0); fill-opacity: 0.5; white-space: pre; opacity: 1;" transform="translate(482.99,0)">4</text></g><g class="xtick"><text text-anchor="middle" x="0" y="102.23076923076925" style="font-family: 'Lucida Grande', 'Open Sans', verdana, arial, sans-serif; font-size: 9px; fill: rgb(0, 0, 0); fill-opacity: 0.5; white-space: pre; opacity: 1;" transform="translate(681.99,0)">6</text></g><g class="xtick"><text text-anchor="middle" x="0" y="102.23076923076925" style="font-family: 'Lucida Grande', 'Open Sans', verdana, arial, sans-serif; font-size: 9px; fill: rgb(0, 0, 0); fill-opacity: 0.5; white-space: pre; opacity: 1;" transform="translate(881,0)">8</text></g><g class="xtick"><text text-anchor="middle" x="0" y="102.23076923076925" style="font-family: 'Lucida Grande', 'Open Sans', verdana, arial, sans-serif; font-size: 9px; fill: rgb(0, 0, 0); fill-opacity: 0.5; white-space: pre; opacity: 1;" transform="translate(1080,0)">10</text></g></g><g class="yaxislayer-above"><g class="ytick"><text text-anchor="end" x="79" y="3.15" transform="translate(0,71.12000000000002)" style="font-family: 'Lucida Grande', 'Open Sans', verdana, arial, sans-serif; font-size: 9px; fill: rgb(0, 0, 0); fill-opacity: 0.5; white-space: pre; opacity: 1;">Reports  </text></g></g><g class="overaxes-above"/></g><g class="subplot x2y2"><g class="layer-subplot"><g class="shapelayer"/><g class="imagelayer"/></g><g class="minor-gridlayer"><g class="x2"/><g class="y2"/></g><g class="gridlayer"><g class="x2"><path class="x2grid crisp" transform="translate(248.67,0)" d="M0,120.3846153846154v42.230769230769226" style="stroke: rgb(0, 0, 0); stroke-opacity: 0.1; stroke-width: 1px;"/><path class="x2grid crisp" transform="translate(412.37,0)" d="M0,120.3846153846154v42.230769230769226" style="stroke: rgb(0, 0, 0); stroke-opacity: 0.1; stroke-width: 1px;"/><path class="x2grid crisp" transform="translate(576.0699999999999,0)" d="M0,120.3846153846154v42.230769230769226" style="stroke: rgb(0, 0, 0); stroke-opacity: 0.1; stroke-width: 1px;"/><path class="x2grid crisp" transform="translate(739.77,0)" d="M0,120.3846153846154v42.230769230769226" style="stroke: rgb(0, 0, 0); stroke-opacity: 0.1; stroke-width: 1px;"/><path class="x2grid crisp" transform="translate(903.47,0)" d="M0,120.3846153846154v42.230769230769226" style="stroke: rgb(0, 0, 0); stroke-opacity: 0.1; stroke-width: 1px;"/><path class="x2grid crisp" transform="translate(1067.17,0)" d="M0,120.3846153846154v42.230769230769226" style="stroke: rgb(0, 0, 0); stroke-opacity: 0.1; stroke-width: 1px;"/></g><g class="y2"><path class="y2grid crisp" transform="translate(0,141.5046153846154)" d="M80,0h1005" style="stroke: rgb(0, 0, 0); stroke-opacity: 0.1; stroke-width: 1px;"/></g></g><g class="zerolinelayer"><path class="x2zl zl crisp" transform="translate(84.98,0)" d="M0,120.3846153846154v42.230769230769226" style="stroke: rgb(0, 0, 0); stroke-opacity: 0.1; stroke-width: 1px;"/></g><g class="layer-between"><g class="shapelayer"/><g class="imagelayer"/></g><path class="xlines-below"/><path class="ylines-below"/><g class="overlines-below"/><g class="xaxislayer-below"/><g class="yaxislayer-below"/><g class="overaxes-below"/><g class="overplot"><g class="x2y2" transform="translate(80,120.3846153846154)" clip-path="url(#clip458923x2y2plot)"><g class="violinlayer mlayer"><g class="trace violins" style="opacity: 0.5;"><path class="violin" d="M54.35,20.29Q61.36,19.83 64.86,19.48C68.37,19.13 71.87,18.7 75.37,18.18C78.88,17.65 82.38,17.02 85.88,16.33C89.39,15.63 92.89,14.82 96.39,14.01C99.9,13.2 103.39,12.3 106.9,11.48C110.4,10.66 113.9,9.81 117.41,9.11C120.9,8.42 124.41,7.77 127.92,7.31C131.41,6.85 134.92,6.51 138.43,6.35C141.93,6.19 145.43,6.2 148.93,6.33C152.44,6.46 155.94,6.77 159.44,7.13C162.95,7.49 166.45,7.99 169.95,8.47C173.46,8.95 176.96,9.51 180.46,10.03C183.96,10.55 187.47,11.09 190.97,11.59C194.47,12.09 197.97,12.57 201.48,13.01C204.98,13.45 208.49,13.86 211.99,14.25C215.49,14.64 219,15 222.5,15.34C226,15.68 229.51,15.98 233.01,16.27C236.51,16.56 240.02,16.83 243.52,17.08C247.02,17.33 250.53,17.55 254.03,17.76C257.53,17.97 261.04,18.16 264.54,18.35C268.04,18.54 271.55,18.72 275.05,18.89C278.55,19.06 282.06,19.23 285.56,19.39C289.06,19.55 292.57,19.71 296.07,19.86C299.57,20 303.08,20.14 306.58,20.26C310.08,20.38 313.59,20.49 317.09,20.58C320.59,20.67 324.1,20.75 327.6,20.81C331.1,20.87 334.6,20.92 338.1,20.96C341.6,21 345.11,21.02 348.61,21.04C352.11,21.06 355.62,21.07 359.12,21.08C362.62,21.09 366.13,21.09 369.63,21.1C373.13,21.1 376.64,21.11 380.14,21.11C383.64,21.11 387.15,21.1 390.65,21.1C394.15,21.09 397.66,21.09 401.16,21.08C404.66,21.07 408.17,21.05 411.67,21.03C415.17,21.01 418.68,20.98 422.18,20.94C425.68,20.9 429.19,20.85 432.69,20.79C436.19,20.73 439.7,20.66 443.2,20.59C446.7,20.51 450.21,20.42 453.71,20.34C457.21,20.26 460.72,20.16 464.22,20.09C467.72,20.02 471.23,19.95 474.73,19.91C478.23,19.87 481.74,19.84 485.24,19.84C488.74,19.84 492.25,19.87 495.75,19.91C499.25,19.95 502.76,20.02 506.26,20.09C509.76,20.16 513.27,20.26 516.77,20.34C520.27,20.42 523.77,20.51 527.27,20.59C530.77,20.67 534.28,20.74 537.78,20.8C541.28,20.86 544.79,20.9 548.29,20.94C551.79,20.98 555.3,21.01 558.8,21.03C562.3,21.05 565.81,21.07 569.31,21.08C572.81,21.09 576.32,21.09 579.82,21.1C583.32,21.1 586.83,21.11 590.33,21.11C593.83,21.11 597.34,21.11 600.84,21.11C604.34,21.11 607.85,21.11 611.35,21.11C614.85,21.11 618.36,21.12 621.86,21.12C625.36,21.12 628.87,21.12 632.37,21.12C635.87,21.12 639.38,21.12 642.88,21.12C646.38,21.12 649.89,21.12 653.39,21.12C656.89,21.12 660.4,21.12 663.9,21.12C667.4,21.12 670.91,21.12 674.41,21.12C677.91,21.12 681.42,21.12 684.92,21.12C688.42,21.12 691.93,21.12 695.43,21.12C698.93,21.12 702.44,21.12 705.94,21.12C709.44,21.12 712.95,21.12 716.45,21.12C719.95,21.12 723.45,21.12 726.95,21.12C730.45,21.12 733.96,21.12 737.46,21.12C740.96,21.12 744.47,21.12 747.97,21.12C751.47,21.12 754.98,21.12 758.48,21.12C761.98,21.12 765.49,21.12 768.99,21.12C772.49,21.12 776,21.12 779.5,21.12C783,21.12 786.51,21.12 790.01,21.12C793.51,21.12 797.02,21.12 800.52,21.12C804.02,21.12 807.53,21.12 811.03,21.12C814.53,21.12 818.04,21.12 821.54,21.12C825.04,21.12 828.55,21.12 832.05,21.12C835.55,21.12 839.06,21.12 842.56,21.12C846.06,21.12 849.57,21.12 853.07,21.12C856.57,21.12 860.08,21.12 863.58,21.12C867.08,21.12 870.59,21.11 874.09,21.11C877.59,21.11 881.1,21.11 884.6,21.11C888.1,21.11 891.61,21.11 895.11,21.11C898.61,21.11 902.12,21.11 905.62,21.1C909.12,21.1 912.62,21.09 916.12,21.08C919.62,21.07 923.13,21.05 926.63,21.03C930.13,21.01 933.64,20.98 937.14,20.94C940.64,20.9 944.15,20.85 947.65,20.79C951.15,20.73 954.66,20.66 958.16,20.58C961.66,20.5 965.17,20.41 968.67,20.33C972.17,20.25 975.68,20.16 979.18,20.09C982.68,20.02 986.19,19.95 989.69,19.91C993.19,19.87 996.7,19.84 1000.2,19.84C1003.7,19.84 1007.21,19.87 1010.71,19.91C1014.21,19.95 1017.72,20.03 1021.22,20.1C1024.72,20.17 1028.23,20.26 1031.73,20.34C1035.23,20.42 1038.74,20.51 1042.24,20.59C1045.74,20.67 1049.25,20.74 1052.75,20.8Q1056.25,20.86 1063.26,20.94L1063.26,21.29Q1056.25,21.37 1052.75,21.43C1049.25,21.49 1045.74,21.56 1042.24,21.64C1038.74,21.72 1035.23,21.81 1031.73,21.89C1028.23,21.97 1024.72,22.06 1021.22,22.13C1017.72,22.2 1014.21,22.28 1010.71,22.32C1007.21,22.36 1003.7,22.39 1000.2,22.39C996.7,22.39 993.19,22.36 989.69,22.32C986.19,22.28 982.68,22.21 979.18,22.14C975.68,22.07 972.17,21.98 968.67,21.9C965.17,21.82 961.66,21.73 958.16,21.65C954.66,21.57 951.15,21.5 947.65,21.44C944.15,21.38 940.64,21.33 937.14,21.29C933.64,21.25 930.13,21.22 926.63,21.2C923.13,21.18 919.62,21.16 916.12,21.15C912.62,21.14 909.12,21.13 905.62,21.13C902.12,21.12 898.61,21.12 895.11,21.12C891.61,21.12 888.1,21.12 884.6,21.12C881.1,21.12 877.59,21.12 874.09,21.12C870.59,21.12 867.08,21.12 863.58,21.12C860.08,21.12 856.57,21.12 853.07,21.12C849.57,21.12 846.06,21.12 842.56,21.12C839.06,21.12 835.55,21.12 832.05,21.12C828.55,21.12 825.04,21.12 821.54,21.12C818.04,21.12 814.53,21.12 811.03,21.12C807.53,21.12 804.02,21.12 800.52,21.12C797.02,21.12 793.51,21.12 790.01,21.12C786.51,21.12 783,21.12 779.5,21.12C776,21.12 772.49,21.12 768.99,21.12C765.49,21.12 761.98,21.12 758.48,21.12C754.98,21.12 751.47,21.12 747.97,21.12C744.47,21.12 740.96,21.12 737.46,21.12C733.96,21.12 730.45,21.12 726.95,21.12C723.45,21.12 719.95,21.12 716.45,21.12C712.95,21.12 709.44,21.12 705.94,21.12C702.44,21.12 698.93,21.12 695.43,21.12C691.93,21.12 688.42,21.12 684.92,21.12C681.42,21.12 677.91,21.12 674.41,21.12C670.91,21.12 667.4,21.12 663.9,21.12C660.4,21.12 656.89,21.12 653.39,21.12C649.89,21.12 646.38,21.12 642.88,21.12C639.38,21.12 635.87,21.12 632.37,21.12C628.87,21.12 625.36,21.12 621.86,21.12C618.36,21.12 614.85,21.12 611.35,21.12C607.85,21.12 604.34,21.12 600.84,21.12C597.34,21.12 593.83,21.12 590.33,21.12C586.83,21.12 583.32,21.13 579.82,21.13C576.32,21.14 572.81,21.14 569.31,21.15C565.81,21.16 562.3,21.18 558.8,21.2C555.3,21.22 551.79,21.25 548.29,21.29C544.79,21.33 541.28,21.37 537.78,21.43C534.28,21.49 530.77,21.56 527.27,21.64C523.77,21.72 520.27,21.81 516.77,21.89C513.27,21.97 509.76,22.07 506.26,22.14C502.76,22.21 499.25,22.28 495.75,22.32C492.25,22.36 488.74,22.39 485.24,22.39C481.74,22.39 478.23,22.36 474.73,22.32C471.23,22.28 467.72,22.21 464.22,22.14C460.72,22.07 457.21,21.97 453.71,21.89C450.21,21.81 446.7,21.72 443.2,21.64C439.7,21.57 436.19,21.5 432.69,21.44C429.19,21.38 425.68,21.33 422.18,21.29C418.68,21.25 415.17,21.22 411.67,21.2C408.17,21.18 404.66,21.16 401.16,21.15C397.66,21.14 394.15,21.14 390.65,21.13C387.15,21.13 383.64,21.12 380.14,21.12C376.64,21.12 373.13,21.13 369.63,21.13C366.13,21.14 362.62,21.14 359.12,21.15C355.62,21.16 352.11,21.17 348.61,21.19C345.11,21.21 341.6,21.23 338.1,21.27C334.6,21.31 331.1,21.36 327.6,21.42C324.1,21.48 320.59,21.56 317.09,21.65C313.59,21.74 310.08,21.85 306.58,21.97C303.08,22.09 299.57,22.24 296.07,22.38C292.57,22.53 289.06,22.68 285.56,22.84C282.06,23 278.55,23.17 275.05,23.34C271.55,23.51 268.04,23.69 264.54,23.88C261.04,24.07 257.53,24.26 254.03,24.47C250.53,24.68 247.02,24.91 243.52,25.16C240.02,25.41 236.51,25.67 233.01,25.96C229.51,26.25 226,26.55 222.5,26.89C219,27.23 215.49,27.59 211.99,27.98C208.49,28.37 204.98,28.78 201.48,29.22C197.97,29.66 194.47,30.14 190.97,30.64C187.47,31.14 183.96,31.68 180.46,32.2C176.96,32.72 173.46,33.28 169.95,33.76C166.45,34.24 162.95,34.74 159.44,35.1C155.94,35.46 152.44,35.77 148.93,35.9C145.43,36.03 141.93,36.04 138.43,35.88C134.92,35.72 131.41,35.39 127.92,34.93C124.41,34.47 120.9,33.81 117.41,33.12C113.9,32.42 110.4,31.57 106.9,30.75C103.39,29.93 99.9,29.03 96.39,28.22C92.89,27.41 89.39,26.6 85.88,25.9C82.38,25.21 78.88,24.58 75.37,24.05C71.87,23.53 68.37,23.1 64.86,22.75Q61.36,22.4 54.35,21.94Z" style="vector-effect: none; stroke-width: 2px; stroke: rgb(181, 181, 181); stroke-opacity: 1; fill: rgb(181, 181, 181); fill-opacity: 1;"/><path class="box" d="M157.19,24.81V17.42M130.31,24.81V17.42H203.66V24.81ZM130.31,21.12H117.61M203.66,21.12H272.48" style="vector-effect: non-scaling-stroke; stroke-width: 2px; stroke: rgb(181, 181, 181); stroke-opacity: 1; fill: rgb(181, 181, 181); fill-opacity: 1;"/><path class="mean" d="M221.5,24.81V17.42" style="fill: none; vector-effect: non-scaling-stroke; stroke-width: 2px; stroke-dasharray: 4px, 2px; stroke: rgb(181, 181, 181); stroke-opacity: 1;"/></g></g><g class="scatterlayer mlayer"><g class="trace scatter traceda18ff" style="stroke-miterlimit: 2; opacity: 1;"><g class="fills"/><g class="errorbars"/><g class="lines"/><g class="points"><path class="point" transform="translate(1000,21.12)" d="M2,0A2,2 0 1,1 0,-2A2,2 0 0,1 2,0Z" style="opacity: 1; stroke-width: 0px; fill: rgb(11, 121, 230); fill-opacity: 1;"/></g><g class="text"/></g><g class="trace scatter trace96fb6a" style="stroke-miterlimit: 2; opacity: 1;"><g class="fills"/><g class="errorbars"/><g class="lines"/><g class="points"><path class="point" transform="translate(485.16,21.12)" d="M2,0A2,2 0 1,1 0,-2A2,2 0 0,1 2,0Z" style="opacity: 1; stroke-width: 0px; fill: rgb(11, 121, 230); fill-opacity: 1;"/></g><g class="text"/></g><g class="trace scatter trace471c34" style="stroke-miterlimit: 2; opacity: 1;"><g class="fills"/><g class="errorbars"/><g class="lines"/><g class="points"><path class="point" transform="translate(272.48,21.12)" d="M2,0A2,2 0 1,1 0,-2A2,2 0 0,1 2,0Z" style="opacity: 1; stroke-width: 0px; fill: rgb(11, 121, 230); fill-opacity: 1;"/></g><g class="text"/></g><g class="trace scatter tracea8d30c" style="stroke-miterlimit: 2; opacity: 1;"><g class="fills"/><g class="errorbars"/><g class="lines"/><g class="points"><path class="point" transform="translate(238.37,21.12)" d="M2,0A2,2 0 1,1 0,-2A2,2 0 0,1 2,0Z" style="opacity: 1; stroke-width: 0px; fill: rgb(11, 121, 230); fill-opacity: 1;"/></g><g class="text"/></g><g class="trace scatter tracea2221d" style="stroke-miterlimit: 2; opacity: 1;"><g class="fills"/><g class="errorbars"/><g class="lines"/><g class="points"><path class="point" transform="translate(203.7,21.12)" d="M2,0A2,2 0 1,1 0,-2A2,2 0 0,1 2,0Z" style="opacity: 1; stroke-width: 0px; fill: rgb(11, 121, 230); fill-opacity: 1;"/></g><g class="text"/></g><g class="trace scatter trace70f49e" style="stroke-miterlimit: 2; opacity: 1;"><g class="fills"/><g class="errorbars"/><g class="lines"/><g class="points"><path class="point" transform="translate(203.62,21.12)" d="M2,0A2,2 0 1,1 0,-2A2,2 0 0,1 2,0Z" style="opacity: 1; stroke-width: 0px; fill: rgb(11, 121, 230); fill-opacity: 1;"/></g><g class="text"/></g><g class="trace scatter trace2a38f4" style="stroke-miterlimit: 2; opacity: 1;"><g class="fills"/><g class="errorbars"/><g class="lines"/><g class="points"><path class="point" transform="translate(202.96,21.12)" d="M2,0A2,2 0 1,1 0,-2A2,2 0 0,1 2,0Z" style="opacity: 1; stroke-width: 0px; fill: rgb(11, 121, 230); fill-opacity: 1;"/></g><g class="text"/></g><g class="trace scatter trace3f080d" style="stroke-miterlimit: 2; opacity: 1;"><g class="fills"/><g class="errorbars"/><g class="lines"/><g class="points"><path class="point" transform="translate(167.47,21.12)" d="M2,0A2,2 0 1,1 0,-2A2,2 0 0,1 2,0Z" style="opacity: 1; stroke-width: 0px; fill: rgb(11, 121, 230); fill-opacity: 1;"/></g><g class="text"/></g><g class="trace scatter tracefbe9ee" style="stroke-miterlimit: 2; opacity: 1;"><g class="fills"/><g class="errorbars"/><g class="lines"/><g class="points"><path class="point" transform="translate(163.41,21.12)" d="M2,0A2,2 0 1,1 0,-2A2,2 0 0,1 2,0Z" style="opacity: 1; stroke-width: 0px; fill: rgb(11, 121, 230); fill-opacity: 1;"/></g><g class="text"/></g><g class="trace scatter trace1d9564" style="stroke-miterlimit: 2; opacity: 1;"><g class="fills"/><g class="errorbars"/><g class="lines"/><g class="points"><path class="point" transform="translate(158.2,21.12)" d="M2,0A2,2 0 1,1 0,-2A2,2 0 0,1 2,0Z" style="opacity: 1; stroke-width: 0px; fill: rgb(11, 121, 230); fill-opacity: 1;"/></g><g class="text"/></g><g class="trace scatter trace1ce760" style="stroke-miterlimit: 2; opacity: 1;"><g class="fills"/><g class="errorbars"/><g class="lines"/><g class="points"><path class="point" transform="translate(156.19,21.12)" d="M2,0A2,2 0 1,1 0,-2A2,2 0 0,1 2,0Z" style="opacity: 1; stroke-width: 0px; fill: rgb(11, 121, 230); fill-opacity: 1;"/></g><g class="text"/></g><g class="trace scatter trace6eb76c" style="stroke-miterlimit: 2; opacity: 1;"><g class="fills"/><g class="errorbars"/><g class="lines"/><g class="points"><path class="point" transform="translate(155.41,21.12)" d="M2,0A2,2 0 1,1 0,-2A2,2 0 0,1 2,0Z" style="opacity: 1; stroke-width: 0px; fill: rgb(11, 121, 230); fill-opacity: 1;"/></g><g class="text"/></g><g class="trace scatter tracec7f232" style="stroke-miterlimit: 2; opacity: 1;"><g class="fills"/><g class="errorbars"/><g class="lines"/><g class="points"><path class="point" transform="translate(144.06,21.12)" d="M2,0A2,2 0 1,1 0,-2A2,2 0 0,1 2,0Z" style="opacity: 1; stroke-width: 0px; fill: rgb(11, 121, 230); fill-opacity: 1;"/></g><g class="text"/></g><g class="trace scatter trace6cd6bf" style="stroke-miterlimit: 2; opacity: 1;"><g class="fills"/><g class="errorbars"/><g class="lines"/><g class="points"><path class="point" transform="translate(138.68,21.12)" d="M2,0A2,2 0 1,1 0,-2A2,2 0 0,1 2,0Z" style="opacity: 1; stroke-width: 0px; fill: rgb(11, 121, 230); fill-opacity: 1;"/></g><g class="text"/></g><g class="trace scatter trace4df29f" style="stroke-miterlimit: 2; opacity: 1;"><g class="fills"/><g class="errorbars"/><g class="lines"/><g class="points"><path class="point" transform="translate(132.61,21.12)" d="M2,0A2,2 0 1,1 0,-2A2,2 0 0,1 2,0Z" style="opacity: 1; stroke-width: 0px; fill: rgb(11, 121, 230); fill-opacity: 1;"/></g><g class="text"/></g><g class="trace scatter trace30f138" style="stroke-miterlimit: 2; opacity: 1;"><g class="fills"/><g class="errorbars"/><g class="lines"/><g class="points"><path class="point" transform="translate(128,21.12)" d="M2,0A2,2 0 1,1 0,-2A2,2 0 0,1 2,0Z" style="opacity: 1; stroke-width: 0px; fill: rgb(11, 121, 230); fill-opacity: 1;"/></g><g class="text"/></g><g class="trace scatter trace9e472e" style="stroke-miterlimit: 2; opacity: 1;"><g class="fills"/><g class="errorbars"/><g class="lines"/><g class="points"><path class="point" transform="translate(122.49,21.12)" d="M2,0A2,2 0 1,1 0,-2A2,2 0 0,1 2,0Z" style="opacity: 1; stroke-width: 0px; fill: rgb(11, 121, 230); fill-opacity: 1;"/></g><g class="text"/></g><g class="trace scatter trace0c9329" style="stroke-miterlimit: 2; opacity: 1;"><g class="fills"/><g class="errorbars"/><g class="lines"/><g class="points"><path class="point" transform="translate(119.96,21.12)" d="M2,0A2,2 0 1,1 0,-2A2,2 0 0,1 2,0Z" style="opacity: 1; stroke-width: 0px; fill: rgb(11, 121, 230); fill-opacity: 1;"/></g><g class="text"/></g><g class="trace scatter trace5175f6" style="stroke-miterlimit: 2; opacity: 1;"><g class="fills"/><g class="errorbars"/><g class="lines"/><g class="points"><path class="point" transform="translate(119.7,21.12)" d="M2,0A2,2 0 1,1 0,-2A2,2 0 0,1 2,0Z" style="opacity: 1; stroke-width: 0px; fill: rgb(11, 121, 230); fill-opacity: 1;"/></g><g class="text"/></g><g class="trace scatter trace35437d" style="stroke-miterlimit: 2; opacity: 1;"><g class="fills"/><g class="errorbars"/><g class="lines"/><g class="points"><path class="point" transform="translate(117.61,21.12)" d="M2,0A2,2 0 1,1 0,-2A2,2 0 0,1 2,0Z" style="opacity: 1; stroke-width: 0px; fill: rgb(11, 121, 230); fill-opacity: 1;"/></g><g class="text"/></g></g></g></g><path class="xlines-above crisp" d="M0,0" style="fill: none;"/><path class="ylines-above crisp" d="M0,0" style="fill: none;"/><g class="overlines-above"/><g class="xaxislayer-above"><g class="x2tick"><text text-anchor="middle" x="0" y="172.61538461538464" transform="translate(84.98,0)" style="font-family: 'Lucida Grande', 'Open Sans', verdana, arial, sans-serif; font-size: 9px; fill: rgb(0, 0, 0); fill-opacity: 0.5; white-space: pre; opacity: 1;">0</text></g><g class="x2tick"><text text-anchor="middle" x="0" y="172.61538461538464" style="font-family: 'Lucida Grande', 'Open Sans', verdana, arial, sans-serif; font-size: 9px; fill: rgb(0, 0, 0); fill-opacity: 0.5; white-space: pre; opacity: 1;" transform="translate(248.67,0)">100k</text></g><g class="x2tick"><text text-anchor="middle" x="0" y="172.61538461538464" style="font-family: 'Lucida Grande', 'Open Sans', verdana, arial, sans-serif; font-size: 9px; fill: rgb(0, 0, 0); fill-opacity: 0.5; white-space: pre; opacity: 1;" transform="translate(412.37,0)">200k</text></g><g class="x2tick"><text text-anchor="middle" x="0" y="172.61538461538464" style="font-family: 'Lucida Grande', 'Open Sans', verdana, arial, sans-serif; font-size: 9px; fill: rgb(0, 0, 0); fill-opacity: 0.5; white-space: pre; opacity: 1;" transform="translate(576.0699999999999,0)">300k</text></g><g class="x2tick"><text text-anchor="middle" x="0" y="172.61538461538464" style="font-family: 'Lucida Grande', 'Open Sans', verdana, arial, sans-serif; font-size: 9px; fill: rgb(0, 0, 0); fill-opacity: 0.5; white-space: pre; opacity: 1;" transform="translate(739.77,0)">400k</text></g><g class="x2tick"><text text-anchor="middle" x="0" y="172.61538461538464" style="font-family: 'Lucida Grande', 'Open Sans', verdana, arial, sans-serif; font-size: 9px; fill: rgb(0, 0, 0); fill-opacity: 0.5; white-space: pre; opacity: 1;" transform="translate(903.47,0)">500k</text></g><g class="x2tick"><text text-anchor="middle" x="0" y="172.61538461538464" style="font-family: 'Lucida Grande', 'Open Sans', verdana, arial, sans-serif; font-size: 9px; fill: rgb(0, 0, 0); fill-opacity: 0.5; white-space: pre; opacity: 1;" transform="translate(1067.17,0)">600k</text></g></g><g class="yaxislayer-above"><g class="y2tick"><text text-anchor="end" x="79" y="3.15" transform="translate(0,141.5046153846154)" style="font-family: 'Lucida Grande', 'Open Sans', verdana, arial, sans-serif; font-size: 9px; fill: rgb(0, 0, 0); fill-opacity: 0.5; white-space: pre; opacity: 1;">Occurrences  </text></g></g><g class="overaxes-above"/></g><g class="subplot x3y3"><g class="layer-subplot"><g class="shapelayer"/><g class="imagelayer"/></g><g class="minor-gridlayer"><g class="x3"/><g class="y3"/></g><g class="gridlayer"><g class="x3"><path class="x3grid crisp" transform="translate(283.98,0)" d="M0,190.76923076923077v42.230769230769226" style="stroke: rgb(0, 0, 0); stroke-opacity: 0.1; stroke-width: 1px;"/><path class="x3grid crisp" transform="translate(482.99,0)" d="M0,190.76923076923077v42.230769230769226" style="stroke: rgb(0, 0, 0); stroke-opacity: 0.1; stroke-width: 1px;"/><path class="x3grid crisp" transform="translate(681.99,0)" d="M0,190.76923076923077v42.230769230769226" style="stroke: rgb(0, 0, 0); stroke-opacity: 0.1; stroke-width: 1px;"/><path class="x3grid crisp" transform="translate(881,0)" d="M0,190.76923076923077v42.230769230769226" style="stroke: rgb(0, 0, 0); stroke-opacity: 0.1; stroke-width: 1px;"/><path class="x3grid crisp" transform="translate(1080,0)" d="M0,190.76923076923077v42.230769230769226" style="stroke: rgb(0, 0, 0); stroke-opacity: 0.1; stroke-width: 1px;"/></g><g class="y3"><path class="y3grid crisp" transform="translate(0,211.88923076923078)" d="M80,0h1005" style="stroke: rgb(0, 0, 0); stroke-opacity: 0.1; stroke-width: 1px;"/></g></g><g class="zerolinelayer"><path class="x3zl zl crisp" transform="translate(84.98,0)" d="M0,190.76923076923077v42.230769230769226" style="stroke: rgb(0, 0, 0); stroke-opacity: 0.1; stroke-width: 1px;"/></g><g class="layer-between"><g class="shapelayer"/><g class="imagelayer"/></g><path class="xlines-below"/><path class="ylines-below"/><g class="overlines-below"/><g class="xaxislayer-below"/><g class="yaxislayer-below"/><g class="overaxes-below"/><g class="overplot"><g class="x3y3" transform="translate(80,190.76923076923077)" clip-path="url(#clip458923x3y3plot)"><g class="violinlayer mlayer"><g class="trace violins" style="opacity: 0.5;"><path class="violin" d="M5.08,20.29Q5.09,19.78 5.1,19.48C5.11,19.1 5.11,18.65 5.12,18.18C5.13,17.62 5.14,16.98 5.15,16.33C5.16,15.6 5.16,14.8 5.17,14.01C5.18,13.18 5.18,12.31 5.19,11.48C5.2,10.68 5.2,9.85 5.21,9.11C5.22,8.47 5.22,7.82 5.23,7.31C5.24,6.94 5.23,6.43 5.26,6.35C5.27,6.34 5.27,6.33 5.28,6.33C5.31,6.34 5.29,6.83 5.3,7.13C5.31,7.52 5.31,8.01 5.32,8.47C5.33,8.97 5.33,9.51 5.34,10.03C5.35,10.55 5.36,11.08 5.37,11.59C5.38,12.07 5.38,12.55 5.39,13.01C5.4,13.44 5.4,13.85 5.41,14.25C5.42,14.63 5.42,14.99 5.43,15.34C5.44,15.66 5.44,15.97 5.45,16.27C5.46,16.55 5.47,16.82 5.48,17.08C5.49,17.32 5.49,17.54 5.5,17.76C5.51,17.96 5.51,18.16 5.52,18.35C5.53,18.53 5.53,18.71 5.54,18.89C5.55,19.06 5.55,19.23 5.56,19.39C5.57,19.55 5.58,19.71 5.59,19.86C5.6,20 5.6,20.13 5.61,20.26C5.62,20.37 5.62,20.48 5.63,20.58C5.64,20.66 5.64,20.74 5.65,20.81C5.66,20.87 5.67,20.92 5.68,20.96C5.69,20.99 5.69,21.02 5.7,21.04C5.71,21.06 5.71,21.07 5.72,21.08C5.73,21.09 5.73,21.09 5.74,21.1C5.75,21.1 5.75,21.11 5.76,21.11C5.77,21.11 5.78,21.11 5.79,21.1C5.8,21.1 5.8,21.09 5.81,21.08C5.82,21.07 5.82,21.05 5.83,21.03C5.84,21 5.84,20.97 5.85,20.94C5.86,20.9 5.86,20.84 5.87,20.79C5.88,20.73 5.89,20.66 5.9,20.59C5.91,20.51 5.91,20.42 5.92,20.34C5.93,20.26 5.93,20.17 5.94,20.09C5.95,20.03 5.95,19.96 5.96,19.91C5.97,19.88 5.97,19.84 5.98,19.84C5.99,19.84 6,19.88 6.01,19.91C6.02,19.96 6.02,20.03 6.03,20.09C6.04,20.17 6.04,20.26 6.05,20.34C6.06,20.42 6.06,20.51 6.07,20.59C6.08,20.66 6.09,20.74 6.1,20.8C6.11,20.85 6.11,20.9 6.12,20.94C6.13,20.97 6.13,21 6.14,21.03C6.15,21.05 6.15,21.07 6.16,21.08C6.17,21.09 6.17,21.1 6.18,21.1C6.19,21.11 6.2,21.11 6.21,21.11C6.22,21.11 6.22,21.11 6.23,21.11C6.24,21.11 6.24,21.11 6.25,21.11C6.26,21.11 6.26,21.12 6.27,21.12C6.28,21.12 6.28,21.12 6.29,21.12C6.3,21.12 6.31,21.12 6.32,21.12C6.33,21.12 6.33,21.12 6.34,21.12C6.35,21.12 6.35,21.12 6.36,21.12C6.37,21.12 6.37,21.12 6.38,21.12C6.39,21.12 6.39,21.12 6.4,21.12C6.41,21.12 6.42,21.12 6.43,21.12C6.44,21.12 6.44,21.12 6.45,21.12C6.46,21.12 6.46,21.12 6.47,21.12C6.48,21.12 6.48,21.12 6.49,21.12C6.5,21.12 6.5,21.12 6.51,21.12C6.52,21.12 6.53,21.12 6.54,21.12C6.55,21.12 6.55,21.12 6.56,21.12C6.57,21.12 6.57,21.12 6.58,21.12C6.59,21.12 6.59,21.12 6.6,21.12C6.61,21.12 6.62,21.12 6.63,21.12C6.64,21.12 6.64,21.12 6.65,21.12C6.66,21.12 6.66,21.12 6.67,21.12C6.68,21.12 6.68,21.12 6.69,21.12C6.7,21.12 6.7,21.12 6.71,21.12C6.72,21.12 6.73,21.12 6.74,21.12C6.75,21.12 6.75,21.12 6.76,21.12C6.77,21.12 6.77,21.12 6.78,21.12C6.79,21.12 6.79,21.11 6.8,21.11C6.81,21.11 6.81,21.11 6.82,21.11C6.83,21.11 6.84,21.11 6.85,21.11C6.86,21.11 6.86,21.1 6.87,21.1C6.88,21.09 6.88,21.09 6.89,21.08C6.9,21.07 6.9,21.05 6.91,21.03C6.92,21 6.92,20.97 6.93,20.94C6.94,20.9 6.95,20.84 6.96,20.79C6.97,20.73 6.97,20.65 6.98,20.58C6.99,20.5 6.99,20.41 7,20.33C7.01,20.25 7.01,20.16 7.02,20.09C7.03,20.03 7.03,19.96 7.04,19.91C7.05,19.88 7.06,19.84 7.07,19.84C7.08,19.84 7.08,19.88 7.09,19.91C7.1,19.96 7.1,20.03 7.11,20.1C7.12,20.18 7.12,20.26 7.13,20.34C7.14,20.42 7.15,20.51 7.16,20.59C7.17,20.66 7.17,20.74 7.18,20.8Q7.19,20.85 7.2,20.94L7.2,21.29Q7.19,21.38 7.18,21.43C7.17,21.49 7.17,21.57 7.16,21.64C7.15,21.72 7.14,21.81 7.13,21.89C7.12,21.97 7.12,22.05 7.11,22.13C7.1,22.2 7.1,22.27 7.09,22.32C7.08,22.35 7.08,22.39 7.07,22.39C7.06,22.39 7.05,22.35 7.04,22.32C7.03,22.27 7.03,22.2 7.02,22.14C7.01,22.07 7.01,21.98 7,21.9C6.99,21.82 6.99,21.73 6.98,21.65C6.97,21.58 6.97,21.5 6.96,21.44C6.95,21.39 6.94,21.33 6.93,21.29C6.92,21.26 6.92,21.23 6.91,21.2C6.9,21.18 6.9,21.16 6.89,21.15C6.88,21.14 6.88,21.14 6.87,21.13C6.86,21.13 6.86,21.12 6.85,21.12C6.84,21.12 6.83,21.12 6.82,21.12C6.81,21.12 6.81,21.12 6.8,21.12C6.79,21.12 6.79,21.12 6.78,21.12C6.77,21.12 6.77,21.12 6.76,21.12C6.75,21.12 6.75,21.12 6.74,21.12C6.73,21.12 6.72,21.12 6.71,21.12C6.7,21.12 6.7,21.12 6.69,21.12C6.68,21.12 6.68,21.12 6.67,21.12C6.66,21.12 6.66,21.12 6.65,21.12C6.64,21.12 6.64,21.12 6.63,21.12C6.62,21.12 6.61,21.12 6.6,21.12C6.59,21.12 6.59,21.12 6.58,21.12C6.57,21.12 6.57,21.12 6.56,21.12C6.55,21.12 6.55,21.12 6.54,21.12C6.53,21.12 6.52,21.12 6.51,21.12C6.5,21.12 6.5,21.12 6.49,21.12C6.48,21.12 6.48,21.12 6.47,21.12C6.46,21.12 6.46,21.12 6.45,21.12C6.44,21.12 6.44,21.12 6.43,21.12C6.42,21.12 6.41,21.12 6.4,21.12C6.39,21.12 6.39,21.12 6.38,21.12C6.37,21.12 6.37,21.12 6.36,21.12C6.35,21.12 6.35,21.12 6.34,21.12C6.33,21.12 6.33,21.12 6.32,21.12C6.31,21.12 6.3,21.12 6.29,21.12C6.28,21.12 6.28,21.12 6.27,21.12C6.26,21.12 6.26,21.12 6.25,21.12C6.24,21.12 6.24,21.12 6.23,21.12C6.22,21.12 6.22,21.12 6.21,21.12C6.2,21.12 6.19,21.12 6.18,21.13C6.17,21.13 6.17,21.14 6.16,21.15C6.15,21.16 6.15,21.18 6.14,21.2C6.13,21.23 6.13,21.26 6.12,21.29C6.11,21.33 6.11,21.38 6.1,21.43C6.09,21.49 6.08,21.57 6.07,21.64C6.06,21.72 6.06,21.81 6.05,21.89C6.04,21.97 6.04,22.06 6.03,22.14C6.02,22.2 6.02,22.27 6.01,22.32C6,22.35 5.99,22.39 5.98,22.39C5.97,22.39 5.97,22.35 5.96,22.32C5.95,22.27 5.95,22.2 5.94,22.14C5.93,22.06 5.93,21.97 5.92,21.89C5.91,21.81 5.91,21.72 5.9,21.64C5.89,21.57 5.88,21.5 5.87,21.44C5.86,21.39 5.86,21.33 5.85,21.29C5.84,21.26 5.84,21.23 5.83,21.2C5.82,21.18 5.82,21.16 5.81,21.15C5.8,21.14 5.8,21.13 5.79,21.13C5.78,21.12 5.77,21.12 5.76,21.12C5.75,21.12 5.75,21.13 5.74,21.13C5.73,21.14 5.73,21.14 5.72,21.15C5.71,21.16 5.71,21.17 5.7,21.19C5.69,21.21 5.69,21.24 5.68,21.27C5.67,21.31 5.66,21.36 5.65,21.42C5.64,21.49 5.64,21.57 5.63,21.65C5.62,21.75 5.62,21.86 5.61,21.97C5.6,22.1 5.6,22.24 5.59,22.38C5.58,22.53 5.57,22.68 5.56,22.84C5.55,23 5.55,23.17 5.54,23.34C5.53,23.52 5.53,23.7 5.52,23.88C5.51,24.07 5.51,24.27 5.5,24.47C5.49,24.69 5.49,24.92 5.48,25.16C5.47,25.42 5.46,25.68 5.45,25.96C5.44,26.26 5.44,26.57 5.43,26.89C5.42,27.24 5.42,27.6 5.41,27.98C5.4,28.38 5.4,28.79 5.39,29.22C5.38,29.68 5.38,30.16 5.37,30.64C5.36,31.15 5.35,31.68 5.34,32.2C5.33,32.72 5.33,33.26 5.32,33.76C5.31,34.22 5.31,34.71 5.3,35.1C5.29,35.4 5.31,35.89 5.28,35.9C5.27,35.9 5.27,35.89 5.26,35.88C5.23,35.8 5.24,35.3 5.23,34.93C5.22,34.42 5.22,33.76 5.21,33.12C5.2,32.38 5.2,31.55 5.19,30.75C5.18,29.92 5.18,29.05 5.17,28.22C5.16,27.43 5.16,26.63 5.15,25.9C5.14,25.25 5.13,24.61 5.12,24.05C5.11,23.58 5.11,23.13 5.1,22.75Q5.09,22.45 5.08,21.94Z" style="vector-effect: none; stroke-width: 2px; stroke: rgb(181, 181, 181); stroke-opacity: 1; fill: rgb(181, 181, 181); fill-opacity: 1;"/><path class="box" d="M5.3,24.81V17.42M5.24,24.81V17.42H5.39V24.81ZM5.24,21.12H5.21M5.39,21.12H5.54" style="vector-effect: non-scaling-stroke; stroke-width: 2px; stroke: rgb(181, 181, 181); stroke-opacity: 1; fill: rgb(181, 181, 181); fill-opacity: 1;"/><path class="mean" d="M5.43,24.81V17.42" style="fill: none; vector-effect: non-scaling-stroke; stroke-width: 2px; stroke-dasharray: 4px, 2px; stroke: rgb(181, 181, 181); stroke-opacity: 1;"/></g></g><g class="scatterlayer mlayer"><g class="trace scatter trace5b4663" style="stroke-miterlimit: 2; opacity: 1;"><g class="fills"/><g class="errorbars"/><g class="lines"/><g class="points"><path class="point" transform="translate(7.07,21.12)" d="M2,0A2,2 0 1,1 0,-2A2,2 0 0,1 2,0Z" style="opacity: 1; stroke-width: 0px; fill: rgb(11, 121, 230); fill-opacity: 1;"/></g><g class="text"/></g><g class="trace scatter traceb16687" style="stroke-miterlimit: 2; opacity: 1;"><g class="fills"/><g class="errorbars"/><g class="lines"/><g class="points"><path class="point" transform="translate(5.98,21.12)" d="M2,0A2,2 0 1,1 0,-2A2,2 0 0,1 2,0Z" style="opacity: 1; stroke-width: 0px; fill: rgb(11, 121, 230); fill-opacity: 1;"/></g><g class="text"/></g><g class="trace scatter traceb5456b" style="stroke-miterlimit: 2; opacity: 1;"><g class="fills"/><g class="errorbars"/><g class="lines"/><g class="points"><path class="point" transform="translate(5.54,21.12)" d="M2,0A2,2 0 1,1 0,-2A2,2 0 0,1 2,0Z" style="opacity: 1; stroke-width: 0px; fill: rgb(11, 121, 230); fill-opacity: 1;"/></g><g class="text"/></g><g class="trace scatter trace8ff4cf" style="stroke-miterlimit: 2; opacity: 1;"><g class="fills"/><g class="errorbars"/><g class="lines"/><g class="points"><path class="point" transform="translate(5.47,21.12)" d="M2,0A2,2 0 1,1 0,-2A2,2 0 0,1 2,0Z" style="opacity: 1; stroke-width: 0px; fill: rgb(11, 121, 230); fill-opacity: 1;"/></g><g class="text"/></g><g class="trace scatter tracea04185" style="stroke-miterlimit: 2; opacity: 1;"><g class="fills"/><g class="errorbars"/><g class="lines"/><g class="points"><path class="point" transform="translate(5.39,21.12)" d="M2,0A2,2 0 1,1 0,-2A2,2 0 0,1 2,0Z" style="opacity: 1; stroke-width: 0px; fill: rgb(11, 121, 230); fill-opacity: 1;"/></g><g class="text"/></g><g class="trace scatter trace4078e5" style="stroke-miterlimit: 2; opacity: 1;"><g class="fills"/><g class="errorbars"/><g class="lines"/><g class="points"><path class="point" transform="translate(5.39,21.12)" d="M2,0A2,2 0 1,1 0,-2A2,2 0 0,1 2,0Z" style="opacity: 1; stroke-width: 0px; fill: rgb(11, 121, 230); fill-opacity: 1;"/></g><g class="text"/></g><g class="trace scatter trace060ce1" style="stroke-miterlimit: 2; opacity: 1;"><g class="fills"/><g class="errorbars"/><g class="lines"/><g class="points"><path class="point" transform="translate(5.39,21.12)" d="M2,0A2,2 0 1,1 0,-2A2,2 0 0,1 2,0Z" style="opacity: 1; stroke-width: 0px; fill: rgb(11, 121, 230); fill-opacity: 1;"/></g><g class="text"/></g><g class="trace scatter trace38025f" style="stroke-miterlimit: 2; opacity: 1;"><g class="fills"/><g class="errorbars"/><g class="lines"/><g class="points"><path class="point" transform="translate(5.32,21.12)" d="M2,0A2,2 0 1,1 0,-2A2,2 0 0,1 2,0Z" style="opacity: 1; stroke-width: 0px; fill: rgb(11, 121, 230); fill-opacity: 1;"/></g><g class="text"/></g><g class="trace scatter trace5710ab" style="stroke-miterlimit: 2; opacity: 1;"><g class="fills"/><g class="errorbars"/><g class="lines"/><g class="points"><path class="point" transform="translate(5.31,21.12)" d="M2,0A2,2 0 1,1 0,-2A2,2 0 0,1 2,0Z" style="opacity: 1; stroke-width: 0px; fill: rgb(11, 121, 230); fill-opacity: 1;"/></g><g class="text"/></g><g class="trace scatter tracefa3b80" style="stroke-miterlimit: 2; opacity: 1;"><g class="fills"/><g class="errorbars"/><g class="lines"/><g class="points"><path class="point" transform="translate(5.3,21.12)" d="M2,0A2,2 0 1,1 0,-2A2,2 0 0,1 2,0Z" style="opacity: 1; stroke-width: 0px; fill: rgb(11, 121, 230); fill-opacity: 1;"/></g><g class="text"/></g><g class="trace scatter trace50d9fd" style="stroke-miterlimit: 2; opacity: 1;"><g class="fills"/><g class="errorbars"/><g class="lines"/><g class="points"><path class="point" transform="translate(5.29,21.12)" d="M2,0A2,2 0 1,1 0,-2A2,2 0 0,1 2,0Z" style="opacity: 1; stroke-width: 0px; fill: rgb(11, 121, 230); fill-opacity: 1;"/></g><g class="text"/></g><g class="trace scatter traceb4a834" style="stroke-miterlimit: 2; opacity: 1;"><g class="fills"/><g class="errorbars"/><g class="lines"/><g class="points"><path class="point" transform="translate(5.29,21.12)" d="M2,0A2,2 0 1,1 0,-2A2,2 0 0,1 2,0Z" style="opacity: 1; stroke-width: 0px; fill: rgb(11, 121, 230); fill-opacity: 1;"/></g><g class="text"/></g><g class="trace scatter trace774e48" style="stroke-miterlimit: 2; opacity: 1;"><g class="fills"/><g class="errorbars"/><g class="lines"/><g class="points"><path class="point" transform="translate(5.27,21.12)" d="M2,0A2,2 0 1,1 0,-2A2,2 0 0,1 2,0Z" style="opacity: 1; stroke-width: 0px; fill: rgb(11, 121, 230); fill-opacity: 1;"/></g><g class="text"/></g><g class="trace scatter trace8125ad" style="stroke-miterlimit: 2; opacity: 1;"><g class="fills"/><g class="errorbars"/><g class="lines"/><g class="points"><path class="point" transform="translate(5.26,21.12)" d="M2,0A2,2 0 1,1 0,-2A2,2 0 0,1 2,0Z" style="opacity: 1; stroke-width: 0px; fill: rgb(11, 121, 230); fill-opacity: 1;"/></g><g class="text"/></g><g class="trace scatter trace713c5a" style="stroke-miterlimit: 2; opacity: 1;"><g class="fills"/><g class="errorbars"/><g class="lines"/><g class="points"><path class="point" transform="translate(5.24,21.12)" d="M2,0A2,2 0 1,1 0,-2A2,2 0 0,1 2,0Z" style="opacity: 1; stroke-width: 0px; fill: rgb(11, 121, 230); fill-opacity: 1;"/></g><g class="text"/></g><g class="trace scatter tracef61ba7" style="stroke-miterlimit: 2; opacity: 1;"><g class="fills"/><g class="errorbars"/><g class="lines"/><g class="points"><path class="point" transform="translate(5.23,21.12)" d="M2,0A2,2 0 1,1 0,-2A2,2 0 0,1 2,0Z" style="opacity: 1; stroke-width: 0px; fill: rgb(11, 121, 230); fill-opacity: 1;"/></g><g class="text"/></g><g class="trace scatter traceab3d0c" style="stroke-miterlimit: 2; opacity: 1;"><g class="fills"/><g class="errorbars"/><g class="lines"/><g class="points"><path class="point" transform="translate(5.22,21.12)" d="M2,0A2,2 0 1,1 0,-2A2,2 0 0,1 2,0Z" style="opacity: 1; stroke-width: 0px; fill: rgb(11, 121, 230); fill-opacity: 1;"/></g><g class="text"/></g><g class="trace scatter traceedddd2" style="stroke-miterlimit: 2; opacity: 1;"><g class="fills"/><g class="errorbars"/><g class="lines"/><g class="points"><path class="point" transform="translate(5.22,21.12)" d="M2,0A2,2 0 1,1 0,-2A2,2 0 0,1 2,0Z" style="opacity: 1; stroke-width: 0px; fill: rgb(11, 121, 230); fill-opacity: 1;"/></g><g class="text"/></g><g class="trace scatter traceabadd8" style="stroke-miterlimit: 2; opacity: 1;"><g class="fills"/><g class="errorbars"/><g class="lines"/><g class="points"><path class="point" transform="translate(5.22,21.12)" d="M2,0A2,2 0 1,1 0,-2A2,2 0 0,1 2,0Z" style="opacity: 1; stroke-width: 0px; fill: rgb(11, 121, 230); fill-opacity: 1;"/></g><g class="text"/></g><g class="trace scatter traced89987" style="stroke-miterlimit: 2; opacity: 1;"><g class="fills"/><g class="errorbars"/><g class="lines"/><g class="points"><path class="point" transform="translate(5.21,21.12)" d="M2,0A2,2 0 1,1 0,-2A2,2 0 0,1 2,0Z" style="opacity: 1; stroke-width: 0px; fill: rgb(11, 121, 230); fill-opacity: 1;"/></g><g class="text"/></g></g></g></g><path class="xlines-above crisp" d="M0,0" style="fill: none;"/><path class="ylines-above crisp" d="M0,0" style="fill: none;"/><g class="overlines-above"/><g class="xaxislayer-above"><g class="x3tick"><text text-anchor="middle" x="0" y="243" transform="translate(84.98,0)" style="font-family: 'Lucida Grande', 'Open Sans', verdana, arial, sans-serif; font-size: 9px; fill: rgb(0, 0, 0); fill-opacity: 0.5; white-space: pre; opacity: 1;">0%</text></g><g class="x3tick"><text text-anchor="middle" x="0" y="243" style="font-family: 'Lucida Grande', 'Open Sans', verdana, arial, sans-serif; font-size: 9px; fill: rgb(0, 0, 0); fill-opacity: 0.5; white-space: pre; opacity: 1;" transform="translate(283.98,0)">20%</text></g><g class="x3tick"><text text-anchor="middle" x="0" y="243" style="font-family: 'Lucida Grande', 'Open Sans', verdana, arial, sans-serif; font-size: 9px; fill: rgb(0, 0, 0); fill-opacity: 0.5; white-space: pre; opacity: 1;" transform="translate(482.99,0)">40%</text></g><g class="x3tick"><text text-anchor="middle" x="0" y="243" style="font-family: 'Lucida Grande', 'Open Sans', verdana, arial, sans-serif; font-size: 9px; fill: rgb(0, 0, 0); fill-opacity: 0.5; white-space: pre; opacity: 1;" transform="translate(681.99,0)">60%</text></g><g class="x3tick"><text text-anchor="middle" x="0" y="243" style="font-family: 'Lucida Grande', 'Open Sans', verdana, arial, sans-serif; font-size: 9px; fill: rgb(0, 0, 0); fill-opacity: 0.5; white-space: pre; opacity: 1;" transform="translate(881,0)">80%</text></g><g class="x3tick"><text text-anchor="middle" x="0" y="243" style="font-family: 'Lucida Grande', 'Open Sans', verdana, arial, sans-serif; font-size: 9px; fill: rgb(0, 0, 0); fill-opacity: 0.5; white-space: pre; opacity: 1;" transform="translate(1080,0)">100%</text></g></g><g class="yaxislayer-above"><g class="y3tick"><text text-anchor="end" x="79" y="3.15" transform="translate(0,211.88923076923078)" style="font-family: 'Lucida Grande', 'Open Sans', verdana, arial, sans-serif; font-size: 9px; fill: rgb(0, 0, 0); fill-opacity: 0.5; white-space: pre; opacity: 1;">% of all reads  </text></g></g><g class="overaxes-above"/></g></g><g class="polarlayer"/><g class="smithlayer"/><g class="ternarylayer"/><g class="geolayer"/><g class="funnelarealayer"/><g class="pielayer"/><g class="iciclelayer"/><g class="treemaplayer"/><g class="sunburstlayer"/><g class="glimages"/><defs id="topdefs-458923"><g class="clips"/></defs><g class="layer-above"><g class="imagelayer"/><g class="shapelayer"/></g><g class="infolayer"><g class="g-gtitle"><text class="gtitle" x="550" y="25" text-anchor="middle" dy="0em" style="opacity: 1; font-family: 'Lucida Grande', 'Open Sans', verdana, arial, sans-serif; font-size: 20px; fill: rgb(68, 68, 68); fill-opacity: 1; white-space: pre;"><tspan class="line" dy="0em" x="550" y="25">FastQC: Top overrepresented sequences</tspan><tspan class="line" dy="1.3em" x="550" y="25"><tspan style="font-size:70%" dy="-0.6em">20 samples</tspan><tspan dy="0.42em"></tspan></tspan></text></g><g class="g-xtitle"/><g class="g-x2title"/><g class="g-x3title"/><g class="g-ytitle"/><g class="g-y2title"/><g class="g-y3title"/></g></svg>