<svg class="main-svg" xmlns="http://www.w3.org/2000/svg" xmlns:xlink="http://www.w3.org/1999/xlink" width="2200" height="546" style="" viewBox="0 0 1100 273"><rect x="0" y="0" width="1100" height="273" style="fill: rgb(255, 255, 255); fill-opacity: 1;"/><defs id="defs-26aa19"><g class="clips"><clipPath id="clip26aa19xyplot" class="plotclip"><rect width="1005" height="42.230769230769226"/></clipPath><clipPath id="clip26aa19x2y2plot" class="plotclip"><rect width="1005" height="42.230769230769226"/></clipPath><clipPath id="clip26aa19x3y3plot" class="plotclip"><rect width="1005" height="42.230769230769226"/></clipPath><clipPath class="axesclip" id="clip26aa19x"><rect x="80" y="0" width="1005" height="273"/></clipPath><clipPath class="axesclip" id="clip26aa19y"><rect x="0" y="50.00000000000002" width="1100" height="42.230769230769226"/></clipPath><clipPath class="axesclip" id="clip26aa19xy"><rect x="80" y="50.00000000000002" width="1005" height="42.230769230769226"/></clipPath><clipPath class="axesclip" id="clip26aa19y2"><rect x="0" y="120.3846153846154" width="1100" height="42.230769230769226"/></clipPath><clipPath class="axesclip" id="clip26aa19xy2"><rect x="80" y="120.3846153846154" width="1005" height="42.230769230769226"/></clipPath><clipPath class="axesclip" id="clip26aa19y3"><rect x="0" y="190.76923076923077" width="1100" height="42.230769230769226"/></clipPath><clipPath class="axesclip" id="clip26aa19xy3"><rect x="80" y="190.76923076923077" width="1005" height="42.230769230769226"/></clipPath><clipPath class="axesclip" id="clip26aa19x2"><rect x="80" y="0" width="1005" height="273"/></clipPath><clipPath class="axesclip" id="clip26aa19x2y"><rect x="80" y="50.00000000000002" width="1005" height="42.230769230769226"/></clipPath><clipPath class="axesclip" id="clip26aa19x2y2"><rect x="80" y="120.3846153846154" width="1005" height="42.230769230769226"/></clipPath><clipPath class="axesclip" id="clip26aa19x2y3"><rect x="80" y="190.76923076923077" width="1005" height="42.230769230769226"/></clipPath><clipPath class="axesclip" id="clip26aa19x3"><rect x="80" y="0" width="1005" height="273"/></clipPath><clipPath class="axesclip" id="clip26aa19x3y"><rect x="80" y="50.00000000000002" width="1005" height="42.230769230769226"/></clipPath><clipPath class="axesclip" id="clip26aa19x3y2"><rect x="80" y="120.3846153846154" width="1005" height="42.230769230769226"/></clipPath><clipPath class="axesclip" id="clip26aa19x3y3"><rect x="80" y="190.76923076923077" width="1005" height="42.230769230769226"/></clipPath></g><g class="gradients"/><g class="patterns"/></defs><g class="bglayer"/><g class="layer-below"><g class="imagelayer"/><g class="shapelayer"/></g><g class="cartesianlayer"><g class="subplot xy"><g class="layer-subplot"><g class="shapelayer"/><g class="imagelayer"/></g><g class="minor-gridlayer"><g class="x"/><g class="y"/></g><g class="gridlayer"><g class="x"><path class="xgrid crisp" transform="translate(209.35,0)" d="M0,50.00000000000002v42.230769230769226" style="stroke: rgb(0, 0, 0); stroke-opacity: 0.1; stroke-width: 1px;"/><path class="xgrid crisp" transform="translate(333.73,0)" d="M0,50.00000000000002v42.230769230769226" style="stroke: rgb(0, 0, 0); stroke-opacity: 0.1; stroke-width: 1px;"/><path class="xgrid crisp" transform="translate(458.11,0)" d="M0,50.00000000000002v42.230769230769226" style="stroke: rgb(0, 0, 0); stroke-opacity: 0.1; stroke-width: 1px;"/><path class="xgrid crisp" transform="translate(582.49,0)" d="M0,50.00000000000002v42.230769230769226" style="stroke: rgb(0, 0, 0); stroke-opacity: 0.1; stroke-width: 1px;"/><path class="xgrid crisp" transform="translate(706.87,0)" d="M0,50.00000000000002v42.230769230769226" style="stroke: rgb(0, 0, 0); stroke-opacity: 0.1; stroke-width: 1px;"/><path class="xgrid crisp" transform="translate(831.24,0)" d="M0,50.00000000000002v42.230769230769226" style="stroke: rgb(0, 0, 0); stroke-opacity: 0.1; stroke-width: 1px;"/><path class="xgrid crisp" transform="translate(955.62,0)" d="M0,50.00000000000002v42.230769230769226" style="stroke: rgb(0, 0, 0); stroke-opacity: 0.1; stroke-width: 1px;"/><path class="xgrid crisp" transform="translate(1080,0)" d="M0,50.00000000000002v42.230769230769226" style="stroke: rgb(0, 0, 0); stroke-opacity: 0.1; stroke-width: 1px;"/></g><g class="y"/></g><g class="zerolinelayer"><path class="xzl zl crisp" transform="translate(84.98,0)" d="M0,50.00000000000002v42.230769230769226" style="stroke: rgb(0, 0, 0); stroke-opacity: 0.1; stroke-width: 1px;"/><path class="yzl zl crisp" transform="translate(0,71.12000000000002)" d="M80,0h1005" style="stroke: rgb(0, 0, 0); stroke-opacity: 0.1; stroke-width: 1px;"/></g><g class="layer-between"><g class="shapelayer"/><g class="imagelayer"/></g><path class="xlines-below"/><path class="ylines-below"/><g class="overlines-below"/><g class="xaxislayer-below"/><g class="yaxislayer-below"/><g class="overaxes-below"/><g class="overplot"><g class="xy" transform="translate(80,50.00000000000002)" clip-path="url(#clip26aa19xyplot)"><g class="violinlayer mlayer"><g class="trace violins" style="opacity: 0.5;"><path class="violin" d="M287.96,19.18Q311.72,18.21 323.6,17.56C335.48,16.91 347.36,16.11 359.23,15.26C371.11,14.41 382.99,13.4 394.87,12.46C406.75,11.52 418.63,10.48 430.51,9.64C442.39,8.8 454.27,7.97 466.15,7.42C478.02,6.87 489.9,6.48 501.78,6.33C513.66,6.18 525.54,6.3 537.42,6.52C549.3,6.74 561.18,7.23 573.06,7.67C584.94,8.11 596.82,8.7 608.7,9.16C620.58,9.62 632.45,10.08 644.33,10.42C656.21,10.76 668.09,10.99 679.97,11.2C691.85,11.41 703.73,11.51 715.61,11.66C727.49,11.81 739.36,11.91 751.24,12.1C763.12,12.29 775,12.52 786.88,12.79C798.76,13.06 810.64,13.4 822.52,13.72C834.4,14.04 846.28,14.4 858.16,14.7C870.04,15 881.91,15.28 893.79,15.5C905.67,15.72 917.55,15.88 929.43,16.02C941.31,16.16 953.19,16.24 965.07,16.36C976.95,16.47 988.82,16.57 1000.7,16.71C1012.58,16.85 1024.46,17.02 1036.34,17.22C1048.22,17.42 1060.1,17.67 1071.98,17.92C1083.86,18.17 1095.74,18.46 1107.62,18.73C1119.5,18.99 1131.37,19.28 1143.25,19.51C1155.13,19.75 1167.01,19.96 1178.89,20.14Q1190.77,20.32 1214.53,20.59L1214.53,21.64Q1190.77,21.91 1178.89,22.09C1167.01,22.27 1155.13,22.48 1143.25,22.72C1131.37,22.95 1119.5,23.24 1107.62,23.5C1095.74,23.77 1083.86,24.06 1071.98,24.31C1060.1,24.56 1048.22,24.82 1036.34,25.02C1024.46,25.22 1012.58,25.39 1000.7,25.53C988.82,25.67 976.95,25.76 965.07,25.87C953.19,25.98 941.31,26.07 929.43,26.21C917.55,26.35 905.67,26.51 893.79,26.73C881.91,26.95 870.04,27.23 858.16,27.53C846.28,27.83 834.4,28.19 822.52,28.51C810.64,28.83 798.76,29.17 786.88,29.44C775,29.71 763.12,29.94 751.24,30.13C739.36,30.32 727.49,30.42 715.61,30.57C703.73,30.72 691.85,30.82 679.97,31.03C668.09,31.24 656.21,31.47 644.33,31.81C632.45,32.15 620.58,32.61 608.7,33.07C596.82,33.53 584.94,34.12 573.06,34.56C561.18,35 549.3,35.49 537.42,35.71C525.54,35.93 513.66,36.05 501.78,35.9C489.9,35.75 478.02,35.36 466.15,34.81C454.27,34.26 442.39,33.43 430.51,32.59C418.63,31.75 406.75,30.71 394.87,29.77C382.99,28.83 371.11,27.82 359.23,26.97C347.36,26.12 335.48,25.32 323.6,24.67Q311.72,24.02 287.96,23.05Z" style="vector-effect: none; stroke-width: 2px; stroke: rgb(181, 181, 181); stroke-opacity: 1; fill: rgb(181, 181, 181); fill-opacity: 1;"/><path class="box" d="M503.49,24.81V17.42M502.49,24.81V17.42H751.24V24.81ZM502.49,21.12H502.49M751.24,21.12H1000" style="vector-effect: non-scaling-stroke; stroke-width: 2px; stroke: rgb(181, 181, 181); stroke-opacity: 1; fill: rgb(181, 181, 181); fill-opacity: 1;"/><path class="mean" d="M651.74,24.81V17.42" style="fill: none; vector-effect: non-scaling-stroke; stroke-width: 2px; stroke-dasharray: 4px, 2px; stroke: rgb(181, 181, 181); stroke-opacity: 1;"/></g></g><g class="scatterlayer mlayer"><g class="trace scatter trace85c5a0" style="stroke-miterlimit: 2; opacity: 1;"><g class="fills"/><g class="errorbars"/><g class="lines"/><g class="points"><path class="point" transform="translate(1000,21.12)" d="M2,0A2,2 0 1,1 0,-2A2,2 0 0,1 2,0Z" style="opacity: 1; stroke-width: 0px; fill: rgb(11, 121, 230); fill-opacity: 1;"/></g><g class="text"/></g><g class="trace scatter trace758763" style="stroke-miterlimit: 2; opacity: 1;"><g class="fills"/><g class="errorbars"/><g class="lines"/><g class="points"><path class="point" transform="translate(1000,21.12)" d="M2,0A2,2 0 1,1 0,-2A2,2 0 0,1 2,0Z" style="opacity: 1; stroke-width: 0px; fill: rgb(11, 121, 230); fill-opacity: 1;"/></g><g class="text"/></g><g class="trace scatter trace1ef0b2" style="stroke-miterlimit: 2; opacity: 1;"><g class="fills"/><g class="errorbars"/><g class="lines"/><g class="points"><path class="point" transform="translate(751.24,21.12)" d="M2,0A2,2 0 1,1 0,-2A2,2 0 0,1 2,0Z" style="opacity: 1; stroke-width: 0px; fill: rgb(11, 121, 230); fill-opacity: 1;"/></g><g class="text"/></g><g class="trace scatter tracec484ac" style="stroke-miterlimit: 2; opacity: 1;"><g class="fills"/><g class="errorbars"/><g class="lines"/><g class="points"><path class="point" transform="translate(751.24,21.12)" d="M2,0A2,2 0 1,1 0,-2A2,2 0 0,1 2,0Z" style="opacity: 1; stroke-width: 0px; fill: rgb(11, 121, 230); fill-opacity: 1;"/></g><g class="text"/></g><g class="trace scatter trace5534b2" style="stroke-miterlimit: 2; opacity: 1;"><g class="fills"/><g class="errorbars"/><g class="lines"/><g class="points"><path class="point" transform="translate(751.24,21.12)" d="M2,0A2,2 0 1,1 0,-2A2,2 0 0,1 2,0Z" style="opacity: 1; stroke-width: 0px; fill: rgb(11, 121, 230); fill-opacity: 1;"/></g><g class="text"/></g><g class="trace scatter trace57b577" style="stroke-miterlimit: 2; opacity: 1;"><g class="fills"/><g class="errorbars"/><g class="lines"/><g class="points"><path class="point" transform="translate(1000,21.12)" d="M2,0A2,2 0 1,1 0,-2A2,2 0 0,1 2,0Z" style="opacity: 1; stroke-width: 0px; fill: rgb(11, 121, 230); fill-opacity: 1;"/></g><g class="text"/></g><g class="trace scatter trace4b6a5f" style="stroke-miterlimit: 2; opacity: 1;"><g class="fills"/><g class="errorbars"/><g class="lines"/><g class="points"><path class="point" transform="translate(751.24,21.12)" d="M2,0A2,2 0 1,1 0,-2A2,2 0 0,1 2,0Z" style="opacity: 1; stroke-width: 0px; fill: rgb(11, 121, 230); fill-opacity: 1;"/></g><g class="text"/></g><g class="trace scatter tracee5dc9d" style="stroke-miterlimit: 2; opacity: 1;"><g class="fills"/><g class="errorbars"/><g class="lines"/><g class="points"><path class="point" transform="translate(751.24,21.12)" d="M2,0A2,2 0 1,1 0,-2A2,2 0 0,1 2,0Z" style="opacity: 1; stroke-width: 0px; fill: rgb(11, 121, 230); fill-opacity: 1;"/></g><g class="text"/></g><g class="trace scatter trace1bba42" style="stroke-miterlimit: 2; opacity: 1;"><g class="fills"/><g class="errorbars"/><g class="lines"/><g class="points"><path class="point" transform="translate(502.49,21.12)" d="M2,0A2,2 0 1,1 0,-2A2,2 0 0,1 2,0Z" style="opacity: 1; stroke-width: 0px; fill: rgb(11, 121, 230); fill-opacity: 1;"/></g><g class="text"/></g><g class="trace scatter traceb9c96c" style="stroke-miterlimit: 2; opacity: 1;"><g class="fills"/><g class="errorbars"/><g class="lines"/><g class="points"><path class="point" transform="translate(751.24,21.12)" d="M2,0A2,2 0 1,1 0,-2A2,2 0 0,1 2,0Z" style="opacity: 1; stroke-width: 0px; fill: rgb(11, 121, 230); fill-opacity: 1;"/></g><g class="text"/></g><g class="trace scatter trace032e50" style="stroke-miterlimit: 2; opacity: 1;"><g class="fills"/><g class="errorbars"/><g class="lines"/><g class="points"><path class="point" transform="translate(502.49,21.12)" d="M2,0A2,2 0 1,1 0,-2A2,2 0 0,1 2,0Z" style="opacity: 1; stroke-width: 0px; fill: rgb(11, 121, 230); fill-opacity: 1;"/></g><g class="text"/></g><g class="trace scatter trace55e01f" style="stroke-miterlimit: 2; opacity: 1;"><g class="fills"/><g class="errorbars"/><g class="lines"/><g class="points"><path class="point" transform="translate(502.49,21.12)" d="M2,0A2,2 0 1,1 0,-2A2,2 0 0,1 2,0Z" style="opacity: 1; stroke-width: 0px; fill: rgb(11, 121, 230); fill-opacity: 1;"/></g><g class="text"/></g><g class="trace scatter trace134fac" style="stroke-miterlimit: 2; opacity: 1;"><g class="fills"/><g class="errorbars"/><g class="lines"/><g class="points"><path class="point" transform="translate(502.49,21.12)" d="M2,0A2,2 0 1,1 0,-2A2,2 0 0,1 2,0Z" style="opacity: 1; stroke-width: 0px; fill: rgb(11, 121, 230); fill-opacity: 1;"/></g><g class="text"/></g><g class="trace scatter traced27991" style="stroke-miterlimit: 2; opacity: 1;"><g class="fills"/><g class="errorbars"/><g class="lines"/><g class="points"><path class="point" transform="translate(502.49,21.12)" d="M2,0A2,2 0 1,1 0,-2A2,2 0 0,1 2,0Z" style="opacity: 1; stroke-width: 0px; fill: rgb(11, 121, 230); fill-opacity: 1;"/></g><g class="text"/></g><g class="trace scatter trace85cdd6" style="stroke-miterlimit: 2; opacity: 1;"><g class="fills"/><g class="errorbars"/><g class="lines"/><g class="points"><path class="point" transform="translate(502.49,21.12)" d="M2,0A2,2 0 1,1 0,-2A2,2 0 0,1 2,0Z" style="opacity: 1; stroke-width: 0px; fill: rgb(11, 121, 230); fill-opacity: 1;"/></g><g class="text"/></g><g class="trace scatter trace71f08e" style="stroke-miterlimit: 2; opacity: 1;"><g class="fills"/><g class="errorbars"/><g class="lines"/><g class="points"><path class="point" transform="translate(502.49,21.12)" d="M2,0A2,2 0 1,1 0,-2A2,2 0 0,1 2,0Z" style="opacity: 1; stroke-width: 0px; fill: rgb(11, 121, 230); fill-opacity: 1;"/></g><g class="text"/></g><g class="trace scatter trace909237" style="stroke-miterlimit: 2; opacity: 1;"><g class="fills"/><g class="errorbars"/><g class="lines"/><g class="points"><path class="point" transform="translate(502.49,21.12)" d="M2,0A2,2 0 1,1 0,-2A2,2 0 0,1 2,0Z" style="opacity: 1; stroke-width: 0px; fill: rgb(11, 121, 230); fill-opacity: 1;"/></g><g class="text"/></g><g class="trace scatter trace5c6738" style="stroke-miterlimit: 2; opacity: 1;"><g class="fills"/><g class="errorbars"/><g class="lines"/><g class="points"><path class="point" transform="translate(502.49,21.12)" d="M2,0A2,2 0 1,1 0,-2A2,2 0 0,1 2,0Z" style="opacity: 1; stroke-width: 0px; fill: rgb(11, 121, 230); fill-opacity: 1;"/></g><g class="text"/></g><g class="trace scatter traceb9f081" style="stroke-miterlimit: 2; opacity: 1;"><g class="fills"/><g class="errorbars"/><g class="lines"/><g class="points"><path class="point" transform="translate(502.49,21.12)" d="M2,0A2,2 0 1,1 0,-2A2,2 0 0,1 2,0Z" style="opacity: 1; stroke-width: 0px; fill: rgb(11, 121, 230); fill-opacity: 1;"/></g><g class="text"/></g><g class="trace scatter tracebe2685" style="stroke-miterlimit: 2; opacity: 1;"><g class="fills"/><g class="errorbars"/><g class="lines"/><g class="points"><path class="point" transform="translate(502.49,21.12)" d="M2,0A2,2 0 1,1 0,-2A2,2 0 0,1 2,0Z" style="opacity: 1; stroke-width: 0px; fill: rgb(11, 121, 230); fill-opacity: 1;"/></g><g class="text"/></g></g></g></g><path class="xlines-above crisp" d="M0,0" style="fill: none;"/><path class="ylines-above crisp" d="M0,0" style="fill: none;"/><g class="overlines-above"/><g class="xaxislayer-above"><g class="xtick"><text text-anchor="middle" x="0" y="102.23076923076925" transform="translate(84.98,0)" style="font-family: 'Lucida Grande', 'Open Sans', verdana, arial, sans-serif; font-size: 9px; fill: rgb(0, 0, 0); fill-opacity: 0.5; white-space: pre; opacity: 1;">0</text></g><g class="xtick"><text text-anchor="middle" x="0" y="102.23076923076925" style="font-family: 'Lucida Grande', 'Open Sans', verdana, arial, sans-serif; font-size: 9px; fill: rgb(0, 0, 0); fill-opacity: 0.5; white-space: pre; opacity: 1;" transform="translate(209.35,0)">0.5</text></g><g class="xtick"><text text-anchor="middle" x="0" y="102.23076923076925" style="font-family: 'Lucida Grande', 'Open Sans', verdana, arial, sans-serif; font-size: 9px; fill: rgb(0, 0, 0); fill-opacity: 0.5; white-space: pre; opacity: 1;" transform="translate(333.73,0)">1</text></g><g class="xtick"><text text-anchor="middle" x="0" y="102.23076923076925" style="font-family: 'Lucida Grande', 'Open Sans', verdana, arial, sans-serif; font-size: 9px; fill: rgb(0, 0, 0); fill-opacity: 0.5; white-space: pre; opacity: 1;" transform="translate(458.11,0)">1.5</text></g><g class="xtick"><text text-anchor="middle" x="0" y="102.23076923076925" style="font-family: 'Lucida Grande', 'Open Sans', verdana, arial, sans-serif; font-size: 9px; fill: rgb(0, 0, 0); fill-opacity: 0.5; white-space: pre; opacity: 1;" transform="translate(582.49,0)">2</text></g><g class="xtick"><text text-anchor="middle" x="0" y="102.23076923076925" style="font-family: 'Lucida Grande', 'Open Sans', verdana, arial, sans-serif; font-size: 9px; fill: rgb(0, 0, 0); fill-opacity: 0.5; white-space: pre; opacity: 1;" transform="translate(706.87,0)">2.5</text></g><g class="xtick"><text text-anchor="middle" x="0" y="102.23076923076925" style="font-family: 'Lucida Grande', 'Open Sans', verdana, arial, sans-serif; font-size: 9px; fill: rgb(0, 0, 0); fill-opacity: 0.5; white-space: pre; opacity: 1;" transform="translate(831.24,0)">3</text></g><g class="xtick"><text text-anchor="middle" x="0" y="102.23076923076925" style="font-family: 'Lucida Grande', 'Open Sans', verdana, arial, sans-serif; font-size: 9px; fill: rgb(0, 0, 0); fill-opacity: 0.5; white-space: pre; opacity: 1;" transform="translate(955.62,0)">3.5</text></g><g class="xtick"><text text-anchor="middle" x="0" y="102.23076923076925" style="font-family: 'Lucida Grande', 'Open Sans', verdana, arial, sans-serif; font-size: 9px; fill: rgb(0, 0, 0); fill-opacity: 0.5; white-space: pre; opacity: 1;" transform="translate(1080,0)">4</text></g></g><g class="yaxislayer-above"><g class="ytick"><text text-anchor="end" x="79" y="3.15" transform="translate(0,71.12000000000002)" style="font-family: 'Lucida Grande', 'Open Sans', verdana, arial, sans-serif; font-size: 9px; fill: rgb(0, 0, 0); fill-opacity: 0.5; white-space: pre; opacity: 1;">Reports  </text></g></g><g class="overaxes-above"/></g><g class="subplot x2y2"><g class="layer-subplot"><g class="shapelayer"/><g class="imagelayer"/></g><g class="minor-gridlayer"><g class="x2"/><g class="y2"/></g><g class="gridlayer"><g class="x2"><path class="x2grid crisp" transform="translate(254.58,0)" d="M0,120.3846153846154v42.230769230769226" style="stroke: rgb(0, 0, 0); stroke-opacity: 0.1; stroke-width: 1px;"/><path class="x2grid crisp" transform="translate(424.19,0)" d="M0,120.3846153846154v42.230769230769226" style="stroke: rgb(0, 0, 0); stroke-opacity: 0.1; stroke-width: 1px;"/><path class="x2grid crisp" transform="translate(593.79,0)" d="M0,120.3846153846154v42.230769230769226" style="stroke: rgb(0, 0, 0); stroke-opacity: 0.1; stroke-width: 1px;"/><path class="x2grid crisp" transform="translate(763.4,0)" d="M0,120.3846153846154v42.230769230769226" style="stroke: rgb(0, 0, 0); stroke-opacity: 0.1; stroke-width: 1px;"/><path class="x2grid crisp" transform="translate(933,0)" d="M0,120.3846153846154v42.230769230769226" style="stroke: rgb(0, 0, 0); stroke-opacity: 0.1; stroke-width: 1px;"/></g><g class="y2"><path class="y2grid crisp" transform="translate(0,141.5046153846154)" d="M80,0h1005" style="stroke: rgb(0, 0, 0); stroke-opacity: 0.1; stroke-width: 1px;"/></g></g><g class="zerolinelayer"><path class="x2zl zl crisp" transform="translate(84.98,0)" d="M0,120.3846153846154v42.230769230769226" style="stroke: rgb(0, 0, 0); stroke-opacity: 0.1; stroke-width: 1px;"/></g><g class="layer-between"><g class="shapelayer"/><g class="imagelayer"/></g><path class="xlines-below"/><path class="ylines-below"/><g class="overlines-below"/><g class="xaxislayer-below"/><g class="yaxislayer-below"/><g class="overaxes-below"/><g class="overplot"><g class="x2y2" transform="translate(80,120.3846153846154)" clip-path="url(#clip26aa19x2y2plot)"><g class="violinlayer mlayer"><g class="trace violins" style="opacity: 0.5;"><path class="violin" d="M96.95,20.19Q112.39,19.67 120.11,19.29C127.83,18.9 135.56,18.44 143.28,17.88C151.01,17.31 158.73,16.63 166.45,15.9C174.17,15.17 181.89,14.31 189.61,13.49C197.33,12.66 205.06,11.75 212.78,10.95C220.5,10.15 228.21,9.33 235.94,8.68C243.66,8.03 251.38,7.46 259.11,7.07C266.83,6.68 274.56,6.43 282.28,6.33C290,6.23 297.72,6.31 305.44,6.46C313.16,6.61 320.89,6.93 328.61,7.26C336.33,7.59 344.05,8.03 351.77,8.45C359.49,8.87 367.22,9.34 374.94,9.8C382.66,10.26 390.39,10.73 398.11,11.19C405.83,11.65 413.55,12.11 421.27,12.56C428.99,13.01 436.72,13.45 444.44,13.88C452.16,14.31 459.88,14.73 467.6,15.12C475.32,15.51 483.05,15.89 490.77,16.23C498.49,16.57 506.22,16.89 513.94,17.18C521.66,17.47 529.38,17.74 537.1,17.98C544.82,18.23 552.55,18.44 560.27,18.65C567.99,18.86 575.71,19.06 583.43,19.24C591.15,19.43 598.88,19.6 606.6,19.76C614.32,19.92 622.05,20.06 629.77,20.19C637.49,20.32 645.21,20.43 652.93,20.53C660.65,20.63 668.38,20.71 676.1,20.78C683.82,20.85 691.55,20.9 699.27,20.94C706.99,20.98 714.71,21.01 722.43,21.03C730.15,21.05 737.88,21.07 745.6,21.08C753.32,21.09 761.04,21.1 768.76,21.1C776.48,21.1 784.21,21.1 791.93,21.1C799.65,21.1 807.38,21.09 815.1,21.08C822.82,21.07 830.54,21.05 838.26,21.03C845.98,21.01 853.71,20.99 861.43,20.95C869.15,20.91 876.87,20.87 884.59,20.81C892.31,20.75 900.04,20.68 907.76,20.61C915.48,20.54 923.21,20.45 930.93,20.37C938.65,20.29 946.37,20.2 954.09,20.13C961.81,20.06 969.54,20 977.26,19.96C984.98,19.92 992.7,19.89 1000.42,19.89C1008.14,19.89 1015.87,19.92 1023.59,19.96C1031.31,20 1039.04,20.07 1046.76,20.14C1054.48,20.21 1062.2,20.3 1069.92,20.38C1077.64,20.46 1085.37,20.54 1093.09,20.61C1100.81,20.68 1108.53,20.75 1116.25,20.81Q1123.97,20.87 1139.42,20.95L1139.42,21.28Q1123.97,21.36 1116.25,21.42C1108.53,21.48 1100.81,21.55 1093.09,21.62C1085.37,21.69 1077.64,21.77 1069.92,21.85C1062.2,21.93 1054.48,22.02 1046.76,22.09C1039.04,22.16 1031.31,22.23 1023.59,22.27C1015.87,22.31 1008.14,22.34 1000.42,22.34C992.7,22.34 984.98,22.31 977.26,22.27C969.54,22.23 961.81,22.17 954.09,22.1C946.37,22.03 938.65,21.94 930.93,21.86C923.21,21.78 915.48,21.69 907.76,21.62C900.04,21.55 892.31,21.49 884.59,21.43C876.87,21.37 869.15,21.32 861.43,21.28C853.71,21.24 845.98,21.22 838.26,21.2C830.54,21.18 822.82,21.16 815.1,21.15C807.38,21.14 799.65,21.13 791.93,21.13C784.21,21.13 776.48,21.13 768.76,21.13C761.04,21.13 753.32,21.14 745.6,21.15C737.88,21.16 730.15,21.18 722.43,21.2C714.71,21.22 706.99,21.25 699.27,21.29C691.55,21.33 683.82,21.38 676.1,21.45C668.38,21.52 660.65,21.6 652.93,21.7C645.21,21.8 637.49,21.91 629.77,22.04C622.05,22.17 614.32,22.32 606.6,22.48C598.88,22.64 591.15,22.81 583.43,22.99C575.71,23.17 567.99,23.37 560.27,23.58C552.55,23.79 544.82,24 537.1,24.25C529.38,24.49 521.66,24.76 513.94,25.05C506.22,25.34 498.49,25.66 490.77,26C483.05,26.34 475.32,26.72 467.6,27.11C459.88,27.5 452.16,27.92 444.44,28.35C436.72,28.78 428.99,29.22 421.27,29.67C413.55,30.12 405.83,30.58 398.11,31.04C390.39,31.5 382.66,31.97 374.94,32.43C367.22,32.89 359.49,33.36 351.77,33.78C344.05,34.2 336.33,34.64 328.61,34.97C320.89,35.3 313.16,35.62 305.44,35.77C297.72,35.92 290,36 282.28,35.9C274.56,35.8 266.83,35.55 259.11,35.16C251.38,34.77 243.66,34.2 235.94,33.55C228.21,32.9 220.5,32.08 212.78,31.28C205.06,30.48 197.33,29.57 189.61,28.74C181.89,27.92 174.17,27.06 166.45,26.33C158.73,25.6 151.01,24.92 143.28,24.35C135.56,23.79 127.83,23.33 120.11,22.94Q112.39,22.56 96.95,22.04Z" style="vector-effect: none; stroke-width: 2px; stroke: rgb(181, 181, 181); stroke-opacity: 1; fill: rgb(181, 181, 181); fill-opacity: 1;"/><path class="box" d="M319.52,24.81V17.42M254.13,24.81V17.42H415.8V24.81ZM254.13,21.12H236.37M415.8,21.12H559.2" style="vector-effect: non-scaling-stroke; stroke-width: 2px; stroke: rgb(181, 181, 181); stroke-opacity: 1; fill: rgb(181, 181, 181); fill-opacity: 1;"/><path class="mean" d="M365.77,24.81V17.42" style="fill: none; vector-effect: non-scaling-stroke; stroke-width: 2px; stroke-dasharray: 4px, 2px; stroke: rgb(181, 181, 181); stroke-opacity: 1;"/></g></g><g class="scatterlayer mlayer"><g class="trace scatter trace8bb56d" style="stroke-miterlimit: 2; opacity: 1;"><g class="fills"/><g class="errorbars"/><g class="lines"/><g class="points"><path class="point" transform="translate(1000,21.12)" d="M2,0A2,2 0 1,1 0,-2A2,2 0 0,1 2,0Z" style="opacity: 1; stroke-width: 0px; fill: rgb(11, 121, 230); fill-opacity: 1;"/></g><g class="text"/></g><g class="trace scatter trace4ee211" style="stroke-miterlimit: 2; opacity: 1;"><g class="fills"/><g class="errorbars"/><g class="lines"/><g class="points"><path class="point" transform="translate(559.2,21.12)" d="M2,0A2,2 0 1,1 0,-2A2,2 0 0,1 2,0Z" style="opacity: 1; stroke-width: 0px; fill: rgb(11, 121, 230); fill-opacity: 1;"/></g><g class="text"/></g><g class="trace scatter trace053802" style="stroke-miterlimit: 2; opacity: 1;"><g class="fills"/><g class="errorbars"/><g class="lines"/><g class="points"><path class="point" transform="translate(488.48,21.12)" d="M2,0A2,2 0 1,1 0,-2A2,2 0 0,1 2,0Z" style="opacity: 1; stroke-width: 0px; fill: rgb(11, 121, 230); fill-opacity: 1;"/></g><g class="text"/></g><g class="trace scatter trace5460b4" style="stroke-miterlimit: 2; opacity: 1;"><g class="fills"/><g class="errorbars"/><g class="lines"/><g class="points"><path class="point" transform="translate(416.62,21.12)" d="M2,0A2,2 0 1,1 0,-2A2,2 0 0,1 2,0Z" style="opacity: 1; stroke-width: 0px; fill: rgb(11, 121, 230); fill-opacity: 1;"/></g><g class="text"/></g><g class="trace scatter trace31328f" style="stroke-miterlimit: 2; opacity: 1;"><g class="fills"/><g class="errorbars"/><g class="lines"/><g class="points"><path class="point" transform="translate(416.44,21.12)" d="M2,0A2,2 0 1,1 0,-2A2,2 0 0,1 2,0Z" style="opacity: 1; stroke-width: 0px; fill: rgb(11, 121, 230); fill-opacity: 1;"/></g><g class="text"/></g><g class="trace scatter trace3fe807" style="stroke-miterlimit: 2; opacity: 1;"><g class="fills"/><g class="errorbars"/><g class="lines"/><g class="points"><path class="point" transform="translate(415.15,21.12)" d="M2,0A2,2 0 1,1 0,-2A2,2 0 0,1 2,0Z" style="opacity: 1; stroke-width: 0px; fill: rgb(11, 121, 230); fill-opacity: 1;"/></g><g class="text"/></g><g class="trace scatter trace6196c9" style="stroke-miterlimit: 2; opacity: 1;"><g class="fills"/><g class="errorbars"/><g class="lines"/><g class="points"><path class="point" transform="translate(392.68,21.12)" d="M2,0A2,2 0 1,1 0,-2A2,2 0 0,1 2,0Z" style="opacity: 1; stroke-width: 0px; fill: rgb(11, 121, 230); fill-opacity: 1;"/></g><g class="text"/></g><g class="trace scatter trace3a7736" style="stroke-miterlimit: 2; opacity: 1;"><g class="fills"/><g class="errorbars"/><g class="lines"/><g class="points"><path class="point" transform="translate(341.6,21.12)" d="M2,0A2,2 0 1,1 0,-2A2,2 0 0,1 2,0Z" style="opacity: 1; stroke-width: 0px; fill: rgb(11, 121, 230); fill-opacity: 1;"/></g><g class="text"/></g><g class="trace scatter trace899fe9" style="stroke-miterlimit: 2; opacity: 1;"><g class="fills"/><g class="errorbars"/><g class="lines"/><g class="points"><path class="point" transform="translate(333.2,21.12)" d="M2,0A2,2 0 1,1 0,-2A2,2 0 0,1 2,0Z" style="opacity: 1; stroke-width: 0px; fill: rgb(11, 121, 230); fill-opacity: 1;"/></g><g class="text"/></g><g class="trace scatter trace212400" style="stroke-miterlimit: 2; opacity: 1;"><g class="fills"/><g class="errorbars"/><g class="lines"/><g class="points"><path class="point" transform="translate(322.42,21.12)" d="M2,0A2,2 0 1,1 0,-2A2,2 0 0,1 2,0Z" style="opacity: 1; stroke-width: 0px; fill: rgb(11, 121, 230); fill-opacity: 1;"/></g><g class="text"/></g><g class="trace scatter trace4f1192" style="stroke-miterlimit: 2; opacity: 1;"><g class="fills"/><g class="errorbars"/><g class="lines"/><g class="points"><path class="point" transform="translate(316.63,21.12)" d="M2,0A2,2 0 1,1 0,-2A2,2 0 0,1 2,0Z" style="opacity: 1; stroke-width: 0px; fill: rgb(11, 121, 230); fill-opacity: 1;"/></g><g class="text"/></g><g class="trace scatter trace0d29a5" style="stroke-miterlimit: 2; opacity: 1;"><g class="fills"/><g class="errorbars"/><g class="lines"/><g class="points"><path class="point" transform="translate(293.13,21.12)" d="M2,0A2,2 0 1,1 0,-2A2,2 0 0,1 2,0Z" style="opacity: 1; stroke-width: 0px; fill: rgb(11, 121, 230); fill-opacity: 1;"/></g><g class="text"/></g><g class="trace scatter tracef8c9ef" style="stroke-miterlimit: 2; opacity: 1;"><g class="fills"/><g class="errorbars"/><g class="lines"/><g class="points"><path class="point" transform="translate(281.91,21.12)" d="M2,0A2,2 0 1,1 0,-2A2,2 0 0,1 2,0Z" style="opacity: 1; stroke-width: 0px; fill: rgb(11, 121, 230); fill-opacity: 1;"/></g><g class="text"/></g><g class="trace scatter trace468e33" style="stroke-miterlimit: 2; opacity: 1;"><g class="fills"/><g class="errorbars"/><g class="lines"/><g class="points"><path class="point" transform="translate(269.33,21.12)" d="M2,0A2,2 0 1,1 0,-2A2,2 0 0,1 2,0Z" style="opacity: 1; stroke-width: 0px; fill: rgb(11, 121, 230); fill-opacity: 1;"/></g><g class="text"/></g><g class="trace scatter tracec5ba46" style="stroke-miterlimit: 2; opacity: 1;"><g class="fills"/><g class="errorbars"/><g class="lines"/><g class="points"><path class="point" transform="translate(259.84,21.12)" d="M2,0A2,2 0 1,1 0,-2A2,2 0 0,1 2,0Z" style="opacity: 1; stroke-width: 0px; fill: rgb(11, 121, 230); fill-opacity: 1;"/></g><g class="text"/></g><g class="trace scatter trace81d842" style="stroke-miterlimit: 2; opacity: 1;"><g class="fills"/><g class="errorbars"/><g class="lines"/><g class="points"><path class="point" transform="translate(248.42,21.12)" d="M2,0A2,2 0 1,1 0,-2A2,2 0 0,1 2,0Z" style="opacity: 1; stroke-width: 0px; fill: rgb(11, 121, 230); fill-opacity: 1;"/></g><g class="text"/></g><g class="trace scatter trace4f3b9a" style="stroke-miterlimit: 2; opacity: 1;"><g class="fills"/><g class="errorbars"/><g class="lines"/><g class="points"><path class="point" transform="translate(243.15,21.12)" d="M2,0A2,2 0 1,1 0,-2A2,2 0 0,1 2,0Z" style="opacity: 1; stroke-width: 0px; fill: rgb(11, 121, 230); fill-opacity: 1;"/></g><g class="text"/></g><g class="trace scatter traceb7a878" style="stroke-miterlimit: 2; opacity: 1;"><g class="fills"/><g class="errorbars"/><g class="lines"/><g class="points"><path class="point" transform="translate(242.63,21.12)" d="M2,0A2,2 0 1,1 0,-2A2,2 0 0,1 2,0Z" style="opacity: 1; stroke-width: 0px; fill: rgb(11, 121, 230); fill-opacity: 1;"/></g><g class="text"/></g><g class="trace scatter trace2758bd" style="stroke-miterlimit: 2; opacity: 1;"><g class="fills"/><g class="errorbars"/><g class="lines"/><g class="points"><path class="point" transform="translate(238.28,21.12)" d="M2,0A2,2 0 1,1 0,-2A2,2 0 0,1 2,0Z" style="opacity: 1; stroke-width: 0px; fill: rgb(11, 121, 230); fill-opacity: 1;"/></g><g class="text"/></g><g class="trace scatter trace0bacab" style="stroke-miterlimit: 2; opacity: 1;"><g class="fills"/><g class="errorbars"/><g class="lines"/><g class="points"><path class="point" transform="translate(236.37,21.12)" d="M2,0A2,2 0 1,1 0,-2A2,2 0 0,1 2,0Z" style="opacity: 1; stroke-width: 0px; fill: rgb(11, 121, 230); fill-opacity: 1;"/></g><g class="text"/></g></g></g></g><path class="xlines-above crisp" d="M0,0" style="fill: none;"/><path class="ylines-above crisp" d="M0,0" style="fill: none;"/><g class="overlines-above"/><g class="xaxislayer-above"><g class="x2tick"><text text-anchor="middle" x="0" y="172.61538461538464" transform="translate(84.98,0)" style="font-family: 'Lucida Grande', 'Open Sans', verdana, arial, sans-serif; font-size: 9px; fill: rgb(0, 0, 0); fill-opacity: 0.5; white-space: pre; opacity: 1;">0</text></g><g class="x2tick"><text text-anchor="middle" x="0" y="172.61538461538464" style="font-family: 'Lucida Grande', 'Open Sans', verdana, arial, sans-serif; font-size: 9px; fill: rgb(0, 0, 0); fill-opacity: 0.5; white-space: pre; opacity: 1;" transform="translate(254.58,0)">50k</text></g><g class="x2tick"><text text-anchor="middle" x="0" y="172.61538461538464" style="font-family: 'Lucida Grande', 'Open Sans', verdana, arial, sans-serif; font-size: 9px; fill: rgb(0, 0, 0); fill-opacity: 0.5; white-space: pre; opacity: 1;" transform="translate(424.19,0)">100k</text></g><g class="x2tick"><text text-anchor="middle" x="0" y="172.61538461538464" style="font-family: 'Lucida Grande', 'Open Sans', verdana, arial, sans-serif; font-size: 9px; fill: rgb(0, 0, 0); fill-opacity: 0.5; white-space: pre; opacity: 1;" transform="translate(593.79,0)">150k</text></g><g class="x2tick"><text text-anchor="middle" x="0" y="172.61538461538464" style="font-family: 'Lucida Grande', 'Open Sans', verdana, arial, sans-serif; font-size: 9px; fill: rgb(0, 0, 0); fill-opacity: 0.5; white-space: pre; opacity: 1;" transform="translate(763.4,0)">200k</text></g><g class="x2tick"><text text-anchor="middle" x="0" y="172.61538461538464" style="font-family: 'Lucida Grande', 'Open Sans', verdana, arial, sans-serif; font-size: 9px; fill: rgb(0, 0, 0); fill-opacity: 0.5; white-space: pre; opacity: 1;" transform="translate(933,0)">250k</text></g></g><g class="yaxislayer-above"><g class="y2tick"><text text-anchor="end" x="79" y="3.15" transform="translate(0,141.5046153846154)" style="font-family: 'Lucida Grande', 'Open Sans', verdana, arial, sans-serif; font-size: 9px; fill: rgb(0, 0, 0); fill-opacity: 0.5; white-space: pre; opacity: 1;">Occurrences  </text></g></g><g class="overaxes-above"/></g><g class="subplot x3y3"><g class="layer-subplot"><g class="shapelayer"/><g class="imagelayer"/></g><g class="minor-gridlayer"><g class="x3"/><g class="y3"/></g><g class="gridlayer"><g class="x3"><path class="x3grid crisp" transform="translate(283.98,0)" d="M0,190.76923076923077v42.230769230769226" style="stroke: rgb(0, 0, 0); stroke-opacity: 0.1; stroke-width: 1px;"/><path class="x3grid crisp" transform="translate(482.99,0)" d="M0,190.76923076923077v42.230769230769226" style="stroke: rgb(0, 0, 0); stroke-opacity: 0.1; stroke-width: 1px;"/><path class="x3grid crisp" transform="translate(681.99,0)" d="M0,190.76923076923077v42.230769230769226" style="stroke: rgb(0, 0, 0); stroke-opacity: 0.1; stroke-width: 1px;"/><path class="x3grid crisp" transform="translate(881,0)" d="M0,190.76923076923077v42.230769230769226" style="stroke: rgb(0, 0, 0); stroke-opacity: 0.1; stroke-width: 1px;"/><path class="x3grid crisp" transform="translate(1080,0)" d="M0,190.76923076923077v42.230769230769226" style="stroke: rgb(0, 0, 0); stroke-opacity: 0.1; stroke-width: 1px;"/></g><g class="y3"><path class="y3grid crisp" transform="translate(0,211.88923076923078)" d="M80,0h1005" style="stroke: rgb(0, 0, 0); stroke-opacity: 0.1; stroke-width: 1px;"/></g></g><g class="zerolinelayer"><path class="x3zl zl crisp" transform="translate(84.98,0)" d="M0,190.76923076923077v42.230769230769226" style="stroke: rgb(0, 0, 0); stroke-opacity: 0.1; stroke-width: 1px;"/></g><g class="layer-between"><g class="shapelayer"/><g class="imagelayer"/></g><path class="xlines-below"/><path class="ylines-below"/><g class="overlines-below"/><g class="xaxislayer-below"/><g class="yaxislayer-below"/><g class="overaxes-below"/><g class="overplot"><g class="x3y3" transform="translate(80,190.76923076923077)" clip-path="url(#clip26aa19x3y3plot)"><g class="violinlayer mlayer"><g class="trace violins" style="opacity: 0.5;"><path class="violin" d="M5.07,20.19Q5.08,19.62 5.09,19.29C5.1,18.87 5.11,18.39 5.12,17.88C5.13,17.28 5.13,16.59 5.14,15.9C5.15,15.14 5.15,14.3 5.16,13.49C5.17,12.65 5.18,11.77 5.19,10.95C5.2,10.17 5.2,9.37 5.21,8.68C5.22,8.1 5.22,7.5 5.23,7.07C5.24,6.78 5.25,6.33 5.26,6.33C5.27,6.33 5.27,6.4 5.28,6.46C5.29,6.61 5.29,6.97 5.3,7.26C5.31,7.62 5.32,8.04 5.33,8.45C5.34,8.89 5.34,9.35 5.35,9.8C5.36,10.26 5.37,10.73 5.38,11.19C5.39,11.65 5.39,12.11 5.4,12.56C5.41,13 5.41,13.45 5.42,13.88C5.43,14.3 5.44,14.72 5.45,15.12C5.46,15.5 5.46,15.87 5.47,16.23C5.48,16.56 5.48,16.88 5.49,17.18C5.5,17.46 5.51,17.73 5.52,17.98C5.53,18.21 5.53,18.43 5.54,18.65C5.55,18.85 5.55,19.05 5.56,19.24C5.57,19.42 5.58,19.59 5.59,19.76C5.6,19.91 5.6,20.06 5.61,20.19C5.62,20.31 5.62,20.43 5.63,20.53C5.64,20.62 5.65,20.71 5.66,20.78C5.67,20.84 5.67,20.89 5.68,20.94C5.69,20.97 5.7,21 5.71,21.03C5.72,21.05 5.72,21.07 5.73,21.08C5.74,21.09 5.74,21.1 5.75,21.1C5.76,21.1 5.77,21.1 5.78,21.1C5.79,21.1 5.79,21.09 5.8,21.08C5.81,21.07 5.81,21.05 5.82,21.03C5.83,21.01 5.84,20.98 5.85,20.95C5.86,20.91 5.86,20.86 5.87,20.81C5.88,20.75 5.88,20.68 5.89,20.61C5.9,20.53 5.91,20.45 5.92,20.37C5.93,20.29 5.93,20.2 5.94,20.13C5.95,20.07 5.95,20 5.96,19.96C5.97,19.93 5.98,19.89 5.99,19.89C6,19.89 6,19.93 6.01,19.96C6.02,20.01 6.03,20.08 6.04,20.14C6.05,20.21 6.05,20.3 6.06,20.38C6.07,20.46 6.07,20.54 6.08,20.61C6.09,20.68 6.1,20.75 6.11,20.81Q6.12,20.86 6.13,20.95L6.13,21.28Q6.12,21.37 6.11,21.42C6.1,21.48 6.09,21.55 6.08,21.62C6.07,21.69 6.07,21.77 6.06,21.85C6.05,21.93 6.05,22.02 6.04,22.09C6.03,22.15 6.02,22.22 6.01,22.27C6,22.3 6,22.34 5.99,22.34C5.98,22.34 5.97,22.3 5.96,22.27C5.95,22.23 5.95,22.16 5.94,22.1C5.93,22.03 5.93,21.94 5.92,21.86C5.91,21.78 5.9,21.7 5.89,21.62C5.88,21.55 5.88,21.49 5.87,21.43C5.86,21.38 5.86,21.32 5.85,21.28C5.84,21.25 5.83,21.22 5.82,21.2C5.81,21.18 5.81,21.16 5.8,21.15C5.79,21.14 5.79,21.13 5.78,21.13C5.77,21.13 5.76,21.13 5.75,21.13C5.74,21.13 5.74,21.14 5.73,21.15C5.72,21.16 5.72,21.18 5.71,21.2C5.7,21.23 5.69,21.26 5.68,21.29C5.67,21.34 5.67,21.39 5.66,21.45C5.65,21.52 5.64,21.61 5.63,21.7C5.62,21.8 5.62,21.92 5.61,22.04C5.6,22.18 5.6,22.33 5.59,22.48C5.58,22.64 5.57,22.81 5.56,22.99C5.55,23.18 5.55,23.38 5.54,23.58C5.53,23.8 5.53,24.02 5.52,24.25C5.51,24.5 5.5,24.77 5.49,25.05C5.48,25.35 5.48,25.67 5.47,26C5.46,26.36 5.46,26.73 5.45,27.11C5.44,27.51 5.43,27.93 5.42,28.35C5.41,28.78 5.41,29.23 5.4,29.67C5.39,30.12 5.39,30.58 5.38,31.04C5.37,31.5 5.36,31.97 5.35,32.43C5.34,32.88 5.34,33.34 5.33,33.78C5.32,34.19 5.31,34.61 5.3,34.97C5.29,35.26 5.29,35.62 5.28,35.77C5.27,35.83 5.27,35.9 5.26,35.9C5.25,35.9 5.24,35.45 5.23,35.16C5.22,34.73 5.22,34.13 5.21,33.55C5.2,32.86 5.2,32.06 5.19,31.28C5.18,30.46 5.17,29.58 5.16,28.74C5.15,27.93 5.15,27.09 5.14,26.33C5.13,25.64 5.13,24.95 5.12,24.35C5.11,23.84 5.1,23.36 5.09,22.94Q5.08,22.61 5.07,22.04Z" style="vector-effect: none; stroke-width: 2px; stroke: rgb(181, 181, 181); stroke-opacity: 1; fill: rgb(181, 181, 181); fill-opacity: 1;"/><path class="box" d="M5.3,24.81V17.42M5.23,24.81V17.42H5.39V24.81ZM5.23,21.12H5.21M5.39,21.12H5.54" style="vector-effect: non-scaling-stroke; stroke-width: 2px; stroke: rgb(181, 181, 181); stroke-opacity: 1; fill: rgb(181, 181, 181); fill-opacity: 1;"/><path class="mean" d="M5.34,24.81V17.42" style="fill: none; vector-effect: non-scaling-stroke; stroke-width: 2px; stroke-dasharray: 4px, 2px; stroke: rgb(181, 181, 181); stroke-opacity: 1;"/></g></g><g class="scatterlayer mlayer"><g class="trace scatter trace69b39f" style="stroke-miterlimit: 2; opacity: 1;"><g class="fills"/><g class="errorbars"/><g class="lines"/><g class="points"><path class="point" transform="translate(5.99,21.12)" d="M2,0A2,2 0 1,1 0,-2A2,2 0 0,1 2,0Z" style="opacity: 1; stroke-width: 0px; fill: rgb(11, 121, 230); fill-opacity: 1;"/></g><g class="text"/></g><g class="trace scatter trace2f9e1d" style="stroke-miterlimit: 2; opacity: 1;"><g class="fills"/><g class="errorbars"/><g class="lines"/><g class="points"><path class="point" transform="translate(5.54,21.12)" d="M2,0A2,2 0 1,1 0,-2A2,2 0 0,1 2,0Z" style="opacity: 1; stroke-width: 0px; fill: rgb(11, 121, 230); fill-opacity: 1;"/></g><g class="text"/></g><g class="trace scatter trace758ba2" style="stroke-miterlimit: 2; opacity: 1;"><g class="fills"/><g class="errorbars"/><g class="lines"/><g class="points"><path class="point" transform="translate(5.47,21.12)" d="M2,0A2,2 0 1,1 0,-2A2,2 0 0,1 2,0Z" style="opacity: 1; stroke-width: 0px; fill: rgb(11, 121, 230); fill-opacity: 1;"/></g><g class="text"/></g><g class="trace scatter trace94f665" style="stroke-miterlimit: 2; opacity: 1;"><g class="fills"/><g class="errorbars"/><g class="lines"/><g class="points"><path class="point" transform="translate(5.39,21.12)" d="M2,0A2,2 0 1,1 0,-2A2,2 0 0,1 2,0Z" style="opacity: 1; stroke-width: 0px; fill: rgb(11, 121, 230); fill-opacity: 1;"/></g><g class="text"/></g><g class="trace scatter trace4018a4" style="stroke-miterlimit: 2; opacity: 1;"><g class="fills"/><g class="errorbars"/><g class="lines"/><g class="points"><path class="point" transform="translate(5.39,21.12)" d="M2,0A2,2 0 1,1 0,-2A2,2 0 0,1 2,0Z" style="opacity: 1; stroke-width: 0px; fill: rgb(11, 121, 230); fill-opacity: 1;"/></g><g class="text"/></g><g class="trace scatter traceed5f16" style="stroke-miterlimit: 2; opacity: 1;"><g class="fills"/><g class="errorbars"/><g class="lines"/><g class="points"><path class="point" transform="translate(5.39,21.12)" d="M2,0A2,2 0 1,1 0,-2A2,2 0 0,1 2,0Z" style="opacity: 1; stroke-width: 0px; fill: rgb(11, 121, 230); fill-opacity: 1;"/></g><g class="text"/></g><g class="trace scatter tracefcd381" style="stroke-miterlimit: 2; opacity: 1;"><g class="fills"/><g class="errorbars"/><g class="lines"/><g class="points"><path class="point" transform="translate(5.37,21.12)" d="M2,0A2,2 0 1,1 0,-2A2,2 0 0,1 2,0Z" style="opacity: 1; stroke-width: 0px; fill: rgb(11, 121, 230); fill-opacity: 1;"/></g><g class="text"/></g><g class="trace scatter trace83fd21" style="stroke-miterlimit: 2; opacity: 1;"><g class="fills"/><g class="errorbars"/><g class="lines"/><g class="points"><path class="point" transform="translate(5.32,21.12)" d="M2,0A2,2 0 1,1 0,-2A2,2 0 0,1 2,0Z" style="opacity: 1; stroke-width: 0px; fill: rgb(11, 121, 230); fill-opacity: 1;"/></g><g class="text"/></g><g class="trace scatter traceb4ea6a" style="stroke-miterlimit: 2; opacity: 1;"><g class="fills"/><g class="errorbars"/><g class="lines"/><g class="points"><path class="point" transform="translate(5.31,21.12)" d="M2,0A2,2 0 1,1 0,-2A2,2 0 0,1 2,0Z" style="opacity: 1; stroke-width: 0px; fill: rgb(11, 121, 230); fill-opacity: 1;"/></g><g class="text"/></g><g class="trace scatter trace729b4a" style="stroke-miterlimit: 2; opacity: 1;"><g class="fills"/><g class="errorbars"/><g class="lines"/><g class="points"><path class="point" transform="translate(5.3,21.12)" d="M2,0A2,2 0 1,1 0,-2A2,2 0 0,1 2,0Z" style="opacity: 1; stroke-width: 0px; fill: rgb(11, 121, 230); fill-opacity: 1;"/></g><g class="text"/></g><g class="trace scatter tracecf2ab5" style="stroke-miterlimit: 2; opacity: 1;"><g class="fills"/><g class="errorbars"/><g class="lines"/><g class="points"><path class="point" transform="translate(5.29,21.12)" d="M2,0A2,2 0 1,1 0,-2A2,2 0 0,1 2,0Z" style="opacity: 1; stroke-width: 0px; fill: rgb(11, 121, 230); fill-opacity: 1;"/></g><g class="text"/></g><g class="trace scatter traced1e3d8" style="stroke-miterlimit: 2; opacity: 1;"><g class="fills"/><g class="errorbars"/><g class="lines"/><g class="points"><path class="point" transform="translate(5.27,21.12)" d="M2,0A2,2 0 1,1 0,-2A2,2 0 0,1 2,0Z" style="opacity: 1; stroke-width: 0px; fill: rgb(11, 121, 230); fill-opacity: 1;"/></g><g class="text"/></g><g class="trace scatter trace1eb35f" style="stroke-miterlimit: 2; opacity: 1;"><g class="fills"/><g class="errorbars"/><g class="lines"/><g class="points"><path class="point" transform="translate(5.26,21.12)" d="M2,0A2,2 0 1,1 0,-2A2,2 0 0,1 2,0Z" style="opacity: 1; stroke-width: 0px; fill: rgb(11, 121, 230); fill-opacity: 1;"/></g><g class="text"/></g><g class="trace scatter trace321e41" style="stroke-miterlimit: 2; opacity: 1;"><g class="fills"/><g class="errorbars"/><g class="lines"/><g class="points"><path class="point" transform="translate(5.24,21.12)" d="M2,0A2,2 0 1,1 0,-2A2,2 0 0,1 2,0Z" style="opacity: 1; stroke-width: 0px; fill: rgb(11, 121, 230); fill-opacity: 1;"/></g><g class="text"/></g><g class="trace scatter trace1942df" style="stroke-miterlimit: 2; opacity: 1;"><g class="fills"/><g class="errorbars"/><g class="lines"/><g class="points"><path class="point" transform="translate(5.23,21.12)" d="M2,0A2,2 0 1,1 0,-2A2,2 0 0,1 2,0Z" style="opacity: 1; stroke-width: 0px; fill: rgb(11, 121, 230); fill-opacity: 1;"/></g><g class="text"/></g><g class="trace scatter trace1e3287" style="stroke-miterlimit: 2; opacity: 1;"><g class="fills"/><g class="errorbars"/><g class="lines"/><g class="points"><path class="point" transform="translate(5.22,21.12)" d="M2,0A2,2 0 1,1 0,-2A2,2 0 0,1 2,0Z" style="opacity: 1; stroke-width: 0px; fill: rgb(11, 121, 230); fill-opacity: 1;"/></g><g class="text"/></g><g class="trace scatter trace21ee6d" style="stroke-miterlimit: 2; opacity: 1;"><g class="fills"/><g class="errorbars"/><g class="lines"/><g class="points"><path class="point" transform="translate(5.22,21.12)" d="M2,0A2,2 0 1,1 0,-2A2,2 0 0,1 2,0Z" style="opacity: 1; stroke-width: 0px; fill: rgb(11, 121, 230); fill-opacity: 1;"/></g><g class="text"/></g><g class="trace scatter trace1be536" style="stroke-miterlimit: 2; opacity: 1;"><g class="fills"/><g class="errorbars"/><g class="lines"/><g class="points"><path class="point" transform="translate(5.22,21.12)" d="M2,0A2,2 0 1,1 0,-2A2,2 0 0,1 2,0Z" style="opacity: 1; stroke-width: 0px; fill: rgb(11, 121, 230); fill-opacity: 1;"/></g><g class="text"/></g><g class="trace scatter tracef2e78f" style="stroke-miterlimit: 2; opacity: 1;"><g class="fills"/><g class="errorbars"/><g class="lines"/><g class="points"><path class="point" transform="translate(5.21,21.12)" d="M2,0A2,2 0 1,1 0,-2A2,2 0 0,1 2,0Z" style="opacity: 1; stroke-width: 0px; fill: rgb(11, 121, 230); fill-opacity: 1;"/></g><g class="text"/></g><g class="trace scatter traced90d0e" style="stroke-miterlimit: 2; opacity: 1;"><g class="fills"/><g class="errorbars"/><g class="lines"/><g class="points"><path class="point" transform="translate(5.21,21.12)" d="M2,0A2,2 0 1,1 0,-2A2,2 0 0,1 2,0Z" style="opacity: 1; stroke-width: 0px; fill: rgb(11, 121, 230); fill-opacity: 1;"/></g><g class="text"/></g></g></g></g><path class="xlines-above crisp" d="M0,0" style="fill: none;"/><path class="ylines-above crisp" d="M0,0" style="fill: none;"/><g class="overlines-above"/><g class="xaxislayer-above"><g class="x3tick"><text text-anchor="middle" x="0" y="243" transform="translate(84.98,0)" style="font-family: 'Lucida Grande', 'Open Sans', verdana, arial, sans-serif; font-size: 9px; fill: rgb(0, 0, 0); fill-opacity: 0.5; white-space: pre; opacity: 1;">0%</text></g><g class="x3tick"><text text-anchor="middle" x="0" y="243" style="font-family: 'Lucida Grande', 'Open Sans', verdana, arial, sans-serif; font-size: 9px; fill: rgb(0, 0, 0); fill-opacity: 0.5; white-space: pre; opacity: 1;" transform="translate(283.98,0)">20%</text></g><g class="x3tick"><text text-anchor="middle" x="0" y="243" style="font-family: 'Lucida Grande', 'Open Sans', verdana, arial, sans-serif; font-size: 9px; fill: rgb(0, 0, 0); fill-opacity: 0.5; white-space: pre; opacity: 1;" transform="translate(482.99,0)">40%</text></g><g class="x3tick"><text text-anchor="middle" x="0" y="243" style="font-family: 'Lucida Grande', 'Open Sans', verdana, arial, sans-serif; font-size: 9px; fill: rgb(0, 0, 0); fill-opacity: 0.5; white-space: pre; opacity: 1;" transform="translate(681.99,0)">60%</text></g><g class="x3tick"><text text-anchor="middle" x="0" y="243" style="font-family: 'Lucida Grande', 'Open Sans', verdana, arial, sans-serif; font-size: 9px; fill: rgb(0, 0, 0); fill-opacity: 0.5; white-space: pre; opacity: 1;" transform="translate(881,0)">80%</text></g><g class="x3tick"><text text-anchor="middle" x="0" y="243" style="font-family: 'Lucida Grande', 'Open Sans', verdana, arial, sans-serif; font-size: 9px; fill: rgb(0, 0, 0); fill-opacity: 0.5; white-space: pre; opacity: 1;" transform="translate(1080,0)">100%</text></g></g><g class="yaxislayer-above"><g class="y3tick"><text text-anchor="end" x="79" y="3.15" transform="translate(0,211.88923076923078)" style="font-family: 'Lucida Grande', 'Open Sans', verdana, arial, sans-serif; font-size: 9px; fill: rgb(0, 0, 0); fill-opacity: 0.5; white-space: pre; opacity: 1;">% of all reads  </text></g></g><g class="overaxes-above"/></g></g><g class="polarlayer"/><g class="smithlayer"/><g class="ternarylayer"/><g class="geolayer"/><g class="funnelarealayer"/><g class="pielayer"/><g class="iciclelayer"/><g class="treemaplayer"/><g class="sunburstlayer"/><g class="glimages"/><defs id="topdefs-26aa19"><g class="clips"/></defs><g class="layer-above"><g class="imagelayer"/><g class="shapelayer"/></g><g class="infolayer"><g class="g-gtitle"><text class="gtitle" x="550" y="25" text-anchor="middle" dy="0em" style="opacity: 1; font-family: 'Lucida Grande', 'Open Sans', verdana, arial, sans-serif; font-size: 20px; fill: rgb(68, 68, 68); fill-opacity: 1; white-space: pre;"><tspan class="line" dy="0em" x="550" y="25">FastQC: Top overrepresented sequences</tspan><tspan class="line" dy="1.3em" x="550" y="25">​<tspan style="font-size:70%" dy="-0.6em">20 samples</tspan><tspan dy="0.42em">​</tspan></tspan></text></g><g class="g-xtitle"/><g class="g-x2title"/><g class="g-x3title"/><g class="g-ytitle"/><g class="g-y2title"/><g class="g-y3title"/></g></svg>