<svg class="main-svg" xmlns="http://www.w3.org/2000/svg" xmlns:xlink="http://www.w3.org/1999/xlink" width="2200" height="1000" style="" viewBox="0 0 1100 500"><rect x="0" y="0" width="1100" height="500" style="fill: rgb(255, 255, 255); fill-opacity: 1;"/><defs id="defs-bd965a"><g class="clips"><clipPath id="clipbd965axyplot" class="plotclip"><rect width="1014" height="385"/></clipPath><clipPath class="axesclip" id="clipbd965ax"><rect x="60" y="0" width="1014" height="500"/></clipPath><clipPath class="axesclip" id="clipbd965ay"><rect x="0" y="50" width="1100" height="385"/></clipPath><clipPath class="axesclip" id="clipbd965axy"><rect x="60" y="50" width="1014" height="385"/></clipPath></g><g class="gradients"/><g class="patterns"/></defs><g class="bglayer"/><g class="layer-below"><g class="imagelayer"/><g class="shapelayer"/></g><g class="cartesianlayer"><g class="subplot xy"><g class="layer-subplot"><g class="shapelayer"/><g class="imagelayer"/></g><g class="minor-gridlayer"><g class="x"/><g class="y"/></g><g class="gridlayer"><g class="x"><path class="xgrid crisp" transform="translate(262.8,0)" d="M0,50v385" style="stroke: rgb(0, 0, 0); stroke-opacity: 0.05; stroke-width: 1px;"/><path class="xgrid crisp" transform="translate(465.6,0)" d="M0,50v385" style="stroke: rgb(0, 0, 0); stroke-opacity: 0.05; stroke-width: 1px;"/><path class="xgrid crisp" transform="translate(668.4,0)" d="M0,50v385" style="stroke: rgb(0, 0, 0); stroke-opacity: 0.05; stroke-width: 1px;"/><path class="xgrid crisp" transform="translate(871.2,0)" d="M0,50v385" style="stroke: rgb(0, 0, 0); stroke-opacity: 0.05; stroke-width: 1px;"/></g><g class="y"><path class="ygrid crisp" transform="translate(0,363.02)" d="M60,0h1014" style="stroke: rgb(0, 0, 0); stroke-opacity: 0.05; stroke-width: 1px;"/><path class="ygrid crisp" transform="translate(0,291.05)" d="M60,0h1014" style="stroke: rgb(0, 0, 0); stroke-opacity: 0.05; stroke-width: 1px;"/><path class="ygrid crisp" transform="translate(0,219.07)" d="M60,0h1014" style="stroke: rgb(0, 0, 0); stroke-opacity: 0.05; stroke-width: 1px;"/><path class="ygrid crisp" transform="translate(0,147.1)" d="M60,0h1014" style="stroke: rgb(0, 0, 0); stroke-opacity: 0.05; stroke-width: 1px;"/><path class="ygrid crisp" transform="translate(0,75.12)" d="M60,0h1014" style="stroke: rgb(0, 0, 0); stroke-opacity: 0.05; stroke-width: 1px;"/></g></g><g class="zerolinelayer"><path class="xzl zl crisp" transform="translate(60,0)" d="M0,50v385" style="stroke: rgb(0, 0, 0); stroke-opacity: 0.05; stroke-width: 1px;"/><path class="yzl zl crisp" transform="translate(0,435)" d="M60,0h1014" style="stroke: rgb(0, 0, 0); stroke-opacity: 0.05; stroke-width: 1px;"/></g><g class="layer-between"><g class="shapelayer"/><g class="imagelayer"/></g><path class="xlines-below"/><path class="ylines-below"/><g class="overlines-below"/><g class="xaxislayer-below"/><g class="yaxislayer-below"/><g class="overaxes-below"/><g class="overplot"><g class="xy" transform="translate(60,50)" clip-path="url(#clipbd965axyplot)"><g class="scatterlayer mlayer"><g class="trace scatter trace84c3c0" style="stroke-miterlimit: 2; opacity: 1;"><g class="fills"/><g class="errorbars"/><g class="lines"><path class="js-line" d="M0,368.57L20.28,385L30.42,385L212.94,384.41L223.08,384.23L243.36,383.46L253.5,381.28L273.78,374.96L283.92,364.33L314.34,336.6L324.48,330.96L334.62,323.94L344.76,312.2L365.04,273.97L375.18,246.05L385.32,211.9L395.46,203.23L405.6,189.87L415.74,156.43L425.88,138.03L436.02,110.34L446.16,80.78L456.3,55.18L466.44,40.88L476.58,38.71L486.72,54.86L496.86,88.83L507,95.59L517.14,95.21L527.28,113.84L537.42,123.99L547.56,127.35L557.7,140.53L567.84,154.97L577.98,180.09L588.12,209.46L598.26,227.74L618.54,255.66L628.68,269.4L659.1,319.44L669.24,333.45L679.38,344.37L689.52,352.55L709.8,366.25L719.94,371.63L730.08,375.48L740.22,378.36L750.36,380.51L760.5,381.87L790.92,384.09L801.06,384.27L851.76,384.93L861.9,384.97L1014,385" style="vector-effect: none; fill: none; stroke: rgb(240, 173, 78); stroke-opacity: 1; stroke-width: 2px; opacity: 1;"/></g><g class="points"/><g class="text"/></g><g class="trace scatter tracee533e8" style="stroke-miterlimit: 2; opacity: 1;"><g class="fills"/><g class="errorbars"/><g class="lines"><path class="js-line" d="M0,368.43L20.28,385L30.42,385L223.08,384.45L233.22,383.95L243.36,383.25L253.5,380.04L263.64,376.49L273.78,374.46L294.06,364.21L304.2,352.15L314.34,335.75L324.48,327.85L334.62,318.87L344.76,299.6L354.9,282.55L365.04,261.82L375.18,242.96L385.32,228.42L395.46,214.55L405.6,198.02L415.74,167.92L425.88,135.25L436.02,94.24L446.16,68.06L456.3,61.14L466.44,47.36L476.58,45.85L486.72,70.47L496.86,91.17L507,82.86L517.14,75.39L527.28,92.67L537.42,113.51L547.56,128.42L557.7,148.03L567.84,164.44L577.98,185.11L588.12,209.62L598.26,227.06L608.4,242.82L618.54,257.17L628.68,273.22L648.96,306.35L659.1,321.24L669.24,334.69L679.38,345.8L689.52,353.8L699.66,360.63L719.94,371.86L730.08,375.78L740.22,378.55L750.36,380.54L770.64,382.9L780.78,383.54L821.34,384.61L831.48,384.7L1003.86,384.83L1014,383.58" style="vector-effect: none; fill: none; stroke: rgb(240, 173, 78); stroke-opacity: 1; stroke-width: 2px; opacity: 1;"/></g><g class="points"/><g class="text"/></g><g class="trace scatter tracee6c640" style="stroke-miterlimit: 2; opacity: 1;"><g class="fills"/><g class="errorbars"/><g class="lines"><path class="js-line" d="M0,378.21L20.28,385L30.42,385L212.94,384.36L223.08,384.09L243.36,383.43L253.5,381.9L273.78,376.32L283.92,366.43L294.06,357.88L304.2,348.05L314.34,338.58L324.48,333.73L334.62,325.97L344.76,313.81L354.9,294.18L365.04,271.28L385.32,216.95L395.46,210.67L405.6,199.2L415.74,167.09L446.16,101.82L456.3,84.52L466.44,78.11L476.58,83.02L486.72,101.46L496.86,132.97L507,142.42L517.14,136.61L527.28,141.33L537.42,141.01L547.56,139.17L557.7,139.96L567.84,140.71L577.98,159.3L588.12,182.34L598.26,192.32L608.4,198.93L618.54,213.05L669.24,306.14L679.38,321.48L689.52,333.23L699.66,343.7L719.94,362.03L730.08,369.89L740.22,374.42L750.36,377.84L770.64,381.55L780.78,382.71L811.2,384.28L821.34,384.56L892.32,385L902.46,385L1014,385" style="vector-effect: none; fill: none; stroke: rgb(240, 173, 78); stroke-opacity: 1; stroke-width: 2px; opacity: 1;"/></g><g class="points"/><g class="text"/></g><g class="trace scatter trace1ef8ca" style="stroke-miterlimit: 2; opacity: 1;"><g class="fills"/><g class="errorbars"/><g class="lines"><path class="js-line" d="M0,378.15L20.28,385L30.42,385L223.08,384.32L233.22,383.92L243.36,383.28L253.5,380.8L273.78,374.86L283.92,369.58L294.06,363.92L304.2,352.86L314.34,337.95L324.48,328.86L334.62,318.33L344.76,299.75L354.9,282.93L365.04,263.29L375.18,244.22L385.32,230.54L395.46,219.34L405.6,203.41L425.88,146.41L436.02,112.56L446.16,91.83L456.3,87.85L466.44,83.63L476.58,91.68L486.72,113.36L496.86,130.4L507,125.37L517.14,113.82L527.28,120.89L537.42,135.76L547.56,143.92L557.7,147.24L567.84,151.21L577.98,165.59L588.12,181.59L598.26,191.12L608.4,203.8L618.54,219.16L628.68,234.18L638.82,251.28L659.1,291.67L669.24,308.76L679.38,323.99L689.52,335.18L709.8,356.1L719.94,364.16L730.08,370.41L740.22,374.82L750.36,378.09L760.5,380.3L780.78,382.62L790.92,383.34L831.48,384.64L841.62,384.73L973.44,384.96L983.58,384.95L1003.86,384.82L1014,383.53" style="vector-effect: none; fill: none; stroke: rgb(217, 83, 79); stroke-opacity: 1; stroke-width: 2px; opacity: 1;"/></g><g class="points"/><g class="text"/></g><g class="trace scatter trace32c3f7" style="stroke-miterlimit: 2; opacity: 1;"><g class="fills"/><g class="errorbars"/><g class="lines"><path class="js-line" d="M0,343.98L20.28,385L30.42,385L141.96,384.63L152.1,383.98L172.38,382.68L182.52,380.38L192.66,376.05L202.8,375.67L212.94,375.48L223.08,372.69L233.22,373.73L243.36,377.2L253.5,378.63L263.64,377.07L273.78,374.69L283.92,368.62L304.2,359.81L314.34,349.94L324.48,336.49L334.62,320.67L344.76,312.29L354.9,293.14L365.04,251.34L375.18,232.68L385.32,230.82L395.46,231.26L405.6,222.07L415.74,194.72L436.02,164.77L446.16,148.21L456.3,132.48L466.44,123.25L476.58,123.64L486.72,135.11L496.86,134.6L507,108.46L517.14,76.42L527.28,54.33L537.42,35.34L547.56,30.4L567.84,51.86L577.98,78.62L588.12,130.28L598.26,187.64L608.4,229.93L618.54,264.22L638.82,319.29L648.96,336.5L659.1,345.77L669.24,350.64L679.38,355.38L689.52,362.81L699.66,367.86L709.8,370.23L719.94,373.32L730.08,374.86L740.22,376.06L750.36,378.19L760.5,379.41L770.64,378.68L780.78,379.44L790.92,379.2L801.06,377.77L811.2,378.97L821.34,380.73L831.48,381.66L841.62,382.05L851.76,383.66L872.04,384.93L882.18,384.99L1014,385" style="vector-effect: none; fill: none; stroke: rgb(217, 83, 79); stroke-opacity: 1; stroke-width: 2px; opacity: 1;"/></g><g class="points"/><g class="text"/></g><g class="trace scatter trace8a58a7" style="stroke-miterlimit: 2; opacity: 1;"><g class="fills"/><g class="errorbars"/><g class="lines"><path class="js-line" d="M0,343.6L20.28,385L30.42,385L81.12,384.59L91.26,384.21L131.82,383.7L141.96,382.86L152.1,378.67L162.24,377.3L172.38,376.31L182.52,376.92L192.66,377.74L202.8,376.39L212.94,378.51L223.08,378.19L243.36,377.87L253.5,375.66L263.64,372.56L273.78,371.22L283.92,372.04L294.06,367.89L304.2,358.9L314.34,343.35L324.48,323.31L334.62,309.69L344.76,290.56L354.9,280.21L365.04,275.08L375.18,262.47L405.6,223.39L415.74,202.19L425.88,180.05L436.02,153.36L446.16,138.72L456.3,137.43L466.44,129.87L476.58,126.16L486.72,140.99L496.86,140.1L507,109.39L517.14,75.52L527.28,47.88L537.42,38.17L547.56,44.18L557.7,40.73L567.84,36.8L577.98,79.97L588.12,142.7L598.26,180.53L608.4,219.74L618.54,266.21L628.68,300.65L638.82,323.08L648.96,334.5L659.1,341.55L669.24,352.79L679.38,361.38L689.52,365.31L699.66,367.95L709.8,369.68L719.94,372.49L730.08,376.17L740.22,377.61L750.36,377.02L760.5,378L780.78,379.75L790.92,378.59L801.06,376.82L811.2,376.43L821.34,377.21L831.48,379.77L841.62,379.97L851.76,381.03L861.9,383.68L872.04,384.73L912.6,384.97L922.74,384.97L1003.86,384.84L1014,383.86" style="vector-effect: none; fill: none; stroke: rgb(217, 83, 79); stroke-opacity: 1; stroke-width: 2px; opacity: 1;"/></g><g class="points"/><g class="text"/></g><g class="trace scatter trace6ce680" style="stroke-miterlimit: 2; opacity: 1;"><g class="fills"/><g class="errorbars"/><g class="lines"><path class="js-line" d="M0,366.45L20.28,385L30.42,385L212.94,384.36L223.08,384.08L253.5,382.96L263.64,381.81L273.78,380.18L283.92,375.79L304.2,367.29L314.34,362.02L324.48,356.96L334.62,348.8L344.76,337.65L354.9,321.35L365.04,300.75L375.18,277.78L385.32,254.1L395.46,239.15L405.6,222.7L415.74,197.11L446.16,134.19L456.3,115.86L466.44,106.07L476.58,105.75L486.72,112.55L496.86,124.9L507,123.23L517.14,113.3L527.28,111.04L537.42,110.15L547.56,109.15L557.7,105.95L567.84,105.57L577.98,122.17L588.12,143.76L598.26,155.87L608.4,164.56L618.54,180.29L659.1,271.8L669.24,294.1L679.38,312.13L689.52,325.51L699.66,337.68L709.8,348.36L719.94,359.05L730.08,368.61L740.22,373.52L750.36,377.25L760.5,379.77L770.64,381.43L790.92,383.51L801.06,383.96L841.62,384.87L851.76,384.94L1014,385" style="vector-effect: none; fill: none; stroke: rgb(92, 184, 92); stroke-opacity: 1; stroke-width: 2px; opacity: 1;"/></g><g class="points"/><g class="text"/></g><g class="trace scatter tracebe689c" style="stroke-miterlimit: 2; opacity: 1;"><g class="fills"/><g class="errorbars"/><g class="lines"><path class="js-line" d="M0,366.3L20.28,385L30.42,385L223.08,384.42L233.22,384.2L253.5,382.83L263.64,381.54L273.78,380.33L283.92,377.92L294.06,374.67L304.2,369.31L324.48,354.47L334.62,344.95L354.9,315.7L365.04,297.18L385.32,258.56L395.46,240.39L405.6,221.37L415.74,198.02L425.88,175.11L436.02,147.96L446.16,127.81L456.3,117.05L466.44,106.73L476.58,108.7L486.72,117.96L496.86,122.67L517.14,94.89L527.28,99.82L537.42,106.04L547.56,109.05L557.7,109.27L567.84,114.49L588.12,142.36L598.26,153.73L608.4,170.2L618.54,189.15L628.68,207.57L638.82,228.85L659.1,277.38L669.24,297.6L679.38,315.58L689.52,328.15L709.8,352.52L719.94,362.04L730.08,369.2L740.22,374.06L750.36,377.66L760.5,380.13L780.78,382.62L790.92,383.39L821.34,384.56L831.48,384.72L943.02,384.98L953.16,384.98L1003.86,384.84L1014,383.73" style="vector-effect: none; fill: none; stroke: rgb(92, 184, 92); stroke-opacity: 1; stroke-width: 2px; opacity: 1;"/></g><g class="points"/><g class="text"/></g><g class="trace scatter trace05f7d4" style="stroke-miterlimit: 2; opacity: 1;"><g class="fills"/><g class="errorbars"/><g class="lines"><path class="js-line" d="M0,376.71L20.28,385L30.42,385L202.8,384.28L212.94,384.22L233.22,383.83L243.36,383.96L253.5,380.64L263.64,375.77L273.78,371.5L283.92,356.17L304.2,327.32L314.34,316.06L324.48,313.14L334.62,312.51L344.76,307.75L354.9,282.5L375.18,221.17L385.32,183.77L395.46,193.34L405.6,195.3L415.74,156.59L425.88,136.3L446.16,82.17L456.3,42.44L466.44,22.91L476.58,23.52L486.72,51.5L496.86,104.29L507,126.25L517.14,125.98L527.28,107.91L537.42,92.04L547.56,99.12L557.7,120.61L567.84,125.72L577.98,143.49L588.12,196.92L598.26,240.64L618.54,294.26L628.68,313.18L638.82,327.64L648.96,338.67L659.1,347.98L669.24,355.59L679.38,361.66L689.52,366.53L709.8,373.99L719.94,377.04L740.22,380.9L750.36,382.04L780.78,383.97L790.92,384.31L872.04,384.99L882.18,384.99L1014,385" style="vector-effect: none; fill: none; stroke: rgb(240, 173, 78); stroke-opacity: 1; stroke-width: 2px; opacity: 1;"/></g><g class="points"/><g class="text"/></g><g class="trace scatter tracee73aab" style="stroke-miterlimit: 2; opacity: 1;"><g class="fills"/><g class="errorbars"/><g class="lines"><path class="js-line" d="M0,376.65L20.28,385L30.42,385L223.08,384.37L233.22,383.79L243.36,382.93L253.5,377.1L263.64,371.19L273.78,369.99L294.06,359.89L304.2,340.17L314.34,310.65L324.48,302.8L334.62,298.9L344.76,275.09L354.9,254.22L365.04,229.82L375.18,217.79L385.32,215.76L395.46,214.82L405.6,207.81L415.74,174.47L425.88,131.13L436.02,78.83L446.16,55.58L456.3,57.13L466.44,48.19L476.58,49.78L486.72,91L496.86,124.11L507,123.79L527.28,82.04L537.42,88.38L547.56,109.63L557.7,133.55L567.84,130.19L577.98,136.24L588.12,178.31L598.26,227.19L608.4,269.71L618.54,295.35L628.68,314.99L638.82,329.87L648.96,340.32L659.1,348.41L669.24,355.78L679.38,361.97L689.52,366.8L699.66,370.74L719.94,377.06L730.08,379.34L750.36,382.13L760.5,383L790.92,384.32L801.06,384.46L912.6,384.98L922.74,384.98L1014,384.26" style="vector-effect: none; fill: none; stroke: rgb(240, 173, 78); stroke-opacity: 1; stroke-width: 2px; opacity: 1;"/></g><g class="points"/><g class="text"/></g><g class="trace scatter traceca28aa" style="stroke-miterlimit: 2; opacity: 1;"><g class="fills"/><g class="errorbars"/><g class="lines"><path class="js-line" d="M0,373.83L20.28,384.98L30.42,384.99L172.38,384.52L182.52,383.85L192.66,382.18L202.8,381.85L212.94,381.87L223.08,380.53L233.22,380.2L243.36,380.98L253.5,378.82L263.64,374.58L273.78,369.66L283.92,353.31L294.06,339.54L304.2,327.62L314.34,315.14L324.48,306.6L334.62,296.22L344.76,284.06L354.9,261.49L365.04,232.83L375.18,205.54L385.32,174.3L395.46,175.16L405.6,166.77L415.74,130.03L425.88,116.52L436.02,90.63L446.16,57.59L456.3,28.57L466.44,19.25L476.58,23.9L486.72,49.96L496.86,99.43L507,116.79L517.14,122.85L527.28,147.76L537.42,157.46L547.56,160.64L557.7,177.63L567.84,191.91L577.98,216.51L588.12,244.04L598.26,259.34L608.4,272.12L628.68,294.31L638.82,306.76L659.1,334.56L669.24,346.25L679.38,355.01L689.52,361.48L699.66,367L709.8,371.57L719.94,375.55L730.08,378.31L750.36,381.76L760.5,382.68L790.92,384.32L801.06,384.42L882.18,385L892.32,385L1014,385" style="vector-effect: none; fill: none; stroke: rgb(92, 184, 92); stroke-opacity: 1; stroke-width: 2px; opacity: 1;"/></g><g class="points"/><g class="text"/></g><g class="trace scatter traceb3132f" style="stroke-miterlimit: 2; opacity: 1;"><g class="fills"/><g class="errorbars"/><g class="lines"><path class="js-line" d="M0,373.75L20.28,385L30.42,385L131.82,384.49L141.96,384.21L152.1,382.67L162.24,382.19L172.38,381.64L182.52,381.91L192.66,382.82L202.8,382.38L212.94,382.7L223.08,382.24L233.22,381.65L243.36,380.24L263.64,368.76L273.78,365.91L283.92,360.33L294.06,351.92L304.2,334.21L314.34,309.48L324.48,297.46L334.62,290.41L344.76,267.58L354.9,247.84L365.04,224.94L375.18,209.07L385.32,203L395.46,194.53L405.6,181.32L415.74,149.04L425.88,113.06L436.02,65.33L446.16,35.24L456.3,34.21L466.44,31.7L476.58,41.27L486.72,76.15L496.86,103.32L507,102.89L517.14,100.16L527.28,120.02L537.42,147.16L547.56,164.48L557.7,184.35L567.84,199.88L577.98,219.72L588.12,243.65L598.26,258.17L618.54,282.75L628.68,296.87L638.82,310.84L648.96,323.33L669.24,346.93L679.38,355.77L689.52,362.1L699.66,367.23L719.94,375.54L730.08,378.31L750.36,381.73L760.5,382.8L780.78,384.01L790.92,384.25L902.46,384.97L912.6,384.97L1003.86,384.86L1014,383.85" style="vector-effect: none; fill: none; stroke: rgb(240, 173, 78); stroke-opacity: 1; stroke-width: 2px; opacity: 1;"/></g><g class="points"/><g class="text"/></g></g></g></g><path class="xlines-above crisp" d="M0,0" style="fill: none;"/><path class="ylines-above crisp" d="M0,0" style="fill: none;"/><g class="overlines-above"/><g class="xaxislayer-above"><g class="xtick"><text text-anchor="middle" x="0" y="451" transform="translate(60,0)" style="font-family: 'Lucida Grande', 'Open Sans', verdana, arial, sans-serif; font-size: 10px; fill: rgb(0, 0, 0); fill-opacity: 1; white-space: pre; opacity: 1;">0%</text></g><g class="xtick"><text text-anchor="middle" x="0" y="451" style="font-family: 'Lucida Grande', 'Open Sans', verdana, arial, sans-serif; font-size: 10px; fill: rgb(0, 0, 0); fill-opacity: 1; white-space: pre; opacity: 1;" transform="translate(262.8,0)">20%</text></g><g class="xtick"><text text-anchor="middle" x="0" y="451" style="font-family: 'Lucida Grande', 'Open Sans', verdana, arial, sans-serif; font-size: 10px; fill: rgb(0, 0, 0); fill-opacity: 1; white-space: pre; opacity: 1;" transform="translate(465.6,0)">40%</text></g><g class="xtick"><text text-anchor="middle" x="0" y="451" style="font-family: 'Lucida Grande', 'Open Sans', verdana, arial, sans-serif; font-size: 10px; fill: rgb(0, 0, 0); fill-opacity: 1; white-space: pre; opacity: 1;" transform="translate(668.4,0)">60%</text></g><g class="xtick"><text text-anchor="middle" x="0" y="451" style="font-family: 'Lucida Grande', 'Open Sans', verdana, arial, sans-serif; font-size: 10px; fill: rgb(0, 0, 0); fill-opacity: 1; white-space: pre; opacity: 1;" transform="translate(871.2,0)">80%</text></g><g class="xtick"><text text-anchor="middle" x="0" y="451" style="font-family: 'Lucida Grande', 'Open Sans', verdana, arial, sans-serif; font-size: 10px; fill: rgb(0, 0, 0); fill-opacity: 1; white-space: pre; opacity: 1;" transform="translate(1074,0)">100%</text></g></g><g class="yaxislayer-above"><g class="ytick"><text text-anchor="end" x="54" y="3.5" transform="translate(0,435)" style="font-family: 'Lucida Grande', 'Open Sans', verdana, arial, sans-serif; font-size: 10px; fill: rgb(0, 0, 0); fill-opacity: 1; white-space: pre; opacity: 1;">0%</text></g><g class="ytick"><text text-anchor="end" x="54" y="3.5" style="font-family: 'Lucida Grande', 'Open Sans', verdana, arial, sans-serif; font-size: 10px; fill: rgb(0, 0, 0); fill-opacity: 1; white-space: pre; opacity: 1;" transform="translate(0,363.02)">1%</text></g><g class="ytick"><text text-anchor="end" x="54" y="3.5" style="font-family: 'Lucida Grande', 'Open Sans', verdana, arial, sans-serif; font-size: 10px; fill: rgb(0, 0, 0); fill-opacity: 1; white-space: pre; opacity: 1;" transform="translate(0,291.05)">2%</text></g><g class="ytick"><text text-anchor="end" x="54" y="3.5" style="font-family: 'Lucida Grande', 'Open Sans', verdana, arial, sans-serif; font-size: 10px; fill: rgb(0, 0, 0); fill-opacity: 1; white-space: pre; opacity: 1;" transform="translate(0,219.07)">3%</text></g><g class="ytick"><text text-anchor="end" x="54" y="3.5" style="font-family: 'Lucida Grande', 'Open Sans', verdana, arial, sans-serif; font-size: 10px; fill: rgb(0, 0, 0); fill-opacity: 1; white-space: pre; opacity: 1;" transform="translate(0,147.1)">4%</text></g><g class="ytick"><text text-anchor="end" x="54" y="3.5" style="font-family: 'Lucida Grande', 'Open Sans', verdana, arial, sans-serif; font-size: 10px; fill: rgb(0, 0, 0); fill-opacity: 1; white-space: pre; opacity: 1;" transform="translate(0,75.12)">5%</text></g></g><g class="overaxes-above"/></g></g><g class="polarlayer"/><g class="smithlayer"/><g class="ternarylayer"/><g class="geolayer"/><g class="funnelarealayer"/><g class="pielayer"/><g class="iciclelayer"/><g class="treemaplayer"/><g class="sunburstlayer"/><g class="glimages"/><defs id="topdefs-bd965a"><g class="clips"/></defs><g class="layer-above"><g class="imagelayer"/><g class="shapelayer"/></g><g class="infolayer"><g class="g-gtitle"><text class="gtitle" x="550" y="25" text-anchor="middle" dy="0em" style="opacity: 1; font-family: 'Lucida Grande', 'Open Sans', verdana, arial, sans-serif; font-size: 20px; fill: rgb(68, 68, 68); fill-opacity: 1; white-space: pre;"><tspan class="line" dy="0em" x="550" y="25">FastQC: Per Sequence GC Content</tspan><tspan class="line" dy="1.3em" x="550" y="25">​<tspan style="font-size:70%" dy="-0.6em">Percentages, 12 samples</tspan><tspan dy="0.42em">​</tspan></tspan></text></g><g class="g-xtitle"><text class="xtitle" x="567" y="487" text-anchor="middle" style="opacity: 0.3; font-family: 'Lucida Grande', 'Open Sans', verdana, arial, sans-serif; font-size: 14px; fill: rgb(0, 0, 0); fill-opacity: 1; white-space: pre;">% GC</text></g><g class="g-ytitle"><text class="ytitle" transform="rotate(-90,22,242.5)" x="22" y="242.5" text-anchor="middle" style="opacity: 0.3; font-family: 'Lucida Grande', 'Open Sans', verdana, arial, sans-serif; font-size: 14px; fill: rgb(0, 0, 0); fill-opacity: 1; white-space: pre;">Percentage</text></g></g></svg>