<svg class="main-svg" xmlns="http://www.w3.org/2000/svg" xmlns:xlink="http://www.w3.org/1999/xlink" width="2200" height="1000" style="" viewBox="0 0 1100 500"><rect x="0" y="0" width="1100" height="500" style="fill: rgb(255, 255, 255); fill-opacity: 1;"/><defs id="defs-b40175"><g class="clips"><clipPath id="clipb40175xyplot" class="plotclip"><rect width="1014" height="385"/></clipPath><clipPath class="axesclip" id="clipb40175x"><rect x="60" y="0" width="1014" height="500"/></clipPath><clipPath class="axesclip" id="clipb40175y"><rect x="0" y="50" width="1100" height="385"/></clipPath><clipPath class="axesclip" id="clipb40175xy"><rect x="60" y="50" width="1014" height="385"/></clipPath></g><g class="gradients"/><g class="patterns"/></defs><g class="bglayer"/><g class="layer-below"><g class="imagelayer"/><g class="shapelayer"/></g><g class="cartesianlayer"><g class="subplot xy"><g class="layer-subplot"><g class="shapelayer"/><g class="imagelayer"/></g><g class="minor-gridlayer"><g class="x"/><g class="y"/></g><g class="gridlayer"><g class="x"><path class="xgrid crisp" transform="translate(262.8,0)" d="M0,50v385" style="stroke: rgb(0, 0, 0); stroke-opacity: 0.05; stroke-width: 1px;"/><path class="xgrid crisp" transform="translate(465.6,0)" d="M0,50v385" style="stroke: rgb(0, 0, 0); stroke-opacity: 0.05; stroke-width: 1px;"/><path class="xgrid crisp" transform="translate(668.4,0)" d="M0,50v385" style="stroke: rgb(0, 0, 0); stroke-opacity: 0.05; stroke-width: 1px;"/><path class="xgrid crisp" transform="translate(871.2,0)" d="M0,50v385" style="stroke: rgb(0, 0, 0); stroke-opacity: 0.05; stroke-width: 1px;"/></g><g class="y"><path class="ygrid crisp" transform="translate(0,364.13)" d="M60,0h1014" style="stroke: rgb(0, 0, 0); stroke-opacity: 0.05; stroke-width: 1px;"/><path class="ygrid crisp" transform="translate(0,293.26)" d="M60,0h1014" style="stroke: rgb(0, 0, 0); stroke-opacity: 0.05; stroke-width: 1px;"/><path class="ygrid crisp" transform="translate(0,222.39)" d="M60,0h1014" style="stroke: rgb(0, 0, 0); stroke-opacity: 0.05; stroke-width: 1px;"/><path class="ygrid crisp" transform="translate(0,151.51999999999998)" d="M60,0h1014" style="stroke: rgb(0, 0, 0); stroke-opacity: 0.05; stroke-width: 1px;"/><path class="ygrid crisp" transform="translate(0,80.65)" d="M60,0h1014" style="stroke: rgb(0, 0, 0); stroke-opacity: 0.05; stroke-width: 1px;"/></g></g><g class="zerolinelayer"><path class="xzl zl crisp" transform="translate(60,0)" d="M0,50v385" style="stroke: rgb(0, 0, 0); stroke-opacity: 0.05; stroke-width: 1px;"/><path class="yzl zl crisp" transform="translate(0,435)" d="M60,0h1014" style="stroke: rgb(0, 0, 0); stroke-opacity: 0.05; stroke-width: 1px;"/></g><g class="layer-between"><g class="shapelayer"/><g class="imagelayer"/></g><path class="xlines-below"/><path class="ylines-below"/><g class="overlines-below"/><g class="xaxislayer-below"/><g class="yaxislayer-below"/><g class="overaxes-below"/><g class="overplot"><g class="xy" transform="translate(60,50)" clip-path="url(#clipb40175xyplot)"><g class="scatterlayer mlayer"><g class="trace scatter tracefbcadb" style="stroke-miterlimit: 2; opacity: 1;"><g class="fills"/><g class="errorbars"/><g class="lines"><path class="js-line" d="M0,385L212.94,384.41L223.08,384.22L243.36,383.42L253.5,380.98L273.78,375.05L283.92,364.37L294.06,354.24L304.2,345.28L314.34,336.13L324.48,331.36L334.62,324.94L344.76,310.84L365.04,272.54L375.18,244.56L385.32,215.44L395.46,207.51L405.6,189.08L415.74,153.08L425.88,133.42L436.02,115.84L446.16,89.46L456.3,54.53L466.44,40.33L476.58,46.84L486.72,64.2L496.86,91.4L507,97.1L517.14,100.21L527.28,117.62L537.42,125.86L547.56,131.62L557.7,144.18L567.84,160.08L577.98,186.24L588.12,212.82L598.26,230.41L628.68,272.91L638.82,288.45L659.1,321.67L669.24,335.15L679.38,345.61L689.52,353.56L709.8,366.96L719.94,372.25L730.08,375.86L740.22,378.63L760.5,382.02L770.64,382.92L790.92,384.07L801.06,384.29L851.76,384.93L861.9,384.97L1014,385" style="vector-effect: none; fill: none; stroke: rgb(240, 173, 78); stroke-opacity: 1; stroke-width: 2px; opacity: 1;"/></g><g class="points"/><g class="text"/></g><g class="trace scatter trace8cb95b" style="stroke-miterlimit: 2; opacity: 1;"><g class="fills"/><g class="errorbars"/><g class="lines"><path class="js-line" d="M0,385L223.08,384.43L233.22,383.91L243.36,383.2L253.5,380.02L263.64,376.51L273.78,374.48L294.06,363.99L304.2,351.91L314.34,335.58L324.48,327.73L334.62,319.51L344.76,299.48L354.9,282.2L365.04,262.81L375.18,242.2L385.32,229.61L395.46,216.53L405.6,196.45L415.74,167.01L425.88,131.1L436.02,97.62L446.16,77.81L456.3,60.2L466.44,47.52L476.58,52.59L486.72,76.04L496.86,92.83L507,81.53L517.14,78.05L527.28,97.24L537.42,117.92L547.56,134.71L557.7,153.84L567.84,168.83L577.98,187.74L588.12,213.5L598.26,231.69L608.4,246.82L618.54,260.28L628.68,275.95L648.96,308.74L659.1,323.53L669.24,336.79L679.38,347.07L699.66,361.65L709.8,367.51L719.94,372.45L730.08,376.18L740.22,378.88L750.36,380.75L770.64,382.99L780.78,383.58L831.48,384.7L841.62,384.73L943.02,384.97L953.16,384.97L1003.86,384.71L1014,383.45" style="vector-effect: none; fill: none; stroke: rgb(240, 173, 78); stroke-opacity: 1; stroke-width: 2px; opacity: 1;"/></g><g class="points"/><g class="text"/></g><g class="trace scatter trace6a7ef8" style="stroke-miterlimit: 2; opacity: 1;"><g class="fills"/><g class="errorbars"/><g class="lines"><path class="js-line" d="M0,385L212.94,384.34L223.08,384.07L243.36,383.38L253.5,381.7L273.78,376.35L283.92,366.33L314.34,338.44L324.48,334.5L334.62,327L344.76,312.56L354.9,292.19L365.04,269.97L375.18,243.71L385.32,220.69L395.46,214.84L405.6,198.64L415.74,163.76L425.88,142.09L436.02,129.42L446.16,110.18L456.3,85.87L466.44,79.37L476.58,90.35L486.72,110.78L496.86,136.65L507,142.66L517.14,140.3L527.28,145.37L537.42,143.57L547.56,142.77L557.7,143.54L567.84,145.59L577.98,164.69L588.12,185.77L598.26,195.54L608.4,202.3L618.54,217.2L628.68,235.93L648.96,271.82L659.1,290.72L669.24,308.67L679.38,323.26L689.52,334.83L699.66,344.5L719.94,363.6L730.08,370.57L740.22,374.9L750.36,378.13L770.64,381.75L780.78,382.78L811.2,384.32L821.34,384.56L892.32,385L902.46,385L1014,385" style="vector-effect: none; fill: none; stroke: rgb(240, 173, 78); stroke-opacity: 1; stroke-width: 2px; opacity: 1;"/></g><g class="points"/><g class="text"/></g><g class="trace scatter trace0e6a0f" style="stroke-miterlimit: 2; opacity: 1;"><g class="fills"/><g class="errorbars"/><g class="lines"><path class="js-line" d="M0,385L223.08,384.3L233.22,383.89L243.36,383.22L253.5,380.74L273.78,374.88L283.92,369.34L294.06,363.76L304.2,352.85L314.34,337.96L324.48,328.86L334.62,319.02L344.76,299.56L365.04,264.46L375.18,243.9L395.46,221.46L405.6,202.49L415.74,175.35L425.88,143.44L436.02,115.56L446.16,101.16L456.3,88.87L466.44,85.09L476.58,97.38L486.72,118.37L496.86,132.79L507,124.83L517.14,117.75L527.28,126.98L537.42,138.37L547.56,146.79L567.84,156.01L577.98,169.78L588.12,185.53L598.26,195.05L608.4,207.71L618.54,223.25L628.68,238.27L638.82,255.29L659.1,294.86L669.24,311.8L679.38,326.24L689.52,336.95L709.8,357.45L719.94,365.11L730.08,371.06L740.22,375.33L750.36,378.45L760.5,380.51L780.78,382.71L790.92,383.4L831.48,384.65L841.62,384.72L953.16,384.97L963.3,384.96L1003.86,384.69L1014,383.38" style="vector-effect: none; fill: none; stroke: rgb(217, 83, 79); stroke-opacity: 1; stroke-width: 2px; opacity: 1;"/></g><g class="points"/><g class="text"/></g><g class="trace scatter trace17b6bf" style="stroke-miterlimit: 2; opacity: 1;"><g class="fills"/><g class="errorbars"/><g class="lines"><path class="js-line" d="M0,385L141.96,384.62L152.1,383.97L172.38,382.66L182.52,380.48L192.66,376.13L202.8,375.73L212.94,375.17L223.08,372.68L233.22,374.1L243.36,377.28L253.5,378.38L263.64,376.88L273.78,374.8L283.92,368.61L304.2,358.58L314.34,348.58L324.48,337.16L334.62,321.7L344.76,307.51L354.9,288.64L365.04,253.13L375.18,233.97L395.46,233.91L405.6,220.48L415.74,191.61L425.88,177.38L436.02,167.01L446.16,152.98L456.3,132.23L466.44,121.57L476.58,127.36L486.72,136.35L496.86,128.9L507,107.59L517.14,78.44L527.28,54.46L537.42,36.32L547.56,30.03L557.7,40.46L567.84,55.48L577.98,88.93L588.12,140L598.26,194.73L608.4,236.19L618.54,269.36L628.68,296.06L638.82,320.54L648.96,337.43L659.1,345.67L669.24,351.37L699.66,367.99L709.8,370.91L719.94,374.05L730.08,374.72L740.22,375.77L750.36,378.54L760.5,379.95L770.64,378.96L790.92,378.73L801.06,378.01L831.48,381.81L841.62,382.19L851.76,383.82L861.9,384.66L892.32,384.98L902.46,384.98L1014,385" style="vector-effect: none; fill: none; stroke: rgb(217, 83, 79); stroke-opacity: 1; stroke-width: 2px; opacity: 1;"/></g><g class="points"/><g class="text"/></g><g class="trace scatter trace76eba3" style="stroke-miterlimit: 2; opacity: 1;"><g class="fills"/><g class="errorbars"/><g class="lines"><path class="js-line" d="M0,385L81.12,384.59L91.26,384.22L131.82,383.93L141.96,382.87L152.1,378.52L162.24,377.36L172.38,376.5L182.52,376.98L192.66,377.9L202.8,376.41L212.94,378.42L223.08,378.03L243.36,377.83L253.5,374.99L263.64,372.83L273.78,372.02L294.06,367.73L304.2,360.28L314.34,342.93L324.48,323.17L334.62,310.09L344.76,290.34L354.9,279.33L365.04,275.5L375.18,261.75L385.32,249.73L395.46,237.31L405.6,221.66L415.74,200.94L425.88,177.6L436.02,155.38L446.16,143.45L466.44,129.17L476.58,128.63L486.72,143.36L496.86,138.38L507,103.27L517.14,74.69L527.28,52.9L537.42,41.3L547.56,45.28L557.7,43.51L567.84,44.43L577.98,87.72L588.12,146.39L598.26,185.26L608.4,225.09L618.54,269.02L628.68,302.37L638.82,323.31L648.96,335.72L659.1,343.91L669.24,354.06L679.38,362.12L689.52,365.58L699.66,367.99L709.8,370.12L719.94,373.14L730.08,376.29L740.22,377.63L750.36,377.23L760.5,378.07L780.78,379.35L790.92,378.35L801.06,376.76L811.2,376.3L821.34,377.65L831.48,379.95L841.62,379.9L851.76,381.42L861.9,383.88L872.04,384.74L912.6,384.97L922.74,384.97L1003.86,384.74L1014,383.74" style="vector-effect: none; fill: none; stroke: rgb(217, 83, 79); stroke-opacity: 1; stroke-width: 2px; opacity: 1;"/></g><g class="points"/><g class="text"/></g><g class="trace scatter trace2979ba" style="stroke-miterlimit: 2; opacity: 1;"><g class="fills"/><g class="errorbars"/><g class="lines"><path class="js-line" d="M0,385L212.94,384.34L223.08,384.07L253.5,382.87L263.64,381.71L273.78,380.16L283.92,375.72L304.2,367.04L314.34,361.84L324.48,356.99L334.62,349L344.76,336.7L354.9,319.87L365.04,299.78L375.18,277.06L385.32,255.44L395.46,240.83L405.6,222.52L415.74,195.58L425.88,173.96L436.02,157.25L446.16,138.28L456.3,117.07L466.44,107.62L476.58,110.02L486.72,117.53L496.86,127.53L507,124.14L517.14,116.17L537.42,112.5L547.56,111.85L557.7,109.07L567.84,110.47L577.98,127.2L588.12,147.27L598.26,159.22L608.4,167.56L618.54,184.69L628.68,208.38L669.24,296.78L679.38,313.94L689.52,327.04L699.66,338.25L719.94,361.19L730.08,369.37L740.22,373.97L750.36,377.58L760.5,380.04L770.64,381.59L790.92,383.52L801.06,384L841.62,384.88L851.76,384.94L1014,385" style="vector-effect: none; fill: none; stroke: rgb(92, 184, 92); stroke-opacity: 1; stroke-width: 2px; opacity: 1;"/></g><g class="points"/><g class="text"/></g><g class="trace scatter tracecf3104" style="stroke-miterlimit: 2; opacity: 1;"><g class="fills"/><g class="errorbars"/><g class="lines"><path class="js-line" d="M0,385L223.08,384.41L233.22,384.18L253.5,382.76L263.64,381.52L273.78,380.34L283.92,377.76L294.06,374.54L304.2,369.2L324.48,354.15L334.62,344.87L354.9,314.91L365.04,297.1L375.18,277.07L385.32,258.97L395.46,240.91L405.6,220.58L425.88,173.88L436.02,149.26L446.16,132.02L456.3,117.51L466.44,107.78L476.58,112.25L486.72,121.06L496.86,124.41L507,108.76L517.14,97.17L527.28,103.64L537.42,108.75L557.7,113.42L567.84,119.77L598.26,157.98L608.4,174.84L628.68,212.03L638.82,233.2L659.1,280.97L669.24,301L679.38,317.8L689.52,329.88L709.8,354.04L719.94,362.94L730.08,369.83L740.22,374.57L750.36,378.03L760.5,380.33L780.78,382.71L790.92,383.44L821.34,384.58L831.48,384.73L953.16,384.98L963.3,384.97L1003.86,384.74L1014,383.61" style="vector-effect: none; fill: none; stroke: rgb(92, 184, 92); stroke-opacity: 1; stroke-width: 2px; opacity: 1;"/></g><g class="points"/><g class="text"/></g><g class="trace scatter trace0c0a5a" style="stroke-miterlimit: 2; opacity: 1;"><g class="fills"/><g class="errorbars"/><g class="lines"><path class="js-line" d="M0,385L202.8,384.28L212.94,384.2L243.36,383.94L253.5,380.11L263.64,375.36L273.78,371.88L304.2,326.9L314.34,314.37L334.62,315.62L344.76,304.97L365.04,251.64L375.18,219.98L385.32,190.55L395.46,201.42L405.6,193.55L415.74,149.73L425.88,130.84L436.02,118.24L446.16,90.77L456.3,41.18L466.44,21.58L476.58,33.81L486.72,66.23L496.86,108.16L507,124.93L517.14,126.32L527.28,110.27L537.42,96.25L547.56,106.55L557.7,122.3L567.84,128.85L577.98,155.26L588.12,204.82L598.26,245.4L618.54,297.94L628.68,316.01L638.82,329.28L648.96,340.02L659.1,349.21L669.24,356.59L679.38,362.42L689.52,367.1L709.8,374.41L719.94,377.41L740.22,381.09L750.36,382.18L780.78,384.01L790.92,384.31L861.9,384.98L872.04,384.99L1014,385" style="vector-effect: none; fill: none; stroke: rgb(240, 173, 78); stroke-opacity: 1; stroke-width: 2px; opacity: 1;"/></g><g class="points"/><g class="text"/></g><g class="trace scatter trace6c4740" style="stroke-miterlimit: 2; opacity: 1;"><g class="fills"/><g class="errorbars"/><g class="lines"><path class="js-line" d="M0,385L223.08,384.35L233.22,383.77L243.36,382.92L253.5,377.11L263.64,371.38L273.78,370.21L294.06,359.72L304.2,340.18L314.34,310.7L324.48,303.75L334.62,300.93L344.76,275.41L365.04,232.36L375.18,216.46L385.32,218.25L395.46,219.21L405.6,206.16L415.74,173.99L425.88,125.16L436.02,83.72L456.3,54.08L466.44,48.85L476.58,60.13L486.72,97.23L496.86,123.7L507,120.71L517.14,103.65L527.28,90.21L537.42,97.05L547.56,113.96L557.7,138.27L567.84,132.5L577.98,142.85L588.12,186.38L608.4,274.47L618.54,297.71L628.68,316.58L638.82,331.65L648.96,341.67L659.1,349.61L669.24,356.87L679.38,362.73L699.66,371.31L709.8,374.57L730.08,379.58L740.22,381.09L760.5,383.13L770.64,383.68L811.2,384.59L821.34,384.74L943.02,384.98L953.16,384.98L1014,384.18" style="vector-effect: none; fill: none; stroke: rgb(240, 173, 78); stroke-opacity: 1; stroke-width: 2px; opacity: 1;"/></g><g class="points"/><g class="text"/></g><g class="trace scatter tracea6eae2" style="stroke-miterlimit: 2; opacity: 1;"><g class="fills"/><g class="errorbars"/><g class="lines"><path class="js-line" d="M0,384.91L172.38,384.52L182.52,383.87L192.66,382.21L202.8,381.89L212.94,381.8L223.08,380.55L233.22,380.32L243.36,380.98L253.5,378.4L263.64,374.23L273.78,369.89L283.92,353.41L294.06,338.25L304.2,326.86L314.34,315.02L324.48,308.19L334.62,298.29L344.76,281.02L365.04,232.69L375.18,204.86L385.32,180.34L395.46,182.08L405.6,166.06L415.74,126.52L425.88,110.81L436.02,97.03L446.16,68.36L456.3,28.63L466.44,19.25L476.58,33.68L486.72,61.68L496.86,103.29L507,117.94L517.14,128L527.28,152.23L537.42,159.13L547.56,164.92L557.7,181.33L567.84,196.67L577.98,222.11L588.12,246.95L598.26,261.74L618.54,286.05L628.68,297.1L638.82,309.12L648.96,322.59L659.1,336.29L669.24,347.61L679.38,356.01L689.52,362.23L709.8,372.14L719.94,375.99L740.22,380.53L750.36,381.89L780.78,384.01L790.92,384.31L902.46,385L912.6,385L1014,385" style="vector-effect: none; fill: none; stroke: rgb(92, 184, 92); stroke-opacity: 1; stroke-width: 2px; opacity: 1;"/></g><g class="points"/><g class="text"/></g><g class="trace scatter tracebd976f" style="stroke-miterlimit: 2; opacity: 1;"><g class="fills"/><g class="errorbars"/><g class="lines"><path class="js-line" d="M0,384.95L131.82,384.61L141.96,384.22L152.1,382.66L162.24,382.23L172.38,381.71L182.52,381.95L192.66,382.87L202.8,382.39L212.94,382.68L223.08,382.16L233.22,381.59L243.36,380.19L263.64,368.99L273.78,366.36L294.06,351.79L304.2,335.1L314.34,309.62L324.48,297.75L334.62,291.86L344.76,267.75L365.04,227.07L375.18,208.96L385.32,205.04L395.46,197.45L405.6,179.96L415.74,148.23L425.88,106.72L436.02,70.32L446.16,48.77L456.3,33.05L466.44,33.22L476.58,49.38L486.72,81.24L496.86,106.03L507,102.38L517.14,104.27L527.28,125.97L537.42,150.67L557.7,190.32L567.84,203.81L577.98,222.1L588.12,246.94L598.26,261.96L608.4,274.27L618.54,285.39L628.68,299.21L638.82,313.25L648.96,325.39L669.24,348.53L679.38,356.79L689.52,362.84L699.66,367.94L719.94,375.93L730.08,378.55L750.36,381.89L760.5,382.91L790.92,384.25L801.06,384.39L882.18,384.97L892.32,384.98L1003.86,384.75L1014,383.73" style="vector-effect: none; fill: none; stroke: rgb(92, 184, 92); stroke-opacity: 1; stroke-width: 2px; opacity: 1;"/></g><g class="points"/><g class="text"/></g></g></g></g><path class="xlines-above crisp" d="M0,0" style="fill: none;"/><path class="ylines-above crisp" d="M0,0" style="fill: none;"/><g class="overlines-above"/><g class="xaxislayer-above"><g class="xtick"><text text-anchor="middle" x="0" y="451" transform="translate(60,0)" style="font-family: 'Lucida Grande', 'Open Sans', verdana, arial, sans-serif; font-size: 10px; fill: rgb(0, 0, 0); fill-opacity: 1; white-space: pre; opacity: 1;">0%</text></g><g class="xtick"><text text-anchor="middle" x="0" y="451" style="font-family: 'Lucida Grande', 'Open Sans', verdana, arial, sans-serif; font-size: 10px; fill: rgb(0, 0, 0); fill-opacity: 1; white-space: pre; opacity: 1;" transform="translate(262.8,0)">20%</text></g><g class="xtick"><text text-anchor="middle" x="0" y="451" style="font-family: 'Lucida Grande', 'Open Sans', verdana, arial, sans-serif; font-size: 10px; fill: rgb(0, 0, 0); fill-opacity: 1; white-space: pre; opacity: 1;" transform="translate(465.6,0)">40%</text></g><g class="xtick"><text text-anchor="middle" x="0" y="451" style="font-family: 'Lucida Grande', 'Open Sans', verdana, arial, sans-serif; font-size: 10px; fill: rgb(0, 0, 0); fill-opacity: 1; white-space: pre; opacity: 1;" transform="translate(668.4,0)">60%</text></g><g class="xtick"><text text-anchor="middle" x="0" y="451" style="font-family: 'Lucida Grande', 'Open Sans', verdana, arial, sans-serif; font-size: 10px; fill: rgb(0, 0, 0); fill-opacity: 1; white-space: pre; opacity: 1;" transform="translate(871.2,0)">80%</text></g><g class="xtick"><text text-anchor="middle" x="0" y="451" style="font-family: 'Lucida Grande', 'Open Sans', verdana, arial, sans-serif; font-size: 10px; fill: rgb(0, 0, 0); fill-opacity: 1; white-space: pre; opacity: 1;" transform="translate(1074,0)">100%</text></g></g><g class="yaxislayer-above"><g class="ytick"><text text-anchor="end" x="54" y="3.5" transform="translate(0,435)" style="font-family: 'Lucida Grande', 'Open Sans', verdana, arial, sans-serif; font-size: 10px; fill: rgb(0, 0, 0); fill-opacity: 1; white-space: pre; opacity: 1;">0%</text></g><g class="ytick"><text text-anchor="end" x="54" y="3.5" style="font-family: 'Lucida Grande', 'Open Sans', verdana, arial, sans-serif; font-size: 10px; fill: rgb(0, 0, 0); fill-opacity: 1; white-space: pre; opacity: 1;" transform="translate(0,364.13)">1%</text></g><g class="ytick"><text text-anchor="end" x="54" y="3.5" style="font-family: 'Lucida Grande', 'Open Sans', verdana, arial, sans-serif; font-size: 10px; fill: rgb(0, 0, 0); fill-opacity: 1; white-space: pre; opacity: 1;" transform="translate(0,293.26)">2%</text></g><g class="ytick"><text text-anchor="end" x="54" y="3.5" style="font-family: 'Lucida Grande', 'Open Sans', verdana, arial, sans-serif; font-size: 10px; fill: rgb(0, 0, 0); fill-opacity: 1; white-space: pre; opacity: 1;" transform="translate(0,222.39)">3%</text></g><g class="ytick"><text text-anchor="end" x="54" y="3.5" style="font-family: 'Lucida Grande', 'Open Sans', verdana, arial, sans-serif; font-size: 10px; fill: rgb(0, 0, 0); fill-opacity: 1; white-space: pre; opacity: 1;" transform="translate(0,151.51999999999998)">4%</text></g><g class="ytick"><text text-anchor="end" x="54" y="3.5" style="font-family: 'Lucida Grande', 'Open Sans', verdana, arial, sans-serif; font-size: 10px; fill: rgb(0, 0, 0); fill-opacity: 1; white-space: pre; opacity: 1;" transform="translate(0,80.65)">5%</text></g></g><g class="overaxes-above"/></g></g><g class="polarlayer"/><g class="smithlayer"/><g class="ternarylayer"/><g class="geolayer"/><g class="funnelarealayer"/><g class="pielayer"/><g class="iciclelayer"/><g class="treemaplayer"/><g class="sunburstlayer"/><g class="glimages"/><defs id="topdefs-b40175"><g class="clips"/></defs><g class="layer-above"><g class="imagelayer"/><g class="shapelayer"/></g><g class="infolayer"><g class="g-gtitle"><text class="gtitle" x="550" y="25" text-anchor="middle" dy="0em" style="opacity: 1; font-family: 'Lucida Grande', 'Open Sans', verdana, arial, sans-serif; font-size: 20px; fill: rgb(68, 68, 68); fill-opacity: 1; white-space: pre;"><tspan class="line" dy="0em" x="550" y="25">FastQC: Per Sequence GC Content</tspan><tspan class="line" dy="1.3em" x="550" y="25">​<tspan style="font-size:70%" dy="-0.6em">Percentages, 12 samples</tspan><tspan dy="0.42em">​</tspan></tspan></text></g><g class="g-xtitle"><text class="xtitle" x="567" y="487" text-anchor="middle" style="opacity: 0.3; font-family: 'Lucida Grande', 'Open Sans', verdana, arial, sans-serif; font-size: 14px; fill: rgb(0, 0, 0); fill-opacity: 1; white-space: pre;">% GC</text></g><g class="g-ytitle"><text class="ytitle" transform="rotate(-90,22,242.5)" x="22" y="242.5" text-anchor="middle" style="opacity: 0.3; font-family: 'Lucida Grande', 'Open Sans', verdana, arial, sans-serif; font-size: 14px; fill: rgb(0, 0, 0); fill-opacity: 1; white-space: pre;">Percentage</text></g></g></svg>