<svg class="main-svg" xmlns="http://www.w3.org/2000/svg" xmlns:xlink="http://www.w3.org/1999/xlink" width="2200" height="1000" style="" viewBox="0 0 1100 500"><rect x="0" y="0" width="1100" height="500" style="fill: rgb(255, 255, 255); fill-opacity: 1;"/><defs id="defs-d90b67"><g class="clips"><clipPath id="clipd90b67xyplot" class="plotclip"><rect width="1014" height="385"/></clipPath><clipPath class="axesclip" id="clipd90b67x"><rect x="60" y="0" width="1014" height="500"/></clipPath><clipPath class="axesclip" id="clipd90b67y"><rect x="0" y="50" width="1100" height="385"/></clipPath><clipPath class="axesclip" id="clipd90b67xy"><rect x="60" y="50" width="1014" height="385"/></clipPath></g><g class="gradients"/><g class="patterns"/></defs><g class="bglayer"/><g class="layer-below"><g class="imagelayer"/><g class="shapelayer"/></g><g class="cartesianlayer"><g class="subplot xy"><g class="layer-subplot"><g class="shapelayer"/><g class="imagelayer"/></g><g class="minor-gridlayer"><g class="x"/><g class="y"/></g><g class="gridlayer"><g class="x"><path class="xgrid crisp" transform="translate(262.8,0)" d="M0,50v385" style="stroke: rgb(0, 0, 0); stroke-opacity: 0.05; stroke-width: 1px;"/><path class="xgrid crisp" transform="translate(465.6,0)" d="M0,50v385" style="stroke: rgb(0, 0, 0); stroke-opacity: 0.05; stroke-width: 1px;"/><path class="xgrid crisp" transform="translate(668.4,0)" d="M0,50v385" style="stroke: rgb(0, 0, 0); stroke-opacity: 0.05; stroke-width: 1px;"/><path class="xgrid crisp" transform="translate(871.2,0)" d="M0,50v385" style="stroke: rgb(0, 0, 0); stroke-opacity: 0.05; stroke-width: 1px;"/></g><g class="y"><path class="ygrid crisp" transform="translate(0,381.9)" d="M60,0h1014" style="stroke: rgb(0, 0, 0); stroke-opacity: 0.05; stroke-width: 1px;"/><path class="ygrid crisp" transform="translate(0,328.8)" d="M60,0h1014" style="stroke: rgb(0, 0, 0); stroke-opacity: 0.05; stroke-width: 1px;"/><path class="ygrid crisp" transform="translate(0,275.7)" d="M60,0h1014" style="stroke: rgb(0, 0, 0); stroke-opacity: 0.05; stroke-width: 1px;"/><path class="ygrid crisp" transform="translate(0,222.6)" d="M60,0h1014" style="stroke: rgb(0, 0, 0); stroke-opacity: 0.05; stroke-width: 1px;"/><path class="ygrid crisp" transform="translate(0,169.5)" d="M60,0h1014" style="stroke: rgb(0, 0, 0); stroke-opacity: 0.05; stroke-width: 1px;"/><path class="ygrid crisp" transform="translate(0,116.4)" d="M60,0h1014" style="stroke: rgb(0, 0, 0); stroke-opacity: 0.05; stroke-width: 1px;"/><path class="ygrid crisp" transform="translate(0,63.3)" d="M60,0h1014" style="stroke: rgb(0, 0, 0); stroke-opacity: 0.05; stroke-width: 1px;"/></g></g><g class="zerolinelayer"><path class="xzl zl crisp" transform="translate(60,0)" d="M0,50v385" style="stroke: rgb(0, 0, 0); stroke-opacity: 0.05; stroke-width: 1px;"/><path class="yzl zl crisp" transform="translate(0,435)" d="M60,0h1014" style="stroke: rgb(0, 0, 0); stroke-opacity: 0.05; stroke-width: 1px;"/></g><g class="layer-between"><g class="shapelayer"/><g class="imagelayer"/></g><path class="xlines-below"/><path class="ylines-below"/><g class="overlines-below"/><g class="xaxislayer-below"/><g class="yaxislayer-below"/><g class="overaxes-below"/><g class="overplot"><g class="xy" transform="translate(60,50)" clip-path="url(#clipd90b67xyplot)"><g class="scatterlayer mlayer"><g class="trace scatter trace437262" style="stroke-miterlimit: 2; opacity: 1;"><g class="fills"/><g class="errorbars"/><g class="lines"><path class="js-line" d="M0,385L223.08,384.35L233.22,384.1L243.36,383.68L253.5,381.65L273.78,376.73L283.92,367.83L304.2,351.95L314.34,344.34L324.48,340.37L334.62,335.04L344.76,323.31L354.9,307.07L365.04,291.44L375.18,268.16L385.32,243.94L395.46,237.34L405.6,222.01L415.74,192.06L425.88,175.71L436.02,161.08L446.16,139.13L456.3,110.07L466.44,98.26L476.58,103.67L486.72,118.11L496.86,140.74L507,145.48L517.14,148.08L527.28,162.55L537.42,169.41L547.56,174.21L557.7,184.65L567.84,197.88L577.98,219.64L588.12,241.76L598.26,256.39L628.68,291.75L638.82,304.68L659.1,332.31L669.24,343.53L679.38,352.23L689.52,358.84L709.8,369.99L719.94,374.39L740.22,379.7L750.36,381.41L770.64,383.27L780.78,383.88L821.34,384.75L831.48,384.83L1014,385" style="vector-effect: none; fill: none; stroke: rgb(240, 173, 78); stroke-opacity: 1; stroke-width: 2px; opacity: 1;"/></g><g class="points"/><g class="text"/></g><g class="trace scatter traceea47e1" style="stroke-miterlimit: 2; opacity: 1;"><g class="fills"/><g class="errorbars"/><g class="lines"><path class="js-line" d="M0,385L223.08,384.52L233.22,384.1L243.36,383.5L253.5,380.85L263.64,377.93L273.78,376.24L294.06,367.5L304.2,357.45L314.34,343.86L324.48,337.32L334.62,330.47L344.76,313.8L354.9,299.41L365.04,283.27L375.18,266.1L385.32,255.62L395.46,244.73L405.6,228.01L415.74,203.5L425.88,173.61L436.02,145.73L446.16,129.24L456.3,114.57L466.44,104.02L476.58,108.24L486.72,127.76L496.86,141.74L507,132.33L517.14,129.44L527.28,145.41L537.42,162.63L547.56,176.61L557.7,192.54L567.84,205.02L577.98,220.77L588.12,242.21L598.26,257.36L608.4,269.95L618.54,281.16L628.68,294.2L648.96,321.51L659.1,333.82L669.24,344.86L679.38,353.42L699.66,365.56L709.8,370.44L719.94,374.55L730.08,377.66L750.36,381.46L760.5,382.57L790.92,384.13L801.06,384.31L861.9,384.93L872.04,384.96L1003.86,384.76L1014,383.71" style="vector-effect: none; fill: none; stroke: rgb(240, 173, 78); stroke-opacity: 1; stroke-width: 2px; opacity: 1;"/></g><g class="points"/><g class="text"/></g><g class="trace scatter trace809f2f" style="stroke-miterlimit: 2; opacity: 1;"><g class="fills"/><g class="errorbars"/><g class="lines"><path class="js-line" d="M0,385L212.94,384.36L223.08,384.1L243.36,383.42L253.5,381.78L273.78,376.55L283.92,366.76L314.34,339.53L324.48,335.68L334.62,328.36L344.76,314.26L354.9,294.36L365.04,272.66L375.18,247.02L385.32,224.54L395.46,218.82L405.6,203L415.74,168.94L425.88,147.78L436.02,135.41L446.16,116.62L456.3,92.88L466.44,86.53L476.58,97.25L486.72,117.2L496.86,142.47L507,148.34L517.14,146.03L527.28,150.98L537.42,149.23L547.56,148.44L557.7,149.19L567.84,151.2L577.98,169.85L588.12,190.44L598.26,199.98L608.4,206.58L618.54,221.13L628.68,239.43L648.96,274.47L659.1,292.93L669.24,310.46L679.38,324.7L689.52,336.01L699.66,345.45L719.94,364.1L730.08,370.91L740.22,375.13L750.36,378.29L770.64,381.83L780.78,382.83L811.2,384.33L821.34,384.57L892.32,385L902.46,385L1014,385" style="vector-effect: none; fill: none; stroke: rgb(240, 173, 78); stroke-opacity: 1; stroke-width: 2px; opacity: 1;"/></g><g class="points"/><g class="text"/></g><g class="trace scatter trace9017a3" style="stroke-miterlimit: 2; opacity: 1;"><g class="fills"/><g class="errorbars"/><g class="lines"><path class="js-line" d="M0,385L223.08,384.32L233.22,383.91L243.36,383.26L253.5,380.83L273.78,375.1L283.92,369.68L294.06,364.23L304.2,353.56L314.34,338.99L324.48,330.09L334.62,320.47L344.76,301.44L365.04,267.11L375.18,247L395.46,225.06L405.6,206.51L415.74,179.96L425.88,148.75L436.02,121.49L446.16,107.4L456.3,95.38L466.44,91.68L476.58,103.71L486.72,124.24L496.86,138.33L507,130.55L517.14,123.62L527.28,132.66L537.42,143.79L547.56,152.03L567.84,161.04L577.98,174.51L588.12,189.92L598.26,199.22L608.4,211.6L618.54,226.81L628.68,241.5L638.82,258.14L659.1,296.84L669.24,313.41L679.38,327.53L689.52,338L709.8,358.06L719.94,365.54L730.08,371.37L740.22,375.54L750.36,378.6L760.5,380.61L780.78,382.76L790.92,383.44L831.48,384.66L841.62,384.73L963.3,384.96L973.44,384.95L1003.86,384.7L1014,383.42" style="vector-effect: none; fill: none; stroke: rgb(217, 83, 79); stroke-opacity: 1; stroke-width: 2px; opacity: 1;"/></g><g class="points"/><g class="text"/></g><g class="trace scatter trace5afa8d" style="stroke-miterlimit: 2; opacity: 1;"><g class="fills"/><g class="errorbars"/><g class="lines"><path class="js-line" d="M0,385L141.96,384.7L152.1,384.2L172.38,383.17L182.52,381.47L192.66,378.07L202.8,377.75L212.94,377.32L223.08,375.37L233.22,376.48L243.36,378.97L253.5,379.82L263.64,378.65L273.78,377.03L283.92,372.18L304.2,364.35L314.34,356.53L324.48,347.6L334.62,335.51L344.76,324.42L354.9,309.67L365.04,281.91L375.18,266.93L395.46,266.89L405.6,256.39L415.74,233.82L425.88,222.7L436.02,214.59L446.16,203.62L456.3,187.4L466.44,179.07L476.58,183.59L486.72,190.62L496.86,184.8L507,168.14L517.14,145.35L527.28,126.61L537.42,112.43L547.56,107.51L557.7,115.66L567.84,127.41L577.98,153.55L588.12,193.48L598.26,236.26L608.4,268.67L618.54,294.6L628.68,315.47L638.82,334.61L648.96,347.81L659.1,354.26L669.24,358.71L699.66,371.7L709.8,373.99L719.94,376.44L730.08,376.97L740.22,377.78L750.36,379.95L760.5,381.05L770.64,380.28L790.92,380.1L801.06,379.53L831.48,382.5L841.62,382.8L861.9,384.73L872.04,384.95L1014,385" style="vector-effect: none; fill: none; stroke: rgb(217, 83, 79); stroke-opacity: 1; stroke-width: 2px; opacity: 1;"/></g><g class="points"/><g class="text"/></g><g class="trace scatter trace5ceb25" style="stroke-miterlimit: 2; opacity: 1;"><g class="fills"/><g class="errorbars"/><g class="lines"><path class="js-line" d="M0,385L111.54,384.3L121.68,383.93L131.82,384.16L141.96,383.33L152.1,379.93L162.24,379.02L172.38,378.35L182.52,378.73L192.66,379.45L202.8,378.28L212.94,379.86L223.08,379.55L243.36,379.39L253.5,377.17L263.64,375.48L273.78,374.85L294.06,371.49L304.2,365.67L314.34,352.1L324.48,336.64L334.62,326.42L344.76,310.96L354.9,302.36L365.04,299.36L375.18,288.61L385.32,279.21L395.46,269.49L405.6,257.25L415.74,241.05L425.88,222.79L436.02,205.41L446.16,196.08L466.44,184.91L476.58,184.49L486.72,196.02L496.86,192.12L507,164.66L517.14,142.31L527.28,125.27L537.42,116.19L547.56,119.31L557.7,117.92L567.84,118.64L577.98,152.49L588.12,198.38L598.26,228.78L608.4,259.94L618.54,294.29L628.68,320.37L638.82,336.76L648.96,346.46L659.1,352.87L669.24,360.8L679.38,367.11L689.52,369.81L699.66,371.7L719.94,375.72L730.08,378.19L740.22,379.24L750.36,378.92L780.78,380.58L790.92,379.8L801.06,378.55L811.2,378.2L831.48,381.05L841.62,381.01L872.04,384.8L882.18,384.95L1003.86,384.79L1014,384.01" style="vector-effect: none; fill: none; stroke: rgb(217, 83, 79); stroke-opacity: 1; stroke-width: 2px; opacity: 1;"/></g><g class="points"/><g class="text"/></g><g class="trace scatter trace3f9071" style="stroke-miterlimit: 2; opacity: 1;"><g class="fills"/><g class="errorbars"/><g class="lines"><path class="js-line" d="M0,385L212.94,384.43L223.08,384.19L253.5,383.15L263.64,382.14L273.78,380.79L283.92,376.94L314.34,364.87L324.48,360.65L334.62,353.71L344.76,343.02L354.9,328.39L365.04,310.93L385.32,272.39L395.46,259.69L405.6,243.78L415.74,220.37L425.88,201.57L436.02,187.05L446.16,170.56L456.3,152.12L466.44,143.92L476.58,146L486.72,152.52L496.86,161.22L507,158.27L517.14,151.34L537.42,148.16L547.56,147.59L557.7,145.17L567.84,146.39L577.98,160.93L588.12,178.38L598.26,188.76L608.4,196.01L618.54,210.9L628.68,231.49L669.24,308.32L679.38,323.24L689.52,334.63L699.66,344.36L719.94,364.3L730.08,371.41L740.22,375.41L750.36,378.55L760.5,380.69L770.64,382.04L790.92,383.71L801.06,384.13L841.62,384.89L851.76,384.95L1014,385" style="vector-effect: none; fill: none; stroke: rgb(92, 184, 92); stroke-opacity: 1; stroke-width: 2px; opacity: 1;"/></g><g class="points"/><g class="text"/></g><g class="trace scatter tracece37ad" style="stroke-miterlimit: 2; opacity: 1;"><g class="fills"/><g class="errorbars"/><g class="lines"><path class="js-line" d="M0,385L233.22,384.29L243.36,383.99L273.78,380.94L283.92,378.69L294.06,375.89L304.2,371.24L324.48,358.14L334.62,350.06L354.9,323.98L365.04,308.48L375.18,291.03L385.32,275.28L395.46,259.55L405.6,241.85L425.88,201.19L436.02,179.76L446.16,164.75L456.3,152.12L466.44,143.64L476.58,147.54L486.72,155.21L496.86,158.13L507,144.5L517.14,134.41L527.28,140.04L537.42,144.49L557.7,148.56L567.84,154.08L598.26,187.36L608.4,202.03L628.68,234.41L638.82,252.84L659.1,294.43L669.24,311.87L679.38,326.5L689.52,337.01L709.8,358.05L719.94,365.8L730.08,371.79L740.22,375.92L750.36,378.93L760.5,380.93L780.78,383L790.92,383.64L821.34,384.63L831.48,384.77L983.58,384.95L993.72,384.91L1003.86,384.77L1014,383.79" style="vector-effect: none; fill: none; stroke: rgb(92, 184, 92); stroke-opacity: 1; stroke-width: 2px; opacity: 1;"/></g><g class="points"/><g class="text"/></g><g class="trace scatter trace9a31bf" style="stroke-miterlimit: 2; opacity: 1;"><g class="fills"/><g class="errorbars"/><g class="lines"><path class="js-line" d="M0,385L202.8,384.28L212.94,384.2L243.36,383.93L253.5,380.09L263.64,375.3L273.78,371.8L304.2,326.57L314.34,313.97L334.62,315.23L344.76,304.52L365.04,250.88L375.18,219.04L385.32,189.44L395.46,200.37L405.6,192.45L415.74,148.38L425.88,129.39L436.02,116.72L446.16,89.09L456.3,39.22L466.44,19.5L476.58,31.8L486.72,64.41L496.86,106.58L507,123.44L517.14,124.84L527.28,108.71L537.42,94.6L547.56,104.96L557.7,120.8L567.84,127.39L577.98,153.95L588.12,203.79L598.26,244.6L618.54,297.44L628.68,315.61L638.82,328.97L648.96,339.76L659.1,349L669.24,356.43L679.38,362.29L689.52,367L709.8,374.35L719.94,377.36L740.22,381.07L750.36,382.16L780.78,384L790.92,384.31L861.9,384.98L872.04,384.99L1014,385" style="vector-effect: none; fill: none; stroke: rgb(240, 173, 78); stroke-opacity: 1; stroke-width: 2px; opacity: 1;"/></g><g class="points"/><g class="text"/></g><g class="trace scatter trace900a36" style="stroke-miterlimit: 2; opacity: 1;"><g class="fills"/><g class="errorbars"/><g class="lines"><path class="js-line" d="M0,385L223.08,384.35L233.22,383.77L243.36,382.9L253.5,377.06L263.64,371.3L273.78,370.12L294.06,359.57L304.2,339.9L314.34,310.25L324.48,303.26L334.62,300.42L344.76,274.74L365.04,231.43L375.18,215.43L385.32,217.23L395.46,218.19L405.6,205.07L415.74,172.7L425.88,123.57L436.02,81.88L456.3,52.05L466.44,46.79L476.58,58.14L486.72,95.47L496.86,122.1L507,119.1L517.14,101.93L527.28,88.41L537.42,95.29L547.56,112.3L557.7,136.77L567.84,130.96L577.98,141.37L588.12,185.16L608.4,273.8L618.54,297.17L628.68,316.16L638.82,331.32L648.96,341.4L659.1,349.39L669.24,356.7L679.38,362.59L699.66,371.23L709.8,374.51L730.08,379.55L740.22,381.07L760.5,383.11L770.64,383.67L811.2,384.59L821.34,384.74L963.3,384.97L973.44,384.97L1003.86,384.83L1014,384.17" style="vector-effect: none; fill: none; stroke: rgb(240, 173, 78); stroke-opacity: 1; stroke-width: 2px; opacity: 1;"/></g><g class="points"/><g class="text"/></g><g class="trace scatter tracea11127" style="stroke-miterlimit: 2; opacity: 1;"><g class="fills"/><g class="errorbars"/><g class="lines"><path class="js-line" d="M0,384.91L172.38,384.52L182.52,383.87L192.66,382.21L202.8,381.89L212.94,381.8L223.08,380.55L233.22,380.32L243.36,380.98L253.5,378.4L263.64,374.23L273.78,369.89L283.92,353.41L294.06,338.25L304.2,326.86L314.34,315.02L324.48,308.19L334.62,298.29L344.76,281.02L365.04,232.69L375.18,204.86L385.32,180.34L395.46,182.08L405.6,166.06L415.74,126.52L425.88,110.81L436.02,97.03L446.16,68.36L456.3,28.63L466.44,19.25L476.58,33.68L486.72,61.68L496.86,103.29L507,117.94L517.14,128L527.28,152.23L537.42,159.13L547.56,164.92L557.7,181.33L567.84,196.67L577.98,222.11L588.12,246.95L598.26,261.74L618.54,286.05L628.68,297.1L638.82,309.12L648.96,322.59L659.1,336.29L669.24,347.61L679.38,356.01L689.52,362.23L709.8,372.14L719.94,375.99L740.22,380.53L750.36,381.89L780.78,384.01L790.92,384.31L902.46,385L912.6,385L1014,385" style="vector-effect: none; fill: none; stroke: rgb(92, 184, 92); stroke-opacity: 1; stroke-width: 2px; opacity: 1;"/></g><g class="points"/><g class="text"/></g><g class="trace scatter trace3f975f" style="stroke-miterlimit: 2; opacity: 1;"><g class="fills"/><g class="errorbars"/><g class="lines"><path class="js-line" d="M0,384.95L131.82,384.61L141.96,384.21L152.1,382.65L162.24,382.22L182.52,381.95L192.66,382.87L202.8,382.38L212.94,382.67L233.22,381.58L243.36,380.18L263.64,368.97L273.78,366.34L294.06,351.76L304.2,335.05L314.34,309.56L324.48,297.67L334.62,291.78L344.76,267.65L365.04,226.93L375.18,208.8L385.32,204.88L395.46,197.29L405.6,179.78L415.74,148.02L425.88,106.47L436.02,70.05L446.16,48.47L456.3,32.74L466.44,32.91L476.58,49.09L486.72,80.97L496.86,105.78L507,102.13L517.14,104.02L527.28,125.74L537.42,150.47L557.7,190.15L567.84,203.65L577.98,221.95L588.12,246.82L598.26,261.86L608.4,274.17L618.54,285.3L628.68,299.14L638.82,313.19L648.96,325.33L669.24,348.5L679.38,356.77L689.52,362.82L699.66,367.92L719.94,375.93L730.08,378.55L750.36,381.88L760.5,382.91L790.92,384.25L801.06,384.39L882.18,384.97L892.32,384.98L1003.86,384.75L1014,383.73" style="vector-effect: none; fill: none; stroke: rgb(92, 184, 92); stroke-opacity: 1; stroke-width: 2px; opacity: 1;"/></g><g class="points"/><g class="text"/></g></g></g></g><path class="xlines-above crisp" d="M0,0" style="fill: none;"/><path class="ylines-above crisp" d="M0,0" style="fill: none;"/><g class="overlines-above"/><g class="xaxislayer-above"><g class="xtick"><text text-anchor="middle" x="0" y="451" transform="translate(60,0)" style="font-family: 'Lucida Grande', 'Open Sans', verdana, arial, sans-serif; font-size: 10px; fill: rgb(0, 0, 0); fill-opacity: 1; white-space: pre; opacity: 1;">0%</text></g><g class="xtick"><text text-anchor="middle" x="0" y="451" style="font-family: 'Lucida Grande', 'Open Sans', verdana, arial, sans-serif; font-size: 10px; fill: rgb(0, 0, 0); fill-opacity: 1; white-space: pre; opacity: 1;" transform="translate(262.8,0)">20%</text></g><g class="xtick"><text text-anchor="middle" x="0" y="451" style="font-family: 'Lucida Grande', 'Open Sans', verdana, arial, sans-serif; font-size: 10px; fill: rgb(0, 0, 0); fill-opacity: 1; white-space: pre; opacity: 1;" transform="translate(465.6,0)">40%</text></g><g class="xtick"><text text-anchor="middle" x="0" y="451" style="font-family: 'Lucida Grande', 'Open Sans', verdana, arial, sans-serif; font-size: 10px; fill: rgb(0, 0, 0); fill-opacity: 1; white-space: pre; opacity: 1;" transform="translate(668.4,0)">60%</text></g><g class="xtick"><text text-anchor="middle" x="0" y="451" style="font-family: 'Lucida Grande', 'Open Sans', verdana, arial, sans-serif; font-size: 10px; fill: rgb(0, 0, 0); fill-opacity: 1; white-space: pre; opacity: 1;" transform="translate(871.2,0)">80%</text></g><g class="xtick"><text text-anchor="middle" x="0" y="451" style="font-family: 'Lucida Grande', 'Open Sans', verdana, arial, sans-serif; font-size: 10px; fill: rgb(0, 0, 0); fill-opacity: 1; white-space: pre; opacity: 1;" transform="translate(1074,0)">100%</text></g></g><g class="yaxislayer-above"><g class="ytick"><text text-anchor="end" x="54" y="3.5" transform="translate(0,435)" style="font-family: 'Lucida Grande', 'Open Sans', verdana, arial, sans-serif; font-size: 10px; fill: rgb(0, 0, 0); fill-opacity: 1; white-space: pre; opacity: 1;">0</text></g><g class="ytick"><text text-anchor="end" x="54" y="3.5" style="font-family: 'Lucida Grande', 'Open Sans', verdana, arial, sans-serif; font-size: 10px; fill: rgb(0, 0, 0); fill-opacity: 1; white-space: pre; opacity: 1;" transform="translate(0,381.9)">0.2M</text></g><g class="ytick"><text text-anchor="end" x="54" y="3.5" style="font-family: 'Lucida Grande', 'Open Sans', verdana, arial, sans-serif; font-size: 10px; fill: rgb(0, 0, 0); fill-opacity: 1; white-space: pre; opacity: 1;" transform="translate(0,328.8)">0.4M</text></g><g class="ytick"><text text-anchor="end" x="54" y="3.5" style="font-family: 'Lucida Grande', 'Open Sans', verdana, arial, sans-serif; font-size: 10px; fill: rgb(0, 0, 0); fill-opacity: 1; white-space: pre; opacity: 1;" transform="translate(0,275.7)">0.6M</text></g><g class="ytick"><text text-anchor="end" x="54" y="3.5" style="font-family: 'Lucida Grande', 'Open Sans', verdana, arial, sans-serif; font-size: 10px; fill: rgb(0, 0, 0); fill-opacity: 1; white-space: pre; opacity: 1;" transform="translate(0,222.6)">0.8M</text></g><g class="ytick"><text text-anchor="end" x="54" y="3.5" style="font-family: 'Lucida Grande', 'Open Sans', verdana, arial, sans-serif; font-size: 10px; fill: rgb(0, 0, 0); fill-opacity: 1; white-space: pre; opacity: 1;" transform="translate(0,169.5)">1M</text></g><g class="ytick"><text text-anchor="end" x="54" y="3.5" style="font-family: 'Lucida Grande', 'Open Sans', verdana, arial, sans-serif; font-size: 10px; fill: rgb(0, 0, 0); fill-opacity: 1; white-space: pre; opacity: 1;" transform="translate(0,116.4)">1.2M</text></g><g class="ytick"><text text-anchor="end" x="54" y="3.5" style="font-family: 'Lucida Grande', 'Open Sans', verdana, arial, sans-serif; font-size: 10px; fill: rgb(0, 0, 0); fill-opacity: 1; white-space: pre; opacity: 1;" transform="translate(0,63.3)">1.4M</text></g></g><g class="overaxes-above"/></g></g><g class="polarlayer"/><g class="smithlayer"/><g class="ternarylayer"/><g class="geolayer"/><g class="funnelarealayer"/><g class="pielayer"/><g class="iciclelayer"/><g class="treemaplayer"/><g class="sunburstlayer"/><g class="glimages"/><defs id="topdefs-d90b67"><g class="clips"/></defs><g class="layer-above"><g class="imagelayer"/><g class="shapelayer"/></g><g class="infolayer"><g class="g-gtitle"><text class="gtitle" x="550" y="25" text-anchor="middle" dy="0em" style="opacity: 1; font-family: 'Lucida Grande', 'Open Sans', verdana, arial, sans-serif; font-size: 20px; fill: rgb(68, 68, 68); fill-opacity: 1; white-space: pre;"><tspan class="line" dy="0em" x="550" y="25">FastQC: Per Sequence GC Content</tspan><tspan class="line" dy="1.3em" x="550" y="25">​<tspan style="font-size:70%" dy="-0.6em">Counts, 12 samples</tspan><tspan dy="0.42em">​</tspan></tspan></text></g><g class="g-xtitle"><text class="xtitle" x="567" y="487" text-anchor="middle" style="opacity: 0.3; font-family: 'Lucida Grande', 'Open Sans', verdana, arial, sans-serif; font-size: 14px; fill: rgb(0, 0, 0); fill-opacity: 1; white-space: pre;">% GC</text></g><g class="g-ytitle"><text class="ytitle" transform="rotate(-90,22,242.5)" x="22" y="242.5" text-anchor="middle" style="opacity: 0.3; font-family: 'Lucida Grande', 'Open Sans', verdana, arial, sans-serif; font-size: 14px; fill: rgb(0, 0, 0); fill-opacity: 1; white-space: pre;">Count</text></g></g></svg>