<svg class="main-svg" xmlns="http://www.w3.org/2000/svg" xmlns:xlink="http://www.w3.org/1999/xlink" width="2200" height="1000" style="" viewBox="0 0 1100 500"><rect x="0" y="0" width="1100" height="500" style="fill: rgb(255, 255, 255); fill-opacity: 1;"/><defs id="defs-88638b"><g class="clips"><clipPath id="clip88638bxyplot" class="plotclip"><rect width="1014" height="385"/></clipPath><clipPath class="axesclip" id="clip88638bx"><rect x="60" y="0" width="1014" height="500"/></clipPath><clipPath class="axesclip" id="clip88638by"><rect x="0" y="50" width="1100" height="385"/></clipPath><clipPath class="axesclip" id="clip88638bxy"><rect x="60" y="50" width="1014" height="385"/></clipPath></g><g class="gradients"/><g class="patterns"/></defs><g class="bglayer"/><g class="layer-below"><g class="imagelayer"/><g class="shapelayer"/></g><g class="cartesianlayer"><g class="subplot xy"><g class="layer-subplot"><g class="shapelayer"/><g class="imagelayer"/></g><g class="minor-gridlayer"><g class="x"/><g class="y"/></g><g class="gridlayer"><g class="x"><path class="xgrid crisp" transform="translate(262.8,0)" d="M0,50v385" style="stroke: rgb(0, 0, 0); stroke-opacity: 0.05; stroke-width: 1px;"/><path class="xgrid crisp" transform="translate(465.6,0)" d="M0,50v385" style="stroke: rgb(0, 0, 0); stroke-opacity: 0.05; stroke-width: 1px;"/><path class="xgrid crisp" transform="translate(668.4,0)" d="M0,50v385" style="stroke: rgb(0, 0, 0); stroke-opacity: 0.05; stroke-width: 1px;"/><path class="xgrid crisp" transform="translate(871.2,0)" d="M0,50v385" style="stroke: rgb(0, 0, 0); stroke-opacity: 0.05; stroke-width: 1px;"/></g><g class="y"><path class="ygrid crisp" transform="translate(0,378.09)" d="M60,0h1014" style="stroke: rgb(0, 0, 0); stroke-opacity: 0.05; stroke-width: 1px;"/><path class="ygrid crisp" transform="translate(0,321.19)" d="M60,0h1014" style="stroke: rgb(0, 0, 0); stroke-opacity: 0.05; stroke-width: 1px;"/><path class="ygrid crisp" transform="translate(0,264.28)" d="M60,0h1014" style="stroke: rgb(0, 0, 0); stroke-opacity: 0.05; stroke-width: 1px;"/><path class="ygrid crisp" transform="translate(0,207.37)" d="M60,0h1014" style="stroke: rgb(0, 0, 0); stroke-opacity: 0.05; stroke-width: 1px;"/><path class="ygrid crisp" transform="translate(0,150.45999999999998)" d="M60,0h1014" style="stroke: rgb(0, 0, 0); stroke-opacity: 0.05; stroke-width: 1px;"/><path class="ygrid crisp" transform="translate(0,93.56)" d="M60,0h1014" style="stroke: rgb(0, 0, 0); stroke-opacity: 0.05; stroke-width: 1px;"/></g></g><g class="zerolinelayer"><path class="xzl zl crisp" transform="translate(60,0)" d="M0,50v385" style="stroke: rgb(0, 0, 0); stroke-opacity: 0.05; stroke-width: 1px;"/><path class="yzl zl crisp" transform="translate(0,435)" d="M60,0h1014" style="stroke: rgb(0, 0, 0); stroke-opacity: 0.05; stroke-width: 1px;"/></g><g class="layer-between"><g class="shapelayer"/><g class="imagelayer"/></g><path class="xlines-below"/><path class="ylines-below"/><g class="overlines-below"/><g class="xaxislayer-below"/><g class="yaxislayer-below"/><g class="overaxes-below"/><g class="overplot"><g class="xy" transform="translate(60,50)" clip-path="url(#clip88638bxyplot)"><g class="scatterlayer mlayer"><g class="trace scatter tracee3226b" style="stroke-miterlimit: 2; opacity: 1;"><g class="fills"/><g class="errorbars"/><g class="lines"><path class="js-line" d="M0,329.19L10.14,294.54L20.28,262.75L40.56,209.14L50.7,185.24L60.84,164.84L70.98,147.42L81.12,131.47L91.26,119.57L101.4,109.93L111.54,101.98L121.68,93.97L131.82,88.6L141.96,89.21L152.1,86.02L162.24,81.96L172.38,80.56L182.52,78.63L192.66,77.85L202.8,71.81L212.94,66.78L223.08,60.6L233.22,55.59L253.5,44.6L263.64,42.57L273.78,38.2L283.92,35.55L294.06,35.64L304.2,36.6L314.34,34.56L324.48,34.68L344.76,37.49L354.9,36.75L365.04,32.38L375.18,29.18L385.32,26.38L395.46,25.78L405.6,27.04L415.74,29.42L425.88,31.17L436.02,33.93L446.16,37.98L456.3,44.86L466.44,45.47L476.58,45.13L486.72,41.5L496.86,39.83L547.56,25.9L557.7,23.68L577.98,23.87L588.12,26.2L598.26,27.14L608.4,31.73L618.54,37.4L628.68,39.83L638.82,40L648.96,41.28L659.1,43.52L669.24,44.3L679.38,46.31L689.52,50.6L699.66,53.66L709.8,54.13L719.94,60.13L730.08,64.81L740.22,67.46L750.36,73.05L760.5,77.64L770.64,83.69L780.78,90.35L790.92,95.13L801.06,100.72L811.2,104.49L831.48,117.77L841.62,126.03L851.76,135.84L861.9,147L872.04,160.29L882.18,171.37L912.6,206.94L922.74,224.28L932.88,241.26L943.02,260.35L953.16,279.58L963.3,302.08L983.58,350.82L993.72,368.42L1003.86,381.26" style="vector-effect: none; fill: none; stroke: rgb(124, 181, 236); stroke-opacity: 1; stroke-width: 2px; opacity: 1;"/></g><g class="points"/><g class="text"/></g><g class="trace scatter trace5cd1ba" style="stroke-miterlimit: 2; opacity: 1;"><g class="fills"/><g class="errorbars"/><g class="lines"><path class="js-line" d="M0,306.29L10.14,271.06L20.28,240.24L40.56,191.89L50.7,171.26L60.84,153.86L70.98,140.38L91.26,114.45L101.4,104.24L111.54,95.05L121.68,88.49L131.82,81.85L141.96,78.21L162.24,70.63L172.38,74.87L182.52,75.01L192.66,74.01L202.8,71.65L212.94,67.65L223.08,63.96L233.22,61.56L243.36,54.93L253.5,50.83L263.64,46.65L273.78,44.05L283.92,41.12L294.06,39.94L304.2,38.52L314.34,36.2L324.48,32.91L334.62,30.91L344.76,31.21L354.9,28.86L365.04,28.53L375.18,26.4L385.32,24.32L395.46,24L415.74,25.16L425.88,26.4L446.16,28.53L456.3,31.45L466.44,33.29L476.58,34L486.72,33.95L496.86,34.8L507,35.82L517.14,33.1L527.28,32.01L537.42,35.62L547.56,37.31L557.7,35.67L567.84,34.12L577.98,31.38L588.12,27.29L598.26,29.44L618.54,34.48L628.68,38.79L648.96,45.1L659.1,47.04L679.38,55.41L689.52,60.59L719.94,76.23L730.08,84.59L750.36,89.85L760.5,94.04L811.2,115.36L821.34,121.9L831.48,127.8L841.62,134.69L861.9,148.91L872.04,157.42L892.32,182.46L902.46,194.62L912.6,207.89L922.74,223L932.88,238.75L943.02,257.52L953.16,278.25L963.3,300.73L983.58,350.38L993.72,367.97L1003.86,380.62" style="vector-effect: none; fill: none; stroke: rgb(67, 67, 72); stroke-opacity: 1; stroke-width: 2px; opacity: 1;"/></g><g class="points"/><g class="text"/></g><g class="trace scatter trace97dec0" style="stroke-miterlimit: 2; opacity: 1;"><g class="fills"/><g class="errorbars"/><g class="lines"><path class="js-line" d="M0,331.58L10.14,299.28L20.28,270.29L40.56,217.31L50.7,194.08L70.98,156.48L81.12,140.2L91.26,128.05L101.4,119.98L121.68,105.14L131.82,96.41L141.96,91.33L152.1,82.46L162.24,77.13L172.38,74.48L182.52,72.39L192.66,73.05L212.94,60.15L223.08,54.75L233.22,50.14L243.36,44.03L253.5,38.17L263.64,37.12L273.78,32.83L283.92,30.34L294.06,30.41L304.2,31.74L324.48,29.87L334.62,29.4L344.76,30.44L354.9,30.1L365.04,24.94L375.18,22.54L385.32,20.06L395.46,19.73L425.88,25.57L436.02,27.81L446.16,30.32L456.3,37.17L466.44,37.33L476.58,36.25L486.72,32.32L496.86,31.55L517.14,28L527.28,26.28L557.7,19.96L567.84,19.25L577.98,19.45L588.12,23.39L598.26,24.98L608.4,28.59L618.54,33.48L628.68,35.39L638.82,36.4L648.96,39.03L669.24,44.1L679.38,48.46L689.52,54.29L699.66,58.52L709.8,59.16L719.94,66.11L730.08,72.63L740.22,74.98L750.36,80.35L760.5,84.36L770.64,89.19L780.78,94.86L790.92,98.28L801.06,103.71L811.2,108.17L821.34,114.73L831.48,121.38L841.62,129.77L851.76,139.37L861.9,150.46L872.04,163.41L882.18,174.47L902.46,198.37L912.6,212.08L953.16,287.97L963.3,310.78L983.58,355.77L993.72,371.1L1003.86,382.17" style="vector-effect: none; fill: none; stroke: rgb(144, 237, 125); stroke-opacity: 1; stroke-width: 2px; opacity: 1;"/></g><g class="points"/><g class="text"/></g><g class="trace scatter trace278464" style="stroke-miterlimit: 2; opacity: 1;"><g class="fills"/><g class="errorbars"/><g class="lines"><path class="js-line" d="M0,300.11L10.14,264.34L20.28,233.1L30.42,208.36L40.56,185.67L50.7,165.43L60.84,148.14L70.98,135.17L81.12,123.44L91.26,111.32L101.4,101.16L111.54,92.77L121.68,87.18L131.82,81.03L141.96,77.39L162.24,70.48L172.38,70.85L192.66,72.16L202.8,69.97L212.94,64.31L223.08,60.66L233.22,58.75L243.36,50.96L263.64,43.37L273.78,40.73L283.92,38.04L294.06,37.41L304.2,37.32L314.34,35.96L324.48,32.4L334.62,29.96L344.76,30.2L354.9,27.73L375.18,25.77L385.32,24.55L395.46,24.57L405.6,25.59L425.88,27.94L436.02,28.85L446.16,30.5L456.3,34.05L466.44,36.62L476.58,37.3L496.86,37.14L507,38.08L517.14,34.05L527.28,32.37L537.42,36.24L547.56,38.43L557.7,35.66L567.84,32L577.98,28.81L588.12,23.51L618.54,31.96L628.68,36.7L648.96,42.81L659.1,45.45L689.52,59.38L699.66,65.33L719.94,76.28L730.08,85.84L760.5,96.74L770.64,100.89L801.06,115.19L811.2,119.79L851.76,147.43L861.9,154.67L872.04,162.94L882.18,176.81L912.6,213.42L922.74,227.67L932.88,243.41L943.02,262.16L953.16,282.1L963.3,304.69L983.58,353.87L993.72,370.06L1003.86,381.29" style="vector-effect: none; fill: none; stroke: rgb(247, 163, 92); stroke-opacity: 1; stroke-width: 2px; opacity: 1;"/></g><g class="points"/><g class="text"/></g><g class="trace scatter trace1fe03d" style="stroke-miterlimit: 2; opacity: 1;"><g class="fills"/><g class="errorbars"/><g class="lines"><path class="js-line" d="M0,328.14L20.28,259.79L30.42,231.96L40.56,204.58L50.7,180.7L60.84,160.64L70.98,142.78L81.12,126.98L91.26,116.59L111.54,100.74L121.68,93.19L131.82,89.03L141.96,90.03L152.1,88.55L162.24,86.08L182.52,86.58L192.66,87.88L202.8,83.44L212.94,79.86L253.5,56.86L263.64,55.25L283.92,46.58L294.06,46.44L304.2,47.17L314.34,44.09L324.48,43.13L334.62,43.84L344.76,44.77L354.9,39.73L385.32,22.7L395.46,19.35L405.6,19.88L415.74,22.54L425.88,22.83L436.02,24.85L446.16,29.4L456.3,36.65L466.44,35.49L476.58,36.16L486.72,34.31L496.86,35.23L507,33.98L517.14,34.06L527.28,33.22L537.42,31.51L547.56,29.33L557.7,28.7L567.84,29.38L577.98,28.31L598.26,30.7L608.4,34.05L618.54,40.2L628.68,42.86L638.82,42.47L648.96,43.51L659.1,44.75L669.24,45.23L679.38,47.73L689.52,52.39L699.66,54.68L709.8,53.83L719.94,60.2L730.08,64.62L740.22,65.8L750.36,71.09L770.64,79.43L780.78,85.49L790.92,89.3L801.06,95.06L811.2,98.33L821.34,104.04L831.48,109.2L841.62,117.56L861.9,140.09L872.04,153.05L882.18,163.63L892.32,175.59L912.6,201.38L922.74,220.77L932.88,238.1L943.02,257.46L953.16,277.03L963.3,300.31L983.58,350.59L993.72,368.82L1003.86,381.54" style="vector-effect: none; fill: none; stroke: rgb(128, 133, 233); stroke-opacity: 1; stroke-width: 2px; opacity: 1;"/></g><g class="points"/><g class="text"/></g><g class="trace scatter tracef27cbb" style="stroke-miterlimit: 2; opacity: 1;"><g class="fills"/><g class="errorbars"/><g class="lines"><path class="js-line" d="M0,332.93L20.28,267.09L30.42,239.6L40.56,212.98L50.7,188.94L60.84,168.96L70.98,151.25L81.12,134.28L91.26,122.89L101.4,113.35L111.54,105.94L121.68,97.51L131.82,90.8L141.96,90.78L152.1,87.49L162.24,83.61L172.38,83.08L182.52,81.64L192.66,81.27L202.8,75.02L212.94,70.22L253.5,48.27L263.64,47.09L273.78,42.86L283.92,40.54L294.06,40.06L304.2,41.8L314.34,40.4L324.48,40.1L334.62,39.06L344.76,39.39L354.9,36.67L365.04,30.48L375.18,26.32L385.32,23.16L395.46,20.9L405.6,21.85L415.74,24.84L425.88,25.46L436.02,26.73L446.16,29.94L456.3,37.14L466.44,37.39L476.58,37.97L486.72,34.79L496.86,35.53L507,34.55L517.14,34.3L527.28,33.13L557.7,28.46L567.84,28.41L577.98,27.45L588.12,30.21L598.26,30.24L608.4,33.25L618.54,37.88L628.68,38.97L638.82,37.95L648.96,38.12L659.1,40.11L669.24,40.74L679.38,42.75L689.52,46.85L699.66,49.85L709.8,49.03L730.08,60.04L740.22,61.77L750.36,67.1L760.5,71.54L770.64,77.14L780.78,84.7L790.92,89.78L801.06,96.35L811.2,100.99L821.34,108.67L831.48,115.31L841.62,124.59L861.9,148.35L872.04,162.59L882.18,174.58L892.32,185.12L912.6,207.36L922.74,224.77L932.88,241.31L943.02,259.88L953.16,279.07L963.3,302.12L983.58,350.89L993.72,368.92L1003.86,381.84" style="vector-effect: none; fill: none; stroke: rgb(241, 92, 128); stroke-opacity: 1; stroke-width: 2px; opacity: 1;"/></g><g class="points"/><g class="text"/></g></g></g></g><path class="xlines-above crisp" d="M0,0" style="fill: none;"/><path class="ylines-above crisp" d="M0,0" style="fill: none;"/><g class="overlines-above"/><g class="xaxislayer-above"><g class="xtick"><text text-anchor="middle" x="0" y="451" transform="translate(60,0)" style="font-family: 'Lucida Grande', 'Open Sans', verdana, arial, sans-serif; font-size: 10px; fill: rgb(0, 0, 0); fill-opacity: 1; white-space: pre; opacity: 1;">0%</text></g><g class="xtick"><text text-anchor="middle" x="0" y="451" style="font-family: 'Lucida Grande', 'Open Sans', verdana, arial, sans-serif; font-size: 10px; fill: rgb(0, 0, 0); fill-opacity: 1; white-space: pre; opacity: 1;" transform="translate(262.8,0)">20%</text></g><g class="xtick"><text text-anchor="middle" x="0" y="451" style="font-family: 'Lucida Grande', 'Open Sans', verdana, arial, sans-serif; font-size: 10px; fill: rgb(0, 0, 0); fill-opacity: 1; white-space: pre; opacity: 1;" transform="translate(465.6,0)">40%</text></g><g class="xtick"><text text-anchor="middle" x="0" y="451" style="font-family: 'Lucida Grande', 'Open Sans', verdana, arial, sans-serif; font-size: 10px; fill: rgb(0, 0, 0); fill-opacity: 1; white-space: pre; opacity: 1;" transform="translate(668.4,0)">60%</text></g><g class="xtick"><text text-anchor="middle" x="0" y="451" style="font-family: 'Lucida Grande', 'Open Sans', verdana, arial, sans-serif; font-size: 10px; fill: rgb(0, 0, 0); fill-opacity: 1; white-space: pre; opacity: 1;" transform="translate(871.2,0)">80%</text></g><g class="xtick"><text text-anchor="middle" x="0" y="451" style="font-family: 'Lucida Grande', 'Open Sans', verdana, arial, sans-serif; font-size: 10px; fill: rgb(0, 0, 0); fill-opacity: 1; white-space: pre; opacity: 1;" transform="translate(1074,0)">100%</text></g></g><g class="yaxislayer-above"><g class="ytick"><text text-anchor="end" x="54" y="3.5" transform="translate(0,435)" style="font-family: 'Lucida Grande', 'Open Sans', verdana, arial, sans-serif; font-size: 10px; fill: rgb(0, 0, 0); fill-opacity: 1; white-space: pre; opacity: 1;">0%</text></g><g class="ytick"><text text-anchor="end" x="54" y="3.5" style="font-family: 'Lucida Grande', 'Open Sans', verdana, arial, sans-serif; font-size: 10px; fill: rgb(0, 0, 0); fill-opacity: 1; white-space: pre; opacity: 1;" transform="translate(0,378.09)">0.2%</text></g><g class="ytick"><text text-anchor="end" x="54" y="3.5" style="font-family: 'Lucida Grande', 'Open Sans', verdana, arial, sans-serif; font-size: 10px; fill: rgb(0, 0, 0); fill-opacity: 1; white-space: pre; opacity: 1;" transform="translate(0,321.19)">0.4%</text></g><g class="ytick"><text text-anchor="end" x="54" y="3.5" style="font-family: 'Lucida Grande', 'Open Sans', verdana, arial, sans-serif; font-size: 10px; fill: rgb(0, 0, 0); fill-opacity: 1; white-space: pre; opacity: 1;" transform="translate(0,264.28)">0.6%</text></g><g class="ytick"><text text-anchor="end" x="54" y="3.5" style="font-family: 'Lucida Grande', 'Open Sans', verdana, arial, sans-serif; font-size: 10px; fill: rgb(0, 0, 0); fill-opacity: 1; white-space: pre; opacity: 1;" transform="translate(0,207.37)">0.8%</text></g><g class="ytick"><text text-anchor="end" x="54" y="3.5" style="font-family: 'Lucida Grande', 'Open Sans', verdana, arial, sans-serif; font-size: 10px; fill: rgb(0, 0, 0); fill-opacity: 1; white-space: pre; opacity: 1;" transform="translate(0,150.45999999999998)">1%</text></g><g class="ytick"><text text-anchor="end" x="54" y="3.5" style="font-family: 'Lucida Grande', 'Open Sans', verdana, arial, sans-serif; font-size: 10px; fill: rgb(0, 0, 0); fill-opacity: 1; white-space: pre; opacity: 1;" transform="translate(0,93.56)">1.2%</text></g></g><g class="overaxes-above"/></g></g><g class="polarlayer"/><g class="smithlayer"/><g class="ternarylayer"/><g class="geolayer"/><g class="funnelarealayer"/><g class="pielayer"/><g class="iciclelayer"/><g class="treemaplayer"/><g class="sunburstlayer"/><g class="glimages"/><defs id="topdefs-88638b"><g class="clips"/></defs><g class="layer-above"><g class="imagelayer"/><g class="shapelayer"/></g><g class="infolayer"><g class="g-gtitle"><text class="gtitle" x="550" y="25" text-anchor="middle" dy="0em" style="opacity: 1; font-family: 'Lucida Grande', 'Open Sans', verdana, arial, sans-serif; font-size: 20px; fill: rgb(68, 68, 68); fill-opacity: 1; white-space: pre;"><tspan class="line" dy="0em" x="550" y="25">QualiMap: RNAseq: Coverage Profile Along Genes (total)</tspan><tspan class="line" dy="1.3em" x="550" y="25">​<tspan style="font-size:70%" dy="-0.6em">Normalised, 6 samples</tspan><tspan dy="0.42em">​</tspan></tspan></text></g><g class="g-xtitle"><text class="xtitle" x="567" y="487" text-anchor="middle" style="opacity: 0.3; font-family: 'Lucida Grande', 'Open Sans', verdana, arial, sans-serif; font-size: 14px; fill: rgb(0, 0, 0); fill-opacity: 1; white-space: pre;">Transcript Position 5'->3' (%)</text></g><g class="g-ytitle"><text class="ytitle" transform="rotate(-90,22,242.5)" x="22" y="242.5" text-anchor="middle" style="opacity: 0.3; font-family: 'Lucida Grande', 'Open Sans', verdana, arial, sans-serif; font-size: 14px; fill: rgb(0, 0, 0); fill-opacity: 1; white-space: pre;">Percentage total cumulative mapped-read depth</text></g></g></svg>