<svg class="main-svg" xmlns="http://www.w3.org/2000/svg" xmlns:xlink="http://www.w3.org/1999/xlink" width="2200" height="1000" style="" viewBox="0 0 1100 500"><rect x="0" y="0" width="1100" height="500" style="fill: rgb(255, 255, 255); fill-opacity: 1;"/><defs id="defs-c464a8"><g class="clips"><clipPath id="clipc464a8xyplot" class="plotclip"><rect width="1014" height="385"/></clipPath><clipPath class="axesclip" id="clipc464a8x"><rect x="60" y="0" width="1014" height="500"/></clipPath><clipPath class="axesclip" id="clipc464a8y"><rect x="0" y="50" width="1100" height="385"/></clipPath><clipPath class="axesclip" id="clipc464a8xy"><rect x="60" y="50" width="1014" height="385"/></clipPath></g><g class="gradients"/><g class="patterns"/></defs><g class="bglayer"/><g class="layer-below"><g class="imagelayer"/><g class="shapelayer"/></g><g class="cartesianlayer"><g class="subplot xy"><g class="layer-subplot"><g class="shapelayer"/><g class="imagelayer"/></g><g class="minor-gridlayer"><g class="x"/><g class="y"/></g><g class="gridlayer"><g class="x"><path class="xgrid crisp" transform="translate(262.8,0)" d="M0,50v385" style="stroke: rgb(0, 0, 0); stroke-opacity: 0.05; stroke-width: 1px;"/><path class="xgrid crisp" transform="translate(465.6,0)" d="M0,50v385" style="stroke: rgb(0, 0, 0); stroke-opacity: 0.05; stroke-width: 1px;"/><path class="xgrid crisp" transform="translate(668.4,0)" d="M0,50v385" style="stroke: rgb(0, 0, 0); stroke-opacity: 0.05; stroke-width: 1px;"/><path class="xgrid crisp" transform="translate(871.2,0)" d="M0,50v385" style="stroke: rgb(0, 0, 0); stroke-opacity: 0.05; stroke-width: 1px;"/></g><g class="y"><path class="ygrid crisp" transform="translate(0,366.26)" d="M60,0h1014" style="stroke: rgb(0, 0, 0); stroke-opacity: 0.05; stroke-width: 1px;"/><path class="ygrid crisp" transform="translate(0,297.53)" d="M60,0h1014" style="stroke: rgb(0, 0, 0); stroke-opacity: 0.05; stroke-width: 1px;"/><path class="ygrid crisp" transform="translate(0,228.79)" d="M60,0h1014" style="stroke: rgb(0, 0, 0); stroke-opacity: 0.05; stroke-width: 1px;"/><path class="ygrid crisp" transform="translate(0,160.06)" d="M60,0h1014" style="stroke: rgb(0, 0, 0); stroke-opacity: 0.05; stroke-width: 1px;"/><path class="ygrid crisp" transform="translate(0,91.32)" d="M60,0h1014" style="stroke: rgb(0, 0, 0); stroke-opacity: 0.05; stroke-width: 1px;"/></g></g><g class="zerolinelayer"><path class="xzl zl crisp" transform="translate(60,0)" d="M0,50v385" style="stroke: rgb(0, 0, 0); stroke-opacity: 0.05; stroke-width: 1px;"/><path class="yzl zl crisp" transform="translate(0,435)" d="M60,0h1014" style="stroke: rgb(0, 0, 0); stroke-opacity: 0.05; stroke-width: 1px;"/></g><g class="layer-between"><g class="shapelayer"/><g class="imagelayer"/></g><path class="xlines-below"/><path class="ylines-below"/><g class="overlines-below"/><g class="xaxislayer-below"/><g class="yaxislayer-below"/><g class="overaxes-below"/><g class="overplot"><g class="xy" transform="translate(60,50)" clip-path="url(#clipc464a8xyplot)"><g class="scatterlayer mlayer"><g class="trace scatter trace22144e" style="stroke-miterlimit: 2; opacity: 1;"><g class="fills"/><g class="errorbars"/><g class="lines"><path class="js-line" d="M0,341.67L10.14,314.77L20.28,290.09L40.56,248.47L50.7,229.91L60.84,214.08L70.98,200.55L81.12,188.17L91.26,178.93L101.4,171.44L111.54,165.27L121.68,159.05L131.82,154.89L141.96,155.36L152.1,152.88L162.24,149.73L172.38,148.64L182.52,147.15L192.66,146.54L223.08,133.15L233.22,129.26L253.5,120.73L263.64,119.15L273.78,115.75L283.92,113.7L304.2,114.51L314.34,112.93L324.48,113.03L334.62,114.07L344.76,115.2L354.9,114.63L365.04,111.24L375.18,108.76L385.32,106.58L395.46,106.12L405.6,107.1L415.74,108.94L425.88,110.3L436.02,112.44L446.16,115.59L456.3,120.93L476.58,121.14L486.72,118.32L496.86,117.02L507,114.84L557.7,104.48L567.84,104.53L577.98,104.63L588.12,106.44L598.26,107.17L608.4,110.73L618.54,115.14L628.68,117.02L638.82,117.16L648.96,118.15L659.1,119.89L669.24,120.49L679.38,122.06L689.52,125.39L699.66,127.76L709.8,128.12L719.94,132.78L730.08,136.42L740.22,138.48L750.36,142.81L760.5,146.38L770.64,151.07L780.78,156.25L790.92,159.95L801.06,164.3L811.2,167.23L831.48,177.53L841.62,183.94L851.76,191.56L861.9,200.22L872.04,210.54L882.18,219.15L912.6,246.76L922.74,260.23L932.88,273.4L943.02,288.23L953.16,303.15L963.3,320.62L983.58,358.46L993.72,372.13L1003.86,382.09" style="vector-effect: none; fill: none; stroke: rgb(124, 181, 236); stroke-opacity: 1; stroke-width: 2px; opacity: 1;"/></g><g class="points"/><g class="text"/></g><g class="trace scatter tracee019b7" style="stroke-miterlimit: 2; opacity: 1;"><g class="fills"/><g class="errorbars"/><g class="lines"><path class="js-line" d="M0,312.82L10.14,280.52L20.28,252.25L40.56,207.91L50.7,189L60.84,173.04L70.98,160.67L91.26,136.89L101.4,127.53L111.54,119.11L121.68,113.09L131.82,107L141.96,103.66L162.24,96.71L172.38,100.59L182.52,100.73L192.66,99.81L202.8,97.64L212.94,93.98L223.08,90.59L233.22,88.39L243.36,82.31L253.5,78.55L263.64,74.72L273.78,72.34L283.92,69.65L294.06,68.56L304.2,67.26L314.34,65.14L324.48,62.12L334.62,60.29L344.76,60.56L354.9,58.4L365.04,58.11L375.18,56.15L385.32,54.24L395.46,53.95L415.74,55.01L425.88,56.15L446.16,58.1L456.3,60.78L466.44,62.47L476.58,63.12L486.72,63.08L496.86,63.85L507,64.79L517.14,62.29L527.28,61.29L537.42,64.6L547.56,66.16L557.7,64.65L567.84,63.23L577.98,60.72L588.12,56.97L598.26,58.94L618.54,63.56L628.68,67.52L648.96,73.3L659.1,75.08L689.52,87.5L699.66,92.39L719.94,101.85L730.08,109.51L750.36,114.33L760.5,118.18L811.2,137.73L821.34,143.73L831.48,149.13L841.62,155.46L861.9,168.49L872.04,176.3L892.32,199.26L902.46,210.41L912.6,222.58L922.74,236.44L932.88,250.89L943.02,268.09L953.16,287.1L963.3,307.72L983.58,353.26L993.72,369.38L1003.86,380.98" style="vector-effect: none; fill: none; stroke: rgb(67, 67, 72); stroke-opacity: 1; stroke-width: 2px; opacity: 1;"/></g><g class="points"/><g class="text"/></g><g class="trace scatter trace51c2c4" style="stroke-miterlimit: 2; opacity: 1;"><g class="fills"/><g class="errorbars"/><g class="lines"><path class="js-line" d="M0,364.78L10.14,352.55L20.28,341.58L40.56,321.53L50.7,312.73L70.98,298.5L81.12,292.34L91.26,287.73L101.4,284.68L131.82,275.76L141.96,273.84L152.1,270.48L162.24,268.46L182.52,266.67L192.66,266.92L223.08,259.99L233.22,258.24L253.5,253.71L263.64,253.32L283.92,250.75L294.06,250.77L304.2,251.28L314.34,250.81L344.76,250.79L354.9,250.66L365.04,248.7L375.18,247.8L385.32,246.86L395.46,246.73L446.16,250.74L456.3,253.33L476.58,252.99L486.72,251.5L507,250.41L517.14,249.86L567.84,246.55L577.98,246.63L588.12,248.12L598.26,248.72L628.68,252.66L638.82,253.04L679.38,257.61L689.52,259.81L699.66,261.42L709.8,261.66L730.08,266.76L740.22,267.65L780.78,275.17L790.92,276.47L821.34,282.69L831.48,285.21L851.76,292.02L861.9,296.22L882.18,305.31L892.32,309.65L912.6,319.54L922.74,326.74L943.02,340.91L953.16,348.27L983.58,373.94L993.72,379.74L1003.86,383.93" style="vector-effect: none; fill: none; stroke: rgb(144, 237, 125); stroke-opacity: 1; stroke-width: 2px; opacity: 1;"/></g><g class="points"/><g class="text"/></g><g class="trace scatter trace50dd23" style="stroke-miterlimit: 2; opacity: 1;"><g class="fills"/><g class="errorbars"/><g class="lines"><path class="js-line" d="M0,299.11L10.14,262.92L20.28,231.31L30.42,206.28L40.56,183.32L50.7,162.84L60.84,145.35L70.98,132.22L81.12,120.36L91.26,108.09L101.4,97.82L111.54,89.33L121.68,83.67L131.82,77.45L141.96,73.76L162.24,66.77L172.38,67.15L192.66,68.48L202.8,66.26L212.94,60.53L223.08,56.84L233.22,54.9L243.36,47.03L263.64,39.34L273.78,36.67L283.92,33.95L294.06,33.31L304.2,33.23L314.34,31.84L324.48,28.25L334.62,25.78L344.76,26.02L354.9,23.52L375.18,21.54L385.32,20.3L395.46,20.33L405.6,21.35L425.88,23.74L436.02,24.66L446.16,26.32L456.3,29.92L466.44,32.52L476.58,33.21L496.86,33.04L507,33.99L517.14,29.92L527.28,28.21L537.42,32.14L547.56,34.34L557.7,31.55L567.84,27.84L577.98,24.62L588.12,19.25L618.54,27.8L628.68,32.6L648.96,38.78L659.1,41.45L689.52,55.54L699.66,61.57L719.94,72.65L730.08,82.31L760.5,93.35L770.64,97.54L801.06,112.01L811.2,116.66L851.76,144.63L861.9,151.96L872.04,160.33L882.18,174.36L912.6,211.4L922.74,225.82L932.88,241.74L943.02,260.71L953.16,280.88L963.3,303.74L983.58,353.5L993.72,369.88L1003.86,381.24" style="vector-effect: none; fill: none; stroke: rgb(247, 163, 92); stroke-opacity: 1; stroke-width: 2px; opacity: 1;"/></g><g class="points"/><g class="text"/></g><g class="trace scatter tracedbe97f" style="stroke-miterlimit: 2; opacity: 1;"><g class="fills"/><g class="errorbars"/><g class="lines"><path class="js-line" d="M0,359.26L20.28,328.31L30.42,315.71L40.56,303.32L50.7,292.51L60.84,283.42L70.98,275.34L81.12,268.19L91.26,263.48L111.54,256.31L121.68,252.89L131.82,251L141.96,251.46L162.24,249.67L172.38,249.83L192.66,250.48L202.8,248.47L212.94,246.85L223.08,244.21L253.5,236.44L263.64,235.71L283.92,231.79L294.06,231.72L304.2,232.05L314.34,230.66L324.48,230.22L334.62,230.55L344.76,230.96L354.9,228.68L385.32,220.97L395.46,219.46L405.6,219.7L415.74,220.9L425.88,221.03L436.02,221.95L446.16,224.01L456.3,227.29L466.44,226.77L476.58,227.07L486.72,226.23L496.86,226.65L517.14,226.12L527.28,225.74L557.7,223.69L567.84,224L577.98,223.52L588.12,224.12L598.26,224.6L608.4,226.11L618.54,228.9L628.68,230.1L648.96,230.39L659.1,230.96L669.24,231.17L679.38,232.31L689.52,234.41L699.66,235.45L709.8,235.07L719.94,237.95L730.08,239.95L740.22,240.49L760.5,244.84L770.64,246.66L780.78,249.4L790.92,251.13L801.06,253.73L811.2,255.22L831.48,260.14L841.62,263.92L861.9,274.12L872.04,279.99L892.32,290.19L902.46,295.88L912.6,301.87L922.74,310.65L943.02,327.26L953.16,336.12L973.44,357.71L983.58,369.42L993.72,377.67L1003.86,383.43" style="vector-effect: none; fill: none; stroke: rgb(128, 133, 233); stroke-opacity: 1; stroke-width: 2px; opacity: 1;"/></g><g class="points"/><g class="text"/></g><g class="trace scatter trace94bad0" style="stroke-miterlimit: 2; opacity: 1;"><g class="fills"/><g class="errorbars"/><g class="lines"><path class="js-line" d="M0,345.11L20.28,294.66L30.42,273.6L40.56,253.21L50.7,234.79L60.84,219.48L70.98,205.91L81.12,192.91L91.26,184.18L101.4,176.87L111.54,171.19L121.68,164.74L131.82,159.59L141.96,159.58L152.1,157.06L162.24,154.09L172.38,153.69L182.52,152.58L192.66,152.29L202.8,147.51L212.94,143.83L253.5,127.01L263.64,126.11L273.78,122.87L283.92,121.09L294.06,120.72L304.2,122.06L314.34,120.98L324.48,120.75L334.62,119.95L344.76,120.21L354.9,118.13L365.04,113.38L385.32,107.77L395.46,106.04L405.6,106.77L415.74,109.06L436.02,110.51L446.16,112.97L456.3,118.48L466.44,118.68L476.58,119.12L486.72,116.68L496.86,117.25L507,116.5L527.28,115.41L537.42,114.2L557.7,111.83L567.84,111.79L577.98,111.06L588.12,113.18L598.26,113.2L608.4,115.51L618.54,119.05L628.68,119.88L638.82,119.11L648.96,119.23L659.1,120.76L669.24,121.24L679.38,122.78L689.52,125.93L699.66,128.22L709.8,127.59L730.08,136.03L740.22,137.35L770.64,149.13L780.78,154.93L790.92,158.81L801.06,163.85L811.2,167.4L821.34,173.29L831.48,178.38L841.62,185.48L861.9,203.69L872.04,214.6L882.18,223.79L892.32,231.86L912.6,248.9L922.74,262.24L932.88,274.91L943.02,289.14L953.16,303.84L963.3,321.5L983.58,358.87L993.72,372.68L1003.86,382.58" style="vector-effect: none; fill: none; stroke: rgb(241, 92, 128); stroke-opacity: 1; stroke-width: 2px; opacity: 1;"/></g><g class="points"/><g class="text"/></g></g></g></g><path class="xlines-above crisp" d="M0,0" style="fill: none;"/><path class="ylines-above crisp" d="M0,0" style="fill: none;"/><g class="overlines-above"/><g class="xaxislayer-above"><g class="xtick"><text text-anchor="middle" x="0" y="451" transform="translate(60,0)" style="font-family: 'Lucida Grande', 'Open Sans', verdana, arial, sans-serif; font-size: 10px; fill: rgb(0, 0, 0); fill-opacity: 1; white-space: pre; opacity: 1;">0%</text></g><g class="xtick"><text text-anchor="middle" x="0" y="451" style="font-family: 'Lucida Grande', 'Open Sans', verdana, arial, sans-serif; font-size: 10px; fill: rgb(0, 0, 0); fill-opacity: 1; white-space: pre; opacity: 1;" transform="translate(262.8,0)">20%</text></g><g class="xtick"><text text-anchor="middle" x="0" y="451" style="font-family: 'Lucida Grande', 'Open Sans', verdana, arial, sans-serif; font-size: 10px; fill: rgb(0, 0, 0); fill-opacity: 1; white-space: pre; opacity: 1;" transform="translate(465.6,0)">40%</text></g><g class="xtick"><text text-anchor="middle" x="0" y="451" style="font-family: 'Lucida Grande', 'Open Sans', verdana, arial, sans-serif; font-size: 10px; fill: rgb(0, 0, 0); fill-opacity: 1; white-space: pre; opacity: 1;" transform="translate(668.4,0)">60%</text></g><g class="xtick"><text text-anchor="middle" x="0" y="451" style="font-family: 'Lucida Grande', 'Open Sans', verdana, arial, sans-serif; font-size: 10px; fill: rgb(0, 0, 0); fill-opacity: 1; white-space: pre; opacity: 1;" transform="translate(871.2,0)">80%</text></g><g class="xtick"><text text-anchor="middle" x="0" y="451" style="font-family: 'Lucida Grande', 'Open Sans', verdana, arial, sans-serif; font-size: 10px; fill: rgb(0, 0, 0); fill-opacity: 1; white-space: pre; opacity: 1;" transform="translate(1074,0)">100%</text></g></g><g class="yaxislayer-above"><g class="ytick"><text text-anchor="end" x="54" y="3.5" transform="translate(0,435)" style="font-family: 'Lucida Grande', 'Open Sans', verdana, arial, sans-serif; font-size: 10px; fill: rgb(0, 0, 0); fill-opacity: 1; white-space: pre; opacity: 1;">0</text></g><g class="ytick"><text text-anchor="end" x="54" y="3.5" style="font-family: 'Lucida Grande', 'Open Sans', verdana, arial, sans-serif; font-size: 10px; fill: rgb(0, 0, 0); fill-opacity: 1; white-space: pre; opacity: 1;" transform="translate(0,366.26)">5k</text></g><g class="ytick"><text text-anchor="end" x="54" y="3.5" style="font-family: 'Lucida Grande', 'Open Sans', verdana, arial, sans-serif; font-size: 10px; fill: rgb(0, 0, 0); fill-opacity: 1; white-space: pre; opacity: 1;" transform="translate(0,297.53)">10k</text></g><g class="ytick"><text text-anchor="end" x="54" y="3.5" style="font-family: 'Lucida Grande', 'Open Sans', verdana, arial, sans-serif; font-size: 10px; fill: rgb(0, 0, 0); fill-opacity: 1; white-space: pre; opacity: 1;" transform="translate(0,228.79)">15k</text></g><g class="ytick"><text text-anchor="end" x="54" y="3.5" style="font-family: 'Lucida Grande', 'Open Sans', verdana, arial, sans-serif; font-size: 10px; fill: rgb(0, 0, 0); fill-opacity: 1; white-space: pre; opacity: 1;" transform="translate(0,160.06)">20k</text></g><g class="ytick"><text text-anchor="end" x="54" y="3.5" style="font-family: 'Lucida Grande', 'Open Sans', verdana, arial, sans-serif; font-size: 10px; fill: rgb(0, 0, 0); fill-opacity: 1; white-space: pre; opacity: 1;" transform="translate(0,91.32)">25k</text></g></g><g class="overaxes-above"/></g></g><g class="polarlayer"/><g class="smithlayer"/><g class="ternarylayer"/><g class="geolayer"/><g class="funnelarealayer"/><g class="pielayer"/><g class="iciclelayer"/><g class="treemaplayer"/><g class="sunburstlayer"/><g class="glimages"/><defs id="topdefs-c464a8"><g class="clips"/></defs><g class="layer-above"><g class="imagelayer"/><g class="shapelayer"/></g><g class="infolayer"><g class="g-gtitle"><text class="gtitle" x="550" y="25" text-anchor="middle" dy="0em" style="opacity: 1; font-family: 'Lucida Grande', 'Open Sans', verdana, arial, sans-serif; font-size: 20px; fill: rgb(68, 68, 68); fill-opacity: 1; white-space: pre;"><tspan class="line" dy="0em" x="550" y="25">QualiMap: RNAseq: Coverage Profile Along Genes (total)</tspan><tspan class="line" dy="1.3em" x="550" y="25">​<tspan style="font-size:70%" dy="-0.6em">Counts, 6 samples</tspan><tspan dy="0.42em">​</tspan></tspan></text></g><g class="g-xtitle"><text class="xtitle" x="567" y="487" text-anchor="middle" style="opacity: 0.3; font-family: 'Lucida Grande', 'Open Sans', verdana, arial, sans-serif; font-size: 14px; fill: rgb(0, 0, 0); fill-opacity: 1; white-space: pre;">Transcript Position 5'->3' (%)</text></g><g class="g-ytitle"><text class="ytitle" transform="rotate(-90,22,242.5)" x="22" y="242.5" text-anchor="middle" style="opacity: 0.3; font-family: 'Lucida Grande', 'Open Sans', verdana, arial, sans-serif; font-size: 14px; fill: rgb(0, 0, 0); fill-opacity: 1; white-space: pre;">Cumulative mapped-read depth</text></g></g></svg>