<svg class="main-svg" xmlns="http://www.w3.org/2000/svg" xmlns:xlink="http://www.w3.org/1999/xlink" width="2200" height="1000" style="" viewBox="0 0 1100 500"><rect x="0" y="0" width="1100" height="500" style="fill: rgb(255, 255, 255); fill-opacity: 1;"/><defs id="defs-ce40f6"><g class="clips"><clipPath id="clipce40f6xyplot" class="plotclip"><rect width="1018" height="385"/></clipPath><clipPath class="axesclip" id="clipce40f6x"><rect x="60" y="0" width="1018" height="500"/></clipPath><clipPath class="axesclip" id="clipce40f6y"><rect x="0" y="50" width="1100" height="385"/></clipPath><clipPath class="axesclip" id="clipce40f6xy"><rect x="60" y="50" width="1018" height="385"/></clipPath></g><g class="gradients"/><g class="patterns"/></defs><g class="bglayer"/><g class="layer-below"><g class="imagelayer"/><g class="shapelayer"/></g><g class="cartesianlayer"><g class="subplot xy"><g class="layer-subplot"><g class="shapelayer"/><g class="imagelayer"/></g><g class="minor-gridlayer"><g class="x"/><g class="y"/></g><g class="gridlayer"><g class="x"><path class="xgrid crisp" transform="translate(159.95999999999998,0)" d="M0,50v385" style="stroke: rgb(0, 0, 0); stroke-opacity: 0.05; stroke-width: 1px;"/><path class="xgrid crisp" transform="translate(261.97,0)" d="M0,50v385" style="stroke: rgb(0, 0, 0); stroke-opacity: 0.05; stroke-width: 1px;"/><path class="xgrid crisp" transform="translate(363.97,0)" d="M0,50v385" style="stroke: rgb(0, 0, 0); stroke-opacity: 0.05; stroke-width: 1px;"/><path class="xgrid crisp" transform="translate(465.98,0)" d="M0,50v385" style="stroke: rgb(0, 0, 0); stroke-opacity: 0.05; stroke-width: 1px;"/><path class="xgrid crisp" transform="translate(567.98,0)" d="M0,50v385" style="stroke: rgb(0, 0, 0); stroke-opacity: 0.05; stroke-width: 1px;"/><path class="xgrid crisp" transform="translate(669.98,0)" d="M0,50v385" style="stroke: rgb(0, 0, 0); stroke-opacity: 0.05; stroke-width: 1px;"/><path class="xgrid crisp" transform="translate(771.99,0)" d="M0,50v385" style="stroke: rgb(0, 0, 0); stroke-opacity: 0.05; stroke-width: 1px;"/><path class="xgrid crisp" transform="translate(873.99,0)" d="M0,50v385" style="stroke: rgb(0, 0, 0); stroke-opacity: 0.05; stroke-width: 1px;"/><path class="xgrid crisp" transform="translate(976,0)" d="M0,50v385" style="stroke: rgb(0, 0, 0); stroke-opacity: 0.05; stroke-width: 1px;"/></g><g class="y"><path class="ygrid crisp" transform="translate(0,415.75)" d="M60,0h1018" style="stroke: rgb(0, 0, 0); stroke-opacity: 0.05; stroke-width: 1px;"/><path class="ygrid crisp" transform="translate(0,364.04)" d="M60,0h1018" style="stroke: rgb(0, 0, 0); stroke-opacity: 0.05; stroke-width: 1px;"/><path class="ygrid crisp" transform="translate(0,312.33)" d="M60,0h1018" style="stroke: rgb(0, 0, 0); stroke-opacity: 0.05; stroke-width: 1px;"/><path class="ygrid crisp" transform="translate(0,260.62)" d="M60,0h1018" style="stroke: rgb(0, 0, 0); stroke-opacity: 0.05; stroke-width: 1px;"/><path class="ygrid crisp" transform="translate(0,208.91)" d="M60,0h1018" style="stroke: rgb(0, 0, 0); stroke-opacity: 0.05; stroke-width: 1px;"/><path class="ygrid crisp" transform="translate(0,157.20999999999998)" d="M60,0h1018" style="stroke: rgb(0, 0, 0); stroke-opacity: 0.05; stroke-width: 1px;"/><path class="ygrid crisp" transform="translate(0,105.5)" d="M60,0h1018" style="stroke: rgb(0, 0, 0); stroke-opacity: 0.05; stroke-width: 1px;"/><path class="ygrid crisp" transform="translate(0,53.79)" d="M60,0h1018" style="stroke: rgb(0, 0, 0); stroke-opacity: 0.05; stroke-width: 1px;"/></g></g><g class="zerolinelayer"/><g class="layer-between"><g class="shapelayer"/><g class="imagelayer"/></g><path class="xlines-below"/><path class="ylines-below"/><g class="overlines-below"/><g class="xaxislayer-below"/><g class="yaxislayer-below"/><g class="overaxes-below"/><g class="overplot"><g class="xy" transform="translate(60,50)" clip-path="url(#clipce40f6xyplot)"><g class="scatterlayer mlayer"><g class="trace scatter trace54e85e" style="stroke-miterlimit: 2; opacity: 1;"><g class="fills"/><g class="errorbars"/><g class="lines"><path class="js-line" d="M0,22.97L6.12,78.63L10.2,98.12L16.32,118.63L20.4,129L30.6,148.8L36.72,158.05L51,173.75L57.12,179.64L71.4,191.3L77.52,194.46L81.6,197.95L87.72,201.04L102,209.02L108.12,211.56L112.2,212.06L118.32,214.81L122.4,216.7L128.53,220.93L132.61,221.95L138.73,224.3L142.81,224.71L148.93,227.44L153.01,227.87L159.13,230.27L163.21,231.65L169.33,234.85L173.41,236L179.53,234.14L183.61,237.36L189.73,239.37L193.81,236.78L199.93,243.24L204.01,241.76L210.13,243.63L214.21,245.67L220.33,245.78L224.41,244.93L230.53,247.68L234.61,250.42L240.73,248.16L244.81,247.45L250.93,251.36L255.01,252.78L261.13,253.38L265.21,251.22L271.33,256.61L275.41,256.61L281.53,254.46L285.61,253.53L291.73,257.32L295.81,261.45L301.93,260.81L306.01,259.79L312.13,261.24L316.21,260.19L322.33,263.72L326.41,264.7L332.53,261.45L336.61,265.46L342.73,265.46L348.85,264.2L352.93,264.2L363.13,270.02L369.25,265.46L373.33,269.09L379.45,270.34L383.54,272.71L389.66,264.95L393.74,274.57L399.86,265.98L403.94,274.96L410.06,269.4L414.14,277.02L420.26,274.96L424.34,274.57L430.46,273.07L434.54,275.76L440.66,274.18L444.74,277.9L450.86,278.82L454.94,277.02L461.06,275.35L465.14,274.18L471.26,280.77L475.34,282.91L481.46,274.96L485.54,275.35L491.66,287.92L495.74,285.91L501.86,280.77L505.94,279.29L512.06,279.29L516.14,284.66L522.26,277.9L526.34,277.9L532.46,284.66L536.54,285.91L542.66,284.66L546.74,279.77L552.86,287.92L556.94,287.92L563.06,285.91L567.14,284.06L573.26,287.92L577.34,284.66L583.46,281.81L587.54,288.63L593.66,285.91L597.74,288.63L603.86,284.06L607.94,288.63L614.06,287.92L618.14,286.56L624.26,296.33L628.34,293.46L634.46,297.38L638.55,290.13L644.67,294.38L648.75,287.23L654.87,292.58L658.95,290.92L665.07,297.38L669.15,293.46L675.27,290.13L685.47,304.94L691.59,302.12L695.67,296.33L701.79,290.92L705.87,290.13L711.99,290.13L716.07,298.48L722.19,304.94L726.27,302.12L732.39,294.38L736.47,299.63L742.59,303.49L746.67,296.33L752.79,296.33L756.87,300.84L762.99,298.48L767.07,294.38L773.19,299.63L777.27,298.48L783.39,290.92L787.47,300.84L793.59,304.94L797.67,303.49L803.79,294.38L807.87,306.49L813.99,297.38L818.07,287.23L824.19,300.84L834.39,300.84L838.47,299.63L844.59,308.15L848.67,309.95L854.79,296.33L858.87,292.58L864.99,298.48L869.07,304.94L875.19,299.63L879.27,299.63L885.39,303.49L889.47,325.51L895.6,304.94L899.68,306.49L905.8,306.49L909.88,300.84L916,322.05L920.08,302.12L926.2,302.12L930.28,300.84L936.4,316.41L940.48,299.63L946.6,304.94L950.68,302.12L956.8,303.49L960.88,306.49L967,302.12L971.08,319.05L977.2,302.12L981.28,314.04L987.4,306.49L991.48,311.9L997.6,302.12L1001.68,302.12L1007.8,306.49L1011.88,316.41L1018,319.05" style="vector-effect: none; fill: none; stroke: rgb(124, 181, 236); stroke-opacity: 1; stroke-width: 2px; opacity: 1;"/></g><g class="points"/><g class="text"/></g><g class="trace scatter trace9fb666" style="stroke-miterlimit: 2; opacity: 1;"><g class="fills"/><g class="errorbars"/><g class="lines"><path class="js-line" d="M0,19.25L6.12,69.55L10.2,87.13L20.4,116.86L26.52,129.55L36.72,146.59L40.8,152.42L51,164.05L57.12,169.89L61.2,174.88L67.32,179.83L97.92,200.29L102,201.87L108.12,206.31L112.2,208.34L118.32,211.45L122.4,212.45L128.53,215.22L132.61,218.28L138.73,218.6L142.81,222.36L148.93,223.89L153.01,224.13L159.13,226.28L163.21,229.16L169.33,231.09L173.41,233.69L179.53,233.75L183.61,235.25L189.73,237.74L193.81,237.59L199.93,240.45L204.01,239.62L210.13,243.82L214.21,244.32L220.33,245.14L224.41,248.64L230.53,248.4L234.61,249.13L244.81,250.28L250.93,253.08L255.01,255.1L261.13,253.68L265.21,253.99L271.33,256.79L275.41,254.62L281.53,259.79L285.61,261.24L291.73,261.45L295.81,260.19L301.93,263.96L306.01,262.11L312.13,263.25L316.21,265.98L322.33,261.89L342.73,269.4L348.85,270.34L352.93,272.71L359.05,269.09L363.13,272.71L369.25,275.35L373.33,280.26L379.45,271.66L383.54,273.07L389.66,273.43L393.74,272.71L399.86,279.29L403.94,271.66L410.06,285.91L420.26,275.76L424.34,275.76L430.46,285.91L434.54,283.48L440.66,284.06L444.74,285.91L450.86,275.76L454.94,282.91L461.06,287.92L465.14,281.29L471.26,287.23L475.34,279.77L481.46,284.06L485.54,290.13L491.66,288.63L495.74,290.13L505.94,282.91L512.06,287.23L526.34,291.74L532.46,286.56L536.54,291.74L542.66,293.46L546.74,291.74L552.86,299.63L556.94,299.63L563.06,291.74L567.14,300.84L573.26,299.63L577.34,283.48L583.46,295.34L587.54,296.33L593.66,286.56L597.74,296.33L603.86,298.48L607.94,293.46L614.06,300.84L618.14,293.46L624.26,299.63L628.34,302.12L634.46,299.63L638.55,294.38L644.67,292.58L648.75,303.49L654.87,294.38L658.95,300.84L665.07,304.94L669.15,292.58L675.27,298.48L681.39,306.49L685.47,302.12L691.59,314.04L695.67,302.12L701.79,299.63L705.87,303.49L711.99,299.63L716.07,299.63L722.19,298.48L726.27,299.63L732.39,302.12L736.47,309.95L742.59,316.41L746.67,304.94L752.79,298.48L756.87,311.9L762.99,306.49L767.07,311.9L787.47,304.94L793.59,311.9L797.67,306.49L803.79,304.94L807.87,309.95L813.99,304.94L818.07,311.9L824.19,308.15L828.27,309.95L834.39,316.41L838.47,314.04L844.59,314.04L848.67,319.05L854.79,300.84L864.99,319.05L869.07,334.62L875.19,314.04L879.27,303.49L885.39,308.15L889.47,308.15L895.6,316.41L899.68,316.41L909.88,308.15L916,319.05L920.08,341.08L926.2,322.05L930.28,309.95L936.4,319.05L940.48,322.05L946.6,309.95L950.68,309.95L956.8,308.15L960.88,325.51L967,309.95L971.08,329.61L977.2,322.05L981.28,322.05L987.4,341.08L991.48,314.04L997.6,308.15L1001.68,316.41L1007.8,325.51L1011.88,311.9L1018,319.05" style="vector-effect: none; fill: none; stroke: rgb(67, 67, 72); stroke-opacity: 1; stroke-width: 2px; opacity: 1;"/></g><g class="points"/><g class="text"/></g><g class="trace scatter trace7cf303" style="stroke-miterlimit: 2; opacity: 1;"><g class="fills"/><g class="errorbars"/><g class="lines"><path class="js-line" d="M0,35.05L6.12,96.1L10.2,116.88L16.32,137.38L20.4,147.72L30.6,166.69L36.72,174.2L46.92,186.56L51,189.84L57.12,194.09L61.2,197.94L77.52,208.75L81.6,210.99L87.72,215.33L91.8,215.86L97.92,221.69L102,221.5L108.12,224.46L112.2,224.13L118.32,226.92L122.4,231.48L128.53,231.09L132.61,234.85L138.73,233.82L142.81,235.45L148.93,239.21L153.01,238.19L159.13,242.86L163.21,242.49L169.33,244.93L173.41,245.35L189.73,247.68L193.81,251.36L199.93,254.78L204.01,249.51L210.13,250.82L214.21,256.27L224.41,254.46L230.53,256.79L234.61,261.24L240.73,259.59L244.81,257.32L250.93,260.19L255.01,266.52L261.13,257.32L265.21,263.96L271.33,265.46L275.41,265.2L281.53,266.79L285.61,265.46L291.73,266.79L295.81,273.43L301.93,272.01L306.01,272.71L312.13,268.2L316.21,273.8L322.33,272.71L326.41,274.96L332.53,277.02L336.61,277.9L342.73,282.91L348.85,274.57L352.93,282.35L359.05,276.59L363.13,276.17L369.25,281.81L373.33,275.35L379.45,285.91L383.54,281.81L389.66,283.48L393.74,285.91L399.86,281.81L403.94,285.28L410.06,288.63L414.14,285.91L420.26,283.48L424.34,286.56L434.54,285.91L440.66,288.63L444.74,283.48L450.86,284.06L454.94,290.13L461.06,294.38L465.14,287.92L471.26,293.46L475.34,296.33L481.46,296.33L485.54,298.48L491.66,291.74L495.74,287.23L501.86,290.13L505.94,295.34L512.06,293.46L516.14,291.74L522.26,290.13L532.46,296.33L536.54,293.46L542.66,297.38L546.74,297.38L552.86,306.49L556.94,290.92L563.06,306.49L567.14,298.48L573.26,299.63L577.34,304.94L583.46,304.94L587.54,295.34L593.66,308.15L597.74,302.12L603.86,322.05L607.94,316.41L618.14,306.49L624.26,314.04L628.34,300.84L634.46,296.33L638.55,297.38L644.67,304.94L648.75,300.84L654.87,309.95L658.95,309.95L665.07,303.49L675.27,306.49L681.39,316.41L685.47,311.9L691.59,314.04L695.67,308.15L701.79,322.05L705.87,329.61L711.99,304.94L716.07,319.05L722.19,319.05L726.27,309.95L732.39,316.41L736.47,325.51L742.59,306.49L746.67,308.15L752.79,314.04L756.87,311.9L762.99,316.41L767.07,309.95L773.19,322.05L777.27,306.49L783.39,329.61L787.47,316.41L793.59,322.05L797.67,314.04L803.79,314.04L807.87,319.05L813.99,329.61L818.07,302.12L824.19,329.61L828.27,309.95L834.39,316.41L838.47,322.05L844.59,322.05L848.67,309.95L854.79,314.04L858.87,309.95L864.99,308.15L869.07,314.04L875.19,341.08L879.27,325.51L885.39,365.75L889.47,329.61L895.6,316.41L899.68,325.51L905.8,322.05L916,322.05L920.08,306.49L926.2,322.05L930.28,325.51L936.4,322.05L940.48,329.61L946.6,322.05L950.68,325.51L956.8,329.61L960.88,322.05L967,322.05L971.08,350.18L977.2,329.61L981.28,311.9L987.4,316.41L991.48,365.75L997.6,322.05L1001.68,309.95L1007.8,350.18L1011.88,322.05L1018,350.18" style="vector-effect: none; fill: none; stroke: rgb(144, 237, 125); stroke-opacity: 1; stroke-width: 2px; opacity: 1;"/></g><g class="points"/><g class="text"/></g><g class="trace scatter trace160e4f" style="stroke-miterlimit: 2; opacity: 1;"><g class="fills"/><g class="errorbars"/><g class="lines"><path class="js-line" d="M0,19.61L6.12,70.42L10.2,87.88L16.32,107.2L20.4,117.01L30.6,136.77L36.72,145.61L46.92,158.16L51,162.4L61.2,171.74L67.32,177.32L71.4,179.76L77.52,184.56L87.72,191.41L91.8,192.94L112.2,204.39L118.32,208.38L122.4,208.79L128.53,212.52L142.81,217.69L148.93,220.16L153.01,219.28L159.13,222.82L163.21,223.64L169.33,227.53L173.41,227.25L179.53,229.73L183.61,231.54L189.73,232.23L199.93,235.32L204.01,235.79L210.13,235.66L214.21,239.78L224.41,238.35L230.53,243.53L234.61,243.24L240.73,244.73L244.81,248.16L250.93,245.25L255.01,244.22L261.13,247.11L265.21,249.89L271.33,249.26L275.41,253.68L281.53,253.68L285.61,253.99L291.73,259.99L295.81,255.26L301.93,255.59L306.01,255.59L312.13,259L316.21,260.4L322.33,255.76L326.41,264.2L332.53,259.79L342.73,264.95L348.85,261.45L352.93,265.2L359.05,265.98L363.13,266.79L369.25,266.25L373.33,267.34L379.45,272.35L383.54,273.8L389.66,273.43L393.74,268.2L399.86,271.33L403.94,280.26L410.06,273.8L414.14,270.34L420.26,275.76L424.34,280.77L430.46,279.29L434.54,270.67L440.66,279.77L444.74,282.35L450.86,284.06L461.06,273.8L465.14,275.35L471.26,280.26L475.34,287.92L481.46,282.91L485.54,283.48L491.66,282.91L495.74,287.92L501.86,290.13L505.94,282.35L512.06,277.45L516.14,287.23L522.26,290.13L526.34,284.66L536.54,289.37L542.66,294.38L546.74,289.37L552.86,298.48L556.94,284.66L563.06,290.13L567.14,285.91L573.26,289.37L577.34,288.63L583.46,296.33L587.54,290.92L593.66,290.92L597.74,290.13L603.86,292.58L607.94,288.63L614.06,293.46L618.14,294.38L624.26,302.12L628.34,298.48L634.46,298.48L638.55,300.84L644.67,299.63L648.75,296.33L654.87,302.12L658.95,309.95L665.07,306.49L669.15,300.84L675.27,297.38L681.39,304.94L685.47,308.15L691.59,303.49L695.67,304.94L701.79,295.34L705.87,302.12L711.99,295.34L716.07,304.94L722.19,309.95L726.27,296.33L732.39,302.12L736.47,295.34L742.59,299.63L746.67,309.95L752.79,296.33L756.87,308.15L762.99,319.05L767.07,311.9L773.19,308.15L777.27,311.9L783.39,296.33L787.47,306.49L793.59,314.04L797.67,316.41L803.79,304.94L807.87,306.49L813.99,308.15L818.07,294.38L824.19,311.9L828.27,316.41L834.39,314.04L838.47,309.95L844.59,319.05L848.67,304.94L854.79,309.95L858.87,329.61L864.99,316.41L869.07,316.41L875.19,316.41L879.27,322.05L885.39,306.49L889.47,319.05L895.6,322.05L899.68,319.05L905.8,316.41L909.88,325.51L916,316.41L920.08,308.15L926.2,316.41L930.28,329.61L936.4,316.41L940.48,334.62L946.6,306.49L950.68,329.61L956.8,314.04L960.88,319.05L967,316.41L971.08,325.51L977.2,309.95L981.28,319.05L987.4,322.05L991.48,316.41L997.6,319.05L1001.68,322.05L1011.88,322.05L1018,319.05" style="vector-effect: none; fill: none; stroke: rgb(247, 163, 92); stroke-opacity: 1; stroke-width: 2px; opacity: 1;"/></g><g class="points"/><g class="text"/></g><g class="trace scatter trace7a2c9f" style="stroke-miterlimit: 2; opacity: 1;"><g class="fills"/><g class="errorbars"/><g class="lines"><path class="js-line" d="M0,29.33L6.12,89.58L10.2,109.88L16.32,130.62L20.4,141L26.52,153.59L30.6,160.08L36.72,169.85L40.8,174.03L46.92,181.21L51,184.66L57.12,191.29L61.2,193.57L77.52,206.1L81.6,207.29L91.8,214.3L97.92,217.2L102,219.45L108.12,221.18L112.2,221.29L118.32,227.11L132.61,229.58L138.73,233.01L142.81,234.52L148.93,235.05L153.01,238.35L159.13,238.58L163.21,239.37L169.33,242.67L173.41,243.14L179.53,245.78L183.61,243.14L189.73,245.14L193.81,246.43L199.93,249.89L204.01,249.38L210.13,253.68L214.21,254.14L220.33,251.36L224.41,254.3L230.53,256.61L234.61,258.05L240.73,256.1L244.81,261.45L250.93,256.61L255.01,257.68L261.13,263.02L265.21,260.81L271.33,264.95L281.53,262.33L285.61,265.98L291.73,265.2L295.81,268.79L301.93,271.66L306.01,265.98L312.13,265.46L316.21,267.63L322.33,268.5L326.41,266.79L332.53,267.63L336.61,272.01L342.73,274.18L348.85,271.33L352.93,267.63L359.05,274.18L363.13,276.59L369.25,274.57L373.33,277.45L379.45,274.57L383.54,274.96L389.66,273.43L393.74,279.77L399.86,276.59L403.94,280.26L410.06,278.35L414.14,277.45L420.26,280.26L424.34,278.82L430.46,279.77L440.66,282.35L444.74,284.66L450.86,281.81L454.94,283.48L461.06,286.56L465.14,283.48L471.26,286.56L475.34,282.91L485.54,282.35L491.66,287.92L495.74,290.92L501.86,283.48L505.94,284.06L512.06,287.23L522.26,292.58L526.34,289.37L532.46,298.48L536.54,287.92L546.74,298.48L552.86,292.58L556.94,292.58L563.06,288.63L567.14,298.48L573.26,294.38L577.34,291.74L583.46,290.13L587.54,302.12L593.66,293.46L597.74,290.13L603.86,294.38L607.94,303.49L614.06,290.92L618.14,298.48L624.26,299.63L628.34,298.48L634.46,294.38L638.55,292.58L644.67,298.48L648.75,299.63L654.87,303.49L658.95,298.48L665.07,314.04L669.15,295.34L675.27,298.48L681.39,298.48L685.47,302.12L691.59,308.15L695.67,298.48L701.79,302.12L705.87,300.84L711.99,293.46L716.07,299.63L722.19,303.49L726.27,297.38L732.39,303.49L736.47,303.49L742.59,298.48L746.67,322.05L752.79,311.9L756.87,302.12L762.99,302.12L767.07,314.04L773.19,302.12L777.27,311.9L783.39,296.33L787.47,309.95L793.59,298.48L797.67,303.49L803.79,296.33L807.87,314.04L813.99,311.9L818.07,302.12L824.19,319.05L828.27,308.15L834.39,304.94L838.47,304.94L844.59,319.05L848.67,314.04L854.79,309.95L858.87,316.41L864.99,308.15L869.07,304.94L875.19,314.04L879.27,303.49L885.39,316.41L889.47,308.15L895.6,303.49L899.68,314.04L905.8,311.9L909.88,311.9L916,316.41L920.08,304.94L926.2,311.9L930.28,319.05L936.4,316.41L940.48,316.41L946.6,341.08L950.68,341.08L956.8,303.49L960.88,322.05L971.08,311.9L977.2,308.15L981.28,308.15L987.4,319.05L991.48,316.41L997.6,319.05L1001.68,329.61L1007.8,322.05L1011.88,341.08L1018,316.41" style="vector-effect: none; fill: none; stroke: rgb(128, 133, 233); stroke-opacity: 1; stroke-width: 2px; opacity: 1;"/></g><g class="points"/><g class="text"/></g><g class="trace scatter trace9f03c8" style="stroke-miterlimit: 2; opacity: 1;"><g class="fills"/><g class="errorbars"/><g class="lines"><path class="js-line" d="M0,23.78L6.12,79.64L10.2,98.99L16.32,119.13L20.4,129.31L30.6,148.57L36.72,157.71L51,173.76L57.12,178.52L71.4,189.78L77.52,193.7L81.6,195.28L87.72,199.62L102,207.39L108.12,211.01L118.32,214.57L122.4,214.41L128.53,219.68L132.61,219.35L148.93,224.05L153.01,224.88L163.21,231.31L169.33,231.77L179.53,232.71L183.61,235.39L189.73,234.98L193.81,237.36L199.93,237.89L204.01,243.34L220.33,240.45L224.41,243.63L230.53,247.22L234.61,246.65L240.73,245.04L244.81,249.89L261.13,249.89L265.21,252.78L271.33,252.06L275.41,259.79L281.53,252.93L285.61,256.44L291.73,254.14L295.81,258.24L301.93,260.4L306.01,257.32L312.13,258.43L316.21,257.5L322.33,261.24L326.41,259.39L332.53,260.4L336.61,264.2L342.73,261.67L348.85,264.7L352.93,258.62L359.05,264.2L363.13,261.45L369.25,271.33L373.33,261.67L379.45,264.95L383.54,268.5L389.66,267.34L393.74,267.06L399.86,270.67L403.94,278.82L410.06,265.46L414.14,274.18L420.26,274.18L424.34,270.02L430.46,273.43L434.54,269.71L440.66,268.2L444.74,277.9L450.86,272.35L454.94,270.99L461.06,274.96L465.14,277.45L471.26,272.71L475.34,273.8L481.46,272.71L485.54,281.81L491.66,277.45L495.74,273.43L501.86,282.35L505.94,278.35L512.06,284.66L522.26,275.76L526.34,280.26L532.46,290.92L536.54,278.35L542.66,286.56L546.74,277.45L552.86,276.17L556.94,278.35L563.06,280.77L567.14,287.23L573.26,289.37L577.34,288.63L583.46,283.48L587.54,285.28L593.66,290.13L597.74,285.28L603.86,288.63L607.94,297.38L614.06,292.58L618.14,285.91L624.26,286.56L628.34,289.37L634.46,279.77L638.55,293.46L648.75,287.23L654.87,288.63L658.95,286.56L665.07,298.48L669.15,296.33L675.27,296.33L681.39,285.91L685.47,284.06L691.59,290.92L695.67,290.92L701.79,290.13L705.87,299.63L711.99,286.56L716.07,289.37L722.19,306.49L726.27,303.49L736.47,293.46L742.59,292.58L746.67,298.48L752.79,296.33L756.87,299.63L762.99,299.63L767.07,294.38L773.19,296.33L777.27,298.48L783.39,296.33L787.47,302.12L793.59,303.49L797.67,296.33L803.79,291.74L807.87,292.58L813.99,297.38L818.07,297.38L824.19,303.49L828.27,302.12L834.39,303.49L838.47,296.33L844.59,308.15L848.67,308.15L854.79,303.49L858.87,297.38L864.99,295.34L869.07,300.84L875.19,298.48L879.27,309.95L885.39,304.94L889.47,297.38L895.6,299.63L899.68,298.48L905.8,292.58L909.88,306.49L916,304.94L920.08,297.38L926.2,302.12L936.4,316.41L940.48,296.33L946.6,302.12L950.68,297.38L956.8,299.63L960.88,303.49L967,304.94L971.08,300.84L977.2,297.38L981.28,306.49L987.4,303.49L991.48,309.95L997.6,308.15L1001.68,311.9L1007.8,314.04L1011.88,306.49L1018,303.49" style="vector-effect: none; fill: none; stroke: rgb(241, 92, 128); stroke-opacity: 1; stroke-width: 2px; opacity: 1;"/></g><g class="points"/><g class="text"/></g></g></g></g><path class="xlines-above crisp" d="M0,0" style="fill: none;"/><path class="ylines-above crisp" d="M0,0" style="fill: none;"/><g class="overlines-above"/><g class="xaxislayer-above"><g class="xtick"><text text-anchor="middle" x="0" y="451" transform="translate(159.95999999999998,0)" style="font-family: 'Lucida Grande', 'Open Sans', verdana, arial, sans-serif; font-size: 10px; fill: rgb(0, 0, 0); fill-opacity: 1; white-space: pre; opacity: 1;">50</text></g><g class="xtick"><text text-anchor="middle" x="0" y="451" style="font-family: 'Lucida Grande', 'Open Sans', verdana, arial, sans-serif; font-size: 10px; fill: rgb(0, 0, 0); fill-opacity: 1; white-space: pre; opacity: 1;" transform="translate(261.97,0)">100</text></g><g class="xtick"><text text-anchor="middle" x="0" y="451" style="font-family: 'Lucida Grande', 'Open Sans', verdana, arial, sans-serif; font-size: 10px; fill: rgb(0, 0, 0); fill-opacity: 1; white-space: pre; opacity: 1;" transform="translate(363.97,0)">150</text></g><g class="xtick"><text text-anchor="middle" x="0" y="451" style="font-family: 'Lucida Grande', 'Open Sans', verdana, arial, sans-serif; font-size: 10px; fill: rgb(0, 0, 0); fill-opacity: 1; white-space: pre; opacity: 1;" transform="translate(465.98,0)">200</text></g><g class="xtick"><text text-anchor="middle" x="0" y="451" style="font-family: 'Lucida Grande', 'Open Sans', verdana, arial, sans-serif; font-size: 10px; fill: rgb(0, 0, 0); fill-opacity: 1; white-space: pre; opacity: 1;" transform="translate(567.98,0)">250</text></g><g class="xtick"><text text-anchor="middle" x="0" y="451" style="font-family: 'Lucida Grande', 'Open Sans', verdana, arial, sans-serif; font-size: 10px; fill: rgb(0, 0, 0); fill-opacity: 1; white-space: pre; opacity: 1;" transform="translate(669.98,0)">300</text></g><g class="xtick"><text text-anchor="middle" x="0" y="451" style="font-family: 'Lucida Grande', 'Open Sans', verdana, arial, sans-serif; font-size: 10px; fill: rgb(0, 0, 0); fill-opacity: 1; white-space: pre; opacity: 1;" transform="translate(771.99,0)">350</text></g><g class="xtick"><text text-anchor="middle" x="0" y="451" style="font-family: 'Lucida Grande', 'Open Sans', verdana, arial, sans-serif; font-size: 10px; fill: rgb(0, 0, 0); fill-opacity: 1; white-space: pre; opacity: 1;" transform="translate(873.99,0)">400</text></g><g class="xtick"><text text-anchor="middle" x="0" y="451" style="font-family: 'Lucida Grande', 'Open Sans', verdana, arial, sans-serif; font-size: 10px; fill: rgb(0, 0, 0); fill-opacity: 1; white-space: pre; opacity: 1;" transform="translate(976,0)">450</text></g><g class="xtick"><text text-anchor="middle" x="0" y="451" style="font-family: 'Lucida Grande', 'Open Sans', verdana, arial, sans-serif; font-size: 10px; fill: rgb(0, 0, 0); fill-opacity: 1; white-space: pre; opacity: 1;" transform="translate(1078,0)">500</text></g></g><g class="yaxislayer-above"><g class="ytick"><text text-anchor="end" x="54" y="3.5" transform="translate(0,415.75)" style="font-family: 'Lucida Grande', 'Open Sans', verdana, arial, sans-serif; font-size: 10px; fill: rgb(0, 0, 0); fill-opacity: 1; white-space: pre; opacity: 1;">1</text></g><g class="ytick"><text text-anchor="end" x="54" y="3.5" style="font-family: 'Lucida Grande', 'Open Sans', verdana, arial, sans-serif; font-size: 10px; fill: rgb(0, 0, 0); fill-opacity: 1; white-space: pre; opacity: 1;" transform="translate(0,364.04)">10</text></g><g class="ytick"><text text-anchor="end" x="54" y="3.5" style="font-family: 'Lucida Grande', 'Open Sans', verdana, arial, sans-serif; font-size: 10px; fill: rgb(0, 0, 0); fill-opacity: 1; white-space: pre; opacity: 1;" transform="translate(0,312.33)">100</text></g><g class="ytick"><text text-anchor="end" x="54" y="3.5" style="font-family: 'Lucida Grande', 'Open Sans', verdana, arial, sans-serif; font-size: 10px; fill: rgb(0, 0, 0); fill-opacity: 1; white-space: pre; opacity: 1;" transform="translate(0,260.62)">1000</text></g><g class="ytick"><text text-anchor="end" x="54" y="3.5" style="font-family: 'Lucida Grande', 'Open Sans', verdana, arial, sans-serif; font-size: 10px; fill: rgb(0, 0, 0); fill-opacity: 1; white-space: pre; opacity: 1;" transform="translate(0,208.91)">10k</text></g><g class="ytick"><text text-anchor="end" x="54" y="3.5" style="font-family: 'Lucida Grande', 'Open Sans', verdana, arial, sans-serif; font-size: 10px; fill: rgb(0, 0, 0); fill-opacity: 1; white-space: pre; opacity: 1;" transform="translate(0,157.20999999999998)">100k</text></g><g class="ytick"><text text-anchor="end" x="54" y="3.5" style="font-family: 'Lucida Grande', 'Open Sans', verdana, arial, sans-serif; font-size: 10px; fill: rgb(0, 0, 0); fill-opacity: 1; white-space: pre; opacity: 1;" transform="translate(0,105.5)">1M</text></g><g class="ytick"><text text-anchor="end" x="54" y="3.5" style="font-family: 'Lucida Grande', 'Open Sans', verdana, arial, sans-serif; font-size: 10px; fill: rgb(0, 0, 0); fill-opacity: 1; white-space: pre; opacity: 1;" transform="translate(0,53.79)">10M</text></g></g><g class="overaxes-above"/></g></g><g class="polarlayer"/><g class="smithlayer"/><g class="ternarylayer"/><g class="geolayer"/><g class="funnelarealayer"/><g class="pielayer"/><g class="iciclelayer"/><g class="treemaplayer"/><g class="sunburstlayer"/><g class="glimages"/><defs id="topdefs-ce40f6"><g class="clips"/></defs><g class="layer-above"><g class="imagelayer"/><g class="shapelayer"/></g><g class="infolayer"><g class="g-gtitle"><text class="gtitle" x="550" y="25" text-anchor="middle" dy="0em" style="opacity: 1; font-family: 'Lucida Grande', 'Open Sans', verdana, arial, sans-serif; font-size: 20px; fill: rgb(68, 68, 68); fill-opacity: 1; white-space: pre;"><tspan class="line" dy="0em" x="550" y="25">RSeQC: Read Duplication</tspan><tspan class="line" dy="1.3em" x="550" y="25">​<tspan style="font-size:70%" dy="-0.6em">6 samples</tspan><tspan dy="0.42em">​</tspan></tspan></text></g><g class="g-xtitle"><text class="xtitle" x="569" y="487" text-anchor="middle" style="opacity: 0.3; font-family: 'Lucida Grande', 'Open Sans', verdana, arial, sans-serif; font-size: 14px; fill: rgb(0, 0, 0); fill-opacity: 1; white-space: pre;">Occurrence of read</text></g><g class="g-ytitle"><text class="ytitle" transform="rotate(-90,22,242.5)" x="22" y="242.5" text-anchor="middle" style="opacity: 0.3; font-family: 'Lucida Grande', 'Open Sans', verdana, arial, sans-serif; font-size: 14px; fill: rgb(0, 0, 0); fill-opacity: 1; white-space: pre;">Number of Reads (log10)</text></g></g></svg>