<svg class="main-svg" xmlns="http://www.w3.org/2000/svg" xmlns:xlink="http://www.w3.org/1999/xlink" width="2200" height="1000" style="" viewBox="0 0 1100 500"><rect x="0" y="0" width="1100" height="500" style="fill: rgb(255, 255, 255); fill-opacity: 1;"/><defs id="defs-2bb9dd"><g class="clips"><clipPath id="clip2bb9ddxyplot" class="plotclip"><rect width="1025" height="385"/></clipPath><clipPath class="axesclip" id="clip2bb9ddx"><rect x="60" y="0" width="1025" height="500"/></clipPath><clipPath class="axesclip" id="clip2bb9ddy"><rect x="0" y="50" width="1100" height="385"/></clipPath><clipPath class="axesclip" id="clip2bb9ddxy"><rect x="60" y="50" width="1025" height="385"/></clipPath></g><g class="gradients"/><g class="patterns"/></defs><g class="bglayer"/><g class="layer-below"><g class="imagelayer"/><g class="shapelayer"/></g><g class="cartesianlayer"><g class="subplot xy"><g class="layer-subplot"><g class="shapelayer"/><g class="imagelayer"/></g><g class="minor-gridlayer"><g class="x"/><g class="y"/></g><g class="gridlayer"><g class="x"><path class="xgrid crisp" transform="translate(158.36,0)" d="M0,50v385" style="stroke: rgb(0, 0, 0); stroke-opacity: 0.05; stroke-width: 1px;"/><path class="xgrid crisp" transform="translate(261.89,0)" d="M0,50v385" style="stroke: rgb(0, 0, 0); stroke-opacity: 0.05; stroke-width: 1px;"/><path class="xgrid crisp" transform="translate(365.43,0)" d="M0,50v385" style="stroke: rgb(0, 0, 0); stroke-opacity: 0.05; stroke-width: 1px;"/><path class="xgrid crisp" transform="translate(468.96,0)" d="M0,50v385" style="stroke: rgb(0, 0, 0); stroke-opacity: 0.05; stroke-width: 1px;"/><path class="xgrid crisp" transform="translate(676.04,0)" d="M0,50v385" style="stroke: rgb(0, 0, 0); stroke-opacity: 0.05; stroke-width: 1px;"/><path class="xgrid crisp" transform="translate(779.57,0)" d="M0,50v385" style="stroke: rgb(0, 0, 0); stroke-opacity: 0.05; stroke-width: 1px;"/><path class="xgrid crisp" transform="translate(883.11,0)" d="M0,50v385" style="stroke: rgb(0, 0, 0); stroke-opacity: 0.05; stroke-width: 1px;"/><path class="xgrid crisp" transform="translate(986.64,0)" d="M0,50v385" style="stroke: rgb(0, 0, 0); stroke-opacity: 0.05; stroke-width: 1px;"/></g><g class="y"><path class="ygrid crisp" transform="translate(0,347.92)" d="M60,0h1025" style="stroke: rgb(0, 0, 0); stroke-opacity: 0.05; stroke-width: 1px;"/><path class="ygrid crisp" transform="translate(0,280.08000000000004)" d="M60,0h1025" style="stroke: rgb(0, 0, 0); stroke-opacity: 0.05; stroke-width: 1px;"/><path class="ygrid crisp" transform="translate(0,212.25)" d="M60,0h1025" style="stroke: rgb(0, 0, 0); stroke-opacity: 0.05; stroke-width: 1px;"/><path class="ygrid crisp" transform="translate(0,144.41)" d="M60,0h1025" style="stroke: rgb(0, 0, 0); stroke-opacity: 0.05; stroke-width: 1px;"/><path class="ygrid crisp" transform="translate(0,76.58)" d="M60,0h1025" style="stroke: rgb(0, 0, 0); stroke-opacity: 0.05; stroke-width: 1px;"/></g></g><g class="zerolinelayer"><path class="xzl zl crisp" transform="translate(572.5,0)" d="M0,50v385" style="stroke: rgb(0, 0, 0); stroke-opacity: 0.05; stroke-width: 1px;"/><path class="yzl zl crisp" transform="translate(0,415.75)" d="M60,0h1025" style="stroke: rgb(0, 0, 0); stroke-opacity: 0.05; stroke-width: 1px;"/></g><g class="layer-between"><g class="shapelayer"/><g class="imagelayer"/></g><path class="xlines-below"/><path class="ylines-below"/><g class="overlines-below"/><g class="xaxislayer-below"/><g class="yaxislayer-below"/><g class="overaxes-below"/><g class="overplot"><g class="xy" transform="translate(60,50)" clip-path="url(#clip2bb9ddxyplot)"><g class="scatterlayer mlayer"><g class="trace scatter traced14dbf" style="stroke-miterlimit: 2; opacity: 1;"><g class="fills"/><g class="errorbars"/><g class="lines"><path class="js-line" d="M0,365.75L289.9,365.75L300.25,327.35L310.61,120.81L320.96,97.39L331.31,69.68L341.67,52.32L362.37,34.82L372.73,40.01L383.08,38.53L393.43,52.83L403.79,64.08L414.14,82.86L424.49,96L434.85,112.43L445.2,126.7L455.56,149L465.91,161L476.26,177.79L486.62,190.41L496.97,206.23L507.32,210.42L517.68,233.37L528.03,240.38L538.38,250.97L548.74,263.57L559.09,271.49L579.8,288.04L590.15,293.3L610.86,306.02L621.21,309.81L631.57,315.41L641.92,319.35L652.27,324.12L662.63,326.54L672.98,330.99L683.33,332.33L704.04,338.83L714.39,340.43L724.75,341.92L735.1,344.64L745.45,346.88L755.81,347.99L776.52,351.8L786.87,352.08L807.58,355.45L817.93,355.39L828.28,356.77L838.64,357.34L848.99,357.87L859.34,359.3L952.53,362.84L962.88,363.15L1004.29,363.88L1014.65,363.97L1025,364.18" style="vector-effect: none; fill: none; stroke: rgb(124, 181, 236); stroke-opacity: 1; stroke-width: 2px; opacity: 1;"/></g><g class="points"/><g class="text"/></g><g class="trace scatter trace5eddb0" style="stroke-miterlimit: 2; opacity: 1;"><g class="fills"/><g class="errorbars"/><g class="lines"><path class="js-line" d="M0,365.75L289.9,365.75L300.25,327.26L310.61,119.01L320.96,90.06L331.31,65.72L341.67,50.25L352.02,42.69L362.37,33.44L372.73,38.13L383.08,38.66L393.43,57.36L403.79,62.67L414.14,84.56L424.49,98.59L434.85,119.2L445.2,132.2L455.56,148.51L465.91,161.4L476.26,181.16L486.62,192.3L496.97,208.74L507.32,210.35L517.68,231.95L528.03,240.88L548.74,262.44L559.09,272.5L569.44,280.79L579.8,287.75L590.15,294.41L600.51,298.24L610.86,306.39L621.21,310.35L631.57,313.75L641.92,318.35L662.63,326.61L672.98,330.12L704.04,338.55L714.39,340.48L766.16,349.47L776.52,350.73L807.58,354.59L817.93,355.58L869.7,359.34L880.05,360.03L931.82,362.4L942.17,362.05L973.23,363.36L983.59,363.6L1025,364.29" style="vector-effect: none; fill: none; stroke: rgb(67, 67, 72); stroke-opacity: 1; stroke-width: 2px; opacity: 1;"/></g><g class="points"/><g class="text"/></g><g class="trace scatter traceb693dd" style="stroke-miterlimit: 2; opacity: 1;"><g class="fills"/><g class="errorbars"/><g class="lines"><path class="js-line" d="M0,365.75L289.9,365.75L300.25,323.2L310.61,97.73L320.96,73.04L331.31,47.09L341.67,34.65L362.37,19.25L372.73,25.29L383.08,28.54L393.43,48.4L403.79,60.66L414.14,81.27L434.85,120.59L445.2,133.65L455.56,154.71L465.91,167.74L476.26,184.13L486.62,196.51L496.97,213.6L507.32,218.71L517.68,238.57L528.03,246.44L548.74,268.79L559.09,276.65L569.44,282.77L579.8,292.03L590.15,297.22L600.51,304.08L631.57,318.83L641.92,323.57L652.27,325.92L662.63,329.51L693.69,339.21L704.04,340.8L724.75,344.67L735.1,346.27L755.81,349.94L766.16,350.91L797.22,355.22L807.58,355.87L828.28,357.56L838.64,358.58L911.11,361.9L921.46,362.18L973.23,363.67L983.59,363.71L1025,364.43" style="vector-effect: none; fill: none; stroke: rgb(144, 237, 125); stroke-opacity: 1; stroke-width: 2px; opacity: 1;"/></g><g class="points"/><g class="text"/></g><g class="trace scatter tracef84c13" style="stroke-miterlimit: 2; opacity: 1;"><g class="fills"/><g class="errorbars"/><g class="lines"><path class="js-line" d="M0,365.75L289.9,365.75L300.25,327.45L310.61,120.51L320.96,92.12L331.31,66.02L341.67,49.79L362.37,33.27L372.73,37.28L383.08,42.99L393.43,58.76L403.79,67.36L414.14,84.7L424.49,99.32L434.85,119.13L445.2,132.88L455.56,151.17L465.91,163.62L476.26,180.25L486.62,193.9L496.97,209.31L507.32,211.13L517.68,234.21L528.03,242.42L538.38,251.86L559.09,272.01L569.44,280.59L579.8,286.01L590.15,292.55L610.86,305.06L621.21,308.43L641.92,318.45L652.27,322.35L672.98,328.82L683.33,331.51L714.39,339.52L724.75,342.03L745.45,346.09L755.81,346.86L766.16,349.28L776.52,350.22L807.58,354.19L817.93,355.33L900.76,360.79L911.11,361.12L952.53,362.72L962.88,362.99L1025,364.03" style="vector-effect: none; fill: none; stroke: rgb(247, 163, 92); stroke-opacity: 1; stroke-width: 2px; opacity: 1;"/></g><g class="points"/><g class="text"/></g><g class="trace scatter tracef45df7" style="stroke-miterlimit: 2; opacity: 1;"><g class="fills"/><g class="errorbars"/><g class="lines"><path class="js-line" d="M0,365.75L289.9,365.75L300.25,328.86L310.61,136.23L320.96,111.19L331.31,86.68L341.67,73.55L352.02,60.59L362.37,54.68L372.73,54.89L383.08,51.13L393.43,63.75L403.79,70.86L424.49,94.89L434.85,113.22L445.2,124.29L455.56,143.74L476.26,169.29L486.62,187.19L496.97,199.31L507.32,203.77L517.68,226.06L528.03,236.68L538.38,244.56L548.74,257.43L569.44,274.28L579.8,283.28L600.51,295.5L610.86,300.23L631.57,312.07L641.92,316.43L652.27,320.64L662.63,323.09L683.33,330.37L693.69,333.16L704.04,334.52L714.39,338.03L724.75,341.37L735.1,343.4L766.16,348.49L776.52,349.89L786.87,350.65L797.22,352.57L859.34,357.95L869.7,358.75L942.17,362.07L952.53,362.23L1004.29,363.66L1014.65,363.73L1025,363.89" style="vector-effect: none; fill: none; stroke: rgb(128, 133, 233); stroke-opacity: 1; stroke-width: 2px; opacity: 1;"/></g><g class="points"/><g class="text"/></g><g class="trace scatter tracebd62da" style="stroke-miterlimit: 2; opacity: 1;"><g class="fills"/><g class="errorbars"/><g class="lines"><path class="js-line" d="M0,365.75L289.9,365.75L300.25,331.84L310.61,147.21L320.96,125.08L331.31,103.12L341.67,89.44L352.02,78.17L362.37,69.33L372.73,73.53L383.08,67.52L393.43,76.04L403.79,80.91L414.14,96.1L424.49,104.67L434.85,117.67L445.2,129.25L455.56,145.75L465.91,157.08L476.26,171.12L486.62,182.35L496.97,198.24L507.32,201.27L517.68,222.69L528.03,231.59L538.38,242.16L548.74,251.33L569.44,270.44L579.8,276.42L590.15,284.66L600.51,289.53L610.86,296.96L621.21,299.04L631.57,306.15L641.92,310.64L683.33,326.31L693.69,328.73L714.39,332.88L724.75,335.79L735.1,337.58L745.45,340.98L776.52,346.13L786.87,346.64L797.22,349.09L807.58,350.08L817.93,350.52L828.28,352.3L859.34,355.41L869.7,356.07L890.4,357.71L900.76,358.06L931.82,360.07L942.17,360.25L962.88,361.36L973.23,361.45L993.94,362.12L1004.29,362.23L1025,362.99" style="vector-effect: none; fill: none; stroke: rgb(241, 92, 128); stroke-opacity: 1; stroke-width: 2px; opacity: 1;"/></g><g class="points"/><g class="text"/></g></g></g></g><path class="xlines-above crisp" d="M0,0" style="fill: none;"/><path class="ylines-above crisp" d="M0,0" style="fill: none;"/><g class="overlines-above"/><g class="xaxislayer-above"><g class="xtick"><text text-anchor="middle" x="0" y="451" transform="translate(158.36,0)" style="font-family: 'Lucida Grande', 'Open Sans', verdana, arial, sans-serif; font-size: 10px; fill: rgb(0, 0, 0); fill-opacity: 1; white-space: pre; opacity: 1;">−200 bp</text></g><g class="xtick"><text text-anchor="middle" x="0" y="451" style="font-family: 'Lucida Grande', 'Open Sans', verdana, arial, sans-serif; font-size: 10px; fill: rgb(0, 0, 0); fill-opacity: 1; white-space: pre; opacity: 1;" transform="translate(261.89,0)">−150 bp</text></g><g class="xtick"><text text-anchor="middle" x="0" y="451" style="font-family: 'Lucida Grande', 'Open Sans', verdana, arial, sans-serif; font-size: 10px; fill: rgb(0, 0, 0); fill-opacity: 1; white-space: pre; opacity: 1;" transform="translate(365.43,0)">−100 bp</text></g><g class="xtick"><text text-anchor="middle" x="0" y="451" style="font-family: 'Lucida Grande', 'Open Sans', verdana, arial, sans-serif; font-size: 10px; fill: rgb(0, 0, 0); fill-opacity: 1; white-space: pre; opacity: 1;" transform="translate(468.96,0)">−50 bp</text></g><g class="xtick"><text text-anchor="middle" x="0" y="451" style="font-family: 'Lucida Grande', 'Open Sans', verdana, arial, sans-serif; font-size: 10px; fill: rgb(0, 0, 0); fill-opacity: 1; white-space: pre; opacity: 1;" transform="translate(572.5,0)">0 bp</text></g><g class="xtick"><text text-anchor="middle" x="0" y="451" style="font-family: 'Lucida Grande', 'Open Sans', verdana, arial, sans-serif; font-size: 10px; fill: rgb(0, 0, 0); fill-opacity: 1; white-space: pre; opacity: 1;" transform="translate(676.04,0)">50 bp</text></g><g class="xtick"><text text-anchor="middle" x="0" y="451" style="font-family: 'Lucida Grande', 'Open Sans', verdana, arial, sans-serif; font-size: 10px; fill: rgb(0, 0, 0); fill-opacity: 1; white-space: pre; opacity: 1;" transform="translate(779.57,0)">100 bp</text></g><g class="xtick"><text text-anchor="middle" x="0" y="451" style="font-family: 'Lucida Grande', 'Open Sans', verdana, arial, sans-serif; font-size: 10px; fill: rgb(0, 0, 0); fill-opacity: 1; white-space: pre; opacity: 1;" transform="translate(883.11,0)">150 bp</text></g><g class="xtick"><text text-anchor="middle" x="0" y="451" style="font-family: 'Lucida Grande', 'Open Sans', verdana, arial, sans-serif; font-size: 10px; fill: rgb(0, 0, 0); fill-opacity: 1; white-space: pre; opacity: 1;" transform="translate(986.64,0)">200 bp</text></g></g><g class="yaxislayer-above"><g class="ytick"><text text-anchor="end" x="54" y="3.5" transform="translate(0,415.75)" style="font-family: 'Lucida Grande', 'Open Sans', verdana, arial, sans-serif; font-size: 10px; fill: rgb(0, 0, 0); fill-opacity: 1; white-space: pre; opacity: 1;">0%</text></g><g class="ytick"><text text-anchor="end" x="54" y="3.5" style="font-family: 'Lucida Grande', 'Open Sans', verdana, arial, sans-serif; font-size: 10px; fill: rgb(0, 0, 0); fill-opacity: 1; white-space: pre; opacity: 1;" transform="translate(0,347.92)">1%</text></g><g class="ytick"><text text-anchor="end" x="54" y="3.5" style="font-family: 'Lucida Grande', 'Open Sans', verdana, arial, sans-serif; font-size: 10px; fill: rgb(0, 0, 0); fill-opacity: 1; white-space: pre; opacity: 1;" transform="translate(0,280.08000000000004)">2%</text></g><g class="ytick"><text text-anchor="end" x="54" y="3.5" style="font-family: 'Lucida Grande', 'Open Sans', verdana, arial, sans-serif; font-size: 10px; fill: rgb(0, 0, 0); fill-opacity: 1; white-space: pre; opacity: 1;" transform="translate(0,212.25)">3%</text></g><g class="ytick"><text text-anchor="end" x="54" y="3.5" style="font-family: 'Lucida Grande', 'Open Sans', verdana, arial, sans-serif; font-size: 10px; fill: rgb(0, 0, 0); fill-opacity: 1; white-space: pre; opacity: 1;" transform="translate(0,144.41)">4%</text></g><g class="ytick"><text text-anchor="end" x="54" y="3.5" style="font-family: 'Lucida Grande', 'Open Sans', verdana, arial, sans-serif; font-size: 10px; fill: rgb(0, 0, 0); fill-opacity: 1; white-space: pre; opacity: 1;" transform="translate(0,76.58)">5%</text></g></g><g class="overaxes-above"/></g></g><g class="polarlayer"/><g class="smithlayer"/><g class="ternarylayer"/><g class="geolayer"/><g class="funnelarealayer"/><g class="pielayer"/><g class="iciclelayer"/><g class="treemaplayer"/><g class="sunburstlayer"/><g class="glimages"/><defs id="topdefs-2bb9dd"><g class="clips"/></defs><g class="layer-above"><g class="imagelayer"/><g class="shapelayer"/></g><g class="infolayer"><g class="g-gtitle"><text class="gtitle" x="550" y="25" text-anchor="middle" dy="0em" style="opacity: 1; font-family: 'Lucida Grande', 'Open Sans', verdana, arial, sans-serif; font-size: 20px; fill: rgb(68, 68, 68); fill-opacity: 1; white-space: pre;"><tspan class="line" dy="0em" x="550" y="25">RSeQC: Inner Distance</tspan><tspan class="line" dy="1.3em" x="550" y="25">​<tspan style="font-size:70%" dy="-0.6em">Percentages, 6 samples</tspan><tspan dy="0.42em">​</tspan></tspan></text></g><g class="g-xtitle"><text class="xtitle" x="572.5" y="487" text-anchor="middle" style="opacity: 0.3; font-family: 'Lucida Grande', 'Open Sans', verdana, arial, sans-serif; font-size: 14px; fill: rgb(0, 0, 0); fill-opacity: 1; white-space: pre;">Inner Distance (bp)</text></g><g class="g-ytitle"><text class="ytitle" transform="rotate(-90,22,242.5)" x="22" y="242.5" text-anchor="middle" style="opacity: 0.3; font-family: 'Lucida Grande', 'Open Sans', verdana, arial, sans-serif; font-size: 14px; fill: rgb(0, 0, 0); fill-opacity: 1; white-space: pre;">Percentage</text></g></g></svg>