<svg class="main-svg" xmlns="http://www.w3.org/2000/svg" xmlns:xlink="http://www.w3.org/1999/xlink" width="2200" height="1000" style="" viewBox="0 0 1100 500"><rect x="0" y="0" width="1100" height="500" style="fill: rgb(255, 255, 255); fill-opacity: 1;"/><defs id="defs-6b8662"><g class="clips"><clipPath id="clip6b8662xyplot" class="plotclip"><rect width="1025" height="385"/></clipPath><clipPath class="axesclip" id="clip6b8662x"><rect x="60" y="0" width="1025" height="500"/></clipPath><clipPath class="axesclip" id="clip6b8662y"><rect x="0" y="50" width="1100" height="385"/></clipPath><clipPath class="axesclip" id="clip6b8662xy"><rect x="60" y="50" width="1025" height="385"/></clipPath></g><g class="gradients"/><g class="patterns"/></defs><g class="bglayer"/><g class="layer-below"><g class="imagelayer"/><g class="shapelayer"/></g><g class="cartesianlayer"><g class="subplot xy"><g class="layer-subplot"><g class="shapelayer"/><g class="imagelayer"/></g><g class="minor-gridlayer"><g class="x"/><g class="y"/></g><g class="gridlayer"><g class="x"><path class="xgrid crisp" transform="translate(158.36,0)" d="M0,50v385" style="stroke: rgb(0, 0, 0); stroke-opacity: 0.05; stroke-width: 1px;"/><path class="xgrid crisp" transform="translate(261.89,0)" d="M0,50v385" style="stroke: rgb(0, 0, 0); stroke-opacity: 0.05; stroke-width: 1px;"/><path class="xgrid crisp" transform="translate(365.43,0)" d="M0,50v385" style="stroke: rgb(0, 0, 0); stroke-opacity: 0.05; stroke-width: 1px;"/><path class="xgrid crisp" transform="translate(468.96,0)" d="M0,50v385" style="stroke: rgb(0, 0, 0); stroke-opacity: 0.05; stroke-width: 1px;"/><path class="xgrid crisp" transform="translate(676.04,0)" d="M0,50v385" style="stroke: rgb(0, 0, 0); stroke-opacity: 0.05; stroke-width: 1px;"/><path class="xgrid crisp" transform="translate(779.57,0)" d="M0,50v385" style="stroke: rgb(0, 0, 0); stroke-opacity: 0.05; stroke-width: 1px;"/><path class="xgrid crisp" transform="translate(883.11,0)" d="M0,50v385" style="stroke: rgb(0, 0, 0); stroke-opacity: 0.05; stroke-width: 1px;"/><path class="xgrid crisp" transform="translate(986.64,0)" d="M0,50v385" style="stroke: rgb(0, 0, 0); stroke-opacity: 0.05; stroke-width: 1px;"/></g><g class="y"><path class="ygrid crisp" transform="translate(0,347.69)" d="M60,0h1025" style="stroke: rgb(0, 0, 0); stroke-opacity: 0.05; stroke-width: 1px;"/><path class="ygrid crisp" transform="translate(0,279.63)" d="M60,0h1025" style="stroke: rgb(0, 0, 0); stroke-opacity: 0.05; stroke-width: 1px;"/><path class="ygrid crisp" transform="translate(0,211.57)" d="M60,0h1025" style="stroke: rgb(0, 0, 0); stroke-opacity: 0.05; stroke-width: 1px;"/><path class="ygrid crisp" transform="translate(0,143.51)" d="M60,0h1025" style="stroke: rgb(0, 0, 0); stroke-opacity: 0.05; stroke-width: 1px;"/><path class="ygrid crisp" transform="translate(0,75.45)" d="M60,0h1025" style="stroke: rgb(0, 0, 0); stroke-opacity: 0.05; stroke-width: 1px;"/></g></g><g class="zerolinelayer"><path class="xzl zl crisp" transform="translate(572.5,0)" d="M0,50v385" style="stroke: rgb(0, 0, 0); stroke-opacity: 0.05; stroke-width: 1px;"/><path class="yzl zl crisp" transform="translate(0,415.75)" d="M60,0h1025" style="stroke: rgb(0, 0, 0); stroke-opacity: 0.05; stroke-width: 1px;"/></g><g class="layer-between"><g class="shapelayer"/><g class="imagelayer"/></g><path class="xlines-below"/><path class="ylines-below"/><g class="overlines-below"/><g class="xaxislayer-below"/><g class="yaxislayer-below"/><g class="overaxes-below"/><g class="overplot"><g class="xy" transform="translate(60,50)" clip-path="url(#clip6b8662xyplot)"><g class="scatterlayer mlayer"><g class="trace scatter trace8ad489" style="stroke-miterlimit: 2; opacity: 1;"><g class="fills"/><g class="errorbars"/><g class="lines"><path class="js-line" d="M0,365.75L289.9,365.75L300.25,327.35L310.61,120.8L320.96,97.38L331.31,69.66L341.67,52.3L362.37,34.8L372.73,39.99L383.08,38.52L393.43,52.82L403.79,64.06L414.14,82.85L424.49,95.99L434.85,112.42L445.2,126.68L455.56,148.99L465.91,160.98L476.26,177.78L486.62,190.4L496.97,206.22L507.32,210.41L517.68,233.37L528.03,240.37L538.38,250.96L548.74,263.56L559.09,271.48L579.8,288.04L590.15,293.3L610.86,306.01L621.21,309.8L631.57,315.41L641.92,319.35L652.27,324.12L662.63,326.54L672.98,330.98L683.33,332.33L704.04,338.83L714.39,340.42L724.75,341.92L735.1,344.64L745.45,346.88L755.81,347.99L776.52,351.8L786.87,352.08L807.58,355.45L817.93,355.39L828.28,356.77L838.64,357.34L848.99,357.87L859.34,359.3L952.53,362.84L962.88,363.15L1004.29,363.88L1014.65,363.97L1025,364.18" style="vector-effect: none; fill: none; stroke: rgb(124, 181, 236); stroke-opacity: 1; stroke-width: 2px; opacity: 1;"/></g><g class="points"/><g class="text"/></g><g class="trace scatter trace8e4a45" style="stroke-miterlimit: 2; opacity: 1;"><g class="fills"/><g class="errorbars"/><g class="lines"><path class="js-line" d="M0,365.75L289.9,365.75L300.25,327.27L310.61,119.05L320.96,90.09L331.31,65.76L341.67,50.29L352.02,42.74L362.37,33.48L372.73,38.18L383.08,38.71L393.43,57.4L403.79,62.71L414.14,84.6L424.49,98.63L434.85,119.23L445.2,132.23L455.56,148.54L465.91,161.43L476.26,181.19L486.62,192.33L496.97,208.76L507.32,210.38L517.68,231.97L528.03,240.89L548.74,262.46L559.09,272.51L569.44,280.8L579.8,287.76L590.15,294.42L600.51,298.25L610.86,306.4L621.21,310.36L631.57,313.75L641.92,318.35L662.63,326.62L672.98,330.13L704.04,338.55L714.39,340.48L766.16,349.48L776.52,350.74L807.58,354.59L817.93,355.58L869.7,359.34L880.05,360.03L931.82,362.4L942.17,362.05L973.23,363.36L983.59,363.6L1025,364.29" style="vector-effect: none; fill: none; stroke: rgb(67, 67, 72); stroke-opacity: 1; stroke-width: 2px; opacity: 1;"/></g><g class="points"/><g class="text"/></g><g class="trace scatter trace8ec8ef" style="stroke-miterlimit: 2; opacity: 1;"><g class="fills"/><g class="errorbars"/><g class="lines"><path class="js-line" d="M0,365.75L289.9,365.75L300.25,323.2L310.61,97.73L320.96,73.04L331.31,47.09L341.67,34.65L362.37,19.25L372.73,25.29L383.08,28.54L393.43,48.4L403.79,60.66L414.14,81.27L434.85,120.59L445.2,133.65L455.56,154.71L465.91,167.74L476.26,184.13L486.62,196.51L496.97,213.6L507.32,218.71L517.68,238.57L528.03,246.44L548.74,268.79L559.09,276.65L569.44,282.77L579.8,292.03L590.15,297.22L600.51,304.08L631.57,318.83L641.92,323.57L652.27,325.92L662.63,329.51L693.69,339.21L704.04,340.8L724.75,344.67L735.1,346.27L755.81,349.94L766.16,350.91L797.22,355.22L807.58,355.87L828.28,357.56L838.64,358.58L911.11,361.9L921.46,362.18L973.23,363.67L983.59,363.71L1025,364.43" style="vector-effect: none; fill: none; stroke: rgb(144, 237, 125); stroke-opacity: 1; stroke-width: 2px; opacity: 1;"/></g><g class="points"/><g class="text"/></g><g class="trace scatter trace039260" style="stroke-miterlimit: 2; opacity: 1;"><g class="fills"/><g class="errorbars"/><g class="lines"><path class="js-line" d="M0,365.75L289.9,365.75L300.25,327.46L310.61,120.55L320.96,92.17L331.31,66.07L341.67,49.85L362.37,33.33L372.73,37.33L383.08,43.05L393.43,58.81L403.79,67.42L414.14,84.74L424.49,99.37L434.85,119.18L445.2,132.92L455.56,151.2L465.91,163.65L476.26,180.29L486.62,193.93L496.97,209.33L507.32,211.16L517.68,234.23L528.03,242.45L538.38,251.88L559.09,272.02L569.44,280.61L579.8,286.02L590.15,292.57L610.86,305.07L621.21,308.44L641.92,318.46L652.27,322.35L672.98,328.83L683.33,331.52L714.39,339.52L724.75,342.03L745.45,346.09L755.81,346.86L766.16,349.29L776.52,350.22L807.58,354.19L817.93,355.33L900.76,360.8L911.11,361.12L952.53,362.72L962.88,362.99L1025,364.03" style="vector-effect: none; fill: none; stroke: rgb(247, 163, 92); stroke-opacity: 1; stroke-width: 2px; opacity: 1;"/></g><g class="points"/><g class="text"/></g><g class="trace scatter trace7959b1" style="stroke-miterlimit: 2; opacity: 1;"><g class="fills"/><g class="errorbars"/><g class="lines"><path class="js-line" d="M0,365.75L289.9,365.75L300.25,328.89L310.61,136.39L320.96,111.36L331.31,86.87L341.67,73.75L352.02,60.79L362.37,54.89L372.73,55.1L383.08,51.34L393.43,63.95L403.79,71.06L424.49,95.07L434.85,113.39L445.2,124.45L455.56,143.89L476.26,169.42L486.62,187.31L496.97,199.43L507.32,203.88L517.68,226.15L528.03,236.76L538.38,244.64L548.74,257.5L569.44,274.35L579.8,283.34L600.51,295.55L610.86,300.27L631.57,312.11L641.92,316.46L652.27,320.67L662.63,323.12L683.33,330.39L693.69,333.18L704.04,334.54L714.39,338.05L724.75,341.38L735.1,343.42L766.16,348.5L776.52,349.9L786.87,350.66L797.22,352.58L859.34,357.95L869.7,358.75L942.17,362.07L952.53,362.23L1004.29,363.66L1014.65,363.73L1025,363.89" style="vector-effect: none; fill: none; stroke: rgb(128, 133, 233); stroke-opacity: 1; stroke-width: 2px; opacity: 1;"/></g><g class="points"/><g class="text"/></g><g class="trace scatter trace42b51d" style="stroke-miterlimit: 2; opacity: 1;"><g class="fills"/><g class="errorbars"/><g class="lines"><path class="js-line" d="M0,365.75L289.9,365.75L300.25,331.95L310.61,147.93L320.96,125.88L331.31,103.99L341.67,90.35L352.02,79.12L362.37,70.32L372.73,74.5L383.08,68.5L393.43,77L403.79,81.85L414.14,96.99L424.49,105.54L434.85,118.5L445.2,130.04L455.56,146.48L465.91,157.77L476.26,171.77L486.62,182.95L496.97,198.79L507.32,201.81L517.68,223.16L528.03,232.03L538.38,242.57L548.74,251.71L569.44,270.75L579.8,276.71L590.15,284.93L600.51,289.78L610.86,297.19L621.21,299.26L631.57,306.35L641.92,310.83L683.33,326.44L693.69,328.85L714.39,332.99L724.75,335.89L735.1,337.68L745.45,341.06L776.52,346.2L786.87,346.7L797.22,349.14L807.58,350.13L817.93,350.57L828.28,352.35L859.34,355.45L869.7,356.11L890.4,357.74L900.76,358.09L931.82,360.09L942.17,360.26L962.88,361.37L973.23,361.47L993.94,362.14L1004.29,362.24L1025,363" style="vector-effect: none; fill: none; stroke: rgb(241, 92, 128); stroke-opacity: 1; stroke-width: 2px; opacity: 1;"/></g><g class="points"/><g class="text"/></g></g></g></g><path class="xlines-above crisp" d="M0,0" style="fill: none;"/><path class="ylines-above crisp" d="M0,0" style="fill: none;"/><g class="overlines-above"/><g class="xaxislayer-above"><g class="xtick"><text text-anchor="middle" x="0" y="451" transform="translate(158.36,0)" style="font-family: 'Lucida Grande', 'Open Sans', verdana, arial, sans-serif; font-size: 10px; fill: rgb(0, 0, 0); fill-opacity: 1; white-space: pre; opacity: 1;">−200 bp</text></g><g class="xtick"><text text-anchor="middle" x="0" y="451" style="font-family: 'Lucida Grande', 'Open Sans', verdana, arial, sans-serif; font-size: 10px; fill: rgb(0, 0, 0); fill-opacity: 1; white-space: pre; opacity: 1;" transform="translate(261.89,0)">−150 bp</text></g><g class="xtick"><text text-anchor="middle" x="0" y="451" style="font-family: 'Lucida Grande', 'Open Sans', verdana, arial, sans-serif; font-size: 10px; fill: rgb(0, 0, 0); fill-opacity: 1; white-space: pre; opacity: 1;" transform="translate(365.43,0)">−100 bp</text></g><g class="xtick"><text text-anchor="middle" x="0" y="451" style="font-family: 'Lucida Grande', 'Open Sans', verdana, arial, sans-serif; font-size: 10px; fill: rgb(0, 0, 0); fill-opacity: 1; white-space: pre; opacity: 1;" transform="translate(468.96,0)">−50 bp</text></g><g class="xtick"><text text-anchor="middle" x="0" y="451" style="font-family: 'Lucida Grande', 'Open Sans', verdana, arial, sans-serif; font-size: 10px; fill: rgb(0, 0, 0); fill-opacity: 1; white-space: pre; opacity: 1;" transform="translate(572.5,0)">0 bp</text></g><g class="xtick"><text text-anchor="middle" x="0" y="451" style="font-family: 'Lucida Grande', 'Open Sans', verdana, arial, sans-serif; font-size: 10px; fill: rgb(0, 0, 0); fill-opacity: 1; white-space: pre; opacity: 1;" transform="translate(676.04,0)">50 bp</text></g><g class="xtick"><text text-anchor="middle" x="0" y="451" style="font-family: 'Lucida Grande', 'Open Sans', verdana, arial, sans-serif; font-size: 10px; fill: rgb(0, 0, 0); fill-opacity: 1; white-space: pre; opacity: 1;" transform="translate(779.57,0)">100 bp</text></g><g class="xtick"><text text-anchor="middle" x="0" y="451" style="font-family: 'Lucida Grande', 'Open Sans', verdana, arial, sans-serif; font-size: 10px; fill: rgb(0, 0, 0); fill-opacity: 1; white-space: pre; opacity: 1;" transform="translate(883.11,0)">150 bp</text></g><g class="xtick"><text text-anchor="middle" x="0" y="451" style="font-family: 'Lucida Grande', 'Open Sans', verdana, arial, sans-serif; font-size: 10px; fill: rgb(0, 0, 0); fill-opacity: 1; white-space: pre; opacity: 1;" transform="translate(986.64,0)">200 bp</text></g></g><g class="yaxislayer-above"><g class="ytick"><text text-anchor="end" x="54" y="3.5" transform="translate(0,415.75)" style="font-family: 'Lucida Grande', 'Open Sans', verdana, arial, sans-serif; font-size: 10px; fill: rgb(0, 0, 0); fill-opacity: 1; white-space: pre; opacity: 1;">0</text></g><g class="ytick"><text text-anchor="end" x="54" y="3.5" style="font-family: 'Lucida Grande', 'Open Sans', verdana, arial, sans-serif; font-size: 10px; fill: rgb(0, 0, 0); fill-opacity: 1; white-space: pre; opacity: 1;" transform="translate(0,347.69)">10k</text></g><g class="ytick"><text text-anchor="end" x="54" y="3.5" style="font-family: 'Lucida Grande', 'Open Sans', verdana, arial, sans-serif; font-size: 10px; fill: rgb(0, 0, 0); fill-opacity: 1; white-space: pre; opacity: 1;" transform="translate(0,279.63)">20k</text></g><g class="ytick"><text text-anchor="end" x="54" y="3.5" style="font-family: 'Lucida Grande', 'Open Sans', verdana, arial, sans-serif; font-size: 10px; fill: rgb(0, 0, 0); fill-opacity: 1; white-space: pre; opacity: 1;" transform="translate(0,211.57)">30k</text></g><g class="ytick"><text text-anchor="end" x="54" y="3.5" style="font-family: 'Lucida Grande', 'Open Sans', verdana, arial, sans-serif; font-size: 10px; fill: rgb(0, 0, 0); fill-opacity: 1; white-space: pre; opacity: 1;" transform="translate(0,143.51)">40k</text></g><g class="ytick"><text text-anchor="end" x="54" y="3.5" style="font-family: 'Lucida Grande', 'Open Sans', verdana, arial, sans-serif; font-size: 10px; fill: rgb(0, 0, 0); fill-opacity: 1; white-space: pre; opacity: 1;" transform="translate(0,75.45)">50k</text></g></g><g class="overaxes-above"/></g></g><g class="polarlayer"/><g class="smithlayer"/><g class="ternarylayer"/><g class="geolayer"/><g class="funnelarealayer"/><g class="pielayer"/><g class="iciclelayer"/><g class="treemaplayer"/><g class="sunburstlayer"/><g class="glimages"/><defs id="topdefs-6b8662"><g class="clips"/></defs><g class="layer-above"><g class="imagelayer"/><g class="shapelayer"/></g><g class="infolayer"><g class="g-gtitle"><text class="gtitle" x="550" y="25" text-anchor="middle" dy="0em" style="opacity: 1; font-family: 'Lucida Grande', 'Open Sans', verdana, arial, sans-serif; font-size: 20px; fill: rgb(68, 68, 68); fill-opacity: 1; white-space: pre;"><tspan class="line" dy="0em" x="550" y="25">RSeQC: Inner Distance</tspan><tspan class="line" dy="1.3em" x="550" y="25">​<tspan style="font-size:70%" dy="-0.6em">Counts, 6 samples</tspan><tspan dy="0.42em">​</tspan></tspan></text></g><g class="g-xtitle"><text class="xtitle" x="572.5" y="487" text-anchor="middle" style="opacity: 0.3; font-family: 'Lucida Grande', 'Open Sans', verdana, arial, sans-serif; font-size: 14px; fill: rgb(0, 0, 0); fill-opacity: 1; white-space: pre;">Inner Distance (bp)</text></g><g class="g-ytitle"><text class="ytitle" transform="rotate(-90,22,242.5)" x="22" y="242.5" text-anchor="middle" style="opacity: 0.3; font-family: 'Lucida Grande', 'Open Sans', verdana, arial, sans-serif; font-size: 14px; fill: rgb(0, 0, 0); fill-opacity: 1; white-space: pre;">Counts</text></g></g></svg>