<svg class="main-svg" xmlns="http://www.w3.org/2000/svg" xmlns:xlink="http://www.w3.org/1999/xlink" width="2200" height="1000" style="" viewBox="0 0 1100 500"><rect x="0" y="0" width="1100" height="500" style="fill: rgb(255, 255, 255); fill-opacity: 1;"/><defs id="defs-152114"><g class="clips"><clipPath id="clip152114xyplot" class="plotclip"><rect width="1013" height="385"/></clipPath><clipPath class="axesclip" id="clip152114x"><rect x="61" y="0" width="1013" height="500"/></clipPath><clipPath class="axesclip" id="clip152114y"><rect x="0" y="50" width="1100" height="385"/></clipPath><clipPath class="axesclip" id="clip152114xy"><rect x="61" y="50" width="1013" height="385"/></clipPath></g><g class="gradients"/><g class="patterns"/></defs><g class="bglayer"/><g class="layer-below"><g class="imagelayer"/><g class="shapelayer"/></g><g class="cartesianlayer"><g class="subplot xy"><g class="layer-subplot"><g class="shapelayer"/><g class="imagelayer"/></g><g class="minor-gridlayer"><g class="x"/><g class="y"/></g><g class="gridlayer"><g class="x"><path class="xgrid crisp" transform="translate(263.6,0)" d="M0,50v385" style="stroke: rgb(0, 0, 0); stroke-opacity: 0.05; stroke-width: 1px;"/><path class="xgrid crisp" transform="translate(466.2,0)" d="M0,50v385" style="stroke: rgb(0, 0, 0); stroke-opacity: 0.05; stroke-width: 1px;"/><path class="xgrid crisp" transform="translate(668.8,0)" d="M0,50v385" style="stroke: rgb(0, 0, 0); stroke-opacity: 0.05; stroke-width: 1px;"/><path class="xgrid crisp" transform="translate(871.4,0)" d="M0,50v385" style="stroke: rgb(0, 0, 0); stroke-opacity: 0.05; stroke-width: 1px;"/></g><g class="y"><path class="ygrid crisp" transform="translate(0,361.85)" d="M61,0h1013" style="stroke: rgb(0, 0, 0); stroke-opacity: 0.05; stroke-width: 1px;"/><path class="ygrid crisp" transform="translate(0,288.7)" d="M61,0h1013" style="stroke: rgb(0, 0, 0); stroke-opacity: 0.05; stroke-width: 1px;"/><path class="ygrid crisp" transform="translate(0,215.55)" d="M61,0h1013" style="stroke: rgb(0, 0, 0); stroke-opacity: 0.05; stroke-width: 1px;"/><path class="ygrid crisp" transform="translate(0,142.4)" d="M61,0h1013" style="stroke: rgb(0, 0, 0); stroke-opacity: 0.05; stroke-width: 1px;"/><path class="ygrid crisp" transform="translate(0,69.25)" d="M61,0h1013" style="stroke: rgb(0, 0, 0); stroke-opacity: 0.05; stroke-width: 1px;"/></g></g><g class="zerolinelayer"><path class="xzl zl crisp" transform="translate(61,0)" d="M0,50v385" style="stroke: rgb(0, 0, 0); stroke-opacity: 0.05; stroke-width: 1px;"/><path class="yzl zl crisp" transform="translate(0,435)" d="M61,0h1013" style="stroke: rgb(0, 0, 0); stroke-opacity: 0.05; stroke-width: 1px;"/></g><g class="layer-between"><g class="shapelayer"/><g class="imagelayer"/></g><path class="xlines-below"/><path class="ylines-below"/><g class="overlines-below"/><g class="xaxislayer-below"/><g class="yaxislayer-below"/><g class="overaxes-below"/><g class="overplot"><g class="xy" transform="translate(61,50)" clip-path="url(#clip152114xyplot)"><g class="scatterlayer mlayer"><g class="trace scatter tracec000c5" style="stroke-miterlimit: 2; opacity: 1;"><g class="fills"/><g class="errorbars"/><g class="lines"><path class="js-line" d="M50.65,270.78L101.3,228.12L151.95,198.62L202.6,174.46L253.25,155.17L303.9,138.28L354.55,123.5L405.2,110.3L455.85,97.99L557.15,77.93L607.8,69.74L709.1,53.81L759.75,46.97L861.05,34.62L911.7,29.73L1013,19.25" style="vector-effect: none; fill: none; stroke: rgb(124, 181, 236); stroke-opacity: 1; stroke-width: 2px; opacity: 1;"/></g><g class="points"/><g class="text"/></g><g class="trace scatter traceff2548" style="stroke-miterlimit: 2; opacity: 1;"><g class="fills"/><g class="errorbars"/><g class="lines"><path class="js-line" d="M50.65,259.16L101.3,217.19L151.95,187.5L202.6,163.94L253.25,145.31L303.9,128.85L354.55,114.66L405.2,102.51L455.85,91.68L557.15,73.34L607.8,64.99L709.1,50.66L759.75,44.62L861.05,33.21L911.7,28.17L1013,19.25" style="vector-effect: none; fill: none; stroke: rgb(67, 67, 72); stroke-opacity: 1; stroke-width: 2px; opacity: 1;"/></g><g class="points"/><g class="text"/></g><g class="trace scatter trace0bb1e6" style="stroke-miterlimit: 2; opacity: 1;"><g class="fills"/><g class="errorbars"/><g class="lines"><path class="js-line" d="M50.65,284.53L101.3,240.38L151.95,208.23L202.6,184.28L253.25,163.4L303.9,145.73L354.55,130.04L455.85,103.72L506.5,92.53L607.8,72.91L658.45,64.05L709.1,56.1L759.75,48.99L861.05,36.02L911.7,29.78L1013,19.25" style="vector-effect: none; fill: none; stroke: rgb(144, 237, 125); stroke-opacity: 1; stroke-width: 2px; opacity: 1;"/></g><g class="points"/><g class="text"/></g><g class="trace scatter trace035ff0" style="stroke-miterlimit: 2; opacity: 1;"><g class="fills"/><g class="errorbars"/><g class="lines"><path class="js-line" d="M50.65,260.74L101.3,220.01L151.95,191.63L202.6,168.29L253.25,148.93L303.9,131.81L354.55,118.17L405.2,104.72L455.85,93.97L506.5,83.73L557.15,74.39L658.45,58.85L709.1,52.15L810.4,39.49L861.05,34L1013,19.25" style="vector-effect: none; fill: none; stroke: rgb(247, 163, 92); stroke-opacity: 1; stroke-width: 2px; opacity: 1;"/></g><g class="points"/><g class="text"/></g><g class="trace scatter traced22dc1" style="stroke-miterlimit: 2; opacity: 1;"><g class="fills"/><g class="errorbars"/><g class="lines"><path class="js-line" d="M50.65,267.1L101.3,223.44L151.95,195.31L202.6,172.94L253.25,153.65L303.9,136.77L354.55,122.63L455.85,98.12L506.5,87.79L557.15,78.18L607.8,69.49L709.1,53.59L759.75,46.59L861.05,34.49L911.7,29.36L962.35,23.78L1013,19.25" style="vector-effect: none; fill: none; stroke: rgb(128, 133, 233); stroke-opacity: 1; stroke-width: 2px; opacity: 1;"/></g><g class="points"/><g class="text"/></g><g class="trace scatter trace9f88a0" style="stroke-miterlimit: 2; opacity: 1;"><g class="fills"/><g class="errorbars"/><g class="lines"><path class="js-line" d="M50.65,273.57L101.3,231.41L151.95,201.83L202.6,177.83L253.25,158.31L303.9,140.21L354.55,125.4L405.2,112.92L455.85,101.63L506.5,90.91L557.15,81.44L658.45,64.2L709.1,56.27L810.4,42.41L861.05,35.86L911.7,29.62L962.35,24.37L1013,19.25" style="vector-effect: none; fill: none; stroke: rgb(241, 92, 128); stroke-opacity: 1; stroke-width: 2px; opacity: 1;"/></g><g class="points"/><g class="text"/></g></g></g></g><path class="xlines-above crisp" d="M0,0" style="fill: none;"/><path class="ylines-above crisp" d="M0,0" style="fill: none;"/><g class="overlines-above"/><g class="xaxislayer-above"><g class="xtick"><text text-anchor="middle" x="0" y="451" transform="translate(61,0)" style="font-family: 'Lucida Grande', 'Open Sans', verdana, arial, sans-serif; font-size: 10px; fill: rgb(0, 0, 0); fill-opacity: 1; white-space: pre; opacity: 1;">0%</text></g><g class="xtick"><text text-anchor="middle" x="0" y="451" style="font-family: 'Lucida Grande', 'Open Sans', verdana, arial, sans-serif; font-size: 10px; fill: rgb(0, 0, 0); fill-opacity: 1; white-space: pre; opacity: 1;" transform="translate(263.6,0)">20%</text></g><g class="xtick"><text text-anchor="middle" x="0" y="451" style="font-family: 'Lucida Grande', 'Open Sans', verdana, arial, sans-serif; font-size: 10px; fill: rgb(0, 0, 0); fill-opacity: 1; white-space: pre; opacity: 1;" transform="translate(466.2,0)">40%</text></g><g class="xtick"><text text-anchor="middle" x="0" y="451" style="font-family: 'Lucida Grande', 'Open Sans', verdana, arial, sans-serif; font-size: 10px; fill: rgb(0, 0, 0); fill-opacity: 1; white-space: pre; opacity: 1;" transform="translate(668.8,0)">60%</text></g><g class="xtick"><text text-anchor="middle" x="0" y="451" style="font-family: 'Lucida Grande', 'Open Sans', verdana, arial, sans-serif; font-size: 10px; fill: rgb(0, 0, 0); fill-opacity: 1; white-space: pre; opacity: 1;" transform="translate(871.4,0)">80%</text></g><g class="xtick"><text text-anchor="middle" x="0" y="451" style="font-family: 'Lucida Grande', 'Open Sans', verdana, arial, sans-serif; font-size: 10px; fill: rgb(0, 0, 0); fill-opacity: 1; white-space: pre; opacity: 1;" transform="translate(1074,0)">100%</text></g></g><g class="yaxislayer-above"><g class="ytick"><text text-anchor="end" x="55" y="3.5" transform="translate(0,435)" style="font-family: 'Lucida Grande', 'Open Sans', verdana, arial, sans-serif; font-size: 10px; fill: rgb(0, 0, 0); fill-opacity: 1; white-space: pre; opacity: 1;">0%</text></g><g class="ytick"><text text-anchor="end" x="55" y="3.5" style="font-family: 'Lucida Grande', 'Open Sans', verdana, arial, sans-serif; font-size: 10px; fill: rgb(0, 0, 0); fill-opacity: 1; white-space: pre; opacity: 1;" transform="translate(0,361.85)">20%</text></g><g class="ytick"><text text-anchor="end" x="55" y="3.5" style="font-family: 'Lucida Grande', 'Open Sans', verdana, arial, sans-serif; font-size: 10px; fill: rgb(0, 0, 0); fill-opacity: 1; white-space: pre; opacity: 1;" transform="translate(0,288.7)">40%</text></g><g class="ytick"><text text-anchor="end" x="55" y="3.5" style="font-family: 'Lucida Grande', 'Open Sans', verdana, arial, sans-serif; font-size: 10px; fill: rgb(0, 0, 0); fill-opacity: 1; white-space: pre; opacity: 1;" transform="translate(0,215.55)">60%</text></g><g class="ytick"><text text-anchor="end" x="55" y="3.5" style="font-family: 'Lucida Grande', 'Open Sans', verdana, arial, sans-serif; font-size: 10px; fill: rgb(0, 0, 0); fill-opacity: 1; white-space: pre; opacity: 1;" transform="translate(0,142.4)">80%</text></g><g class="ytick"><text text-anchor="end" x="55" y="3.5" style="font-family: 'Lucida Grande', 'Open Sans', verdana, arial, sans-serif; font-size: 10px; fill: rgb(0, 0, 0); fill-opacity: 1; white-space: pre; opacity: 1;" transform="translate(0,69.25)">100%</text></g></g><g class="overaxes-above"/></g></g><g class="polarlayer"/><g class="smithlayer"/><g class="ternarylayer"/><g class="geolayer"/><g class="funnelarealayer"/><g class="pielayer"/><g class="iciclelayer"/><g class="treemaplayer"/><g class="sunburstlayer"/><g class="glimages"/><defs id="topdefs-152114"><g class="clips"/></defs><g class="layer-above"><g class="imagelayer"/><g class="shapelayer"/></g><g class="infolayer"><g class="g-gtitle"><text class="gtitle" x="550" y="25" text-anchor="middle" dy="0em" style="opacity: 1; font-family: 'Lucida Grande', 'Open Sans', verdana, arial, sans-serif; font-size: 20px; fill: rgb(68, 68, 68); fill-opacity: 1; white-space: pre;"><tspan class="line" dy="0em" x="550" y="25">RSeQC: Junction Saturation</tspan><tspan class="line" dy="1.3em" x="550" y="25">​<tspan style="font-size:70%" dy="-0.6em">All Junctions, 6 samples</tspan><tspan dy="0.42em">​</tspan></tspan></text></g><g class="g-xtitle"><text class="xtitle" x="567.5" y="487" text-anchor="middle" style="opacity: 0.3; font-family: 'Lucida Grande', 'Open Sans', verdana, arial, sans-serif; font-size: 14px; fill: rgb(0, 0, 0); fill-opacity: 1; white-space: pre;">Percent of reads</text></g><g class="g-ytitle"><text class="ytitle" transform="rotate(-90,23,242.5)" x="23" y="242.5" text-anchor="middle" style="opacity: 0.3; font-family: 'Lucida Grande', 'Open Sans', verdana, arial, sans-serif; font-size: 14px; fill: rgb(0, 0, 0); fill-opacity: 1; white-space: pre;">Percent of Junctions</text></g></g></svg>