<svg class="main-svg" xmlns="http://www.w3.org/2000/svg" xmlns:xlink="http://www.w3.org/1999/xlink" width="2200" height="1000" style="" viewBox="0 0 1100 500"><rect x="0" y="0" width="1100" height="500" style="fill: rgb(255, 255, 255); fill-opacity: 1;"/><defs id="defs-607770"><g class="clips"><clipPath id="clip607770xyplot" class="plotclip"><rect width="1023" height="311"/></clipPath><clipPath class="axesclip" id="clip607770x"><rect x="61" y="0" width="1023" height="500"/></clipPath><clipPath class="axesclip" id="clip607770y"><rect x="0" y="50" width="1100" height="311"/></clipPath><clipPath class="axesclip" id="clip607770xy"><rect x="61" y="50" width="1023" height="311"/></clipPath></g><g class="gradients"/><g class="patterns"/></defs><g class="bglayer"/><g class="layer-below"><g class="imagelayer"/><g class="shapelayer"/></g><g class="cartesianlayer"><g class="subplot xy"><g class="layer-subplot"><g class="shapelayer"/><g class="imagelayer"/></g><g class="minor-gridlayer"><g class="x"/><g class="y"/></g><g class="gridlayer"><g class="x"><path class="xgrid crisp" transform="translate(74.28999999999999,0)" d="M0,50v311" style="stroke: rgb(0, 0, 0); stroke-opacity: 0.05; stroke-width: 1px;"/><path class="xgrid crisp" transform="translate(87.57,0)" d="M0,50v311" style="stroke: rgb(0, 0, 0); stroke-opacity: 0.05; stroke-width: 1px;"/><path class="xgrid crisp" transform="translate(100.86,0)" d="M0,50v311" style="stroke: rgb(0, 0, 0); stroke-opacity: 0.05; stroke-width: 1px;"/><path class="xgrid crisp" transform="translate(114.14,0)" d="M0,50v311" style="stroke: rgb(0, 0, 0); stroke-opacity: 0.05; stroke-width: 1px;"/><path class="xgrid crisp" transform="translate(127.43,0)" d="M0,50v311" style="stroke: rgb(0, 0, 0); stroke-opacity: 0.05; stroke-width: 1px;"/><path class="xgrid crisp" transform="translate(140.70999999999998,0)" d="M0,50v311" style="stroke: rgb(0, 0, 0); stroke-opacity: 0.05; stroke-width: 1px;"/><path class="xgrid crisp" transform="translate(154,0)" d="M0,50v311" style="stroke: rgb(0, 0, 0); stroke-opacity: 0.05; stroke-width: 1px;"/><path class="xgrid crisp" transform="translate(167.29000000000002,0)" d="M0,50v311" style="stroke: rgb(0, 0, 0); stroke-opacity: 0.05; stroke-width: 1px;"/><path class="xgrid crisp" transform="translate(180.57,0)" d="M0,50v311" style="stroke: rgb(0, 0, 0); stroke-opacity: 0.05; stroke-width: 1px;"/><path class="xgrid crisp" transform="translate(193.86,0)" d="M0,50v311" style="stroke: rgb(0, 0, 0); stroke-opacity: 0.05; stroke-width: 1px;"/><path class="xgrid crisp" transform="translate(207.14,0)" d="M0,50v311" style="stroke: rgb(0, 0, 0); stroke-opacity: 0.05; stroke-width: 1px;"/><path class="xgrid crisp" transform="translate(220.43,0)" d="M0,50v311" style="stroke: rgb(0, 0, 0); stroke-opacity: 0.05; stroke-width: 1px;"/><path class="xgrid crisp" transform="translate(233.71,0)" d="M0,50v311" style="stroke: rgb(0, 0, 0); stroke-opacity: 0.05; stroke-width: 1px;"/><path class="xgrid crisp" transform="translate(247,0)" d="M0,50v311" style="stroke: rgb(0, 0, 0); stroke-opacity: 0.05; stroke-width: 1px;"/><path class="xgrid crisp" transform="translate(260.28999999999996,0)" d="M0,50v311" style="stroke: rgb(0, 0, 0); stroke-opacity: 0.05; stroke-width: 1px;"/><path class="xgrid crisp" transform="translate(273.57,0)" d="M0,50v311" style="stroke: rgb(0, 0, 0); stroke-opacity: 0.05; stroke-width: 1px;"/><path class="xgrid crisp" transform="translate(286.86,0)" d="M0,50v311" style="stroke: rgb(0, 0, 0); stroke-opacity: 0.05; stroke-width: 1px;"/><path class="xgrid crisp" transform="translate(300.14,0)" d="M0,50v311" style="stroke: rgb(0, 0, 0); stroke-opacity: 0.05; stroke-width: 1px;"/><path class="xgrid crisp" transform="translate(313.43,0)" d="M0,50v311" style="stroke: rgb(0, 0, 0); stroke-opacity: 0.05; stroke-width: 1px;"/><path class="xgrid crisp" transform="translate(326.71,0)" d="M0,50v311" style="stroke: rgb(0, 0, 0); stroke-opacity: 0.05; stroke-width: 1px;"/><path class="xgrid crisp" transform="translate(340,0)" d="M0,50v311" style="stroke: rgb(0, 0, 0); stroke-opacity: 0.05; stroke-width: 1px;"/><path class="xgrid crisp" transform="translate(353.29,0)" d="M0,50v311" style="stroke: rgb(0, 0, 0); stroke-opacity: 0.05; stroke-width: 1px;"/><path class="xgrid crisp" transform="translate(366.57,0)" d="M0,50v311" style="stroke: rgb(0, 0, 0); stroke-opacity: 0.05; stroke-width: 1px;"/><path class="xgrid crisp" transform="translate(379.86,0)" d="M0,50v311" style="stroke: rgb(0, 0, 0); stroke-opacity: 0.05; stroke-width: 1px;"/><path class="xgrid crisp" transform="translate(393.14,0)" d="M0,50v311" style="stroke: rgb(0, 0, 0); stroke-opacity: 0.05; stroke-width: 1px;"/><path class="xgrid crisp" transform="translate(406.43,0)" d="M0,50v311" style="stroke: rgb(0, 0, 0); stroke-opacity: 0.05; stroke-width: 1px;"/><path class="xgrid crisp" transform="translate(419.71,0)" d="M0,50v311" style="stroke: rgb(0, 0, 0); stroke-opacity: 0.05; stroke-width: 1px;"/><path class="xgrid crisp" transform="translate(433,0)" d="M0,50v311" style="stroke: rgb(0, 0, 0); stroke-opacity: 0.05; stroke-width: 1px;"/><path class="xgrid crisp" transform="translate(446.29,0)" d="M0,50v311" style="stroke: rgb(0, 0, 0); stroke-opacity: 0.05; stroke-width: 1px;"/><path class="xgrid crisp" transform="translate(459.57,0)" d="M0,50v311" style="stroke: rgb(0, 0, 0); stroke-opacity: 0.05; stroke-width: 1px;"/><path class="xgrid crisp" transform="translate(472.86,0)" d="M0,50v311" style="stroke: rgb(0, 0, 0); stroke-opacity: 0.05; stroke-width: 1px;"/><path class="xgrid crisp" transform="translate(486.14,0)" d="M0,50v311" style="stroke: rgb(0, 0, 0); stroke-opacity: 0.05; stroke-width: 1px;"/><path class="xgrid crisp" transform="translate(499.43,0)" d="M0,50v311" style="stroke: rgb(0, 0, 0); stroke-opacity: 0.05; stroke-width: 1px;"/><path class="xgrid crisp" transform="translate(512.71,0)" d="M0,50v311" style="stroke: rgb(0, 0, 0); stroke-opacity: 0.05; stroke-width: 1px;"/><path class="xgrid crisp" transform="translate(526,0)" d="M0,50v311" style="stroke: rgb(0, 0, 0); stroke-opacity: 0.05; stroke-width: 1px;"/><path class="xgrid crisp" transform="translate(539.29,0)" d="M0,50v311" style="stroke: rgb(0, 0, 0); stroke-opacity: 0.05; stroke-width: 1px;"/><path class="xgrid crisp" transform="translate(552.5699999999999,0)" d="M0,50v311" style="stroke: rgb(0, 0, 0); stroke-opacity: 0.05; stroke-width: 1px;"/><path class="xgrid crisp" transform="translate(565.86,0)" d="M0,50v311" style="stroke: rgb(0, 0, 0); stroke-opacity: 0.05; stroke-width: 1px;"/><path class="xgrid crisp" transform="translate(579.14,0)" d="M0,50v311" style="stroke: rgb(0, 0, 0); stroke-opacity: 0.05; stroke-width: 1px;"/><path class="xgrid crisp" transform="translate(592.43,0)" d="M0,50v311" style="stroke: rgb(0, 0, 0); stroke-opacity: 0.05; stroke-width: 1px;"/><path class="xgrid crisp" transform="translate(605.71,0)" d="M0,50v311" style="stroke: rgb(0, 0, 0); stroke-opacity: 0.05; stroke-width: 1px;"/><path class="xgrid crisp" transform="translate(619,0)" d="M0,50v311" style="stroke: rgb(0, 0, 0); stroke-opacity: 0.05; stroke-width: 1px;"/><path class="xgrid crisp" transform="translate(632.29,0)" d="M0,50v311" style="stroke: rgb(0, 0, 0); stroke-opacity: 0.05; stroke-width: 1px;"/><path class="xgrid crisp" transform="translate(645.57,0)" d="M0,50v311" style="stroke: rgb(0, 0, 0); stroke-opacity: 0.05; stroke-width: 1px;"/><path class="xgrid crisp" transform="translate(658.86,0)" d="M0,50v311" style="stroke: rgb(0, 0, 0); stroke-opacity: 0.05; stroke-width: 1px;"/><path class="xgrid crisp" transform="translate(672.14,0)" d="M0,50v311" style="stroke: rgb(0, 0, 0); stroke-opacity: 0.05; stroke-width: 1px;"/><path class="xgrid crisp" transform="translate(685.43,0)" d="M0,50v311" style="stroke: rgb(0, 0, 0); stroke-opacity: 0.05; stroke-width: 1px;"/><path class="xgrid crisp" transform="translate(698.71,0)" d="M0,50v311" style="stroke: rgb(0, 0, 0); stroke-opacity: 0.05; stroke-width: 1px;"/><path class="xgrid crisp" transform="translate(712,0)" d="M0,50v311" style="stroke: rgb(0, 0, 0); stroke-opacity: 0.05; stroke-width: 1px;"/><path class="xgrid crisp" transform="translate(725.29,0)" d="M0,50v311" style="stroke: rgb(0, 0, 0); stroke-opacity: 0.05; stroke-width: 1px;"/><path class="xgrid crisp" transform="translate(738.57,0)" d="M0,50v311" style="stroke: rgb(0, 0, 0); stroke-opacity: 0.05; stroke-width: 1px;"/><path class="xgrid crisp" transform="translate(751.86,0)" d="M0,50v311" style="stroke: rgb(0, 0, 0); stroke-opacity: 0.05; stroke-width: 1px;"/><path class="xgrid crisp" transform="translate(765.14,0)" d="M0,50v311" style="stroke: rgb(0, 0, 0); stroke-opacity: 0.05; stroke-width: 1px;"/><path class="xgrid crisp" transform="translate(778.43,0)" d="M0,50v311" style="stroke: rgb(0, 0, 0); stroke-opacity: 0.05; stroke-width: 1px;"/><path class="xgrid crisp" transform="translate(791.71,0)" d="M0,50v311" style="stroke: rgb(0, 0, 0); stroke-opacity: 0.05; stroke-width: 1px;"/><path class="xgrid crisp" transform="translate(805,0)" d="M0,50v311" style="stroke: rgb(0, 0, 0); stroke-opacity: 0.05; stroke-width: 1px;"/><path class="xgrid crisp" transform="translate(818.29,0)" d="M0,50v311" style="stroke: rgb(0, 0, 0); stroke-opacity: 0.05; stroke-width: 1px;"/><path class="xgrid crisp" transform="translate(831.57,0)" d="M0,50v311" style="stroke: rgb(0, 0, 0); stroke-opacity: 0.05; stroke-width: 1px;"/><path class="xgrid crisp" transform="translate(844.86,0)" d="M0,50v311" style="stroke: rgb(0, 0, 0); stroke-opacity: 0.05; stroke-width: 1px;"/><path class="xgrid crisp" transform="translate(858.14,0)" d="M0,50v311" style="stroke: rgb(0, 0, 0); stroke-opacity: 0.05; stroke-width: 1px;"/><path class="xgrid crisp" transform="translate(871.43,0)" d="M0,50v311" style="stroke: rgb(0, 0, 0); stroke-opacity: 0.05; stroke-width: 1px;"/><path class="xgrid crisp" transform="translate(884.71,0)" d="M0,50v311" style="stroke: rgb(0, 0, 0); stroke-opacity: 0.05; stroke-width: 1px;"/><path class="xgrid crisp" transform="translate(898,0)" d="M0,50v311" style="stroke: rgb(0, 0, 0); stroke-opacity: 0.05; stroke-width: 1px;"/><path class="xgrid crisp" transform="translate(911.29,0)" d="M0,50v311" style="stroke: rgb(0, 0, 0); stroke-opacity: 0.05; stroke-width: 1px;"/><path class="xgrid crisp" transform="translate(924.57,0)" d="M0,50v311" style="stroke: rgb(0, 0, 0); stroke-opacity: 0.05; stroke-width: 1px;"/><path class="xgrid crisp" transform="translate(937.86,0)" d="M0,50v311" style="stroke: rgb(0, 0, 0); stroke-opacity: 0.05; stroke-width: 1px;"/><path class="xgrid crisp" transform="translate(951.14,0)" d="M0,50v311" style="stroke: rgb(0, 0, 0); stroke-opacity: 0.05; stroke-width: 1px;"/><path class="xgrid crisp" transform="translate(964.43,0)" d="M0,50v311" style="stroke: rgb(0, 0, 0); stroke-opacity: 0.05; stroke-width: 1px;"/><path class="xgrid crisp" transform="translate(977.71,0)" d="M0,50v311" style="stroke: rgb(0, 0, 0); stroke-opacity: 0.05; stroke-width: 1px;"/><path class="xgrid crisp" transform="translate(991,0)" d="M0,50v311" style="stroke: rgb(0, 0, 0); stroke-opacity: 0.05; stroke-width: 1px;"/><path class="xgrid crisp" transform="translate(1004.29,0)" d="M0,50v311" style="stroke: rgb(0, 0, 0); stroke-opacity: 0.05; stroke-width: 1px;"/><path class="xgrid crisp" transform="translate(1017.57,0)" d="M0,50v311" style="stroke: rgb(0, 0, 0); stroke-opacity: 0.05; stroke-width: 1px;"/><path class="xgrid crisp" transform="translate(1030.8600000000001,0)" d="M0,50v311" style="stroke: rgb(0, 0, 0); stroke-opacity: 0.05; stroke-width: 1px;"/><path class="xgrid crisp" transform="translate(1044.1399999999999,0)" d="M0,50v311" style="stroke: rgb(0, 0, 0); stroke-opacity: 0.05; stroke-width: 1px;"/><path class="xgrid crisp" transform="translate(1057.4299999999998,0)" d="M0,50v311" style="stroke: rgb(0, 0, 0); stroke-opacity: 0.05; stroke-width: 1px;"/><path class="xgrid crisp" transform="translate(1070.71,0)" d="M0,50v311" style="stroke: rgb(0, 0, 0); stroke-opacity: 0.05; stroke-width: 1px;"/></g><g class="y"><path class="ygrid crisp" transform="translate(0,344.05)" d="M61,0h1023" style="stroke: rgb(0, 0, 0); stroke-opacity: 0.05; stroke-width: 1px;"/><path class="ygrid crisp" transform="translate(0,300.44)" d="M61,0h1023" style="stroke: rgb(0, 0, 0); stroke-opacity: 0.05; stroke-width: 1px;"/><path class="ygrid crisp" transform="translate(0,256.84000000000003)" d="M61,0h1023" style="stroke: rgb(0, 0, 0); stroke-opacity: 0.05; stroke-width: 1px;"/><path class="ygrid crisp" transform="translate(0,213.23)" d="M61,0h1023" style="stroke: rgb(0, 0, 0); stroke-opacity: 0.05; stroke-width: 1px;"/><path class="ygrid crisp" transform="translate(0,169.62)" d="M61,0h1023" style="stroke: rgb(0, 0, 0); stroke-opacity: 0.05; stroke-width: 1px;"/><path class="ygrid crisp" transform="translate(0,126.02)" d="M61,0h1023" style="stroke: rgb(0, 0, 0); stroke-opacity: 0.05; stroke-width: 1px;"/><path class="ygrid crisp" transform="translate(0,82.41)" d="M61,0h1023" style="stroke: rgb(0, 0, 0); stroke-opacity: 0.05; stroke-width: 1px;"/></g></g><g class="zerolinelayer"/><g class="layer-between"><g class="shapelayer"/><g class="imagelayer"/></g><path class="xlines-below"/><path class="ylines-below"/><g class="overlines-below"/><g class="xaxislayer-below"/><g class="yaxislayer-below"/><g class="overaxes-below"/><g class="overplot"><g class="xy" transform="translate(61,50)" clip-path="url(#clip607770xyplot)"><g class="scatterlayer mlayer"><g class="trace scatter tracec13732" style="stroke-miterlimit: 2; opacity: 1;"><g class="fills"/><g class="errorbars"/><g class="lines"><path class="js-line" d="M0,156.02L13.29,138.05L26.57,129.97L39.86,98.27L53.14,101.73L66.43,120.34L79.71,118.9L93,123.17L106.29,95.99L119.57,120.97L132.86,137.56L146.14,114.18L159.43,109.73L186,80.09L199.29,155.71L212.57,63.63L225.86,102.82L239.14,117.25L252.43,76.4L265.71,105.21L279,94.45L292.29,121.45L305.57,111.48L318.86,112.26L332.14,64.32L345.43,106.26L358.71,118.47L372,92.92L385.29,104.82L398.57,106.61L411.86,143.38L425.14,109.44L438.43,101.19L451.71,93.13L465,112.88L478.29,125.34L491.57,99.6L504.86,117.21L518.14,96.89L531.43,111.49L544.71,84.77L558,35.47L571.29,117.75L584.57,84.06L597.86,82.08L611.14,105.49L624.43,116.55L637.71,85.01L651,110.92L664.29,106.75L677.57,93.84L690.86,107.47L704.14,111.52L717.43,103.22L730.71,164.15L757.29,57.57L770.57,101.2L783.86,128.83L797.14,114.2L810.43,108.65L823.71,60.13L837,128.9L850.29,142.03L863.57,47.98L876.86,114.65L890.14,106.35L903.43,80.26L916.71,52.41L930,103.86L943.29,109.08L956.57,115.65L969.86,121.45L983.14,94.11L996.43,109.78L1009.71,85.55L1023,74.24" style="vector-effect: none; fill: none; stroke: rgb(124, 181, 236); stroke-opacity: 1; stroke-width: 2px; opacity: 1;"/></g><g class="points"/><g class="text"/></g><g class="trace scatter tracec765f1" style="stroke-miterlimit: 2; opacity: 1;"><g class="fills"/><g class="errorbars"/><g class="lines"><path class="js-line" d="M0,121.33L13.29,102.38L26.57,102.85L39.86,219.73L53.14,110.73L66.43,116.94L79.71,80.12L93,110.9L106.29,191.5L119.57,92L132.86,92.48L146.14,112.23L159.43,125.41L172.71,238.25L186,223.79L199.29,100.43L212.57,64.8L225.86,116.96L239.14,103.29L252.43,227.59L265.71,123.93L279,128.97L292.29,117.77L305.57,254.92L318.86,134.93L332.14,158.95L345.43,191.23L358.71,117.29L372,295.45L385.29,125.07L398.57,185.69L411.86,106.81L425.14,141.55L438.43,239.2L451.71,98.02L465,62.55L478.29,104.96L491.57,154.79L504.86,111.3L518.14,138.53L531.43,126.61L544.71,192.18L558,41.07L571.29,129.03L584.57,257.29L597.86,67.46L611.14,95.46L624.43,86.82L637.71,102.21L651,204.24L664.29,155.63L677.57,103.17L690.86,121.04L704.14,118.3L717.43,124.62L730.71,104.29L744,138L757.29,203.56L770.57,100.63L783.86,115L797.14,124.73L810.43,125.57L823.71,155.48L837,125.85L850.29,120.27L863.57,164.5L876.86,117L890.14,116.08L903.43,214.99L916.71,48.28L930,187.43L943.29,106.31L956.57,106.91L969.86,107.53L983.14,125.1L996.43,104.91L1009.71,260L1023,76.18" style="vector-effect: none; fill: none; stroke: rgb(67, 67, 72); stroke-opacity: 1; stroke-width: 2px; opacity: 1;"/></g><g class="points"/><g class="text"/></g><g class="trace scatter tracef714d7" style="stroke-miterlimit: 2; opacity: 1;"><g class="fills"/><g class="errorbars"/><g class="lines"><path class="js-line" d="M0,152.26L13.29,149.96L26.57,128.81L39.86,92.54L53.14,98.91L66.43,127.49L79.71,169L93,162.05L106.29,104.04L119.57,140.83L132.86,196.21L146.14,106.58L159.43,121.14L172.71,88.13L186,78.47L199.29,213.14L212.57,59.12L225.86,115.31L239.14,147.69L252.43,81.17L265.71,106.82L279,83.42L292.29,115.92L305.57,101.89L318.86,114.94L332.14,71.47L345.43,99.89L358.71,119.52L372,74.7L385.29,106.14L398.57,99.07L411.86,207.03L425.14,96.07L438.43,88.33L451.71,135.3L465,220.82L478.29,143.08L491.57,90.51L504.86,116.12L518.14,94.8L531.43,128.32L544.71,84.2L558,28.57L571.29,98.48L584.57,95.93L597.86,94.41L611.14,109.09L624.43,139.89L637.71,88.49L651,91.9L664.29,96.74L677.57,84.68L690.86,90.95L704.14,112.13L717.43,104.67L730.71,188.13L744,107L757.29,61.09L770.57,106.84L783.86,135.03L797.14,113.76L810.43,128.08L823.71,64.9L837,145.19L850.29,151.87L863.57,58.09L876.86,112.84L890.14,110.07L903.43,95.6L916.71,53.91L930,99.55L943.29,94.99L956.57,129.48L969.86,126.7L983.14,82.1L996.43,106.31L1009.71,97.39L1023,69.16" style="vector-effect: none; fill: none; stroke: rgb(144, 237, 125); stroke-opacity: 1; stroke-width: 2px; opacity: 1;"/></g><g class="points"/><g class="text"/></g><g class="trace scatter trace82178e" style="stroke-miterlimit: 2; opacity: 1;"><g class="fills"/><g class="errorbars"/><g class="lines"><path class="js-line" d="M0,86.21L13.29,88.41L26.57,101.23L39.86,245.19L53.14,101.36L66.43,108.31L79.71,73.62L93,89.58L106.29,191.33L119.57,93.82L132.86,118.95L159.43,116.96L172.71,219.47L186,240.83L199.29,97.64L212.57,77.7L225.86,111.36L239.14,90.05L252.43,218.77L265.71,107.54L279,146.09L292.29,106.54L305.57,240.28L318.86,123.21L332.14,123.71L345.43,153.38L358.71,112.12L372,286.8L385.29,124.14L398.57,160.85L411.86,98.04L425.14,146.2L438.43,220.97L451.71,86.73L465,57.35L478.29,135.5L491.57,148.96L504.86,123.43L518.14,117.7L531.43,125.22L544.71,192.3L558,57.6L571.29,126.82L584.57,238.72L597.86,87.39L611.14,104.06L624.43,82.47L637.71,100.43L651,182.44L664.29,154.12L677.57,109.77L690.86,115.05L704.14,121.74L717.43,105.95L730.71,92.9L744,125.66L757.29,195.72L770.57,83.56L783.86,102.55L797.14,110.83L810.43,123.51L823.71,162.23L837,102.85L850.29,93.03L863.57,163.32L876.86,119.38L890.14,114.37L903.43,221.77L916.71,67.47L930,181.4L943.29,109.68L956.57,100.37L969.86,115.24L983.14,117.49L996.43,106.68L1009.71,245.19L1023,94.21" style="vector-effect: none; fill: none; stroke: rgb(247, 163, 92); stroke-opacity: 1; stroke-width: 2px; opacity: 1;"/></g><g class="points"/><g class="text"/></g><g class="trace scatter trace1dada9" style="stroke-miterlimit: 2; opacity: 1;"><g class="fills"/><g class="errorbars"/><g class="lines"><path class="js-line" d="M0,152.58L13.29,155.31L26.57,134.05L39.86,103.75L53.14,111.21L66.43,129.13L79.71,142.45L93,171.41L106.29,96.37L119.57,138.46L132.86,217.57L146.14,119.11L159.43,112.35L172.71,97.16L186,79.75L199.29,247.63L212.57,48.16L225.86,101.05L239.14,148.37L252.43,90.43L265.71,117.73L279,93.33L292.29,127.13L305.57,119.42L318.86,103.61L332.14,74.93L345.43,120.23L358.71,119.08L372,120.16L385.29,117.53L398.57,103.08L411.86,190.07L425.14,104.72L438.43,111.49L451.71,115.85L465,207.99L478.29,115.76L491.57,116.79L504.86,119.52L518.14,103.58L531.43,114.82L544.71,84.85L558,15.55L571.29,126.09L584.57,88.23L597.86,65.98L611.14,118.9L624.43,160.14L637.71,91.63L651,116.61L664.29,114.81L677.57,112.52L690.86,112.92L704.14,124.36L717.43,114.01L730.71,178.03L744,117.47L757.29,62.52L770.57,101.97L783.86,134.4L797.14,135.52L810.43,119.46L823.71,66.22L837,108.6L850.29,147.73L863.57,57.44L876.86,113.15L890.14,116.47L903.43,89.6L916.71,33.85L930,105.29L943.29,107.19L956.57,133.38L969.86,132.46L983.14,108.93L996.43,110.4L1009.71,104.71L1023,60.05" style="vector-effect: none; fill: none; stroke: rgb(128, 133, 233); stroke-opacity: 1; stroke-width: 2px; opacity: 1;"/></g><g class="points"/><g class="text"/></g><g class="trace scatter tracea52ae6" style="stroke-miterlimit: 2; opacity: 1;"><g class="fills"/><g class="errorbars"/><g class="lines"><path class="js-line" d="M0,171.27L13.29,153.91L26.57,140.05L39.86,97.12L53.14,101.98L66.43,128.23L79.71,144.56L93,156.95L106.29,101.61L132.86,167.85L146.14,121.87L159.43,114.54L172.71,91.01L186,76.63L199.29,176.12L212.57,51.53L225.86,105.24L239.14,126.4L252.43,81.25L265.71,102.11L279,89.74L292.29,121.57L305.57,103.38L318.86,111.96L332.14,67.27L345.43,111.51L358.71,118.7L372,84.65L385.29,111.45L398.57,96.74L411.86,178.67L425.14,108.91L438.43,97.22L451.71,106.86L465,204.95L478.29,119.15L491.57,94.03L504.86,115.23L518.14,86.16L531.43,115.13L544.71,83L558,28.02L571.29,118.46L584.57,85.59L597.86,69.44L611.14,106.55L624.43,139.59L637.71,92.8L651,104.61L664.29,102.21L677.57,97.23L690.86,105.87L704.14,106.92L717.43,102.34L730.71,177.98L744,108.64L757.29,58.63L770.57,106.22L783.86,132.84L797.14,121.81L810.43,117.32L823.71,60.93L837,142.8L850.29,159.33L863.57,49.79L876.86,116.49L890.14,111.47L903.43,83.66L916.71,48.06L930,102.22L943.29,109.87L956.57,124.53L969.86,122.4L983.14,88.53L996.43,108.64L1023,67.9" style="vector-effect: none; fill: none; stroke: rgb(241, 92, 128); stroke-opacity: 1; stroke-width: 2px; opacity: 1;"/></g><g class="points"/><g class="text"/></g></g></g></g><path class="xlines-above crisp" d="M0,0" style="fill: none;"/><path class="ylines-above crisp" d="M0,0" style="fill: none;"/><g class="overlines-above"/><g class="xaxislayer-above"><g class="xtick"><text text-anchor="start" x="0" y="377" transform="translate(61,0) rotate(90,0,372)" style="font-family: 'Lucida Grande', 'Open Sans', verdana, arial, sans-serif; font-size: 10px; fill: rgb(0, 0, 0); fill-opacity: 1; white-space: pre; opacity: 1;">JAKSZP010000259.1</text></g><g class="xtick"><text text-anchor="start" x="0" y="377" transform="translate(74.28999999999999,0) rotate(90,0,372)" style="font-family: 'Lucida Grande', 'Open Sans', verdana, arial, sans-serif; font-size: 10px; fill: rgb(0, 0, 0); fill-opacity: 1; white-space: pre; opacity: 1;">JAKSZP010000397.1</text></g><g class="xtick"><text text-anchor="start" x="0" y="377" transform="translate(87.57,0) rotate(90,0,372)" style="font-family: 'Lucida Grande', 'Open Sans', verdana, arial, sans-serif; font-size: 10px; fill: rgb(0, 0, 0); fill-opacity: 1; white-space: pre; opacity: 1;">JAKSZP010000656.1</text></g><g class="xtick"><text text-anchor="start" x="0" y="377" transform="translate(100.86,0) rotate(90,0,372)" style="font-family: 'Lucida Grande', 'Open Sans', verdana, arial, sans-serif; font-size: 10px; fill: rgb(0, 0, 0); fill-opacity: 1; white-space: pre; opacity: 1;">JAKSZP010000969.1</text></g><g class="xtick"><text text-anchor="start" x="0" y="377" transform="translate(114.14,0) rotate(90,0,372)" style="font-family: 'Lucida Grande', 'Open Sans', verdana, arial, sans-serif; font-size: 10px; fill: rgb(0, 0, 0); fill-opacity: 1; white-space: pre; opacity: 1;">JAKSZP010001341.1</text></g><g class="xtick"><text text-anchor="start" x="0" y="377" transform="translate(127.43,0) rotate(90,0,372)" style="font-family: 'Lucida Grande', 'Open Sans', verdana, arial, sans-serif; font-size: 10px; fill: rgb(0, 0, 0); fill-opacity: 1; white-space: pre; opacity: 1;">JAKSZP010001378.1</text></g><g class="xtick"><text text-anchor="start" x="0" y="377" transform="translate(140.70999999999998,0) rotate(90,0,372)" style="font-family: 'Lucida Grande', 'Open Sans', verdana, arial, sans-serif; font-size: 10px; fill: rgb(0, 0, 0); fill-opacity: 1; white-space: pre; opacity: 1;">JAKSZP010001433.1</text></g><g class="xtick"><text text-anchor="start" x="0" y="377" transform="translate(154,0) rotate(90,0,372)" style="font-family: 'Lucida Grande', 'Open Sans', verdana, arial, sans-serif; font-size: 10px; fill: rgb(0, 0, 0); fill-opacity: 1; white-space: pre; opacity: 1;">JAKSZP010001453.1</text></g><g class="xtick"><text text-anchor="start" x="0" y="377" transform="translate(167.29000000000002,0) rotate(90,0,372)" style="font-family: 'Lucida Grande', 'Open Sans', verdana, arial, sans-serif; font-size: 10px; fill: rgb(0, 0, 0); fill-opacity: 1; white-space: pre; opacity: 1;">JAKSZP010001488.1</text></g><g class="xtick"><text text-anchor="start" x="0" y="377" transform="translate(180.57,0) rotate(90,0,372)" style="font-family: 'Lucida Grande', 'Open Sans', verdana, arial, sans-serif; font-size: 10px; fill: rgb(0, 0, 0); fill-opacity: 1; white-space: pre; opacity: 1;">JAKSZP010002298.1</text></g><g class="xtick"><text text-anchor="start" x="0" y="377" transform="translate(193.86,0) rotate(90,0,372)" style="font-family: 'Lucida Grande', 'Open Sans', verdana, arial, sans-serif; font-size: 10px; fill: rgb(0, 0, 0); fill-opacity: 1; white-space: pre; opacity: 1;">JAKSZP010002857.1</text></g><g class="xtick"><text text-anchor="start" x="0" y="377" transform="translate(207.14,0) rotate(90,0,372)" style="font-family: 'Lucida Grande', 'Open Sans', verdana, arial, sans-serif; font-size: 10px; fill: rgb(0, 0, 0); fill-opacity: 1; white-space: pre; opacity: 1;">JAKSZP010002906.1</text></g><g class="xtick"><text text-anchor="start" x="0" y="377" transform="translate(220.43,0) rotate(90,0,372)" style="font-family: 'Lucida Grande', 'Open Sans', verdana, arial, sans-serif; font-size: 10px; fill: rgb(0, 0, 0); fill-opacity: 1; white-space: pre; opacity: 1;">JAKSZP010002907.1</text></g><g class="xtick"><text text-anchor="start" x="0" y="377" transform="translate(233.71,0) rotate(90,0,372)" style="font-family: 'Lucida Grande', 'Open Sans', verdana, arial, sans-serif; font-size: 10px; fill: rgb(0, 0, 0); fill-opacity: 1; white-space: pre; opacity: 1;">JAKSZP010003046.1</text></g><g class="xtick"><text text-anchor="start" x="0" y="377" transform="translate(247,0) rotate(90,0,372)" style="font-family: 'Lucida Grande', 'Open Sans', verdana, arial, sans-serif; font-size: 10px; fill: rgb(0, 0, 0); fill-opacity: 1; white-space: pre; opacity: 1;">JAKSZP010003157.1</text></g><g class="xtick"><text text-anchor="start" x="0" y="377" transform="translate(260.28999999999996,0) rotate(90,0,372)" style="font-family: 'Lucida Grande', 'Open Sans', verdana, arial, sans-serif; font-size: 10px; fill: rgb(0, 0, 0); fill-opacity: 1; white-space: pre; opacity: 1;">JAKSZP010003298.1</text></g><g class="xtick"><text text-anchor="start" x="0" y="377" transform="translate(273.57,0) rotate(90,0,372)" style="font-family: 'Lucida Grande', 'Open Sans', verdana, arial, sans-serif; font-size: 10px; fill: rgb(0, 0, 0); fill-opacity: 1; white-space: pre; opacity: 1;">JAKSZP010003936.1</text></g><g class="xtick"><text text-anchor="start" x="0" y="377" transform="translate(286.86,0) rotate(90,0,372)" style="font-family: 'Lucida Grande', 'Open Sans', verdana, arial, sans-serif; font-size: 10px; fill: rgb(0, 0, 0); fill-opacity: 1; white-space: pre; opacity: 1;">JAKSZP010004139.1</text></g><g class="xtick"><text text-anchor="start" x="0" y="377" transform="translate(300.14,0) rotate(90,0,372)" style="font-family: 'Lucida Grande', 'Open Sans', verdana, arial, sans-serif; font-size: 10px; fill: rgb(0, 0, 0); fill-opacity: 1; white-space: pre; opacity: 1;">JAKSZP010004140.1</text></g><g class="xtick"><text text-anchor="start" x="0" y="377" transform="translate(313.43,0) rotate(90,0,372)" style="font-family: 'Lucida Grande', 'Open Sans', verdana, arial, sans-serif; font-size: 10px; fill: rgb(0, 0, 0); fill-opacity: 1; white-space: pre; opacity: 1;">JAKSZP010004212.1</text></g><g class="xtick"><text text-anchor="start" x="0" y="377" transform="translate(326.71,0) rotate(90,0,372)" style="font-family: 'Lucida Grande', 'Open Sans', verdana, arial, sans-serif; font-size: 10px; fill: rgb(0, 0, 0); fill-opacity: 1; white-space: pre; opacity: 1;">JAKSZP010004398.1</text></g><g class="xtick"><text text-anchor="start" x="0" y="377" transform="translate(340,0) rotate(90,0,372)" style="font-family: 'Lucida Grande', 'Open Sans', verdana, arial, sans-serif; font-size: 10px; fill: rgb(0, 0, 0); fill-opacity: 1; white-space: pre; opacity: 1;">JAKSZP010004608.1</text></g><g class="xtick"><text text-anchor="start" x="0" y="377" transform="translate(353.29,0) rotate(90,0,372)" style="font-family: 'Lucida Grande', 'Open Sans', verdana, arial, sans-serif; font-size: 10px; fill: rgb(0, 0, 0); fill-opacity: 1; white-space: pre; opacity: 1;">JAKSZP010005423.1</text></g><g class="xtick"><text text-anchor="start" x="0" y="377" transform="translate(366.57,0) rotate(90,0,372)" style="font-family: 'Lucida Grande', 'Open Sans', verdana, arial, sans-serif; font-size: 10px; fill: rgb(0, 0, 0); fill-opacity: 1; white-space: pre; opacity: 1;">JAKSZP010005868.1</text></g><g class="xtick"><text text-anchor="start" x="0" y="377" transform="translate(379.86,0) rotate(90,0,372)" style="font-family: 'Lucida Grande', 'Open Sans', verdana, arial, sans-serif; font-size: 10px; fill: rgb(0, 0, 0); fill-opacity: 1; white-space: pre; opacity: 1;">JAKSZP010006348.1</text></g><g class="xtick"><text text-anchor="start" x="0" y="377" transform="translate(393.14,0) rotate(90,0,372)" style="font-family: 'Lucida Grande', 'Open Sans', verdana, arial, sans-serif; font-size: 10px; fill: rgb(0, 0, 0); fill-opacity: 1; white-space: pre; opacity: 1;">JAKSZP010006629.1</text></g><g class="xtick"><text text-anchor="start" x="0" y="377" transform="translate(406.43,0) rotate(90,0,372)" style="font-family: 'Lucida Grande', 'Open Sans', verdana, arial, sans-serif; font-size: 10px; fill: rgb(0, 0, 0); fill-opacity: 1; white-space: pre; opacity: 1;">JAKSZP010006768.1</text></g><g class="xtick"><text text-anchor="start" x="0" y="377" transform="translate(419.71,0) rotate(90,0,372)" style="font-family: 'Lucida Grande', 'Open Sans', verdana, arial, sans-serif; font-size: 10px; fill: rgb(0, 0, 0); fill-opacity: 1; white-space: pre; opacity: 1;">JAKSZP010006970.1</text></g><g class="xtick"><text text-anchor="start" x="0" y="377" transform="translate(433,0) rotate(90,0,372)" style="font-family: 'Lucida Grande', 'Open Sans', verdana, arial, sans-serif; font-size: 10px; fill: rgb(0, 0, 0); fill-opacity: 1; white-space: pre; opacity: 1;">JAKSZP010007410.1</text></g><g class="xtick"><text text-anchor="start" x="0" y="377" transform="translate(446.29,0) rotate(90,0,372)" style="font-family: 'Lucida Grande', 'Open Sans', verdana, arial, sans-serif; font-size: 10px; fill: rgb(0, 0, 0); fill-opacity: 1; white-space: pre; opacity: 1;">JAKSZP010008110.1</text></g><g class="xtick"><text text-anchor="start" x="0" y="377" transform="translate(459.57,0) rotate(90,0,372)" style="font-family: 'Lucida Grande', 'Open Sans', verdana, arial, sans-serif; font-size: 10px; fill: rgb(0, 0, 0); fill-opacity: 1; white-space: pre; opacity: 1;">JAKSZP010008292.1</text></g><g class="xtick"><text text-anchor="start" x="0" y="377" transform="translate(472.86,0) rotate(90,0,372)" style="font-family: 'Lucida Grande', 'Open Sans', verdana, arial, sans-serif; font-size: 10px; fill: rgb(0, 0, 0); fill-opacity: 1; white-space: pre; opacity: 1;">JAKSZP010009203.1</text></g><g class="xtick"><text text-anchor="start" x="0" y="377" transform="translate(486.14,0) rotate(90,0,372)" style="font-family: 'Lucida Grande', 'Open Sans', verdana, arial, sans-serif; font-size: 10px; fill: rgb(0, 0, 0); fill-opacity: 1; white-space: pre; opacity: 1;">JAKSZP010009300.1</text></g><g class="xtick"><text text-anchor="start" x="0" y="377" transform="translate(499.43,0) rotate(90,0,372)" style="font-family: 'Lucida Grande', 'Open Sans', verdana, arial, sans-serif; font-size: 10px; fill: rgb(0, 0, 0); fill-opacity: 1; white-space: pre; opacity: 1;">JAKSZP010009329.1</text></g><g class="xtick"><text text-anchor="start" x="0" y="377" transform="translate(512.71,0) rotate(90,0,372)" style="font-family: 'Lucida Grande', 'Open Sans', verdana, arial, sans-serif; font-size: 10px; fill: rgb(0, 0, 0); fill-opacity: 1; white-space: pre; opacity: 1;">JAKSZP010009410.1</text></g><g class="xtick"><text text-anchor="start" x="0" y="377" transform="translate(526,0) rotate(90,0,372)" style="font-family: 'Lucida Grande', 'Open Sans', verdana, arial, sans-serif; font-size: 10px; fill: rgb(0, 0, 0); fill-opacity: 1; white-space: pre; opacity: 1;">JAKSZP010010022.1</text></g><g class="xtick"><text text-anchor="start" x="0" y="377" transform="translate(539.29,0) rotate(90,0,372)" style="font-family: 'Lucida Grande', 'Open Sans', verdana, arial, sans-serif; font-size: 10px; fill: rgb(0, 0, 0); fill-opacity: 1; white-space: pre; opacity: 1;">JAKSZP010010360.1</text></g><g class="xtick"><text text-anchor="start" x="0" y="377" transform="translate(552.5699999999999,0) rotate(90,0,372)" style="font-family: 'Lucida Grande', 'Open Sans', verdana, arial, sans-serif; font-size: 10px; fill: rgb(0, 0, 0); fill-opacity: 1; white-space: pre; opacity: 1;">JAKSZP010010569.1</text></g><g class="xtick"><text text-anchor="start" x="0" y="377" transform="translate(565.86,0) rotate(90,0,372)" style="font-family: 'Lucida Grande', 'Open Sans', verdana, arial, sans-serif; font-size: 10px; fill: rgb(0, 0, 0); fill-opacity: 1; white-space: pre; opacity: 1;">JAKSZP010010638.1</text></g><g class="xtick"><text text-anchor="start" x="0" y="377" transform="translate(579.14,0) rotate(90,0,372)" style="font-family: 'Lucida Grande', 'Open Sans', verdana, arial, sans-serif; font-size: 10px; fill: rgb(0, 0, 0); fill-opacity: 1; white-space: pre; opacity: 1;">JAKSZP010010727.1</text></g><g class="xtick"><text text-anchor="start" x="0" y="377" transform="translate(592.43,0) rotate(90,0,372)" style="font-family: 'Lucida Grande', 'Open Sans', verdana, arial, sans-serif; font-size: 10px; fill: rgb(0, 0, 0); fill-opacity: 1; white-space: pre; opacity: 1;">JAKSZP010010751.1</text></g><g class="xtick"><text text-anchor="start" x="0" y="377" transform="translate(605.71,0) rotate(90,0,372)" style="font-family: 'Lucida Grande', 'Open Sans', verdana, arial, sans-serif; font-size: 10px; fill: rgb(0, 0, 0); fill-opacity: 1; white-space: pre; opacity: 1;">JAKSZP010011111.1</text></g><g class="xtick"><text text-anchor="start" x="0" y="377" transform="translate(619,0) rotate(90,0,372)" style="font-family: 'Lucida Grande', 'Open Sans', verdana, arial, sans-serif; font-size: 10px; fill: rgb(0, 0, 0); fill-opacity: 1; white-space: pre; opacity: 1;">JAKSZP010011191.1</text></g><g class="xtick"><text text-anchor="start" x="0" y="377" transform="translate(632.29,0) rotate(90,0,372)" style="font-family: 'Lucida Grande', 'Open Sans', verdana, arial, sans-serif; font-size: 10px; fill: rgb(0, 0, 0); fill-opacity: 1; white-space: pre; opacity: 1;">JAKSZP010011400.1</text></g><g class="xtick"><text text-anchor="start" x="0" y="377" transform="translate(645.57,0) rotate(90,0,372)" style="font-family: 'Lucida Grande', 'Open Sans', verdana, arial, sans-serif; font-size: 10px; fill: rgb(0, 0, 0); fill-opacity: 1; white-space: pre; opacity: 1;">JAKSZP010011468.1</text></g><g class="xtick"><text text-anchor="start" x="0" y="377" transform="translate(658.86,0) rotate(90,0,372)" style="font-family: 'Lucida Grande', 'Open Sans', verdana, arial, sans-serif; font-size: 10px; fill: rgb(0, 0, 0); fill-opacity: 1; white-space: pre; opacity: 1;">JAKSZP010011738.1</text></g><g class="xtick"><text text-anchor="start" x="0" y="377" transform="translate(672.14,0) rotate(90,0,372)" style="font-family: 'Lucida Grande', 'Open Sans', verdana, arial, sans-serif; font-size: 10px; fill: rgb(0, 0, 0); fill-opacity: 1; white-space: pre; opacity: 1;">JAKSZP010011822.1</text></g><g class="xtick"><text text-anchor="start" x="0" y="377" transform="translate(685.43,0) rotate(90,0,372)" style="font-family: 'Lucida Grande', 'Open Sans', verdana, arial, sans-serif; font-size: 10px; fill: rgb(0, 0, 0); fill-opacity: 1; white-space: pre; opacity: 1;">JAKSZP010011897.1</text></g><g class="xtick"><text text-anchor="start" x="0" y="377" transform="translate(698.71,0) rotate(90,0,372)" style="font-family: 'Lucida Grande', 'Open Sans', verdana, arial, sans-serif; font-size: 10px; fill: rgb(0, 0, 0); fill-opacity: 1; white-space: pre; opacity: 1;">JAKSZP010012281.1</text></g><g class="xtick"><text text-anchor="start" x="0" y="377" transform="translate(712,0) rotate(90,0,372)" style="font-family: 'Lucida Grande', 'Open Sans', verdana, arial, sans-serif; font-size: 10px; fill: rgb(0, 0, 0); fill-opacity: 1; white-space: pre; opacity: 1;">JAKSZP010013147.1</text></g><g class="xtick"><text text-anchor="start" x="0" y="377" transform="translate(725.29,0) rotate(90,0,372)" style="font-family: 'Lucida Grande', 'Open Sans', verdana, arial, sans-serif; font-size: 10px; fill: rgb(0, 0, 0); fill-opacity: 1; white-space: pre; opacity: 1;">JAKSZP010013158.1</text></g><g class="xtick"><text text-anchor="start" x="0" y="377" transform="translate(738.57,0) rotate(90,0,372)" style="font-family: 'Lucida Grande', 'Open Sans', verdana, arial, sans-serif; font-size: 10px; fill: rgb(0, 0, 0); fill-opacity: 1; white-space: pre; opacity: 1;">JAKSZP010013190.1</text></g><g class="xtick"><text text-anchor="start" x="0" y="377" transform="translate(751.86,0) rotate(90,0,372)" style="font-family: 'Lucida Grande', 'Open Sans', verdana, arial, sans-serif; font-size: 10px; fill: rgb(0, 0, 0); fill-opacity: 1; white-space: pre; opacity: 1;">JAKSZP010013241.1</text></g><g class="xtick"><text text-anchor="start" x="0" y="377" transform="translate(765.14,0) rotate(90,0,372)" style="font-family: 'Lucida Grande', 'Open Sans', verdana, arial, sans-serif; font-size: 10px; fill: rgb(0, 0, 0); fill-opacity: 1; white-space: pre; opacity: 1;">JAKSZP010013366.1</text></g><g class="xtick"><text text-anchor="start" x="0" y="377" transform="translate(778.43,0) rotate(90,0,372)" style="font-family: 'Lucida Grande', 'Open Sans', verdana, arial, sans-serif; font-size: 10px; fill: rgb(0, 0, 0); fill-opacity: 1; white-space: pre; opacity: 1;">JAKSZP010013699.1</text></g><g class="xtick"><text text-anchor="start" x="0" y="377" transform="translate(791.71,0) rotate(90,0,372)" style="font-family: 'Lucida Grande', 'Open Sans', verdana, arial, sans-serif; font-size: 10px; fill: rgb(0, 0, 0); fill-opacity: 1; white-space: pre; opacity: 1;">JAKSZP010013765.1</text></g><g class="xtick"><text text-anchor="start" x="0" y="377" transform="translate(805,0) rotate(90,0,372)" style="font-family: 'Lucida Grande', 'Open Sans', verdana, arial, sans-serif; font-size: 10px; fill: rgb(0, 0, 0); fill-opacity: 1; white-space: pre; opacity: 1;">JAKSZP010014445.1</text></g><g class="xtick"><text text-anchor="start" x="0" y="377" transform="translate(818.29,0) rotate(90,0,372)" style="font-family: 'Lucida Grande', 'Open Sans', verdana, arial, sans-serif; font-size: 10px; fill: rgb(0, 0, 0); fill-opacity: 1; white-space: pre; opacity: 1;">JAKSZP010014506.1</text></g><g class="xtick"><text text-anchor="start" x="0" y="377" transform="translate(831.57,0) rotate(90,0,372)" style="font-family: 'Lucida Grande', 'Open Sans', verdana, arial, sans-serif; font-size: 10px; fill: rgb(0, 0, 0); fill-opacity: 1; white-space: pre; opacity: 1;">JAKSZP010014523.1</text></g><g class="xtick"><text text-anchor="start" x="0" y="377" transform="translate(844.86,0) rotate(90,0,372)" style="font-family: 'Lucida Grande', 'Open Sans', verdana, arial, sans-serif; font-size: 10px; fill: rgb(0, 0, 0); fill-opacity: 1; white-space: pre; opacity: 1;">JAKSZP010014547.1</text></g><g class="xtick"><text text-anchor="start" x="0" y="377" transform="translate(858.14,0) rotate(90,0,372)" style="font-family: 'Lucida Grande', 'Open Sans', verdana, arial, sans-serif; font-size: 10px; fill: rgb(0, 0, 0); fill-opacity: 1; white-space: pre; opacity: 1;">JAKSZP010014696.1</text></g><g class="xtick"><text text-anchor="start" x="0" y="377" transform="translate(871.43,0) rotate(90,0,372)" style="font-family: 'Lucida Grande', 'Open Sans', verdana, arial, sans-serif; font-size: 10px; fill: rgb(0, 0, 0); fill-opacity: 1; white-space: pre; opacity: 1;">JAKSZP010015409.1</text></g><g class="xtick"><text text-anchor="start" x="0" y="377" transform="translate(884.71,0) rotate(90,0,372)" style="font-family: 'Lucida Grande', 'Open Sans', verdana, arial, sans-serif; font-size: 10px; fill: rgb(0, 0, 0); fill-opacity: 1; white-space: pre; opacity: 1;">JAKSZP010015774.1</text></g><g class="xtick"><text text-anchor="start" x="0" y="377" transform="translate(898,0) rotate(90,0,372)" style="font-family: 'Lucida Grande', 'Open Sans', verdana, arial, sans-serif; font-size: 10px; fill: rgb(0, 0, 0); fill-opacity: 1; white-space: pre; opacity: 1;">JAKSZP010015839.1</text></g><g class="xtick"><text text-anchor="start" x="0" y="377" transform="translate(911.29,0) rotate(90,0,372)" style="font-family: 'Lucida Grande', 'Open Sans', verdana, arial, sans-serif; font-size: 10px; fill: rgb(0, 0, 0); fill-opacity: 1; white-space: pre; opacity: 1;">JAKSZP010016022.1</text></g><g class="xtick"><text text-anchor="start" x="0" y="377" transform="translate(924.57,0) rotate(90,0,372)" style="font-family: 'Lucida Grande', 'Open Sans', verdana, arial, sans-serif; font-size: 10px; fill: rgb(0, 0, 0); fill-opacity: 1; white-space: pre; opacity: 1;">JAKSZP010016073.1</text></g><g class="xtick"><text text-anchor="start" x="0" y="377" transform="translate(937.86,0) rotate(90,0,372)" style="font-family: 'Lucida Grande', 'Open Sans', verdana, arial, sans-serif; font-size: 10px; fill: rgb(0, 0, 0); fill-opacity: 1; white-space: pre; opacity: 1;">JAKSZP010016102.1</text></g><g class="xtick"><text text-anchor="start" x="0" y="377" transform="translate(951.14,0) rotate(90,0,372)" style="font-family: 'Lucida Grande', 'Open Sans', verdana, arial, sans-serif; font-size: 10px; fill: rgb(0, 0, 0); fill-opacity: 1; white-space: pre; opacity: 1;">JAKSZP010016390.1</text></g><g class="xtick"><text text-anchor="start" x="0" y="377" transform="translate(964.43,0) rotate(90,0,372)" style="font-family: 'Lucida Grande', 'Open Sans', verdana, arial, sans-serif; font-size: 10px; fill: rgb(0, 0, 0); fill-opacity: 1; white-space: pre; opacity: 1;">JAKSZP010016393.1</text></g><g class="xtick"><text text-anchor="start" x="0" y="377" transform="translate(977.71,0) rotate(90,0,372)" style="font-family: 'Lucida Grande', 'Open Sans', verdana, arial, sans-serif; font-size: 10px; fill: rgb(0, 0, 0); fill-opacity: 1; white-space: pre; opacity: 1;">JAKSZP010016401.1</text></g><g class="xtick"><text text-anchor="start" x="0" y="377" transform="translate(991,0) rotate(90,0,372)" style="font-family: 'Lucida Grande', 'Open Sans', verdana, arial, sans-serif; font-size: 10px; fill: rgb(0, 0, 0); fill-opacity: 1; white-space: pre; opacity: 1;">JAKSZP010017094.1</text></g><g class="xtick"><text text-anchor="start" x="0" y="377" transform="translate(1004.29,0) rotate(90,0,372)" style="font-family: 'Lucida Grande', 'Open Sans', verdana, arial, sans-serif; font-size: 10px; fill: rgb(0, 0, 0); fill-opacity: 1; white-space: pre; opacity: 1;">JAKSZP010017175.1</text></g><g class="xtick"><text text-anchor="start" x="0" y="377" transform="translate(1017.57,0) rotate(90,0,372)" style="font-family: 'Lucida Grande', 'Open Sans', verdana, arial, sans-serif; font-size: 10px; fill: rgb(0, 0, 0); fill-opacity: 1; white-space: pre; opacity: 1;">JAKSZP010017383.1</text></g><g class="xtick"><text text-anchor="start" x="0" y="377" transform="translate(1030.8600000000001,0) rotate(90,0,372)" style="font-family: 'Lucida Grande', 'Open Sans', verdana, arial, sans-serif; font-size: 10px; fill: rgb(0, 0, 0); fill-opacity: 1; white-space: pre; opacity: 1;">JAKSZP010017862.1</text></g><g class="xtick"><text text-anchor="start" x="0" y="377" transform="translate(1044.1399999999999,0) rotate(90,0,372)" style="font-family: 'Lucida Grande', 'Open Sans', verdana, arial, sans-serif; font-size: 10px; fill: rgb(0, 0, 0); fill-opacity: 1; white-space: pre; opacity: 1;">JAKSZP010018392.1</text></g><g class="xtick"><text text-anchor="start" x="0" y="377" transform="translate(1057.4299999999998,0) rotate(90,0,372)" style="font-family: 'Lucida Grande', 'Open Sans', verdana, arial, sans-serif; font-size: 10px; fill: rgb(0, 0, 0); fill-opacity: 1; white-space: pre; opacity: 1;">JAKSZP010019011.1</text></g><g class="xtick"><text text-anchor="start" x="0" y="377" transform="translate(1070.71,0) rotate(90,0,372)" style="font-family: 'Lucida Grande', 'Open Sans', verdana, arial, sans-serif; font-size: 10px; fill: rgb(0, 0, 0); fill-opacity: 1; white-space: pre; opacity: 1;">JAKSZP010019195.1</text></g><g class="xtick"><text text-anchor="start" x="0" y="377" transform="translate(1084,0) rotate(90,0,372)" style="font-family: 'Lucida Grande', 'Open Sans', verdana, arial, sans-serif; font-size: 10px; fill: rgb(0, 0, 0); fill-opacity: 1; white-space: pre; opacity: 1;">JAKSZP010019356.1</text></g></g><g class="yaxislayer-above"><g class="ytick"><text text-anchor="end" x="55" y="3.5" transform="translate(0,344.05)" style="font-family: 'Lucida Grande', 'Open Sans', verdana, arial, sans-serif; font-size: 10px; fill: rgb(0, 0, 0); fill-opacity: 1; white-space: pre; opacity: 1;">100n</text></g><g class="ytick"><text text-anchor="end" x="55" y="3.5" style="font-family: 'Lucida Grande', 'Open Sans', verdana, arial, sans-serif; font-size: 10px; fill: rgb(0, 0, 0); fill-opacity: 1; white-space: pre; opacity: 1;" transform="translate(0,300.44)">1μ</text></g><g class="ytick"><text text-anchor="end" x="55" y="3.5" style="font-family: 'Lucida Grande', 'Open Sans', verdana, arial, sans-serif; font-size: 10px; fill: rgb(0, 0, 0); fill-opacity: 1; white-space: pre; opacity: 1;" transform="translate(0,256.84000000000003)">10μ</text></g><g class="ytick"><text text-anchor="end" x="55" y="3.5" style="font-family: 'Lucida Grande', 'Open Sans', verdana, arial, sans-serif; font-size: 10px; fill: rgb(0, 0, 0); fill-opacity: 1; white-space: pre; opacity: 1;" transform="translate(0,213.23)">100μ</text></g><g class="ytick"><text text-anchor="end" x="55" y="3.5" style="font-family: 'Lucida Grande', 'Open Sans', verdana, arial, sans-serif; font-size: 10px; fill: rgb(0, 0, 0); fill-opacity: 1; white-space: pre; opacity: 1;" transform="translate(0,169.62)">0.001</text></g><g class="ytick"><text text-anchor="end" x="55" y="3.5" style="font-family: 'Lucida Grande', 'Open Sans', verdana, arial, sans-serif; font-size: 10px; fill: rgb(0, 0, 0); fill-opacity: 1; white-space: pre; opacity: 1;" transform="translate(0,126.02)">0.01</text></g><g class="ytick"><text text-anchor="end" x="55" y="3.5" style="font-family: 'Lucida Grande', 'Open Sans', verdana, arial, sans-serif; font-size: 10px; fill: rgb(0, 0, 0); fill-opacity: 1; white-space: pre; opacity: 1;" transform="translate(0,82.41)">0.1</text></g></g><g class="overaxes-above"/></g></g><g class="polarlayer"/><g class="smithlayer"/><g class="ternarylayer"/><g class="geolayer"/><g class="funnelarealayer"/><g class="pielayer"/><g class="iciclelayer"/><g class="treemaplayer"/><g class="sunburstlayer"/><g class="glimages"/><defs id="topdefs-607770"><g class="clips"/></defs><g class="layer-above"><g class="imagelayer"/><g class="shapelayer"/></g><g class="infolayer"><g class="g-gtitle"><text class="gtitle" x="550" y="25" text-anchor="middle" dy="0em" style="opacity: 1; font-family: 'Lucida Grande', 'Open Sans', verdana, arial, sans-serif; font-size: 20px; fill: rgb(68, 68, 68); fill-opacity: 1; white-space: pre;"><tspan class="line" dy="0em" x="550" y="25">Samtools: idxstats: Mapped reads per contig</tspan><tspan class="line" dy="1.3em" x="550" y="25">​<tspan style="font-size:70%" dy="-0.6em">Normalised Counts, 6 samples</tspan><tspan dy="0.42em">​</tspan></tspan></text></g><g class="g-xtitle" transform="translate(0,76.203125)"><text class="xtitle" x="572.5" y="413" text-anchor="middle" style="opacity: 0.3; font-family: 'Lucida Grande', 'Open Sans', verdana, arial, sans-serif; font-size: 14px; fill: rgb(0, 0, 0); fill-opacity: 1; white-space: pre;">Chromosome name</text></g><g class="g-ytitle" transform="translate(-1.640625,0)"><text class="ytitle" transform="rotate(-90,23,205.5)" x="23" y="205.5" text-anchor="middle" style="opacity: 0.3; font-family: 'Lucida Grande', 'Open Sans', verdana, arial, sans-serif; font-size: 14px; fill: rgb(0, 0, 0); fill-opacity: 1; white-space: pre;">Fraction of total count</text></g></g></svg>