<svg class="main-svg" xmlns="http://www.w3.org/2000/svg" xmlns:xlink="http://www.w3.org/1999/xlink" width="2200" height="1000" style="" viewBox="0 0 1100 500"><rect x="0" y="0" width="1100" height="500" style="fill: rgb(255, 255, 255); fill-opacity: 1;"/><defs id="defs-495a48"><g class="clips"><clipPath id="clip495a48xyplot" class="plotclip"><rect width="1024" height="311"/></clipPath><clipPath class="axesclip" id="clip495a48x"><rect x="60" y="0" width="1024" height="500"/></clipPath><clipPath class="axesclip" id="clip495a48y"><rect x="0" y="50" width="1100" height="311"/></clipPath><clipPath class="axesclip" id="clip495a48xy"><rect x="60" y="50" width="1024" height="311"/></clipPath></g><g class="gradients"/><g class="patterns"/></defs><g class="bglayer"/><g class="layer-below"><g class="imagelayer"/><g class="shapelayer"/></g><g class="cartesianlayer"><g class="subplot xy"><g class="layer-subplot"><g class="shapelayer"/><g class="imagelayer"/></g><g class="minor-gridlayer"><g class="x"/><g class="y"/></g><g class="gridlayer"><g class="x"><path class="xgrid crisp" transform="translate(73.3,0)" d="M0,50v311" style="stroke: rgb(0, 0, 0); stroke-opacity: 0.05; stroke-width: 1px;"/><path class="xgrid crisp" transform="translate(86.6,0)" d="M0,50v311" style="stroke: rgb(0, 0, 0); stroke-opacity: 0.05; stroke-width: 1px;"/><path class="xgrid crisp" transform="translate(99.9,0)" d="M0,50v311" style="stroke: rgb(0, 0, 0); stroke-opacity: 0.05; stroke-width: 1px;"/><path class="xgrid crisp" transform="translate(113.19,0)" d="M0,50v311" style="stroke: rgb(0, 0, 0); stroke-opacity: 0.05; stroke-width: 1px;"/><path class="xgrid crisp" transform="translate(126.49,0)" d="M0,50v311" style="stroke: rgb(0, 0, 0); stroke-opacity: 0.05; stroke-width: 1px;"/><path class="xgrid crisp" transform="translate(139.79000000000002,0)" d="M0,50v311" style="stroke: rgb(0, 0, 0); stroke-opacity: 0.05; stroke-width: 1px;"/><path class="xgrid crisp" transform="translate(153.09,0)" d="M0,50v311" style="stroke: rgb(0, 0, 0); stroke-opacity: 0.05; stroke-width: 1px;"/><path class="xgrid crisp" transform="translate(166.39,0)" d="M0,50v311" style="stroke: rgb(0, 0, 0); stroke-opacity: 0.05; stroke-width: 1px;"/><path class="xgrid crisp" transform="translate(179.69,0)" d="M0,50v311" style="stroke: rgb(0, 0, 0); stroke-opacity: 0.05; stroke-width: 1px;"/><path class="xgrid crisp" transform="translate(192.99,0)" d="M0,50v311" style="stroke: rgb(0, 0, 0); stroke-opacity: 0.05; stroke-width: 1px;"/><path class="xgrid crisp" transform="translate(206.29,0)" d="M0,50v311" style="stroke: rgb(0, 0, 0); stroke-opacity: 0.05; stroke-width: 1px;"/><path class="xgrid crisp" transform="translate(219.58,0)" d="M0,50v311" style="stroke: rgb(0, 0, 0); stroke-opacity: 0.05; stroke-width: 1px;"/><path class="xgrid crisp" transform="translate(232.88,0)" d="M0,50v311" style="stroke: rgb(0, 0, 0); stroke-opacity: 0.05; stroke-width: 1px;"/><path class="xgrid crisp" transform="translate(246.18,0)" d="M0,50v311" style="stroke: rgb(0, 0, 0); stroke-opacity: 0.05; stroke-width: 1px;"/><path class="xgrid crisp" transform="translate(259.48,0)" d="M0,50v311" style="stroke: rgb(0, 0, 0); stroke-opacity: 0.05; stroke-width: 1px;"/><path class="xgrid crisp" transform="translate(272.78,0)" d="M0,50v311" style="stroke: rgb(0, 0, 0); stroke-opacity: 0.05; stroke-width: 1px;"/><path class="xgrid crisp" transform="translate(286.08000000000004,0)" d="M0,50v311" style="stroke: rgb(0, 0, 0); stroke-opacity: 0.05; stroke-width: 1px;"/><path class="xgrid crisp" transform="translate(299.38,0)" d="M0,50v311" style="stroke: rgb(0, 0, 0); stroke-opacity: 0.05; stroke-width: 1px;"/><path class="xgrid crisp" transform="translate(312.68,0)" d="M0,50v311" style="stroke: rgb(0, 0, 0); stroke-opacity: 0.05; stroke-width: 1px;"/><path class="xgrid crisp" transform="translate(325.97,0)" d="M0,50v311" style="stroke: rgb(0, 0, 0); stroke-opacity: 0.05; stroke-width: 1px;"/><path class="xgrid crisp" transform="translate(339.27,0)" d="M0,50v311" style="stroke: rgb(0, 0, 0); stroke-opacity: 0.05; stroke-width: 1px;"/><path class="xgrid crisp" transform="translate(352.57,0)" d="M0,50v311" style="stroke: rgb(0, 0, 0); stroke-opacity: 0.05; stroke-width: 1px;"/><path class="xgrid crisp" transform="translate(365.87,0)" d="M0,50v311" style="stroke: rgb(0, 0, 0); stroke-opacity: 0.05; stroke-width: 1px;"/><path class="xgrid crisp" transform="translate(379.17,0)" d="M0,50v311" style="stroke: rgb(0, 0, 0); stroke-opacity: 0.05; stroke-width: 1px;"/><path class="xgrid crisp" transform="translate(392.47,0)" d="M0,50v311" style="stroke: rgb(0, 0, 0); stroke-opacity: 0.05; stroke-width: 1px;"/><path class="xgrid crisp" transform="translate(405.77,0)" d="M0,50v311" style="stroke: rgb(0, 0, 0); stroke-opacity: 0.05; stroke-width: 1px;"/><path class="xgrid crisp" transform="translate(419.06,0)" d="M0,50v311" style="stroke: rgb(0, 0, 0); stroke-opacity: 0.05; stroke-width: 1px;"/><path class="xgrid crisp" transform="translate(432.36,0)" d="M0,50v311" style="stroke: rgb(0, 0, 0); stroke-opacity: 0.05; stroke-width: 1px;"/><path class="xgrid crisp" transform="translate(445.66,0)" d="M0,50v311" style="stroke: rgb(0, 0, 0); stroke-opacity: 0.05; stroke-width: 1px;"/><path class="xgrid crisp" transform="translate(458.96,0)" d="M0,50v311" style="stroke: rgb(0, 0, 0); stroke-opacity: 0.05; stroke-width: 1px;"/><path class="xgrid crisp" transform="translate(472.26,0)" d="M0,50v311" style="stroke: rgb(0, 0, 0); stroke-opacity: 0.05; stroke-width: 1px;"/><path class="xgrid crisp" transform="translate(485.56,0)" d="M0,50v311" style="stroke: rgb(0, 0, 0); stroke-opacity: 0.05; stroke-width: 1px;"/><path class="xgrid crisp" transform="translate(498.86,0)" d="M0,50v311" style="stroke: rgb(0, 0, 0); stroke-opacity: 0.05; stroke-width: 1px;"/><path class="xgrid crisp" transform="translate(512.1600000000001,0)" d="M0,50v311" style="stroke: rgb(0, 0, 0); stroke-opacity: 0.05; stroke-width: 1px;"/><path class="xgrid crisp" transform="translate(525.45,0)" d="M0,50v311" style="stroke: rgb(0, 0, 0); stroke-opacity: 0.05; stroke-width: 1px;"/><path class="xgrid crisp" transform="translate(538.75,0)" d="M0,50v311" style="stroke: rgb(0, 0, 0); stroke-opacity: 0.05; stroke-width: 1px;"/><path class="xgrid crisp" transform="translate(552.05,0)" d="M0,50v311" style="stroke: rgb(0, 0, 0); stroke-opacity: 0.05; stroke-width: 1px;"/><path class="xgrid crisp" transform="translate(565.35,0)" d="M0,50v311" style="stroke: rgb(0, 0, 0); stroke-opacity: 0.05; stroke-width: 1px;"/><path class="xgrid crisp" transform="translate(578.65,0)" d="M0,50v311" style="stroke: rgb(0, 0, 0); stroke-opacity: 0.05; stroke-width: 1px;"/><path class="xgrid crisp" transform="translate(591.95,0)" d="M0,50v311" style="stroke: rgb(0, 0, 0); stroke-opacity: 0.05; stroke-width: 1px;"/><path class="xgrid crisp" transform="translate(605.25,0)" d="M0,50v311" style="stroke: rgb(0, 0, 0); stroke-opacity: 0.05; stroke-width: 1px;"/><path class="xgrid crisp" transform="translate(618.55,0)" d="M0,50v311" style="stroke: rgb(0, 0, 0); stroke-opacity: 0.05; stroke-width: 1px;"/><path class="xgrid crisp" transform="translate(631.84,0)" d="M0,50v311" style="stroke: rgb(0, 0, 0); stroke-opacity: 0.05; stroke-width: 1px;"/><path class="xgrid crisp" transform="translate(645.14,0)" d="M0,50v311" style="stroke: rgb(0, 0, 0); stroke-opacity: 0.05; stroke-width: 1px;"/><path class="xgrid crisp" transform="translate(658.44,0)" d="M0,50v311" style="stroke: rgb(0, 0, 0); stroke-opacity: 0.05; stroke-width: 1px;"/><path class="xgrid crisp" transform="translate(671.74,0)" d="M0,50v311" style="stroke: rgb(0, 0, 0); stroke-opacity: 0.05; stroke-width: 1px;"/><path class="xgrid crisp" transform="translate(685.04,0)" d="M0,50v311" style="stroke: rgb(0, 0, 0); stroke-opacity: 0.05; stroke-width: 1px;"/><path class="xgrid crisp" transform="translate(698.34,0)" d="M0,50v311" style="stroke: rgb(0, 0, 0); stroke-opacity: 0.05; stroke-width: 1px;"/><path class="xgrid crisp" transform="translate(711.64,0)" d="M0,50v311" style="stroke: rgb(0, 0, 0); stroke-opacity: 0.05; stroke-width: 1px;"/><path class="xgrid crisp" transform="translate(724.94,0)" d="M0,50v311" style="stroke: rgb(0, 0, 0); stroke-opacity: 0.05; stroke-width: 1px;"/><path class="xgrid crisp" transform="translate(738.23,0)" d="M0,50v311" style="stroke: rgb(0, 0, 0); stroke-opacity: 0.05; stroke-width: 1px;"/><path class="xgrid crisp" transform="translate(751.53,0)" d="M0,50v311" style="stroke: rgb(0, 0, 0); stroke-opacity: 0.05; stroke-width: 1px;"/><path class="xgrid crisp" transform="translate(764.83,0)" d="M0,50v311" style="stroke: rgb(0, 0, 0); stroke-opacity: 0.05; stroke-width: 1px;"/><path class="xgrid crisp" transform="translate(778.13,0)" d="M0,50v311" style="stroke: rgb(0, 0, 0); stroke-opacity: 0.05; stroke-width: 1px;"/><path class="xgrid crisp" transform="translate(791.43,0)" d="M0,50v311" style="stroke: rgb(0, 0, 0); stroke-opacity: 0.05; stroke-width: 1px;"/><path class="xgrid crisp" transform="translate(804.73,0)" d="M0,50v311" style="stroke: rgb(0, 0, 0); stroke-opacity: 0.05; stroke-width: 1px;"/><path class="xgrid crisp" transform="translate(818.03,0)" d="M0,50v311" style="stroke: rgb(0, 0, 0); stroke-opacity: 0.05; stroke-width: 1px;"/><path class="xgrid crisp" transform="translate(831.32,0)" d="M0,50v311" style="stroke: rgb(0, 0, 0); stroke-opacity: 0.05; stroke-width: 1px;"/><path class="xgrid crisp" transform="translate(844.62,0)" d="M0,50v311" style="stroke: rgb(0, 0, 0); stroke-opacity: 0.05; stroke-width: 1px;"/><path class="xgrid crisp" transform="translate(857.92,0)" d="M0,50v311" style="stroke: rgb(0, 0, 0); stroke-opacity: 0.05; stroke-width: 1px;"/><path class="xgrid crisp" transform="translate(871.22,0)" d="M0,50v311" style="stroke: rgb(0, 0, 0); stroke-opacity: 0.05; stroke-width: 1px;"/><path class="xgrid crisp" transform="translate(884.52,0)" d="M0,50v311" style="stroke: rgb(0, 0, 0); stroke-opacity: 0.05; stroke-width: 1px;"/><path class="xgrid crisp" transform="translate(897.82,0)" d="M0,50v311" style="stroke: rgb(0, 0, 0); stroke-opacity: 0.05; stroke-width: 1px;"/><path class="xgrid crisp" transform="translate(911.12,0)" d="M0,50v311" style="stroke: rgb(0, 0, 0); stroke-opacity: 0.05; stroke-width: 1px;"/><path class="xgrid crisp" transform="translate(924.42,0)" d="M0,50v311" style="stroke: rgb(0, 0, 0); stroke-opacity: 0.05; stroke-width: 1px;"/><path class="xgrid crisp" transform="translate(937.71,0)" d="M0,50v311" style="stroke: rgb(0, 0, 0); stroke-opacity: 0.05; stroke-width: 1px;"/><path class="xgrid crisp" transform="translate(951.01,0)" d="M0,50v311" style="stroke: rgb(0, 0, 0); stroke-opacity: 0.05; stroke-width: 1px;"/><path class="xgrid crisp" transform="translate(964.31,0)" d="M0,50v311" style="stroke: rgb(0, 0, 0); stroke-opacity: 0.05; stroke-width: 1px;"/><path class="xgrid crisp" transform="translate(977.61,0)" d="M0,50v311" style="stroke: rgb(0, 0, 0); stroke-opacity: 0.05; stroke-width: 1px;"/><path class="xgrid crisp" transform="translate(990.91,0)" d="M0,50v311" style="stroke: rgb(0, 0, 0); stroke-opacity: 0.05; stroke-width: 1px;"/><path class="xgrid crisp" transform="translate(1004.21,0)" d="M0,50v311" style="stroke: rgb(0, 0, 0); stroke-opacity: 0.05; stroke-width: 1px;"/><path class="xgrid crisp" transform="translate(1017.51,0)" d="M0,50v311" style="stroke: rgb(0, 0, 0); stroke-opacity: 0.05; stroke-width: 1px;"/><path class="xgrid crisp" transform="translate(1030.81,0)" d="M0,50v311" style="stroke: rgb(0, 0, 0); stroke-opacity: 0.05; stroke-width: 1px;"/><path class="xgrid crisp" transform="translate(1044.1,0)" d="M0,50v311" style="stroke: rgb(0, 0, 0); stroke-opacity: 0.05; stroke-width: 1px;"/><path class="xgrid crisp" transform="translate(1057.4,0)" d="M0,50v311" style="stroke: rgb(0, 0, 0); stroke-opacity: 0.05; stroke-width: 1px;"/><path class="xgrid crisp" transform="translate(1070.7,0)" d="M0,50v311" style="stroke: rgb(0, 0, 0); stroke-opacity: 0.05; stroke-width: 1px;"/></g><g class="y"><path class="ygrid crisp" transform="translate(0,305.93)" d="M60,0h1024" style="stroke: rgb(0, 0, 0); stroke-opacity: 0.05; stroke-width: 1px;"/><path class="ygrid crisp" transform="translate(0,266.40999999999997)" d="M60,0h1024" style="stroke: rgb(0, 0, 0); stroke-opacity: 0.05; stroke-width: 1px;"/><path class="ygrid crisp" transform="translate(0,226.89)" d="M60,0h1024" style="stroke: rgb(0, 0, 0); stroke-opacity: 0.05; stroke-width: 1px;"/><path class="ygrid crisp" transform="translate(0,187.36)" d="M60,0h1024" style="stroke: rgb(0, 0, 0); stroke-opacity: 0.05; stroke-width: 1px;"/><path class="ygrid crisp" transform="translate(0,147.84)" d="M60,0h1024" style="stroke: rgb(0, 0, 0); stroke-opacity: 0.05; stroke-width: 1px;"/><path class="ygrid crisp" transform="translate(0,108.32)" d="M60,0h1024" style="stroke: rgb(0, 0, 0); stroke-opacity: 0.05; stroke-width: 1px;"/><path class="ygrid crisp" transform="translate(0,68.8)" d="M60,0h1024" style="stroke: rgb(0, 0, 0); stroke-opacity: 0.05; stroke-width: 1px;"/></g></g><g class="zerolinelayer"><path class="yzl zl crisp" transform="translate(0,345.45)" d="M60,0h1024" style="stroke: rgb(0, 0, 0); stroke-opacity: 0.05; stroke-width: 1px;"/></g><g class="layer-between"><g class="shapelayer"/><g class="imagelayer"/></g><path class="xlines-below"/><path class="ylines-below"/><g class="overlines-below"/><g class="xaxislayer-below"/><g class="yaxislayer-below"/><g class="overaxes-below"/><g class="overplot"><g class="xy" transform="translate(60,50)" clip-path="url(#clip495a48xyplot)"><g class="scatterlayer mlayer"><g class="trace scatter traced1cd02" style="stroke-miterlimit: 2; opacity: 1;"><g class="fills"/><g class="errorbars"/><g class="lines"><path class="js-line" d="M0,295.42L26.6,295.08L39.9,290.38L53.19,295.22L66.49,295.33L106.39,294.8L119.69,293.84L132.99,295.37L146.29,295.12L159.58,295.03L172.88,294.1L186.18,291.71L199.48,295.35L212.78,171.78L226.08,294.96L239.38,295.22L252.68,293.05L265.97,294.61L279.27,292.96L292.57,295.28L305.87,294.57L319.17,291.66L332.47,293.23L345.77,295.04L359.06,295.08L372.36,290.96L385.66,294.97L398.96,294.75L412.26,295.43L465.45,293.95L478.75,292.89L492.05,295.1L505.35,295.26L518.65,294.74L531.95,295.1L545.25,291.91L558.55,236.34L571.84,294.02L585.14,284.9L598.44,262.9L611.74,295.32L625.04,295.3L638.34,292.98L651.64,295.33L664.94,295.27L718.13,294.24L731.43,295.39L744.73,295.37L758.03,292.3L771.32,295.11L784.62,295.36L797.92,295.14L811.22,292.55L837.82,295.37L851.12,295.38L864.42,283.35L877.71,295.06L891.01,294.24L904.31,290.62L917.61,273.94L930.91,295.25L997.4,294.45L1010.7,289.4L1024,277.07" style="vector-effect: none; fill: none; stroke: rgb(124, 181, 236); stroke-opacity: 1; stroke-width: 2px; opacity: 1;"/></g><g class="points"/><g class="text"/></g><g class="trace scatter tracefe4f1c" style="stroke-miterlimit: 2; opacity: 1;"><g class="fills"/><g class="errorbars"/><g class="lines"><path class="js-line" d="M0,295.24L26.6,293.91L39.9,295.44L66.49,295.31L79.79,294.21L106.39,295.45L119.69,288.02L132.99,294.53L146.29,295.08L186.18,295.45L199.48,293.62L212.78,179.22L226.08,295.22L265.97,295.14L279.27,295.05L305.87,295.45L319.17,294.31L332.47,295.44L345.77,295.45L359.06,295.06L372.36,295.45L425.56,295.4L438.86,295.45L452.16,294.79L465.45,274.03L478.75,287.94L492.05,295.43L531.95,295.29L545.25,295.44L558.55,251.47L571.84,294.66L585.14,295.45L598.44,225L611.74,295.24L625.04,294.72L638.34,294.46L651.64,295.45L718.13,295.06L731.43,294.1L744.73,295.43L758.03,295.45L784.62,295.27L797.92,295.27L811.22,294.26L824.52,295.44L891.01,294.73L904.31,295.45L917.61,268.69L930.91,295.45L957.51,294.92L970.81,293.66L984.1,295.4L997.4,294.16L1010.7,295.45L1024,278.86" style="vector-effect: none; fill: none; stroke: rgb(67, 67, 72); stroke-opacity: 1; stroke-width: 2px; opacity: 1;"/></g><g class="points"/><g class="text"/></g><g class="trace scatter trace02e149" style="stroke-miterlimit: 2; opacity: 1;"><g class="fills"/><g class="errorbars"/><g class="lines"><path class="js-line" d="M0,295.41L26.6,295.06L39.9,288.59L53.19,295.18L66.49,295.37L106.39,295.03L119.69,294.89L132.99,295.45L146.29,294.95L159.58,295.22L172.88,293.57L186.18,291.38L199.48,295.45L212.78,138.53L226.08,295.2L239.38,295.4L252.68,293.58L265.97,294.68L279.27,290.99L292.57,295.23L305.87,293.98L319.17,292.16L332.47,293.93L359.06,295.1L372.36,283.7L385.66,295L398.96,294.41L412.26,295.45L425.56,294.94L438.86,294.59L452.16,295.36L465.45,295.45L478.75,294.45L505.35,295.25L518.65,294.66L531.95,295.31L545.25,291.8L558.55,210.36L571.84,291.49L585.14,289.81L598.44,278.47L611.74,295.35L625.04,295.41L638.34,293.4L651.64,295.11L704.83,295.12L718.13,294.33L731.43,295.43L744.73,295.35L758.03,292.83L771.32,295.2L797.92,295.13L811.22,294.41L824.52,294.02L837.82,295.42L851.12,295.41L864.42,288.36L877.71,295.03L891.01,294.45L904.31,293.3L917.61,275.57L930.91,295.2L944.21,294.91L957.51,295.29L970.81,294.8L984.1,294.95L997.4,294.25L1010.7,292.21L1024,271.43" style="vector-effect: none; fill: none; stroke: rgb(144, 237, 125); stroke-opacity: 1; stroke-width: 2px; opacity: 1;"/></g><g class="points"/><g class="text"/></g><g class="trace scatter trace95275a" style="stroke-miterlimit: 2; opacity: 1;"><g class="fills"/><g class="errorbars"/><g class="lines"><path class="js-line" d="M0,294.08L26.6,293.77L39.9,295.45L66.49,295.23L79.79,293.7L106.39,295.45L119.69,288.69L132.99,295.22L146.29,295.18L186.18,295.45L199.48,293.33L212.78,236.64L226.08,295.14L239.38,294.5L252.68,295.45L265.97,294.71L279.27,295.29L305.87,295.45L319.17,293.33L332.47,295.35L345.77,295.42L359.06,294.94L372.36,295.45L425.56,295.41L438.86,295.45L452.16,294.25L465.45,267.26L478.75,293.95L492.05,295.42L545.25,295.44L558.55,277.08L571.84,294.56L585.14,295.45L598.44,270.86L611.74,295.31L638.34,294.36L651.64,295.45L704.83,295.25L718.13,294.4L731.43,292.98L744.73,295.41L758.03,295.45L771.32,294.58L797.92,295.08L811.22,294.13L824.52,295.44L837.82,295.13L851.12,294.47L864.42,295.42L891.01,294.66L904.31,295.45L917.61,285.73L930.91,295.45L970.81,294.26L984.1,295.37L997.4,294.27L1010.7,295.45L1024,289.05" style="vector-effect: none; fill: none; stroke: rgb(247, 163, 92); stroke-opacity: 1; stroke-width: 2px; opacity: 1;"/></g><g class="points"/><g class="text"/></g><g class="trace scatter trace8c2e2e" style="stroke-miterlimit: 2; opacity: 1;"><g class="fills"/><g class="errorbars"/><g class="lines"><path class="js-line" d="M0,295.41L26.6,295.15L39.9,291.65L53.19,295.31L66.49,295.38L159.58,295.08L172.88,294.28L186.18,291.64L199.48,295.45L212.78,15.55L226.08,294.92L239.38,295.41L252.68,294.31L265.97,295.02L279.27,292.81L292.57,295.33L305.87,294.87L319.17,289.47L332.47,294.18L345.77,295.26L359.06,295.1L372.36,294.39L385.66,295.21L398.96,294.61L412.26,295.45L452.16,295.19L465.45,295.44L478.75,291.2L492.05,295.31L531.95,295.16L545.25,291.92L558.55,126.19L571.84,294.53L585.14,286.99L598.44,219.26L611.74,295.39L625.04,295.43L638.34,293.71L651.64,295.36L744.73,295.4L758.03,293.02L771.32,295.12L784.62,295.38L797.92,295.35L811.22,293.81L824.52,294.11L837.82,295.21L851.12,295.4L864.42,288.11L877.71,295.03L891.01,294.74L904.31,292.5L917.61,238.12L930.91,295.26L944.21,295.17L984.1,295.33L997.4,294.48L1010.7,293.25L1024,256.57" style="vector-effect: none; fill: none; stroke: rgb(128, 133, 233); stroke-opacity: 1; stroke-width: 2px; opacity: 1;"/></g><g class="points"/><g class="text"/></g><g class="trace scatter trace440cec" style="stroke-miterlimit: 2; opacity: 1;"><g class="fills"/><g class="errorbars"/><g class="lines"><path class="js-line" d="M0,295.43L26.6,295.23L39.9,290.06L53.19,295.22L66.49,295.37L106.39,294.97L119.69,294.71L132.99,295.43L146.29,295.23L159.58,295.12L172.88,293.83L186.18,290.96L199.48,295.42L212.78,61.16L226.08,295.02L239.38,295.31L252.68,293.59L265.97,294.46L279.27,292.26L292.57,295.28L305.87,294.1L319.17,291.6L332.47,293.55L345.77,295.14L359.06,295.09L372.36,288.51L385.66,295.11L398.96,294.27L412.26,295.45L452.16,295.04L465.45,295.44L478.75,291.9L492.05,294.98L505.35,295.24L518.65,294.2L531.95,295.16L545.25,291.56L558.55,207.83L571.84,294.07L585.14,285.72L598.44,232.01L611.74,295.33L625.04,295.4L638.34,293.81L651.64,295.28L704.83,295.02L718.13,294.18L731.43,295.42L744.73,295.36L758.03,292.47L771.32,295.19L797.92,295.24L811.22,293.61L824.52,293.68L837.82,295.41L851.12,295.42L864.42,284.45L877.71,295.1L891.01,294.53L904.31,291.41L917.61,268.38L930.91,295.23L944.21,295.21L984.1,295.09L997.4,294.39L1010.7,290.17L1024,269.77" style="vector-effect: none; fill: none; stroke: rgb(241, 92, 128); stroke-opacity: 1; stroke-width: 2px; opacity: 1;"/></g><g class="points"/><g class="text"/></g></g></g></g><path class="xlines-above crisp" d="M0,0" style="fill: none;"/><path class="ylines-above crisp" d="M0,0" style="fill: none;"/><g class="overlines-above"/><g class="xaxislayer-above"><g class="xtick"><text text-anchor="start" x="0" y="377" transform="translate(60,0) rotate(90,0,372)" style="font-family: 'Lucida Grande', 'Open Sans', verdana, arial, sans-serif; font-size: 10px; fill: rgb(0, 0, 0); fill-opacity: 1; white-space: pre; opacity: 1;">JAKSZP010000259.1</text></g><g class="xtick"><text text-anchor="start" x="0" y="377" transform="translate(73.3,0) rotate(90,0,372)" style="font-family: 'Lucida Grande', 'Open Sans', verdana, arial, sans-serif; font-size: 10px; fill: rgb(0, 0, 0); fill-opacity: 1; white-space: pre; opacity: 1;">JAKSZP010000397.1</text></g><g class="xtick"><text text-anchor="start" x="0" y="377" transform="translate(86.6,0) rotate(90,0,372)" style="font-family: 'Lucida Grande', 'Open Sans', verdana, arial, sans-serif; font-size: 10px; fill: rgb(0, 0, 0); fill-opacity: 1; white-space: pre; opacity: 1;">JAKSZP010000656.1</text></g><g class="xtick"><text text-anchor="start" x="0" y="377" transform="translate(99.9,0) rotate(90,0,372)" style="font-family: 'Lucida Grande', 'Open Sans', verdana, arial, sans-serif; font-size: 10px; fill: rgb(0, 0, 0); fill-opacity: 1; white-space: pre; opacity: 1;">JAKSZP010000969.1</text></g><g class="xtick"><text text-anchor="start" x="0" y="377" transform="translate(113.19,0) rotate(90,0,372)" style="font-family: 'Lucida Grande', 'Open Sans', verdana, arial, sans-serif; font-size: 10px; fill: rgb(0, 0, 0); fill-opacity: 1; white-space: pre; opacity: 1;">JAKSZP010001341.1</text></g><g class="xtick"><text text-anchor="start" x="0" y="377" transform="translate(126.49,0) rotate(90,0,372)" style="font-family: 'Lucida Grande', 'Open Sans', verdana, arial, sans-serif; font-size: 10px; fill: rgb(0, 0, 0); fill-opacity: 1; white-space: pre; opacity: 1;">JAKSZP010001378.1</text></g><g class="xtick"><text text-anchor="start" x="0" y="377" transform="translate(139.79000000000002,0) rotate(90,0,372)" style="font-family: 'Lucida Grande', 'Open Sans', verdana, arial, sans-serif; font-size: 10px; fill: rgb(0, 0, 0); fill-opacity: 1; white-space: pre; opacity: 1;">JAKSZP010001433.1</text></g><g class="xtick"><text text-anchor="start" x="0" y="377" transform="translate(153.09,0) rotate(90,0,372)" style="font-family: 'Lucida Grande', 'Open Sans', verdana, arial, sans-serif; font-size: 10px; fill: rgb(0, 0, 0); fill-opacity: 1; white-space: pre; opacity: 1;">JAKSZP010001453.1</text></g><g class="xtick"><text text-anchor="start" x="0" y="377" transform="translate(166.39,0) rotate(90,0,372)" style="font-family: 'Lucida Grande', 'Open Sans', verdana, arial, sans-serif; font-size: 10px; fill: rgb(0, 0, 0); fill-opacity: 1; white-space: pre; opacity: 1;">JAKSZP010001488.1</text></g><g class="xtick"><text text-anchor="start" x="0" y="377" transform="translate(179.69,0) rotate(90,0,372)" style="font-family: 'Lucida Grande', 'Open Sans', verdana, arial, sans-serif; font-size: 10px; fill: rgb(0, 0, 0); fill-opacity: 1; white-space: pre; opacity: 1;">JAKSZP010002298.1</text></g><g class="xtick"><text text-anchor="start" x="0" y="377" transform="translate(192.99,0) rotate(90,0,372)" style="font-family: 'Lucida Grande', 'Open Sans', verdana, arial, sans-serif; font-size: 10px; fill: rgb(0, 0, 0); fill-opacity: 1; white-space: pre; opacity: 1;">JAKSZP010002857.1</text></g><g class="xtick"><text text-anchor="start" x="0" y="377" transform="translate(206.29,0) rotate(90,0,372)" style="font-family: 'Lucida Grande', 'Open Sans', verdana, arial, sans-serif; font-size: 10px; fill: rgb(0, 0, 0); fill-opacity: 1; white-space: pre; opacity: 1;">JAKSZP010002906.1</text></g><g class="xtick"><text text-anchor="start" x="0" y="377" transform="translate(219.58,0) rotate(90,0,372)" style="font-family: 'Lucida Grande', 'Open Sans', verdana, arial, sans-serif; font-size: 10px; fill: rgb(0, 0, 0); fill-opacity: 1; white-space: pre; opacity: 1;">JAKSZP010002907.1</text></g><g class="xtick"><text text-anchor="start" x="0" y="377" transform="translate(232.88,0) rotate(90,0,372)" style="font-family: 'Lucida Grande', 'Open Sans', verdana, arial, sans-serif; font-size: 10px; fill: rgb(0, 0, 0); fill-opacity: 1; white-space: pre; opacity: 1;">JAKSZP010003046.1</text></g><g class="xtick"><text text-anchor="start" x="0" y="377" transform="translate(246.18,0) rotate(90,0,372)" style="font-family: 'Lucida Grande', 'Open Sans', verdana, arial, sans-serif; font-size: 10px; fill: rgb(0, 0, 0); fill-opacity: 1; white-space: pre; opacity: 1;">JAKSZP010003157.1</text></g><g class="xtick"><text text-anchor="start" x="0" y="377" transform="translate(259.48,0) rotate(90,0,372)" style="font-family: 'Lucida Grande', 'Open Sans', verdana, arial, sans-serif; font-size: 10px; fill: rgb(0, 0, 0); fill-opacity: 1; white-space: pre; opacity: 1;">JAKSZP010003298.1</text></g><g class="xtick"><text text-anchor="start" x="0" y="377" transform="translate(272.78,0) rotate(90,0,372)" style="font-family: 'Lucida Grande', 'Open Sans', verdana, arial, sans-serif; font-size: 10px; fill: rgb(0, 0, 0); fill-opacity: 1; white-space: pre; opacity: 1;">JAKSZP010003936.1</text></g><g class="xtick"><text text-anchor="start" x="0" y="377" transform="translate(286.08000000000004,0) rotate(90,0,372)" style="font-family: 'Lucida Grande', 'Open Sans', verdana, arial, sans-serif; font-size: 10px; fill: rgb(0, 0, 0); fill-opacity: 1; white-space: pre; opacity: 1;">JAKSZP010004139.1</text></g><g class="xtick"><text text-anchor="start" x="0" y="377" transform="translate(299.38,0) rotate(90,0,372)" style="font-family: 'Lucida Grande', 'Open Sans', verdana, arial, sans-serif; font-size: 10px; fill: rgb(0, 0, 0); fill-opacity: 1; white-space: pre; opacity: 1;">JAKSZP010004140.1</text></g><g class="xtick"><text text-anchor="start" x="0" y="377" transform="translate(312.68,0) rotate(90,0,372)" style="font-family: 'Lucida Grande', 'Open Sans', verdana, arial, sans-serif; font-size: 10px; fill: rgb(0, 0, 0); fill-opacity: 1; white-space: pre; opacity: 1;">JAKSZP010004212.1</text></g><g class="xtick"><text text-anchor="start" x="0" y="377" transform="translate(325.97,0) rotate(90,0,372)" style="font-family: 'Lucida Grande', 'Open Sans', verdana, arial, sans-serif; font-size: 10px; fill: rgb(0, 0, 0); fill-opacity: 1; white-space: pre; opacity: 1;">JAKSZP010004398.1</text></g><g class="xtick"><text text-anchor="start" x="0" y="377" transform="translate(339.27,0) rotate(90,0,372)" style="font-family: 'Lucida Grande', 'Open Sans', verdana, arial, sans-serif; font-size: 10px; fill: rgb(0, 0, 0); fill-opacity: 1; white-space: pre; opacity: 1;">JAKSZP010004608.1</text></g><g class="xtick"><text text-anchor="start" x="0" y="377" transform="translate(352.57,0) rotate(90,0,372)" style="font-family: 'Lucida Grande', 'Open Sans', verdana, arial, sans-serif; font-size: 10px; fill: rgb(0, 0, 0); fill-opacity: 1; white-space: pre; opacity: 1;">JAKSZP010005423.1</text></g><g class="xtick"><text text-anchor="start" x="0" y="377" transform="translate(365.87,0) rotate(90,0,372)" style="font-family: 'Lucida Grande', 'Open Sans', verdana, arial, sans-serif; font-size: 10px; fill: rgb(0, 0, 0); fill-opacity: 1; white-space: pre; opacity: 1;">JAKSZP010005868.1</text></g><g class="xtick"><text text-anchor="start" x="0" y="377" transform="translate(379.17,0) rotate(90,0,372)" style="font-family: 'Lucida Grande', 'Open Sans', verdana, arial, sans-serif; font-size: 10px; fill: rgb(0, 0, 0); fill-opacity: 1; white-space: pre; opacity: 1;">JAKSZP010006348.1</text></g><g class="xtick"><text text-anchor="start" x="0" y="377" transform="translate(392.47,0) rotate(90,0,372)" style="font-family: 'Lucida Grande', 'Open Sans', verdana, arial, sans-serif; font-size: 10px; fill: rgb(0, 0, 0); fill-opacity: 1; white-space: pre; opacity: 1;">JAKSZP010006629.1</text></g><g class="xtick"><text text-anchor="start" x="0" y="377" transform="translate(405.77,0) rotate(90,0,372)" style="font-family: 'Lucida Grande', 'Open Sans', verdana, arial, sans-serif; font-size: 10px; fill: rgb(0, 0, 0); fill-opacity: 1; white-space: pre; opacity: 1;">JAKSZP010006768.1</text></g><g class="xtick"><text text-anchor="start" x="0" y="377" transform="translate(419.06,0) rotate(90,0,372)" style="font-family: 'Lucida Grande', 'Open Sans', verdana, arial, sans-serif; font-size: 10px; fill: rgb(0, 0, 0); fill-opacity: 1; white-space: pre; opacity: 1;">JAKSZP010006970.1</text></g><g class="xtick"><text text-anchor="start" x="0" y="377" transform="translate(432.36,0) rotate(90,0,372)" style="font-family: 'Lucida Grande', 'Open Sans', verdana, arial, sans-serif; font-size: 10px; fill: rgb(0, 0, 0); fill-opacity: 1; white-space: pre; opacity: 1;">JAKSZP010007410.1</text></g><g class="xtick"><text text-anchor="start" x="0" y="377" transform="translate(445.66,0) rotate(90,0,372)" style="font-family: 'Lucida Grande', 'Open Sans', verdana, arial, sans-serif; font-size: 10px; fill: rgb(0, 0, 0); fill-opacity: 1; white-space: pre; opacity: 1;">JAKSZP010008110.1</text></g><g class="xtick"><text text-anchor="start" x="0" y="377" transform="translate(458.96,0) rotate(90,0,372)" style="font-family: 'Lucida Grande', 'Open Sans', verdana, arial, sans-serif; font-size: 10px; fill: rgb(0, 0, 0); fill-opacity: 1; white-space: pre; opacity: 1;">JAKSZP010008292.1</text></g><g class="xtick"><text text-anchor="start" x="0" y="377" transform="translate(472.26,0) rotate(90,0,372)" style="font-family: 'Lucida Grande', 'Open Sans', verdana, arial, sans-serif; font-size: 10px; fill: rgb(0, 0, 0); fill-opacity: 1; white-space: pre; opacity: 1;">JAKSZP010009203.1</text></g><g class="xtick"><text text-anchor="start" x="0" y="377" transform="translate(485.56,0) rotate(90,0,372)" style="font-family: 'Lucida Grande', 'Open Sans', verdana, arial, sans-serif; font-size: 10px; fill: rgb(0, 0, 0); fill-opacity: 1; white-space: pre; opacity: 1;">JAKSZP010009300.1</text></g><g class="xtick"><text text-anchor="start" x="0" y="377" transform="translate(498.86,0) rotate(90,0,372)" style="font-family: 'Lucida Grande', 'Open Sans', verdana, arial, sans-serif; font-size: 10px; fill: rgb(0, 0, 0); fill-opacity: 1; white-space: pre; opacity: 1;">JAKSZP010009329.1</text></g><g class="xtick"><text text-anchor="start" x="0" y="377" transform="translate(512.1600000000001,0) rotate(90,0,372)" style="font-family: 'Lucida Grande', 'Open Sans', verdana, arial, sans-serif; font-size: 10px; fill: rgb(0, 0, 0); fill-opacity: 1; white-space: pre; opacity: 1;">JAKSZP010009410.1</text></g><g class="xtick"><text text-anchor="start" x="0" y="377" transform="translate(525.45,0) rotate(90,0,372)" style="font-family: 'Lucida Grande', 'Open Sans', verdana, arial, sans-serif; font-size: 10px; fill: rgb(0, 0, 0); fill-opacity: 1; white-space: pre; opacity: 1;">JAKSZP010010022.1</text></g><g class="xtick"><text text-anchor="start" x="0" y="377" transform="translate(538.75,0) rotate(90,0,372)" style="font-family: 'Lucida Grande', 'Open Sans', verdana, arial, sans-serif; font-size: 10px; fill: rgb(0, 0, 0); fill-opacity: 1; white-space: pre; opacity: 1;">JAKSZP010010360.1</text></g><g class="xtick"><text text-anchor="start" x="0" y="377" transform="translate(552.05,0) rotate(90,0,372)" style="font-family: 'Lucida Grande', 'Open Sans', verdana, arial, sans-serif; font-size: 10px; fill: rgb(0, 0, 0); fill-opacity: 1; white-space: pre; opacity: 1;">JAKSZP010010569.1</text></g><g class="xtick"><text text-anchor="start" x="0" y="377" transform="translate(565.35,0) rotate(90,0,372)" style="font-family: 'Lucida Grande', 'Open Sans', verdana, arial, sans-serif; font-size: 10px; fill: rgb(0, 0, 0); fill-opacity: 1; white-space: pre; opacity: 1;">JAKSZP010010638.1</text></g><g class="xtick"><text text-anchor="start" x="0" y="377" transform="translate(578.65,0) rotate(90,0,372)" style="font-family: 'Lucida Grande', 'Open Sans', verdana, arial, sans-serif; font-size: 10px; fill: rgb(0, 0, 0); fill-opacity: 1; white-space: pre; opacity: 1;">JAKSZP010010727.1</text></g><g class="xtick"><text text-anchor="start" x="0" y="377" transform="translate(591.95,0) rotate(90,0,372)" style="font-family: 'Lucida Grande', 'Open Sans', verdana, arial, sans-serif; font-size: 10px; fill: rgb(0, 0, 0); fill-opacity: 1; white-space: pre; opacity: 1;">JAKSZP010010751.1</text></g><g class="xtick"><text text-anchor="start" x="0" y="377" transform="translate(605.25,0) rotate(90,0,372)" style="font-family: 'Lucida Grande', 'Open Sans', verdana, arial, sans-serif; font-size: 10px; fill: rgb(0, 0, 0); fill-opacity: 1; white-space: pre; opacity: 1;">JAKSZP010011111.1</text></g><g class="xtick"><text text-anchor="start" x="0" y="377" transform="translate(618.55,0) rotate(90,0,372)" style="font-family: 'Lucida Grande', 'Open Sans', verdana, arial, sans-serif; font-size: 10px; fill: rgb(0, 0, 0); fill-opacity: 1; white-space: pre; opacity: 1;">JAKSZP010011191.1</text></g><g class="xtick"><text text-anchor="start" x="0" y="377" transform="translate(631.84,0) rotate(90,0,372)" style="font-family: 'Lucida Grande', 'Open Sans', verdana, arial, sans-serif; font-size: 10px; fill: rgb(0, 0, 0); fill-opacity: 1; white-space: pre; opacity: 1;">JAKSZP010011400.1</text></g><g class="xtick"><text text-anchor="start" x="0" y="377" transform="translate(645.14,0) rotate(90,0,372)" style="font-family: 'Lucida Grande', 'Open Sans', verdana, arial, sans-serif; font-size: 10px; fill: rgb(0, 0, 0); fill-opacity: 1; white-space: pre; opacity: 1;">JAKSZP010011468.1</text></g><g class="xtick"><text text-anchor="start" x="0" y="377" transform="translate(658.44,0) rotate(90,0,372)" style="font-family: 'Lucida Grande', 'Open Sans', verdana, arial, sans-serif; font-size: 10px; fill: rgb(0, 0, 0); fill-opacity: 1; white-space: pre; opacity: 1;">JAKSZP010011738.1</text></g><g class="xtick"><text text-anchor="start" x="0" y="377" transform="translate(671.74,0) rotate(90,0,372)" style="font-family: 'Lucida Grande', 'Open Sans', verdana, arial, sans-serif; font-size: 10px; fill: rgb(0, 0, 0); fill-opacity: 1; white-space: pre; opacity: 1;">JAKSZP010011822.1</text></g><g class="xtick"><text text-anchor="start" x="0" y="377" transform="translate(685.04,0) rotate(90,0,372)" style="font-family: 'Lucida Grande', 'Open Sans', verdana, arial, sans-serif; font-size: 10px; fill: rgb(0, 0, 0); fill-opacity: 1; white-space: pre; opacity: 1;">JAKSZP010011897.1</text></g><g class="xtick"><text text-anchor="start" x="0" y="377" transform="translate(698.34,0) rotate(90,0,372)" style="font-family: 'Lucida Grande', 'Open Sans', verdana, arial, sans-serif; font-size: 10px; fill: rgb(0, 0, 0); fill-opacity: 1; white-space: pre; opacity: 1;">JAKSZP010012281.1</text></g><g class="xtick"><text text-anchor="start" x="0" y="377" transform="translate(711.64,0) rotate(90,0,372)" style="font-family: 'Lucida Grande', 'Open Sans', verdana, arial, sans-serif; font-size: 10px; fill: rgb(0, 0, 0); fill-opacity: 1; white-space: pre; opacity: 1;">JAKSZP010013147.1</text></g><g class="xtick"><text text-anchor="start" x="0" y="377" transform="translate(724.94,0) rotate(90,0,372)" style="font-family: 'Lucida Grande', 'Open Sans', verdana, arial, sans-serif; font-size: 10px; fill: rgb(0, 0, 0); fill-opacity: 1; white-space: pre; opacity: 1;">JAKSZP010013158.1</text></g><g class="xtick"><text text-anchor="start" x="0" y="377" transform="translate(738.23,0) rotate(90,0,372)" style="font-family: 'Lucida Grande', 'Open Sans', verdana, arial, sans-serif; font-size: 10px; fill: rgb(0, 0, 0); fill-opacity: 1; white-space: pre; opacity: 1;">JAKSZP010013190.1</text></g><g class="xtick"><text text-anchor="start" x="0" y="377" transform="translate(751.53,0) rotate(90,0,372)" style="font-family: 'Lucida Grande', 'Open Sans', verdana, arial, sans-serif; font-size: 10px; fill: rgb(0, 0, 0); fill-opacity: 1; white-space: pre; opacity: 1;">JAKSZP010013241.1</text></g><g class="xtick"><text text-anchor="start" x="0" y="377" transform="translate(764.83,0) rotate(90,0,372)" style="font-family: 'Lucida Grande', 'Open Sans', verdana, arial, sans-serif; font-size: 10px; fill: rgb(0, 0, 0); fill-opacity: 1; white-space: pre; opacity: 1;">JAKSZP010013366.1</text></g><g class="xtick"><text text-anchor="start" x="0" y="377" transform="translate(778.13,0) rotate(90,0,372)" style="font-family: 'Lucida Grande', 'Open Sans', verdana, arial, sans-serif; font-size: 10px; fill: rgb(0, 0, 0); fill-opacity: 1; white-space: pre; opacity: 1;">JAKSZP010013699.1</text></g><g class="xtick"><text text-anchor="start" x="0" y="377" transform="translate(791.43,0) rotate(90,0,372)" style="font-family: 'Lucida Grande', 'Open Sans', verdana, arial, sans-serif; font-size: 10px; fill: rgb(0, 0, 0); fill-opacity: 1; white-space: pre; opacity: 1;">JAKSZP010013765.1</text></g><g class="xtick"><text text-anchor="start" x="0" y="377" transform="translate(804.73,0) rotate(90,0,372)" style="font-family: 'Lucida Grande', 'Open Sans', verdana, arial, sans-serif; font-size: 10px; fill: rgb(0, 0, 0); fill-opacity: 1; white-space: pre; opacity: 1;">JAKSZP010014445.1</text></g><g class="xtick"><text text-anchor="start" x="0" y="377" transform="translate(818.03,0) rotate(90,0,372)" style="font-family: 'Lucida Grande', 'Open Sans', verdana, arial, sans-serif; font-size: 10px; fill: rgb(0, 0, 0); fill-opacity: 1; white-space: pre; opacity: 1;">JAKSZP010014506.1</text></g><g class="xtick"><text text-anchor="start" x="0" y="377" transform="translate(831.32,0) rotate(90,0,372)" style="font-family: 'Lucida Grande', 'Open Sans', verdana, arial, sans-serif; font-size: 10px; fill: rgb(0, 0, 0); fill-opacity: 1; white-space: pre; opacity: 1;">JAKSZP010014523.1</text></g><g class="xtick"><text text-anchor="start" x="0" y="377" transform="translate(844.62,0) rotate(90,0,372)" style="font-family: 'Lucida Grande', 'Open Sans', verdana, arial, sans-serif; font-size: 10px; fill: rgb(0, 0, 0); fill-opacity: 1; white-space: pre; opacity: 1;">JAKSZP010014547.1</text></g><g class="xtick"><text text-anchor="start" x="0" y="377" transform="translate(857.92,0) rotate(90,0,372)" style="font-family: 'Lucida Grande', 'Open Sans', verdana, arial, sans-serif; font-size: 10px; fill: rgb(0, 0, 0); fill-opacity: 1; white-space: pre; opacity: 1;">JAKSZP010014696.1</text></g><g class="xtick"><text text-anchor="start" x="0" y="377" transform="translate(871.22,0) rotate(90,0,372)" style="font-family: 'Lucida Grande', 'Open Sans', verdana, arial, sans-serif; font-size: 10px; fill: rgb(0, 0, 0); fill-opacity: 1; white-space: pre; opacity: 1;">JAKSZP010015409.1</text></g><g class="xtick"><text text-anchor="start" x="0" y="377" transform="translate(884.52,0) rotate(90,0,372)" style="font-family: 'Lucida Grande', 'Open Sans', verdana, arial, sans-serif; font-size: 10px; fill: rgb(0, 0, 0); fill-opacity: 1; white-space: pre; opacity: 1;">JAKSZP010015774.1</text></g><g class="xtick"><text text-anchor="start" x="0" y="377" transform="translate(897.82,0) rotate(90,0,372)" style="font-family: 'Lucida Grande', 'Open Sans', verdana, arial, sans-serif; font-size: 10px; fill: rgb(0, 0, 0); fill-opacity: 1; white-space: pre; opacity: 1;">JAKSZP010015839.1</text></g><g class="xtick"><text text-anchor="start" x="0" y="377" transform="translate(911.12,0) rotate(90,0,372)" style="font-family: 'Lucida Grande', 'Open Sans', verdana, arial, sans-serif; font-size: 10px; fill: rgb(0, 0, 0); fill-opacity: 1; white-space: pre; opacity: 1;">JAKSZP010016022.1</text></g><g class="xtick"><text text-anchor="start" x="0" y="377" transform="translate(924.42,0) rotate(90,0,372)" style="font-family: 'Lucida Grande', 'Open Sans', verdana, arial, sans-serif; font-size: 10px; fill: rgb(0, 0, 0); fill-opacity: 1; white-space: pre; opacity: 1;">JAKSZP010016073.1</text></g><g class="xtick"><text text-anchor="start" x="0" y="377" transform="translate(937.71,0) rotate(90,0,372)" style="font-family: 'Lucida Grande', 'Open Sans', verdana, arial, sans-serif; font-size: 10px; fill: rgb(0, 0, 0); fill-opacity: 1; white-space: pre; opacity: 1;">JAKSZP010016102.1</text></g><g class="xtick"><text text-anchor="start" x="0" y="377" transform="translate(951.01,0) rotate(90,0,372)" style="font-family: 'Lucida Grande', 'Open Sans', verdana, arial, sans-serif; font-size: 10px; fill: rgb(0, 0, 0); fill-opacity: 1; white-space: pre; opacity: 1;">JAKSZP010016390.1</text></g><g class="xtick"><text text-anchor="start" x="0" y="377" transform="translate(964.31,0) rotate(90,0,372)" style="font-family: 'Lucida Grande', 'Open Sans', verdana, arial, sans-serif; font-size: 10px; fill: rgb(0, 0, 0); fill-opacity: 1; white-space: pre; opacity: 1;">JAKSZP010016393.1</text></g><g class="xtick"><text text-anchor="start" x="0" y="377" transform="translate(977.61,0) rotate(90,0,372)" style="font-family: 'Lucida Grande', 'Open Sans', verdana, arial, sans-serif; font-size: 10px; fill: rgb(0, 0, 0); fill-opacity: 1; white-space: pre; opacity: 1;">JAKSZP010016401.1</text></g><g class="xtick"><text text-anchor="start" x="0" y="377" transform="translate(990.91,0) rotate(90,0,372)" style="font-family: 'Lucida Grande', 'Open Sans', verdana, arial, sans-serif; font-size: 10px; fill: rgb(0, 0, 0); fill-opacity: 1; white-space: pre; opacity: 1;">JAKSZP010017094.1</text></g><g class="xtick"><text text-anchor="start" x="0" y="377" transform="translate(1004.21,0) rotate(90,0,372)" style="font-family: 'Lucida Grande', 'Open Sans', verdana, arial, sans-serif; font-size: 10px; fill: rgb(0, 0, 0); fill-opacity: 1; white-space: pre; opacity: 1;">JAKSZP010017175.1</text></g><g class="xtick"><text text-anchor="start" x="0" y="377" transform="translate(1017.51,0) rotate(90,0,372)" style="font-family: 'Lucida Grande', 'Open Sans', verdana, arial, sans-serif; font-size: 10px; fill: rgb(0, 0, 0); fill-opacity: 1; white-space: pre; opacity: 1;">JAKSZP010017383.1</text></g><g class="xtick"><text text-anchor="start" x="0" y="377" transform="translate(1030.81,0) rotate(90,0,372)" style="font-family: 'Lucida Grande', 'Open Sans', verdana, arial, sans-serif; font-size: 10px; fill: rgb(0, 0, 0); fill-opacity: 1; white-space: pre; opacity: 1;">JAKSZP010017862.1</text></g><g class="xtick"><text text-anchor="start" x="0" y="377" transform="translate(1044.1,0) rotate(90,0,372)" style="font-family: 'Lucida Grande', 'Open Sans', verdana, arial, sans-serif; font-size: 10px; fill: rgb(0, 0, 0); fill-opacity: 1; white-space: pre; opacity: 1;">JAKSZP010018392.1</text></g><g class="xtick"><text text-anchor="start" x="0" y="377" transform="translate(1057.4,0) rotate(90,0,372)" style="font-family: 'Lucida Grande', 'Open Sans', verdana, arial, sans-serif; font-size: 10px; fill: rgb(0, 0, 0); fill-opacity: 1; white-space: pre; opacity: 1;">JAKSZP010019011.1</text></g><g class="xtick"><text text-anchor="start" x="0" y="377" transform="translate(1070.7,0) rotate(90,0,372)" style="font-family: 'Lucida Grande', 'Open Sans', verdana, arial, sans-serif; font-size: 10px; fill: rgb(0, 0, 0); fill-opacity: 1; white-space: pre; opacity: 1;">JAKSZP010019195.1</text></g><g class="xtick"><text text-anchor="start" x="0" y="377" transform="translate(1084,0) rotate(90,0,372)" style="font-family: 'Lucida Grande', 'Open Sans', verdana, arial, sans-serif; font-size: 10px; fill: rgb(0, 0, 0); fill-opacity: 1; white-space: pre; opacity: 1;">JAKSZP010019356.1</text></g></g><g class="yaxislayer-above"><g class="ytick"><text text-anchor="end" x="54" y="3.5" transform="translate(0,345.45)" style="font-family: 'Lucida Grande', 'Open Sans', verdana, arial, sans-serif; font-size: 10px; fill: rgb(0, 0, 0); fill-opacity: 1; white-space: pre; opacity: 1;">0</text></g><g class="ytick"><text text-anchor="end" x="54" y="3.5" style="font-family: 'Lucida Grande', 'Open Sans', verdana, arial, sans-serif; font-size: 10px; fill: rgb(0, 0, 0); fill-opacity: 1; white-space: pre; opacity: 1;" transform="translate(0,305.93)">2k</text></g><g class="ytick"><text text-anchor="end" x="54" y="3.5" style="font-family: 'Lucida Grande', 'Open Sans', verdana, arial, sans-serif; font-size: 10px; fill: rgb(0, 0, 0); fill-opacity: 1; white-space: pre; opacity: 1;" transform="translate(0,266.40999999999997)">4k</text></g><g class="ytick"><text text-anchor="end" x="54" y="3.5" style="font-family: 'Lucida Grande', 'Open Sans', verdana, arial, sans-serif; font-size: 10px; fill: rgb(0, 0, 0); fill-opacity: 1; white-space: pre; opacity: 1;" transform="translate(0,226.89)">6k</text></g><g class="ytick"><text text-anchor="end" x="54" y="3.5" style="font-family: 'Lucida Grande', 'Open Sans', verdana, arial, sans-serif; font-size: 10px; fill: rgb(0, 0, 0); fill-opacity: 1; white-space: pre; opacity: 1;" transform="translate(0,187.36)">8k</text></g><g class="ytick"><text text-anchor="end" x="54" y="3.5" style="font-family: 'Lucida Grande', 'Open Sans', verdana, arial, sans-serif; font-size: 10px; fill: rgb(0, 0, 0); fill-opacity: 1; white-space: pre; opacity: 1;" transform="translate(0,147.84)">10k</text></g><g class="ytick"><text text-anchor="end" x="54" y="3.5" style="font-family: 'Lucida Grande', 'Open Sans', verdana, arial, sans-serif; font-size: 10px; fill: rgb(0, 0, 0); fill-opacity: 1; white-space: pre; opacity: 1;" transform="translate(0,108.32)">12k</text></g><g class="ytick"><text text-anchor="end" x="54" y="3.5" style="font-family: 'Lucida Grande', 'Open Sans', verdana, arial, sans-serif; font-size: 10px; fill: rgb(0, 0, 0); fill-opacity: 1; white-space: pre; opacity: 1;" transform="translate(0,68.8)">14k</text></g></g><g class="overaxes-above"/></g></g><g class="polarlayer"/><g class="smithlayer"/><g class="ternarylayer"/><g class="geolayer"/><g class="funnelarealayer"/><g class="pielayer"/><g class="iciclelayer"/><g class="treemaplayer"/><g class="sunburstlayer"/><g class="glimages"/><defs id="topdefs-495a48"><g class="clips"/></defs><g class="layer-above"><g class="imagelayer"/><g class="shapelayer"/></g><g class="infolayer"><g class="g-gtitle"><text class="gtitle" x="550" y="25" text-anchor="middle" dy="0em" style="opacity: 1; font-family: 'Lucida Grande', 'Open Sans', verdana, arial, sans-serif; font-size: 20px; fill: rgb(68, 68, 68); fill-opacity: 1; white-space: pre;"><tspan class="line" dy="0em" x="550" y="25">Samtools: idxstats: Mapped reads per contig</tspan><tspan class="line" dy="1.3em" x="550" y="25">​<tspan style="font-size:70%" dy="-0.6em">Observed over Expected Counts, 6 samples</tspan><tspan dy="0.42em">​</tspan></tspan></text></g><g class="g-xtitle" transform="translate(0,76.203125)"><text class="xtitle" x="572" y="413" text-anchor="middle" style="opacity: 0.3; font-family: 'Lucida Grande', 'Open Sans', verdana, arial, sans-serif; font-size: 14px; fill: rgb(0, 0, 0); fill-opacity: 1; white-space: pre;">Chromosome name</text></g><g class="g-ytitle"><text class="ytitle" transform="rotate(-90,22,205.5)" x="22" y="205.5" text-anchor="middle" style="opacity: 0.3; font-family: 'Lucida Grande', 'Open Sans', verdana, arial, sans-serif; font-size: 14px; fill: rgb(0, 0, 0); fill-opacity: 1; white-space: pre;">log10 ( Observed over expected counts )</text></g></g></svg>