<svg class="main-svg" xmlns="http://www.w3.org/2000/svg" xmlns:xlink="http://www.w3.org/1999/xlink" width="2200" height="1000" style="" viewBox="0 0 1100 500"><rect x="0" y="0" width="1100" height="500" style="fill: rgb(255, 255, 255); fill-opacity: 1;"/><defs id="defs-f5e9a0"><g class="clips"><clipPath id="clipf5e9a0xyplot" class="plotclip"><rect width="1024" height="311"/></clipPath><clipPath class="axesclip" id="clipf5e9a0x"><rect x="60" y="0" width="1024" height="500"/></clipPath><clipPath class="axesclip" id="clipf5e9a0y"><rect x="0" y="50" width="1100" height="311"/></clipPath><clipPath class="axesclip" id="clipf5e9a0xy"><rect x="60" y="50" width="1024" height="311"/></clipPath></g><g class="gradients"/><g class="patterns"/></defs><g class="bglayer"/><g class="layer-below"><g class="imagelayer"/><g class="shapelayer"/></g><g class="cartesianlayer"><g class="subplot xy"><g class="layer-subplot"><g class="shapelayer"/><g class="imagelayer"/></g><g class="minor-gridlayer"><g class="x"/><g class="y"/></g><g class="gridlayer"><g class="x"><path class="xgrid crisp" transform="translate(73.3,0)" d="M0,50v311" style="stroke: rgb(0, 0, 0); stroke-opacity: 0.05; stroke-width: 1px;"/><path class="xgrid crisp" transform="translate(86.6,0)" d="M0,50v311" style="stroke: rgb(0, 0, 0); stroke-opacity: 0.05; stroke-width: 1px;"/><path class="xgrid crisp" transform="translate(99.9,0)" d="M0,50v311" style="stroke: rgb(0, 0, 0); stroke-opacity: 0.05; stroke-width: 1px;"/><path class="xgrid crisp" transform="translate(113.19,0)" d="M0,50v311" style="stroke: rgb(0, 0, 0); stroke-opacity: 0.05; stroke-width: 1px;"/><path class="xgrid crisp" transform="translate(126.49,0)" d="M0,50v311" style="stroke: rgb(0, 0, 0); stroke-opacity: 0.05; stroke-width: 1px;"/><path class="xgrid crisp" transform="translate(139.79000000000002,0)" d="M0,50v311" style="stroke: rgb(0, 0, 0); stroke-opacity: 0.05; stroke-width: 1px;"/><path class="xgrid crisp" transform="translate(153.09,0)" d="M0,50v311" style="stroke: rgb(0, 0, 0); stroke-opacity: 0.05; stroke-width: 1px;"/><path class="xgrid crisp" transform="translate(166.39,0)" d="M0,50v311" style="stroke: rgb(0, 0, 0); stroke-opacity: 0.05; stroke-width: 1px;"/><path class="xgrid crisp" transform="translate(179.69,0)" d="M0,50v311" style="stroke: rgb(0, 0, 0); stroke-opacity: 0.05; stroke-width: 1px;"/><path class="xgrid crisp" transform="translate(192.99,0)" d="M0,50v311" style="stroke: rgb(0, 0, 0); stroke-opacity: 0.05; stroke-width: 1px;"/><path class="xgrid crisp" transform="translate(206.29,0)" d="M0,50v311" style="stroke: rgb(0, 0, 0); stroke-opacity: 0.05; stroke-width: 1px;"/><path class="xgrid crisp" transform="translate(219.58,0)" d="M0,50v311" style="stroke: rgb(0, 0, 0); stroke-opacity: 0.05; stroke-width: 1px;"/><path class="xgrid crisp" transform="translate(232.88,0)" d="M0,50v311" style="stroke: rgb(0, 0, 0); stroke-opacity: 0.05; stroke-width: 1px;"/><path class="xgrid crisp" transform="translate(246.18,0)" d="M0,50v311" style="stroke: rgb(0, 0, 0); stroke-opacity: 0.05; stroke-width: 1px;"/><path class="xgrid crisp" transform="translate(259.48,0)" d="M0,50v311" style="stroke: rgb(0, 0, 0); stroke-opacity: 0.05; stroke-width: 1px;"/><path class="xgrid crisp" transform="translate(272.78,0)" d="M0,50v311" style="stroke: rgb(0, 0, 0); stroke-opacity: 0.05; stroke-width: 1px;"/><path class="xgrid crisp" transform="translate(286.08000000000004,0)" d="M0,50v311" style="stroke: rgb(0, 0, 0); stroke-opacity: 0.05; stroke-width: 1px;"/><path class="xgrid crisp" transform="translate(299.38,0)" d="M0,50v311" style="stroke: rgb(0, 0, 0); stroke-opacity: 0.05; stroke-width: 1px;"/><path class="xgrid crisp" transform="translate(312.68,0)" d="M0,50v311" style="stroke: rgb(0, 0, 0); stroke-opacity: 0.05; stroke-width: 1px;"/><path class="xgrid crisp" transform="translate(325.97,0)" d="M0,50v311" style="stroke: rgb(0, 0, 0); stroke-opacity: 0.05; stroke-width: 1px;"/><path class="xgrid crisp" transform="translate(339.27,0)" d="M0,50v311" style="stroke: rgb(0, 0, 0); stroke-opacity: 0.05; stroke-width: 1px;"/><path class="xgrid crisp" transform="translate(352.57,0)" d="M0,50v311" style="stroke: rgb(0, 0, 0); stroke-opacity: 0.05; stroke-width: 1px;"/><path class="xgrid crisp" transform="translate(365.87,0)" d="M0,50v311" style="stroke: rgb(0, 0, 0); stroke-opacity: 0.05; stroke-width: 1px;"/><path class="xgrid crisp" transform="translate(379.17,0)" d="M0,50v311" style="stroke: rgb(0, 0, 0); stroke-opacity: 0.05; stroke-width: 1px;"/><path class="xgrid crisp" transform="translate(392.47,0)" d="M0,50v311" style="stroke: rgb(0, 0, 0); stroke-opacity: 0.05; stroke-width: 1px;"/><path class="xgrid crisp" transform="translate(405.77,0)" d="M0,50v311" style="stroke: rgb(0, 0, 0); stroke-opacity: 0.05; stroke-width: 1px;"/><path class="xgrid crisp" transform="translate(419.06,0)" d="M0,50v311" style="stroke: rgb(0, 0, 0); stroke-opacity: 0.05; stroke-width: 1px;"/><path class="xgrid crisp" transform="translate(432.36,0)" d="M0,50v311" style="stroke: rgb(0, 0, 0); stroke-opacity: 0.05; stroke-width: 1px;"/><path class="xgrid crisp" transform="translate(445.66,0)" d="M0,50v311" style="stroke: rgb(0, 0, 0); stroke-opacity: 0.05; stroke-width: 1px;"/><path class="xgrid crisp" transform="translate(458.96,0)" d="M0,50v311" style="stroke: rgb(0, 0, 0); stroke-opacity: 0.05; stroke-width: 1px;"/><path class="xgrid crisp" transform="translate(472.26,0)" d="M0,50v311" style="stroke: rgb(0, 0, 0); stroke-opacity: 0.05; stroke-width: 1px;"/><path class="xgrid crisp" transform="translate(485.56,0)" d="M0,50v311" style="stroke: rgb(0, 0, 0); stroke-opacity: 0.05; stroke-width: 1px;"/><path class="xgrid crisp" transform="translate(498.86,0)" d="M0,50v311" style="stroke: rgb(0, 0, 0); stroke-opacity: 0.05; stroke-width: 1px;"/><path class="xgrid crisp" transform="translate(512.1600000000001,0)" d="M0,50v311" style="stroke: rgb(0, 0, 0); stroke-opacity: 0.05; stroke-width: 1px;"/><path class="xgrid crisp" transform="translate(525.45,0)" d="M0,50v311" style="stroke: rgb(0, 0, 0); stroke-opacity: 0.05; stroke-width: 1px;"/><path class="xgrid crisp" transform="translate(538.75,0)" d="M0,50v311" style="stroke: rgb(0, 0, 0); stroke-opacity: 0.05; stroke-width: 1px;"/><path class="xgrid crisp" transform="translate(552.05,0)" d="M0,50v311" style="stroke: rgb(0, 0, 0); stroke-opacity: 0.05; stroke-width: 1px;"/><path class="xgrid crisp" transform="translate(565.35,0)" d="M0,50v311" style="stroke: rgb(0, 0, 0); stroke-opacity: 0.05; stroke-width: 1px;"/><path class="xgrid crisp" transform="translate(578.65,0)" d="M0,50v311" style="stroke: rgb(0, 0, 0); stroke-opacity: 0.05; stroke-width: 1px;"/><path class="xgrid crisp" transform="translate(591.95,0)" d="M0,50v311" style="stroke: rgb(0, 0, 0); stroke-opacity: 0.05; stroke-width: 1px;"/><path class="xgrid crisp" transform="translate(605.25,0)" d="M0,50v311" style="stroke: rgb(0, 0, 0); stroke-opacity: 0.05; stroke-width: 1px;"/><path class="xgrid crisp" transform="translate(618.55,0)" d="M0,50v311" style="stroke: rgb(0, 0, 0); stroke-opacity: 0.05; stroke-width: 1px;"/><path class="xgrid crisp" transform="translate(631.84,0)" d="M0,50v311" style="stroke: rgb(0, 0, 0); stroke-opacity: 0.05; stroke-width: 1px;"/><path class="xgrid crisp" transform="translate(645.14,0)" d="M0,50v311" style="stroke: rgb(0, 0, 0); stroke-opacity: 0.05; stroke-width: 1px;"/><path class="xgrid crisp" transform="translate(658.44,0)" d="M0,50v311" style="stroke: rgb(0, 0, 0); stroke-opacity: 0.05; stroke-width: 1px;"/><path class="xgrid crisp" transform="translate(671.74,0)" d="M0,50v311" style="stroke: rgb(0, 0, 0); stroke-opacity: 0.05; stroke-width: 1px;"/><path class="xgrid crisp" transform="translate(685.04,0)" d="M0,50v311" style="stroke: rgb(0, 0, 0); stroke-opacity: 0.05; stroke-width: 1px;"/><path class="xgrid crisp" transform="translate(698.34,0)" d="M0,50v311" style="stroke: rgb(0, 0, 0); stroke-opacity: 0.05; stroke-width: 1px;"/><path class="xgrid crisp" transform="translate(711.64,0)" d="M0,50v311" style="stroke: rgb(0, 0, 0); stroke-opacity: 0.05; stroke-width: 1px;"/><path class="xgrid crisp" transform="translate(724.94,0)" d="M0,50v311" style="stroke: rgb(0, 0, 0); stroke-opacity: 0.05; stroke-width: 1px;"/><path class="xgrid crisp" transform="translate(738.23,0)" d="M0,50v311" style="stroke: rgb(0, 0, 0); stroke-opacity: 0.05; stroke-width: 1px;"/><path class="xgrid crisp" transform="translate(751.53,0)" d="M0,50v311" style="stroke: rgb(0, 0, 0); stroke-opacity: 0.05; stroke-width: 1px;"/><path class="xgrid crisp" transform="translate(764.83,0)" d="M0,50v311" style="stroke: rgb(0, 0, 0); stroke-opacity: 0.05; stroke-width: 1px;"/><path class="xgrid crisp" transform="translate(778.13,0)" d="M0,50v311" style="stroke: rgb(0, 0, 0); stroke-opacity: 0.05; stroke-width: 1px;"/><path class="xgrid crisp" transform="translate(791.43,0)" d="M0,50v311" style="stroke: rgb(0, 0, 0); stroke-opacity: 0.05; stroke-width: 1px;"/><path class="xgrid crisp" transform="translate(804.73,0)" d="M0,50v311" style="stroke: rgb(0, 0, 0); stroke-opacity: 0.05; stroke-width: 1px;"/><path class="xgrid crisp" transform="translate(818.03,0)" d="M0,50v311" style="stroke: rgb(0, 0, 0); stroke-opacity: 0.05; stroke-width: 1px;"/><path class="xgrid crisp" transform="translate(831.32,0)" d="M0,50v311" style="stroke: rgb(0, 0, 0); stroke-opacity: 0.05; stroke-width: 1px;"/><path class="xgrid crisp" transform="translate(844.62,0)" d="M0,50v311" style="stroke: rgb(0, 0, 0); stroke-opacity: 0.05; stroke-width: 1px;"/><path class="xgrid crisp" transform="translate(857.92,0)" d="M0,50v311" style="stroke: rgb(0, 0, 0); stroke-opacity: 0.05; stroke-width: 1px;"/><path class="xgrid crisp" transform="translate(871.22,0)" d="M0,50v311" style="stroke: rgb(0, 0, 0); stroke-opacity: 0.05; stroke-width: 1px;"/><path class="xgrid crisp" transform="translate(884.52,0)" d="M0,50v311" style="stroke: rgb(0, 0, 0); stroke-opacity: 0.05; stroke-width: 1px;"/><path class="xgrid crisp" transform="translate(897.82,0)" d="M0,50v311" style="stroke: rgb(0, 0, 0); stroke-opacity: 0.05; stroke-width: 1px;"/><path class="xgrid crisp" transform="translate(911.12,0)" d="M0,50v311" style="stroke: rgb(0, 0, 0); stroke-opacity: 0.05; stroke-width: 1px;"/><path class="xgrid crisp" transform="translate(924.42,0)" d="M0,50v311" style="stroke: rgb(0, 0, 0); stroke-opacity: 0.05; stroke-width: 1px;"/><path class="xgrid crisp" transform="translate(937.71,0)" d="M0,50v311" style="stroke: rgb(0, 0, 0); stroke-opacity: 0.05; stroke-width: 1px;"/><path class="xgrid crisp" transform="translate(951.01,0)" d="M0,50v311" style="stroke: rgb(0, 0, 0); stroke-opacity: 0.05; stroke-width: 1px;"/><path class="xgrid crisp" transform="translate(964.31,0)" d="M0,50v311" style="stroke: rgb(0, 0, 0); stroke-opacity: 0.05; stroke-width: 1px;"/><path class="xgrid crisp" transform="translate(977.61,0)" d="M0,50v311" style="stroke: rgb(0, 0, 0); stroke-opacity: 0.05; stroke-width: 1px;"/><path class="xgrid crisp" transform="translate(990.91,0)" d="M0,50v311" style="stroke: rgb(0, 0, 0); stroke-opacity: 0.05; stroke-width: 1px;"/><path class="xgrid crisp" transform="translate(1004.21,0)" d="M0,50v311" style="stroke: rgb(0, 0, 0); stroke-opacity: 0.05; stroke-width: 1px;"/><path class="xgrid crisp" transform="translate(1017.51,0)" d="M0,50v311" style="stroke: rgb(0, 0, 0); stroke-opacity: 0.05; stroke-width: 1px;"/><path class="xgrid crisp" transform="translate(1030.81,0)" d="M0,50v311" style="stroke: rgb(0, 0, 0); stroke-opacity: 0.05; stroke-width: 1px;"/><path class="xgrid crisp" transform="translate(1044.1,0)" d="M0,50v311" style="stroke: rgb(0, 0, 0); stroke-opacity: 0.05; stroke-width: 1px;"/><path class="xgrid crisp" transform="translate(1057.4,0)" d="M0,50v311" style="stroke: rgb(0, 0, 0); stroke-opacity: 0.05; stroke-width: 1px;"/><path class="xgrid crisp" transform="translate(1070.7,0)" d="M0,50v311" style="stroke: rgb(0, 0, 0); stroke-opacity: 0.05; stroke-width: 1px;"/></g><g class="y"><path class="ygrid crisp" transform="translate(0,332.91)" d="M60,0h1024" style="stroke: rgb(0, 0, 0); stroke-opacity: 0.05; stroke-width: 1px;"/><path class="ygrid crisp" transform="translate(0,289.45)" d="M60,0h1024" style="stroke: rgb(0, 0, 0); stroke-opacity: 0.05; stroke-width: 1px;"/><path class="ygrid crisp" transform="translate(0,245.98)" d="M60,0h1024" style="stroke: rgb(0, 0, 0); stroke-opacity: 0.05; stroke-width: 1px;"/><path class="ygrid crisp" transform="translate(0,202.52)" d="M60,0h1024" style="stroke: rgb(0, 0, 0); stroke-opacity: 0.05; stroke-width: 1px;"/><path class="ygrid crisp" transform="translate(0,159.05)" d="M60,0h1024" style="stroke: rgb(0, 0, 0); stroke-opacity: 0.05; stroke-width: 1px;"/><path class="ygrid crisp" transform="translate(0,115.59)" d="M60,0h1024" style="stroke: rgb(0, 0, 0); stroke-opacity: 0.05; stroke-width: 1px;"/><path class="ygrid crisp" transform="translate(0,72.12)" d="M60,0h1024" style="stroke: rgb(0, 0, 0); stroke-opacity: 0.05; stroke-width: 1px;"/></g></g><g class="zerolinelayer"/><g class="layer-between"><g class="shapelayer"/><g class="imagelayer"/></g><path class="xlines-below"/><path class="ylines-below"/><g class="overlines-below"/><g class="xaxislayer-below"/><g class="yaxislayer-below"/><g class="overaxes-below"/><g class="overplot"><g class="xy" transform="translate(60,50)" clip-path="url(#clipf5e9a0xyplot)"><g class="scatterlayer mlayer"><g class="trace scatter trace5663d2" style="stroke-miterlimit: 2; opacity: 1;"><g class="fills"/><g class="errorbars"/><g class="lines"><path class="js-line" d="M0,185.52L13.3,160.71L26.6,140.77L39.9,91.27L53.19,149.44L66.49,162.62L79.79,156.51L93.09,159.3L106.39,130.1L119.69,112.92L132.99,168.5L146.29,142.7L159.58,138.2L172.88,116.23L186.18,97.02L199.48,165.59L212.78,30.97L226.08,135.56L239.38,149.89L252.68,105.37L265.97,125.22L279.27,104.69L292.57,155.64L305.87,124.25L319.17,96.77L332.47,106.88L345.77,138.85L359.06,140.87L372.36,93.57L385.66,135.82L398.96,128.61L412.26,195.34L425.56,147.85L438.86,137.48L452.16,124.82L478.75,104.15L492.05,141.87L505.35,153.72L518.65,128.33L531.95,141.67L545.25,98.04L558.55,44.9L571.84,115.14L585.14,77.43L598.44,56.16L611.74,161L625.04,157.41L638.34,104.86L651.64,161.2L664.94,154.38L678.23,136.77L691.53,145.74L704.83,142.25L718.13,118.28L731.43,175.87L744.73,169.3L758.03,100.23L771.32,142.11L784.62,167.6L797.92,144.05L811.22,101.79L824.52,110.35L837.82,169.45L851.12,171.17L864.42,74.84L877.71,139.86L891.01,118.28L904.31,92.16L917.61,63.99L930.91,152.07L944.21,147.7L957.51,142.46L970.81,124.8L984.1,146.85L997.4,121.91L1010.7,87.92L1024,66.96" style="vector-effect: none; fill: none; stroke: rgb(124, 181, 236); stroke-opacity: 1; stroke-width: 2px; opacity: 1;"/></g><g class="points"/><g class="text"/></g><g class="trace scatter tracee7809f" style="stroke-miterlimit: 2; opacity: 1;"><g class="fills"/><g class="errorbars"/><g class="lines"><path class="js-line" d="M0,150.94L13.3,125.15L26.6,113.73L39.9,212.34L53.19,158.41L66.49,159.23L79.79,117.85L93.09,147.07L106.39,225.31L119.69,84.04L132.99,123.57L146.29,140.76L159.58,153.82L172.88,259.59L186.18,240.25L199.48,110.49L212.78,32.14L226.08,149.66L239.38,135.98L252.68,256.07L265.97,143.88L279.27,139.09L292.57,151.97L305.87,267.23L319.17,119.37L332.47,201.2L345.77,223.55L359.06,139.7L372.36,295.45L385.66,156.01L398.96,207.42L412.26,158.89L425.56,179.86L438.86,275.04L452.16,129.69L465.45,64.07L478.75,83.84L492.05,196.89L505.35,147.83L518.65,169.83L531.95,156.74L545.25,205.1L558.55,50.49L571.84,126.39L585.14,250.1L598.44,41.59L611.74,151.01L625.04,127.78L638.34,122.01L651.64,254.22L664.94,203.11L678.23,146.07L691.53,159.27L718.13,139.61L731.43,116.21L744.73,197.22L758.03,245.75L771.32,141.54L784.62,153.82L797.92,154.54L811.22,118.66L824.52,205.4L837.82,166.42L851.12,149.48L864.42,190.99L877.71,142.21L891.01,127.99L904.31,226.46L917.61,59.86L930.91,235.38L944.21,144.94L957.51,133.76L970.81,110.92L984.1,177.74L997.4,117.05L1010.7,261.81L1024,68.89" style="vector-effect: none; fill: none; stroke: rgb(67, 67, 72); stroke-opacity: 1; stroke-width: 2px; opacity: 1;"/></g><g class="points"/><g class="text"/></g><g class="trace scatter trace902e0c" style="stroke-miterlimit: 2; opacity: 1;"><g class="fills"/><g class="errorbars"/><g class="lines"><path class="js-line" d="M0,181.77L13.3,172.58L26.6,139.6L39.9,85.56L53.19,146.62L66.49,169.75L79.79,206.44L93.09,198.06L106.39,138.13L119.69,132.71L132.99,226.97L146.29,135.12L159.58,149.57L172.88,109.96L186.18,95.4L199.48,222.83L212.78,26.47L226.08,148.01L239.38,180.24L252.68,110.13L265.97,126.82L279.27,93.69L292.57,150.13L305.87,114.69L319.17,99.44L332.47,114.01L345.77,132.5L359.06,141.92L372.36,75.41L385.66,137.14L398.96,121.09L412.26,258.78L425.56,134.52L438.86,124.66L452.16,166.86L465.45,221.82L478.75,121.83L492.05,132.82L505.35,152.63L518.65,126.25L531.95,158.44L558.55,38.03L571.84,95.93L585.14,89.26L598.44,68.46L611.74,164.59L625.04,180.68L638.34,108.33L651.64,142.25L664.94,144.41L678.23,127.64L691.53,129.27L704.83,142.87L718.13,119.73L731.43,199.78L744.73,166.31L758.03,103.74L771.32,147.74L784.62,173.78L797.92,143.61L811.22,121.16L824.52,115.11L837.82,185.69L851.12,180.98L864.42,84.93L877.71,138.07L891.01,121.99L904.31,107.45L917.61,65.48L930.91,147.78L944.21,133.65L957.51,156.26L970.81,130.03L984.1,134.88L997.4,118.45L1010.7,99.73L1024,61.9" style="vector-effect: none; fill: none; stroke: rgb(144, 237, 125); stroke-opacity: 1; stroke-width: 2px; opacity: 1;"/></g><g class="points"/><g class="text"/></g><g class="trace scatter trace882073" style="stroke-miterlimit: 2; opacity: 1;"><g class="fills"/><g class="errorbars"/><g class="lines"><path class="js-line" d="M0,115.93L13.3,111.23L26.6,112.12L39.9,237.72L53.19,149.07L66.49,150.64L79.79,111.37L93.09,125.82L106.39,225.14L119.69,85.85L132.99,149.95L146.29,146.63L159.58,145.41L172.88,240.88L186.18,257.23L199.48,107.71L212.78,45L226.08,144.07L239.38,122.78L252.68,247.28L265.97,127.54L279.27,156.16L292.57,140.78L305.87,252.64L319.17,107.68L332.47,166.08L345.77,185.82L359.06,134.55L372.36,286.83L385.66,155.07L398.96,182.67L412.26,150.14L425.56,184.49L438.86,256.87L452.16,118.45L465.45,58.88L478.75,114.28L492.05,191.08L505.35,159.92L518.65,149.07L531.95,155.36L545.25,205.22L558.55,66.96L571.84,124.18L585.14,231.59L598.44,61.46L611.74,159.58L625.04,123.45L638.34,120.23L651.64,232.49L664.94,201.6L678.23,152.65L691.53,153.3L704.83,152.44L718.13,121L731.43,104.86L744.73,184.91L758.03,237.94L771.32,124.52L784.62,141.41L797.92,140.69L811.22,116.6L824.52,212.13L837.82,143.49L851.12,122.33L864.42,189.81L877.71,144.58L891.01,126.28L904.31,233.22L917.61,78.99L930.91,229.37L944.21,148.3L957.51,127.24L970.81,118.6L984.1,170.15L997.4,118.82L1010.7,247.05L1024,86.87" style="vector-effect: none; fill: none; stroke: rgb(247, 163, 92); stroke-opacity: 1; stroke-width: 2px; opacity: 1;"/></g><g class="points"/><g class="text"/></g><g class="trace scatter trace526c80" style="stroke-miterlimit: 2; opacity: 1;"><g class="fills"/><g class="errorbars"/><g class="lines"><path class="js-line" d="M0,182.08L13.3,177.91L26.6,144.83L39.9,96.73L53.19,158.89L66.49,171.38L79.79,179.98L93.09,207.38L106.39,130.48L119.69,130.34L132.99,248.26L146.29,147.61L159.58,140.81L186.18,96.67L199.48,257.21L212.78,15.55L226.08,133.8L239.38,180.92L252.68,119.36L265.97,137.7L279.27,103.57L292.57,161.3L305.87,132.17L319.17,88.15L332.47,117.45L345.77,152.77L359.06,141.49L372.36,120.72L385.66,148.49L398.96,125.09L412.26,241.88L425.56,143.15L438.86,147.74L452.16,147.46L465.45,209.03L478.75,94.61L492.05,159.01L505.35,156.02L518.65,135L531.95,144.99L545.25,98.12L558.55,25.04L571.84,123.45L598.44,40.11L611.74,174.37L625.04,200.87L638.34,111.46L651.64,166.87L664.94,162.41L678.23,155.39L691.53,151.17L704.83,155.05L718.13,129.03L731.43,189.71L744.73,176.75L758.03,105.17L771.32,142.88L784.62,173.15L797.92,165.3L811.22,112.57L824.52,116.42L837.82,149.21L851.12,176.86L864.42,84.28L877.71,138.37L891.01,128.37L904.31,101.47L917.61,45.48L930.91,153.5L944.21,145.82L957.51,160.14L970.81,135.77L984.1,161.61L997.4,122.53L1010.7,107.02L1024,52.81" style="vector-effect: none; fill: none; stroke: rgb(128, 133, 233); stroke-opacity: 1; stroke-width: 2px; opacity: 1;"/></g><g class="points"/><g class="text"/></g><g class="trace scatter trace84d547" style="stroke-miterlimit: 2; opacity: 1;"><g class="fills"/><g class="errorbars"/><g class="lines"><path class="js-line" d="M0,200.72L26.6,150.81L39.9,90.12L53.19,149.69L66.49,170.49L93.09,192.97L106.39,135.71L119.69,127.5L132.99,198.69L146.29,150.37L159.58,143L172.88,112.83L186.18,93.56L199.48,185.94L212.78,18.91L226.08,137.97L239.38,159.02L252.68,110.21L265.97,122.13L279.27,99.99L292.57,155.76L305.87,116.18L319.17,96.47L332.47,109.82L345.77,144.08L359.06,141.1L372.36,85.33L385.66,142.43L398.96,118.77L412.26,230.52L425.56,147.32L438.86,133.51L452.16,138.51L465.45,206L478.75,97.98L492.05,136.32L505.35,151.75L518.65,117.64L531.95,145.3L545.25,96.28L558.55,37.47L571.84,115.84L585.14,78.95L598.44,43.57L611.74,162.05L625.04,180.38L638.34,112.62L651.64,154.91L664.94,149.86L678.23,140.15L691.53,144.15L704.83,137.67L718.13,117.41L731.43,189.66L744.73,167.95L758.03,101.29L771.32,147.11L784.62,171.6L797.92,151.63L811.22,110.43L824.52,111.15L837.82,183.31L851.12,188.42L864.42,76.65L877.71,141.7L891.01,123.4L904.31,95.55L917.61,59.65L930.91,150.44L944.21,148.49L957.51,151.32L970.81,125.74L984.1,141.29L997.4,120.77L1010.7,90.51L1024,60.64" style="vector-effect: none; fill: none; stroke: rgb(241, 92, 128); stroke-opacity: 1; stroke-width: 2px; opacity: 1;"/></g><g class="points"/><g class="text"/></g></g></g></g><path class="xlines-above crisp" d="M0,0" style="fill: none;"/><path class="ylines-above crisp" d="M0,0" style="fill: none;"/><g class="overlines-above"/><g class="xaxislayer-above"><g class="xtick"><text text-anchor="start" x="0" y="377" transform="translate(60,0) rotate(90,0,372)" style="font-family: 'Lucida Grande', 'Open Sans', verdana, arial, sans-serif; font-size: 10px; fill: rgb(0, 0, 0); fill-opacity: 1; white-space: pre; opacity: 1;">JAKSZP010000259.1</text></g><g class="xtick"><text text-anchor="start" x="0" y="377" transform="translate(73.3,0) rotate(90,0,372)" style="font-family: 'Lucida Grande', 'Open Sans', verdana, arial, sans-serif; font-size: 10px; fill: rgb(0, 0, 0); fill-opacity: 1; white-space: pre; opacity: 1;">JAKSZP010000397.1</text></g><g class="xtick"><text text-anchor="start" x="0" y="377" transform="translate(86.6,0) rotate(90,0,372)" style="font-family: 'Lucida Grande', 'Open Sans', verdana, arial, sans-serif; font-size: 10px; fill: rgb(0, 0, 0); fill-opacity: 1; white-space: pre; opacity: 1;">JAKSZP010000656.1</text></g><g class="xtick"><text text-anchor="start" x="0" y="377" transform="translate(99.9,0) rotate(90,0,372)" style="font-family: 'Lucida Grande', 'Open Sans', verdana, arial, sans-serif; font-size: 10px; fill: rgb(0, 0, 0); fill-opacity: 1; white-space: pre; opacity: 1;">JAKSZP010000969.1</text></g><g class="xtick"><text text-anchor="start" x="0" y="377" transform="translate(113.19,0) rotate(90,0,372)" style="font-family: 'Lucida Grande', 'Open Sans', verdana, arial, sans-serif; font-size: 10px; fill: rgb(0, 0, 0); fill-opacity: 1; white-space: pre; opacity: 1;">JAKSZP010001341.1</text></g><g class="xtick"><text text-anchor="start" x="0" y="377" transform="translate(126.49,0) rotate(90,0,372)" style="font-family: 'Lucida Grande', 'Open Sans', verdana, arial, sans-serif; font-size: 10px; fill: rgb(0, 0, 0); fill-opacity: 1; white-space: pre; opacity: 1;">JAKSZP010001378.1</text></g><g class="xtick"><text text-anchor="start" x="0" y="377" transform="translate(139.79000000000002,0) rotate(90,0,372)" style="font-family: 'Lucida Grande', 'Open Sans', verdana, arial, sans-serif; font-size: 10px; fill: rgb(0, 0, 0); fill-opacity: 1; white-space: pre; opacity: 1;">JAKSZP010001433.1</text></g><g class="xtick"><text text-anchor="start" x="0" y="377" transform="translate(153.09,0) rotate(90,0,372)" style="font-family: 'Lucida Grande', 'Open Sans', verdana, arial, sans-serif; font-size: 10px; fill: rgb(0, 0, 0); fill-opacity: 1; white-space: pre; opacity: 1;">JAKSZP010001453.1</text></g><g class="xtick"><text text-anchor="start" x="0" y="377" transform="translate(166.39,0) rotate(90,0,372)" style="font-family: 'Lucida Grande', 'Open Sans', verdana, arial, sans-serif; font-size: 10px; fill: rgb(0, 0, 0); fill-opacity: 1; white-space: pre; opacity: 1;">JAKSZP010001488.1</text></g><g class="xtick"><text text-anchor="start" x="0" y="377" transform="translate(179.69,0) rotate(90,0,372)" style="font-family: 'Lucida Grande', 'Open Sans', verdana, arial, sans-serif; font-size: 10px; fill: rgb(0, 0, 0); fill-opacity: 1; white-space: pre; opacity: 1;">JAKSZP010002298.1</text></g><g class="xtick"><text text-anchor="start" x="0" y="377" transform="translate(192.99,0) rotate(90,0,372)" style="font-family: 'Lucida Grande', 'Open Sans', verdana, arial, sans-serif; font-size: 10px; fill: rgb(0, 0, 0); fill-opacity: 1; white-space: pre; opacity: 1;">JAKSZP010002857.1</text></g><g class="xtick"><text text-anchor="start" x="0" y="377" transform="translate(206.29,0) rotate(90,0,372)" style="font-family: 'Lucida Grande', 'Open Sans', verdana, arial, sans-serif; font-size: 10px; fill: rgb(0, 0, 0); fill-opacity: 1; white-space: pre; opacity: 1;">JAKSZP010002906.1</text></g><g class="xtick"><text text-anchor="start" x="0" y="377" transform="translate(219.58,0) rotate(90,0,372)" style="font-family: 'Lucida Grande', 'Open Sans', verdana, arial, sans-serif; font-size: 10px; fill: rgb(0, 0, 0); fill-opacity: 1; white-space: pre; opacity: 1;">JAKSZP010002907.1</text></g><g class="xtick"><text text-anchor="start" x="0" y="377" transform="translate(232.88,0) rotate(90,0,372)" style="font-family: 'Lucida Grande', 'Open Sans', verdana, arial, sans-serif; font-size: 10px; fill: rgb(0, 0, 0); fill-opacity: 1; white-space: pre; opacity: 1;">JAKSZP010003046.1</text></g><g class="xtick"><text text-anchor="start" x="0" y="377" transform="translate(246.18,0) rotate(90,0,372)" style="font-family: 'Lucida Grande', 'Open Sans', verdana, arial, sans-serif; font-size: 10px; fill: rgb(0, 0, 0); fill-opacity: 1; white-space: pre; opacity: 1;">JAKSZP010003157.1</text></g><g class="xtick"><text text-anchor="start" x="0" y="377" transform="translate(259.48,0) rotate(90,0,372)" style="font-family: 'Lucida Grande', 'Open Sans', verdana, arial, sans-serif; font-size: 10px; fill: rgb(0, 0, 0); fill-opacity: 1; white-space: pre; opacity: 1;">JAKSZP010003298.1</text></g><g class="xtick"><text text-anchor="start" x="0" y="377" transform="translate(272.78,0) rotate(90,0,372)" style="font-family: 'Lucida Grande', 'Open Sans', verdana, arial, sans-serif; font-size: 10px; fill: rgb(0, 0, 0); fill-opacity: 1; white-space: pre; opacity: 1;">JAKSZP010003936.1</text></g><g class="xtick"><text text-anchor="start" x="0" y="377" transform="translate(286.08000000000004,0) rotate(90,0,372)" style="font-family: 'Lucida Grande', 'Open Sans', verdana, arial, sans-serif; font-size: 10px; fill: rgb(0, 0, 0); fill-opacity: 1; white-space: pre; opacity: 1;">JAKSZP010004139.1</text></g><g class="xtick"><text text-anchor="start" x="0" y="377" transform="translate(299.38,0) rotate(90,0,372)" style="font-family: 'Lucida Grande', 'Open Sans', verdana, arial, sans-serif; font-size: 10px; fill: rgb(0, 0, 0); fill-opacity: 1; white-space: pre; opacity: 1;">JAKSZP010004140.1</text></g><g class="xtick"><text text-anchor="start" x="0" y="377" transform="translate(312.68,0) rotate(90,0,372)" style="font-family: 'Lucida Grande', 'Open Sans', verdana, arial, sans-serif; font-size: 10px; fill: rgb(0, 0, 0); fill-opacity: 1; white-space: pre; opacity: 1;">JAKSZP010004212.1</text></g><g class="xtick"><text text-anchor="start" x="0" y="377" transform="translate(325.97,0) rotate(90,0,372)" style="font-family: 'Lucida Grande', 'Open Sans', verdana, arial, sans-serif; font-size: 10px; fill: rgb(0, 0, 0); fill-opacity: 1; white-space: pre; opacity: 1;">JAKSZP010004398.1</text></g><g class="xtick"><text text-anchor="start" x="0" y="377" transform="translate(339.27,0) rotate(90,0,372)" style="font-family: 'Lucida Grande', 'Open Sans', verdana, arial, sans-serif; font-size: 10px; fill: rgb(0, 0, 0); fill-opacity: 1; white-space: pre; opacity: 1;">JAKSZP010004608.1</text></g><g class="xtick"><text text-anchor="start" x="0" y="377" transform="translate(352.57,0) rotate(90,0,372)" style="font-family: 'Lucida Grande', 'Open Sans', verdana, arial, sans-serif; font-size: 10px; fill: rgb(0, 0, 0); fill-opacity: 1; white-space: pre; opacity: 1;">JAKSZP010005423.1</text></g><g class="xtick"><text text-anchor="start" x="0" y="377" transform="translate(365.87,0) rotate(90,0,372)" style="font-family: 'Lucida Grande', 'Open Sans', verdana, arial, sans-serif; font-size: 10px; fill: rgb(0, 0, 0); fill-opacity: 1; white-space: pre; opacity: 1;">JAKSZP010005868.1</text></g><g class="xtick"><text text-anchor="start" x="0" y="377" transform="translate(379.17,0) rotate(90,0,372)" style="font-family: 'Lucida Grande', 'Open Sans', verdana, arial, sans-serif; font-size: 10px; fill: rgb(0, 0, 0); fill-opacity: 1; white-space: pre; opacity: 1;">JAKSZP010006348.1</text></g><g class="xtick"><text text-anchor="start" x="0" y="377" transform="translate(392.47,0) rotate(90,0,372)" style="font-family: 'Lucida Grande', 'Open Sans', verdana, arial, sans-serif; font-size: 10px; fill: rgb(0, 0, 0); fill-opacity: 1; white-space: pre; opacity: 1;">JAKSZP010006629.1</text></g><g class="xtick"><text text-anchor="start" x="0" y="377" transform="translate(405.77,0) rotate(90,0,372)" style="font-family: 'Lucida Grande', 'Open Sans', verdana, arial, sans-serif; font-size: 10px; fill: rgb(0, 0, 0); fill-opacity: 1; white-space: pre; opacity: 1;">JAKSZP010006768.1</text></g><g class="xtick"><text text-anchor="start" x="0" y="377" transform="translate(419.06,0) rotate(90,0,372)" style="font-family: 'Lucida Grande', 'Open Sans', verdana, arial, sans-serif; font-size: 10px; fill: rgb(0, 0, 0); fill-opacity: 1; white-space: pre; opacity: 1;">JAKSZP010006970.1</text></g><g class="xtick"><text text-anchor="start" x="0" y="377" transform="translate(432.36,0) rotate(90,0,372)" style="font-family: 'Lucida Grande', 'Open Sans', verdana, arial, sans-serif; font-size: 10px; fill: rgb(0, 0, 0); fill-opacity: 1; white-space: pre; opacity: 1;">JAKSZP010007410.1</text></g><g class="xtick"><text text-anchor="start" x="0" y="377" transform="translate(445.66,0) rotate(90,0,372)" style="font-family: 'Lucida Grande', 'Open Sans', verdana, arial, sans-serif; font-size: 10px; fill: rgb(0, 0, 0); fill-opacity: 1; white-space: pre; opacity: 1;">JAKSZP010008110.1</text></g><g class="xtick"><text text-anchor="start" x="0" y="377" transform="translate(458.96,0) rotate(90,0,372)" style="font-family: 'Lucida Grande', 'Open Sans', verdana, arial, sans-serif; font-size: 10px; fill: rgb(0, 0, 0); fill-opacity: 1; white-space: pre; opacity: 1;">JAKSZP010008292.1</text></g><g class="xtick"><text text-anchor="start" x="0" y="377" transform="translate(472.26,0) rotate(90,0,372)" style="font-family: 'Lucida Grande', 'Open Sans', verdana, arial, sans-serif; font-size: 10px; fill: rgb(0, 0, 0); fill-opacity: 1; white-space: pre; opacity: 1;">JAKSZP010009203.1</text></g><g class="xtick"><text text-anchor="start" x="0" y="377" transform="translate(485.56,0) rotate(90,0,372)" style="font-family: 'Lucida Grande', 'Open Sans', verdana, arial, sans-serif; font-size: 10px; fill: rgb(0, 0, 0); fill-opacity: 1; white-space: pre; opacity: 1;">JAKSZP010009300.1</text></g><g class="xtick"><text text-anchor="start" x="0" y="377" transform="translate(498.86,0) rotate(90,0,372)" style="font-family: 'Lucida Grande', 'Open Sans', verdana, arial, sans-serif; font-size: 10px; fill: rgb(0, 0, 0); fill-opacity: 1; white-space: pre; opacity: 1;">JAKSZP010009329.1</text></g><g class="xtick"><text text-anchor="start" x="0" y="377" transform="translate(512.1600000000001,0) rotate(90,0,372)" style="font-family: 'Lucida Grande', 'Open Sans', verdana, arial, sans-serif; font-size: 10px; fill: rgb(0, 0, 0); fill-opacity: 1; white-space: pre; opacity: 1;">JAKSZP010009410.1</text></g><g class="xtick"><text text-anchor="start" x="0" y="377" transform="translate(525.45,0) rotate(90,0,372)" style="font-family: 'Lucida Grande', 'Open Sans', verdana, arial, sans-serif; font-size: 10px; fill: rgb(0, 0, 0); fill-opacity: 1; white-space: pre; opacity: 1;">JAKSZP010010022.1</text></g><g class="xtick"><text text-anchor="start" x="0" y="377" transform="translate(538.75,0) rotate(90,0,372)" style="font-family: 'Lucida Grande', 'Open Sans', verdana, arial, sans-serif; font-size: 10px; fill: rgb(0, 0, 0); fill-opacity: 1; white-space: pre; opacity: 1;">JAKSZP010010360.1</text></g><g class="xtick"><text text-anchor="start" x="0" y="377" transform="translate(552.05,0) rotate(90,0,372)" style="font-family: 'Lucida Grande', 'Open Sans', verdana, arial, sans-serif; font-size: 10px; fill: rgb(0, 0, 0); fill-opacity: 1; white-space: pre; opacity: 1;">JAKSZP010010569.1</text></g><g class="xtick"><text text-anchor="start" x="0" y="377" transform="translate(565.35,0) rotate(90,0,372)" style="font-family: 'Lucida Grande', 'Open Sans', verdana, arial, sans-serif; font-size: 10px; fill: rgb(0, 0, 0); fill-opacity: 1; white-space: pre; opacity: 1;">JAKSZP010010638.1</text></g><g class="xtick"><text text-anchor="start" x="0" y="377" transform="translate(578.65,0) rotate(90,0,372)" style="font-family: 'Lucida Grande', 'Open Sans', verdana, arial, sans-serif; font-size: 10px; fill: rgb(0, 0, 0); fill-opacity: 1; white-space: pre; opacity: 1;">JAKSZP010010727.1</text></g><g class="xtick"><text text-anchor="start" x="0" y="377" transform="translate(591.95,0) rotate(90,0,372)" style="font-family: 'Lucida Grande', 'Open Sans', verdana, arial, sans-serif; font-size: 10px; fill: rgb(0, 0, 0); fill-opacity: 1; white-space: pre; opacity: 1;">JAKSZP010010751.1</text></g><g class="xtick"><text text-anchor="start" x="0" y="377" transform="translate(605.25,0) rotate(90,0,372)" style="font-family: 'Lucida Grande', 'Open Sans', verdana, arial, sans-serif; font-size: 10px; fill: rgb(0, 0, 0); fill-opacity: 1; white-space: pre; opacity: 1;">JAKSZP010011111.1</text></g><g class="xtick"><text text-anchor="start" x="0" y="377" transform="translate(618.55,0) rotate(90,0,372)" style="font-family: 'Lucida Grande', 'Open Sans', verdana, arial, sans-serif; font-size: 10px; fill: rgb(0, 0, 0); fill-opacity: 1; white-space: pre; opacity: 1;">JAKSZP010011191.1</text></g><g class="xtick"><text text-anchor="start" x="0" y="377" transform="translate(631.84,0) rotate(90,0,372)" style="font-family: 'Lucida Grande', 'Open Sans', verdana, arial, sans-serif; font-size: 10px; fill: rgb(0, 0, 0); fill-opacity: 1; white-space: pre; opacity: 1;">JAKSZP010011400.1</text></g><g class="xtick"><text text-anchor="start" x="0" y="377" transform="translate(645.14,0) rotate(90,0,372)" style="font-family: 'Lucida Grande', 'Open Sans', verdana, arial, sans-serif; font-size: 10px; fill: rgb(0, 0, 0); fill-opacity: 1; white-space: pre; opacity: 1;">JAKSZP010011468.1</text></g><g class="xtick"><text text-anchor="start" x="0" y="377" transform="translate(658.44,0) rotate(90,0,372)" style="font-family: 'Lucida Grande', 'Open Sans', verdana, arial, sans-serif; font-size: 10px; fill: rgb(0, 0, 0); fill-opacity: 1; white-space: pre; opacity: 1;">JAKSZP010011738.1</text></g><g class="xtick"><text text-anchor="start" x="0" y="377" transform="translate(671.74,0) rotate(90,0,372)" style="font-family: 'Lucida Grande', 'Open Sans', verdana, arial, sans-serif; font-size: 10px; fill: rgb(0, 0, 0); fill-opacity: 1; white-space: pre; opacity: 1;">JAKSZP010011822.1</text></g><g class="xtick"><text text-anchor="start" x="0" y="377" transform="translate(685.04,0) rotate(90,0,372)" style="font-family: 'Lucida Grande', 'Open Sans', verdana, arial, sans-serif; font-size: 10px; fill: rgb(0, 0, 0); fill-opacity: 1; white-space: pre; opacity: 1;">JAKSZP010011897.1</text></g><g class="xtick"><text text-anchor="start" x="0" y="377" transform="translate(698.34,0) rotate(90,0,372)" style="font-family: 'Lucida Grande', 'Open Sans', verdana, arial, sans-serif; font-size: 10px; fill: rgb(0, 0, 0); fill-opacity: 1; white-space: pre; opacity: 1;">JAKSZP010012281.1</text></g><g class="xtick"><text text-anchor="start" x="0" y="377" transform="translate(711.64,0) rotate(90,0,372)" style="font-family: 'Lucida Grande', 'Open Sans', verdana, arial, sans-serif; font-size: 10px; fill: rgb(0, 0, 0); fill-opacity: 1; white-space: pre; opacity: 1;">JAKSZP010013147.1</text></g><g class="xtick"><text text-anchor="start" x="0" y="377" transform="translate(724.94,0) rotate(90,0,372)" style="font-family: 'Lucida Grande', 'Open Sans', verdana, arial, sans-serif; font-size: 10px; fill: rgb(0, 0, 0); fill-opacity: 1; white-space: pre; opacity: 1;">JAKSZP010013158.1</text></g><g class="xtick"><text text-anchor="start" x="0" y="377" transform="translate(738.23,0) rotate(90,0,372)" style="font-family: 'Lucida Grande', 'Open Sans', verdana, arial, sans-serif; font-size: 10px; fill: rgb(0, 0, 0); fill-opacity: 1; white-space: pre; opacity: 1;">JAKSZP010013190.1</text></g><g class="xtick"><text text-anchor="start" x="0" y="377" transform="translate(751.53,0) rotate(90,0,372)" style="font-family: 'Lucida Grande', 'Open Sans', verdana, arial, sans-serif; font-size: 10px; fill: rgb(0, 0, 0); fill-opacity: 1; white-space: pre; opacity: 1;">JAKSZP010013241.1</text></g><g class="xtick"><text text-anchor="start" x="0" y="377" transform="translate(764.83,0) rotate(90,0,372)" style="font-family: 'Lucida Grande', 'Open Sans', verdana, arial, sans-serif; font-size: 10px; fill: rgb(0, 0, 0); fill-opacity: 1; white-space: pre; opacity: 1;">JAKSZP010013366.1</text></g><g class="xtick"><text text-anchor="start" x="0" y="377" transform="translate(778.13,0) rotate(90,0,372)" style="font-family: 'Lucida Grande', 'Open Sans', verdana, arial, sans-serif; font-size: 10px; fill: rgb(0, 0, 0); fill-opacity: 1; white-space: pre; opacity: 1;">JAKSZP010013699.1</text></g><g class="xtick"><text text-anchor="start" x="0" y="377" transform="translate(791.43,0) rotate(90,0,372)" style="font-family: 'Lucida Grande', 'Open Sans', verdana, arial, sans-serif; font-size: 10px; fill: rgb(0, 0, 0); fill-opacity: 1; white-space: pre; opacity: 1;">JAKSZP010013765.1</text></g><g class="xtick"><text text-anchor="start" x="0" y="377" transform="translate(804.73,0) rotate(90,0,372)" style="font-family: 'Lucida Grande', 'Open Sans', verdana, arial, sans-serif; font-size: 10px; fill: rgb(0, 0, 0); fill-opacity: 1; white-space: pre; opacity: 1;">JAKSZP010014445.1</text></g><g class="xtick"><text text-anchor="start" x="0" y="377" transform="translate(818.03,0) rotate(90,0,372)" style="font-family: 'Lucida Grande', 'Open Sans', verdana, arial, sans-serif; font-size: 10px; fill: rgb(0, 0, 0); fill-opacity: 1; white-space: pre; opacity: 1;">JAKSZP010014506.1</text></g><g class="xtick"><text text-anchor="start" x="0" y="377" transform="translate(831.32,0) rotate(90,0,372)" style="font-family: 'Lucida Grande', 'Open Sans', verdana, arial, sans-serif; font-size: 10px; fill: rgb(0, 0, 0); fill-opacity: 1; white-space: pre; opacity: 1;">JAKSZP010014523.1</text></g><g class="xtick"><text text-anchor="start" x="0" y="377" transform="translate(844.62,0) rotate(90,0,372)" style="font-family: 'Lucida Grande', 'Open Sans', verdana, arial, sans-serif; font-size: 10px; fill: rgb(0, 0, 0); fill-opacity: 1; white-space: pre; opacity: 1;">JAKSZP010014547.1</text></g><g class="xtick"><text text-anchor="start" x="0" y="377" transform="translate(857.92,0) rotate(90,0,372)" style="font-family: 'Lucida Grande', 'Open Sans', verdana, arial, sans-serif; font-size: 10px; fill: rgb(0, 0, 0); fill-opacity: 1; white-space: pre; opacity: 1;">JAKSZP010014696.1</text></g><g class="xtick"><text text-anchor="start" x="0" y="377" transform="translate(871.22,0) rotate(90,0,372)" style="font-family: 'Lucida Grande', 'Open Sans', verdana, arial, sans-serif; font-size: 10px; fill: rgb(0, 0, 0); fill-opacity: 1; white-space: pre; opacity: 1;">JAKSZP010015409.1</text></g><g class="xtick"><text text-anchor="start" x="0" y="377" transform="translate(884.52,0) rotate(90,0,372)" style="font-family: 'Lucida Grande', 'Open Sans', verdana, arial, sans-serif; font-size: 10px; fill: rgb(0, 0, 0); fill-opacity: 1; white-space: pre; opacity: 1;">JAKSZP010015774.1</text></g><g class="xtick"><text text-anchor="start" x="0" y="377" transform="translate(897.82,0) rotate(90,0,372)" style="font-family: 'Lucida Grande', 'Open Sans', verdana, arial, sans-serif; font-size: 10px; fill: rgb(0, 0, 0); fill-opacity: 1; white-space: pre; opacity: 1;">JAKSZP010015839.1</text></g><g class="xtick"><text text-anchor="start" x="0" y="377" transform="translate(911.12,0) rotate(90,0,372)" style="font-family: 'Lucida Grande', 'Open Sans', verdana, arial, sans-serif; font-size: 10px; fill: rgb(0, 0, 0); fill-opacity: 1; white-space: pre; opacity: 1;">JAKSZP010016022.1</text></g><g class="xtick"><text text-anchor="start" x="0" y="377" transform="translate(924.42,0) rotate(90,0,372)" style="font-family: 'Lucida Grande', 'Open Sans', verdana, arial, sans-serif; font-size: 10px; fill: rgb(0, 0, 0); fill-opacity: 1; white-space: pre; opacity: 1;">JAKSZP010016073.1</text></g><g class="xtick"><text text-anchor="start" x="0" y="377" transform="translate(937.71,0) rotate(90,0,372)" style="font-family: 'Lucida Grande', 'Open Sans', verdana, arial, sans-serif; font-size: 10px; fill: rgb(0, 0, 0); fill-opacity: 1; white-space: pre; opacity: 1;">JAKSZP010016102.1</text></g><g class="xtick"><text text-anchor="start" x="0" y="377" transform="translate(951.01,0) rotate(90,0,372)" style="font-family: 'Lucida Grande', 'Open Sans', verdana, arial, sans-serif; font-size: 10px; fill: rgb(0, 0, 0); fill-opacity: 1; white-space: pre; opacity: 1;">JAKSZP010016390.1</text></g><g class="xtick"><text text-anchor="start" x="0" y="377" transform="translate(964.31,0) rotate(90,0,372)" style="font-family: 'Lucida Grande', 'Open Sans', verdana, arial, sans-serif; font-size: 10px; fill: rgb(0, 0, 0); fill-opacity: 1; white-space: pre; opacity: 1;">JAKSZP010016393.1</text></g><g class="xtick"><text text-anchor="start" x="0" y="377" transform="translate(977.61,0) rotate(90,0,372)" style="font-family: 'Lucida Grande', 'Open Sans', verdana, arial, sans-serif; font-size: 10px; fill: rgb(0, 0, 0); fill-opacity: 1; white-space: pre; opacity: 1;">JAKSZP010016401.1</text></g><g class="xtick"><text text-anchor="start" x="0" y="377" transform="translate(990.91,0) rotate(90,0,372)" style="font-family: 'Lucida Grande', 'Open Sans', verdana, arial, sans-serif; font-size: 10px; fill: rgb(0, 0, 0); fill-opacity: 1; white-space: pre; opacity: 1;">JAKSZP010017094.1</text></g><g class="xtick"><text text-anchor="start" x="0" y="377" transform="translate(1004.21,0) rotate(90,0,372)" style="font-family: 'Lucida Grande', 'Open Sans', verdana, arial, sans-serif; font-size: 10px; fill: rgb(0, 0, 0); fill-opacity: 1; white-space: pre; opacity: 1;">JAKSZP010017175.1</text></g><g class="xtick"><text text-anchor="start" x="0" y="377" transform="translate(1017.51,0) rotate(90,0,372)" style="font-family: 'Lucida Grande', 'Open Sans', verdana, arial, sans-serif; font-size: 10px; fill: rgb(0, 0, 0); fill-opacity: 1; white-space: pre; opacity: 1;">JAKSZP010017383.1</text></g><g class="xtick"><text text-anchor="start" x="0" y="377" transform="translate(1030.81,0) rotate(90,0,372)" style="font-family: 'Lucida Grande', 'Open Sans', verdana, arial, sans-serif; font-size: 10px; fill: rgb(0, 0, 0); fill-opacity: 1; white-space: pre; opacity: 1;">JAKSZP010017862.1</text></g><g class="xtick"><text text-anchor="start" x="0" y="377" transform="translate(1044.1,0) rotate(90,0,372)" style="font-family: 'Lucida Grande', 'Open Sans', verdana, arial, sans-serif; font-size: 10px; fill: rgb(0, 0, 0); fill-opacity: 1; white-space: pre; opacity: 1;">JAKSZP010018392.1</text></g><g class="xtick"><text text-anchor="start" x="0" y="377" transform="translate(1057.4,0) rotate(90,0,372)" style="font-family: 'Lucida Grande', 'Open Sans', verdana, arial, sans-serif; font-size: 10px; fill: rgb(0, 0, 0); fill-opacity: 1; white-space: pre; opacity: 1;">JAKSZP010019011.1</text></g><g class="xtick"><text text-anchor="start" x="0" y="377" transform="translate(1070.7,0) rotate(90,0,372)" style="font-family: 'Lucida Grande', 'Open Sans', verdana, arial, sans-serif; font-size: 10px; fill: rgb(0, 0, 0); fill-opacity: 1; white-space: pre; opacity: 1;">JAKSZP010019195.1</text></g><g class="xtick"><text text-anchor="start" x="0" y="377" transform="translate(1084,0) rotate(90,0,372)" style="font-family: 'Lucida Grande', 'Open Sans', verdana, arial, sans-serif; font-size: 10px; fill: rgb(0, 0, 0); fill-opacity: 1; white-space: pre; opacity: 1;">JAKSZP010019356.1</text></g></g><g class="yaxislayer-above"><g class="ytick"><text text-anchor="end" x="54" y="3.5" transform="translate(0,332.91)" style="font-family: 'Lucida Grande', 'Open Sans', verdana, arial, sans-serif; font-size: 10px; fill: rgb(0, 0, 0); fill-opacity: 1; white-space: pre; opacity: 1;">0.01</text></g><g class="ytick"><text text-anchor="end" x="54" y="3.5" style="font-family: 'Lucida Grande', 'Open Sans', verdana, arial, sans-serif; font-size: 10px; fill: rgb(0, 0, 0); fill-opacity: 1; white-space: pre; opacity: 1;" transform="translate(0,289.45)">0.1</text></g><g class="ytick"><text text-anchor="end" x="54" y="3.5" style="font-family: 'Lucida Grande', 'Open Sans', verdana, arial, sans-serif; font-size: 10px; fill: rgb(0, 0, 0); fill-opacity: 1; white-space: pre; opacity: 1;" transform="translate(0,245.98)">1</text></g><g class="ytick"><text text-anchor="end" x="54" y="3.5" style="font-family: 'Lucida Grande', 'Open Sans', verdana, arial, sans-serif; font-size: 10px; fill: rgb(0, 0, 0); fill-opacity: 1; white-space: pre; opacity: 1;" transform="translate(0,202.52)">10</text></g><g class="ytick"><text text-anchor="end" x="54" y="3.5" style="font-family: 'Lucida Grande', 'Open Sans', verdana, arial, sans-serif; font-size: 10px; fill: rgb(0, 0, 0); fill-opacity: 1; white-space: pre; opacity: 1;" transform="translate(0,159.05)">100</text></g><g class="ytick"><text text-anchor="end" x="54" y="3.5" style="font-family: 'Lucida Grande', 'Open Sans', verdana, arial, sans-serif; font-size: 10px; fill: rgb(0, 0, 0); fill-opacity: 1; white-space: pre; opacity: 1;" transform="translate(0,115.59)">1000</text></g><g class="ytick"><text text-anchor="end" x="54" y="3.5" style="font-family: 'Lucida Grande', 'Open Sans', verdana, arial, sans-serif; font-size: 10px; fill: rgb(0, 0, 0); fill-opacity: 1; white-space: pre; opacity: 1;" transform="translate(0,72.12)">10k</text></g></g><g class="overaxes-above"/></g></g><g class="polarlayer"/><g class="smithlayer"/><g class="ternarylayer"/><g class="geolayer"/><g class="funnelarealayer"/><g class="pielayer"/><g class="iciclelayer"/><g class="treemaplayer"/><g class="sunburstlayer"/><g class="glimages"/><defs id="topdefs-f5e9a0"><g class="clips"/></defs><g class="layer-above"><g class="imagelayer"/><g class="shapelayer"/></g><g class="infolayer"><g class="g-gtitle"><text class="gtitle" x="550" y="25" text-anchor="middle" dy="0em" style="opacity: 1; font-family: 'Lucida Grande', 'Open Sans', verdana, arial, sans-serif; font-size: 20px; fill: rgb(68, 68, 68); fill-opacity: 1; white-space: pre;"><tspan class="line" dy="0em" x="550" y="25">Samtools: idxstats: Mapped reads per contig</tspan><tspan class="line" dy="1.3em" x="550" y="25">​<tspan style="font-size:70%" dy="-0.6em">Observed over Expected Counts, 6 samples</tspan><tspan dy="0.42em">​</tspan></tspan></text></g><g class="g-xtitle" transform="translate(0,76.203125)"><text class="xtitle" x="572" y="413" text-anchor="middle" style="opacity: 0.3; font-family: 'Lucida Grande', 'Open Sans', verdana, arial, sans-serif; font-size: 14px; fill: rgb(0, 0, 0); fill-opacity: 1; white-space: pre;">Chromosome name</text></g><g class="g-ytitle"><text class="ytitle" transform="rotate(-90,22,205.5)" x="22" y="205.5" text-anchor="middle" style="opacity: 0.3; font-family: 'Lucida Grande', 'Open Sans', verdana, arial, sans-serif; font-size: 14px; fill: rgb(0, 0, 0); fill-opacity: 1; white-space: pre;">log10 ( Observed over expected counts )</text></g></g></svg>