<svg class="main-svg" xmlns="http://www.w3.org/2000/svg" xmlns:xlink="http://www.w3.org/1999/xlink" width="2200" height="1000" style="" viewBox="0 0 1100 500"><rect x="0" y="0" width="1100" height="500" style="fill: rgb(255, 255, 255); fill-opacity: 1;"/><defs id="defs-0980b0"><g class="clips"><clipPath id="clip0980b0xyplot" class="plotclip"><rect width="1024" height="311"/></clipPath><clipPath class="axesclip" id="clip0980b0x"><rect x="60" y="0" width="1024" height="500"/></clipPath><clipPath class="axesclip" id="clip0980b0y"><rect x="0" y="50" width="1100" height="311"/></clipPath><clipPath class="axesclip" id="clip0980b0xy"><rect x="60" y="50" width="1024" height="311"/></clipPath></g><g class="gradients"/><g class="patterns"/></defs><g class="bglayer"/><g class="layer-below"><g class="imagelayer"/><g class="shapelayer"/></g><g class="cartesianlayer"><g class="subplot xy"><g class="layer-subplot"><g class="shapelayer"/><g class="imagelayer"/></g><g class="minor-gridlayer"><g class="x"/><g class="y"/></g><g class="gridlayer"><g class="x"><path class="xgrid crisp" transform="translate(73.3,0)" d="M0,50v311" style="stroke: rgb(0, 0, 0); stroke-opacity: 0.05; stroke-width: 1px;"/><path class="xgrid crisp" transform="translate(86.6,0)" d="M0,50v311" style="stroke: rgb(0, 0, 0); stroke-opacity: 0.05; stroke-width: 1px;"/><path class="xgrid crisp" transform="translate(99.9,0)" d="M0,50v311" style="stroke: rgb(0, 0, 0); stroke-opacity: 0.05; stroke-width: 1px;"/><path class="xgrid crisp" transform="translate(113.19,0)" d="M0,50v311" style="stroke: rgb(0, 0, 0); stroke-opacity: 0.05; stroke-width: 1px;"/><path class="xgrid crisp" transform="translate(126.49,0)" d="M0,50v311" style="stroke: rgb(0, 0, 0); stroke-opacity: 0.05; stroke-width: 1px;"/><path class="xgrid crisp" transform="translate(139.79000000000002,0)" d="M0,50v311" style="stroke: rgb(0, 0, 0); stroke-opacity: 0.05; stroke-width: 1px;"/><path class="xgrid crisp" transform="translate(153.09,0)" d="M0,50v311" style="stroke: rgb(0, 0, 0); stroke-opacity: 0.05; stroke-width: 1px;"/><path class="xgrid crisp" transform="translate(166.39,0)" d="M0,50v311" style="stroke: rgb(0, 0, 0); stroke-opacity: 0.05; stroke-width: 1px;"/><path class="xgrid crisp" transform="translate(179.69,0)" d="M0,50v311" style="stroke: rgb(0, 0, 0); stroke-opacity: 0.05; stroke-width: 1px;"/><path class="xgrid crisp" transform="translate(192.99,0)" d="M0,50v311" style="stroke: rgb(0, 0, 0); stroke-opacity: 0.05; stroke-width: 1px;"/><path class="xgrid crisp" transform="translate(206.29,0)" d="M0,50v311" style="stroke: rgb(0, 0, 0); stroke-opacity: 0.05; stroke-width: 1px;"/><path class="xgrid crisp" transform="translate(219.58,0)" d="M0,50v311" style="stroke: rgb(0, 0, 0); stroke-opacity: 0.05; stroke-width: 1px;"/><path class="xgrid crisp" transform="translate(232.88,0)" d="M0,50v311" style="stroke: rgb(0, 0, 0); stroke-opacity: 0.05; stroke-width: 1px;"/><path class="xgrid crisp" transform="translate(246.18,0)" d="M0,50v311" style="stroke: rgb(0, 0, 0); stroke-opacity: 0.05; stroke-width: 1px;"/><path class="xgrid crisp" transform="translate(259.48,0)" d="M0,50v311" style="stroke: rgb(0, 0, 0); stroke-opacity: 0.05; stroke-width: 1px;"/><path class="xgrid crisp" transform="translate(272.78,0)" d="M0,50v311" style="stroke: rgb(0, 0, 0); stroke-opacity: 0.05; stroke-width: 1px;"/><path class="xgrid crisp" transform="translate(286.08000000000004,0)" d="M0,50v311" style="stroke: rgb(0, 0, 0); stroke-opacity: 0.05; stroke-width: 1px;"/><path class="xgrid crisp" transform="translate(299.38,0)" d="M0,50v311" style="stroke: rgb(0, 0, 0); stroke-opacity: 0.05; stroke-width: 1px;"/><path class="xgrid crisp" transform="translate(312.68,0)" d="M0,50v311" style="stroke: rgb(0, 0, 0); stroke-opacity: 0.05; stroke-width: 1px;"/><path class="xgrid crisp" transform="translate(325.97,0)" d="M0,50v311" style="stroke: rgb(0, 0, 0); stroke-opacity: 0.05; stroke-width: 1px;"/><path class="xgrid crisp" transform="translate(339.27,0)" d="M0,50v311" style="stroke: rgb(0, 0, 0); stroke-opacity: 0.05; stroke-width: 1px;"/><path class="xgrid crisp" transform="translate(352.57,0)" d="M0,50v311" style="stroke: rgb(0, 0, 0); stroke-opacity: 0.05; stroke-width: 1px;"/><path class="xgrid crisp" transform="translate(365.87,0)" d="M0,50v311" style="stroke: rgb(0, 0, 0); stroke-opacity: 0.05; stroke-width: 1px;"/><path class="xgrid crisp" transform="translate(379.17,0)" d="M0,50v311" style="stroke: rgb(0, 0, 0); stroke-opacity: 0.05; stroke-width: 1px;"/><path class="xgrid crisp" transform="translate(392.47,0)" d="M0,50v311" style="stroke: rgb(0, 0, 0); stroke-opacity: 0.05; stroke-width: 1px;"/><path class="xgrid crisp" transform="translate(405.77,0)" d="M0,50v311" style="stroke: rgb(0, 0, 0); stroke-opacity: 0.05; stroke-width: 1px;"/><path class="xgrid crisp" transform="translate(419.06,0)" d="M0,50v311" style="stroke: rgb(0, 0, 0); stroke-opacity: 0.05; stroke-width: 1px;"/><path class="xgrid crisp" transform="translate(432.36,0)" d="M0,50v311" style="stroke: rgb(0, 0, 0); stroke-opacity: 0.05; stroke-width: 1px;"/><path class="xgrid crisp" transform="translate(445.66,0)" d="M0,50v311" style="stroke: rgb(0, 0, 0); stroke-opacity: 0.05; stroke-width: 1px;"/><path class="xgrid crisp" transform="translate(458.96,0)" d="M0,50v311" style="stroke: rgb(0, 0, 0); stroke-opacity: 0.05; stroke-width: 1px;"/><path class="xgrid crisp" transform="translate(472.26,0)" d="M0,50v311" style="stroke: rgb(0, 0, 0); stroke-opacity: 0.05; stroke-width: 1px;"/><path class="xgrid crisp" transform="translate(485.56,0)" d="M0,50v311" style="stroke: rgb(0, 0, 0); stroke-opacity: 0.05; stroke-width: 1px;"/><path class="xgrid crisp" transform="translate(498.86,0)" d="M0,50v311" style="stroke: rgb(0, 0, 0); stroke-opacity: 0.05; stroke-width: 1px;"/><path class="xgrid crisp" transform="translate(512.1600000000001,0)" d="M0,50v311" style="stroke: rgb(0, 0, 0); stroke-opacity: 0.05; stroke-width: 1px;"/><path class="xgrid crisp" transform="translate(525.45,0)" d="M0,50v311" style="stroke: rgb(0, 0, 0); stroke-opacity: 0.05; stroke-width: 1px;"/><path class="xgrid crisp" transform="translate(538.75,0)" d="M0,50v311" style="stroke: rgb(0, 0, 0); stroke-opacity: 0.05; stroke-width: 1px;"/><path class="xgrid crisp" transform="translate(552.05,0)" d="M0,50v311" style="stroke: rgb(0, 0, 0); stroke-opacity: 0.05; stroke-width: 1px;"/><path class="xgrid crisp" transform="translate(565.35,0)" d="M0,50v311" style="stroke: rgb(0, 0, 0); stroke-opacity: 0.05; stroke-width: 1px;"/><path class="xgrid crisp" transform="translate(578.65,0)" d="M0,50v311" style="stroke: rgb(0, 0, 0); stroke-opacity: 0.05; stroke-width: 1px;"/><path class="xgrid crisp" transform="translate(591.95,0)" d="M0,50v311" style="stroke: rgb(0, 0, 0); stroke-opacity: 0.05; stroke-width: 1px;"/><path class="xgrid crisp" transform="translate(605.25,0)" d="M0,50v311" style="stroke: rgb(0, 0, 0); stroke-opacity: 0.05; stroke-width: 1px;"/><path class="xgrid crisp" transform="translate(618.55,0)" d="M0,50v311" style="stroke: rgb(0, 0, 0); stroke-opacity: 0.05; stroke-width: 1px;"/><path class="xgrid crisp" transform="translate(631.84,0)" d="M0,50v311" style="stroke: rgb(0, 0, 0); stroke-opacity: 0.05; stroke-width: 1px;"/><path class="xgrid crisp" transform="translate(645.14,0)" d="M0,50v311" style="stroke: rgb(0, 0, 0); stroke-opacity: 0.05; stroke-width: 1px;"/><path class="xgrid crisp" transform="translate(658.44,0)" d="M0,50v311" style="stroke: rgb(0, 0, 0); stroke-opacity: 0.05; stroke-width: 1px;"/><path class="xgrid crisp" transform="translate(671.74,0)" d="M0,50v311" style="stroke: rgb(0, 0, 0); stroke-opacity: 0.05; stroke-width: 1px;"/><path class="xgrid crisp" transform="translate(685.04,0)" d="M0,50v311" style="stroke: rgb(0, 0, 0); stroke-opacity: 0.05; stroke-width: 1px;"/><path class="xgrid crisp" transform="translate(698.34,0)" d="M0,50v311" style="stroke: rgb(0, 0, 0); stroke-opacity: 0.05; stroke-width: 1px;"/><path class="xgrid crisp" transform="translate(711.64,0)" d="M0,50v311" style="stroke: rgb(0, 0, 0); stroke-opacity: 0.05; stroke-width: 1px;"/><path class="xgrid crisp" transform="translate(724.94,0)" d="M0,50v311" style="stroke: rgb(0, 0, 0); stroke-opacity: 0.05; stroke-width: 1px;"/><path class="xgrid crisp" transform="translate(738.23,0)" d="M0,50v311" style="stroke: rgb(0, 0, 0); stroke-opacity: 0.05; stroke-width: 1px;"/><path class="xgrid crisp" transform="translate(751.53,0)" d="M0,50v311" style="stroke: rgb(0, 0, 0); stroke-opacity: 0.05; stroke-width: 1px;"/><path class="xgrid crisp" transform="translate(764.83,0)" d="M0,50v311" style="stroke: rgb(0, 0, 0); stroke-opacity: 0.05; stroke-width: 1px;"/><path class="xgrid crisp" transform="translate(778.13,0)" d="M0,50v311" style="stroke: rgb(0, 0, 0); stroke-opacity: 0.05; stroke-width: 1px;"/><path class="xgrid crisp" transform="translate(791.43,0)" d="M0,50v311" style="stroke: rgb(0, 0, 0); stroke-opacity: 0.05; stroke-width: 1px;"/><path class="xgrid crisp" transform="translate(804.73,0)" d="M0,50v311" style="stroke: rgb(0, 0, 0); stroke-opacity: 0.05; stroke-width: 1px;"/><path class="xgrid crisp" transform="translate(818.03,0)" d="M0,50v311" style="stroke: rgb(0, 0, 0); stroke-opacity: 0.05; stroke-width: 1px;"/><path class="xgrid crisp" transform="translate(831.32,0)" d="M0,50v311" style="stroke: rgb(0, 0, 0); stroke-opacity: 0.05; stroke-width: 1px;"/><path class="xgrid crisp" transform="translate(844.62,0)" d="M0,50v311" style="stroke: rgb(0, 0, 0); stroke-opacity: 0.05; stroke-width: 1px;"/><path class="xgrid crisp" transform="translate(857.92,0)" d="M0,50v311" style="stroke: rgb(0, 0, 0); stroke-opacity: 0.05; stroke-width: 1px;"/><path class="xgrid crisp" transform="translate(871.22,0)" d="M0,50v311" style="stroke: rgb(0, 0, 0); stroke-opacity: 0.05; stroke-width: 1px;"/><path class="xgrid crisp" transform="translate(884.52,0)" d="M0,50v311" style="stroke: rgb(0, 0, 0); stroke-opacity: 0.05; stroke-width: 1px;"/><path class="xgrid crisp" transform="translate(897.82,0)" d="M0,50v311" style="stroke: rgb(0, 0, 0); stroke-opacity: 0.05; stroke-width: 1px;"/><path class="xgrid crisp" transform="translate(911.12,0)" d="M0,50v311" style="stroke: rgb(0, 0, 0); stroke-opacity: 0.05; stroke-width: 1px;"/><path class="xgrid crisp" transform="translate(924.42,0)" d="M0,50v311" style="stroke: rgb(0, 0, 0); stroke-opacity: 0.05; stroke-width: 1px;"/><path class="xgrid crisp" transform="translate(937.71,0)" d="M0,50v311" style="stroke: rgb(0, 0, 0); stroke-opacity: 0.05; stroke-width: 1px;"/><path class="xgrid crisp" transform="translate(951.01,0)" d="M0,50v311" style="stroke: rgb(0, 0, 0); stroke-opacity: 0.05; stroke-width: 1px;"/><path class="xgrid crisp" transform="translate(964.31,0)" d="M0,50v311" style="stroke: rgb(0, 0, 0); stroke-opacity: 0.05; stroke-width: 1px;"/><path class="xgrid crisp" transform="translate(977.61,0)" d="M0,50v311" style="stroke: rgb(0, 0, 0); stroke-opacity: 0.05; stroke-width: 1px;"/><path class="xgrid crisp" transform="translate(990.91,0)" d="M0,50v311" style="stroke: rgb(0, 0, 0); stroke-opacity: 0.05; stroke-width: 1px;"/><path class="xgrid crisp" transform="translate(1004.21,0)" d="M0,50v311" style="stroke: rgb(0, 0, 0); stroke-opacity: 0.05; stroke-width: 1px;"/><path class="xgrid crisp" transform="translate(1017.51,0)" d="M0,50v311" style="stroke: rgb(0, 0, 0); stroke-opacity: 0.05; stroke-width: 1px;"/><path class="xgrid crisp" transform="translate(1030.81,0)" d="M0,50v311" style="stroke: rgb(0, 0, 0); stroke-opacity: 0.05; stroke-width: 1px;"/><path class="xgrid crisp" transform="translate(1044.1,0)" d="M0,50v311" style="stroke: rgb(0, 0, 0); stroke-opacity: 0.05; stroke-width: 1px;"/><path class="xgrid crisp" transform="translate(1057.4,0)" d="M0,50v311" style="stroke: rgb(0, 0, 0); stroke-opacity: 0.05; stroke-width: 1px;"/><path class="xgrid crisp" transform="translate(1070.7,0)" d="M0,50v311" style="stroke: rgb(0, 0, 0); stroke-opacity: 0.05; stroke-width: 1px;"/></g><g class="y"><path class="ygrid crisp" transform="translate(0,288)" d="M60,0h1024" style="stroke: rgb(0, 0, 0); stroke-opacity: 0.05; stroke-width: 1px;"/><path class="ygrid crisp" transform="translate(0,230.56)" d="M60,0h1024" style="stroke: rgb(0, 0, 0); stroke-opacity: 0.05; stroke-width: 1px;"/><path class="ygrid crisp" transform="translate(0,173.11)" d="M60,0h1024" style="stroke: rgb(0, 0, 0); stroke-opacity: 0.05; stroke-width: 1px;"/><path class="ygrid crisp" transform="translate(0,115.66)" d="M60,0h1024" style="stroke: rgb(0, 0, 0); stroke-opacity: 0.05; stroke-width: 1px;"/><path class="ygrid crisp" transform="translate(0,58.21)" d="M60,0h1024" style="stroke: rgb(0, 0, 0); stroke-opacity: 0.05; stroke-width: 1px;"/></g></g><g class="zerolinelayer"><path class="yzl zl crisp" transform="translate(0,345.45)" d="M60,0h1024" style="stroke: rgb(0, 0, 0); stroke-opacity: 0.05; stroke-width: 1px;"/></g><g class="layer-between"><g class="shapelayer"/><g class="imagelayer"/></g><path class="xlines-below"/><path class="ylines-below"/><g class="overlines-below"/><g class="xaxislayer-below"/><g class="yaxislayer-below"/><g class="overaxes-below"/><g class="overplot"><g class="xy" transform="translate(60,50)" clip-path="url(#clip0980b0xyplot)"><g class="scatterlayer mlayer"><g class="trace scatter trace29f945" style="stroke-miterlimit: 2; opacity: 1;"><g class="fills"/><g class="errorbars"/><g class="lines"><path class="js-line" d="M0,295.28L26.6,294.78L39.9,291.9L53.19,292.49L66.49,294.34L93.09,294.5L106.39,291.45L119.69,294.38L132.99,295L159.58,293.51L172.88,291.1L186.18,286.19L199.48,295.28L212.78,273.35L226.08,292.66L239.38,294.15L252.68,284.19L265.97,292.99L279.27,291.11L292.57,294.41L305.87,293.68L319.17,293.76L332.47,274.14L345.77,293.12L359.06,294.23L372.36,290.74L385.66,292.94L398.96,293.17L412.26,295.12L452.16,290.8L465.45,293.81L478.75,294.6L492.05,292.14L505.35,294.14L518.65,291.63L531.95,293.68L545.25,288.21L558.55,197.71L571.84,294.18L585.14,287.94L598.44,287.11L611.74,293.03L625.04,294.1L638.34,288.3L651.64,293.63L664.94,293.18L678.23,290.97L691.53,293.27L704.83,293.69L718.13,292.72L731.43,295.34L744.73,293.54L758.03,265.01L771.32,292.41L784.62,294.74L811.22,293.4L824.52,268.86L837.82,294.75L851.12,295.1L864.42,244.94L877.71,293.96L891.01,293.13L904.31,286.27L917.61,255.49L930.91,292.81L970.81,294.41L984.1,291.03L997.4,293.52L1010.7,288.5L1024,282.83" style="vector-effect: none; fill: none; stroke: rgb(124, 181, 236); stroke-opacity: 1; stroke-width: 2px; opacity: 1;"/></g><g class="points"/><g class="text"/></g><g class="trace scatter trace186e85" style="stroke-miterlimit: 2; opacity: 1;"><g class="fills"/><g class="errorbars"/><g class="lines"><path class="js-line" d="M0,294.4L13.3,292.59L26.6,292.66L39.9,295.44L53.19,293.61L66.49,294.13L79.79,286.2L93.09,293.63L106.39,295.42L119.69,290.51L132.99,290.63L146.29,293.75L159.58,294.6L172.88,295.45L186.18,295.45L199.48,292.29L212.78,274.68L226.08,294.13L239.38,292.73L252.68,295.45L265.97,294.53L279.27,294.75L292.57,294.18L305.87,295.45L319.17,294.94L345.77,295.42L359.06,294.15L372.36,295.45L385.66,294.59L398.96,295.42L412.26,293.19L425.56,295.09L438.86,295.45L452.16,291.85L465.45,272.06L478.75,292.96L492.05,295.27L505.35,293.67L518.65,295.03L531.95,294.66L545.25,295.43L558.55,222.73L571.84,294.75L585.14,295.45L598.44,277.39L611.74,291.33L625.04,288.96L651.64,295.44L664.94,295.28L678.23,292.71L691.53,294.38L718.13,294.57L731.43,292.87L744.73,295.01L758.03,295.44L771.32,292.32L784.62,293.98L824.52,295.28L837.82,294.62L851.12,294.34L864.42,295.34L877.71,294.13L891.01,294.06L904.31,295.44L917.61,245.73L930.91,295.42L944.21,293.13L970.81,293.27L984.1,294.59L997.4,292.95L1010.7,295.45L1024,284.06" style="vector-effect: none; fill: none; stroke: rgb(67, 67, 72); stroke-opacity: 1; stroke-width: 2px; opacity: 1;"/></g><g class="points"/><g class="text"/></g><g class="trace scatter trace62d8a8" style="stroke-miterlimit: 2; opacity: 1;"><g class="fills"/><g class="errorbars"/><g class="lines"><path class="js-line" d="M0,295.25L26.6,294.74L39.9,290.65L53.19,292.02L66.49,294.69L93.09,295.33L106.39,292.83L119.69,295.08L132.99,295.43L146.29,293.16L159.58,294.39L172.88,289.39L186.18,285.36L199.48,295.44L212.78,267.4L226.08,294.01L239.38,295.19L252.68,286.69L265.97,293.19L279.27,287.68L292.57,294.05L305.87,292.52L319.17,293.98L332.47,280.84L345.77,292.19L359.06,294.29L372.36,283.13L385.66,293.11L398.96,292.05L412.26,295.44L425.56,291.46L438.86,289.45L452.16,294.95L465.45,295.44L478.75,295.12L492.05,290.1L505.35,294.07L518.65,291.19L531.95,294.72L545.25,287.99L558.55,154.74L571.84,291.94L585.14,291.44L598.44,291.1L611.74,293.45L625.04,295.06L638.34,289.5L664.94,291.6L678.23,288.18L691.53,290.23L704.83,293.74L718.13,292.92L731.43,295.42L744.73,293.21L758.03,270.18L771.32,293.19L784.62,294.94L797.92,293.88L811.22,294.71L824.52,274.79L837.82,295.15L851.12,295.24L864.42,265.84L877.71,293.81L891.01,293.55L904.31,291.36L917.61,258.53L930.91,292.13L944.21,291.23L957.51,294.77L970.81,294.66L984.1,287.12L997.4,293.13L1010.7,291.73L1024,278.95" style="vector-effect: none; fill: none; stroke: rgb(144, 237, 125); stroke-opacity: 1; stroke-width: 2px; opacity: 1;"/></g><g class="points"/><g class="text"/></g><g class="trace scatter trace0bf441" style="stroke-miterlimit: 2; opacity: 1;"><g class="fills"/><g class="errorbars"/><g class="lines"><path class="js-line" d="M0,288.74L13.3,289.48L26.6,292.42L39.9,295.45L53.19,292.44L66.49,293.36L79.79,282.41L93.09,289.83L106.39,295.42L119.69,290.96L132.99,294.26L159.58,294.13L172.88,295.44L186.18,295.45L199.48,291.78L212.78,284.94L226.08,293.67L239.38,289.97L252.68,295.44L265.97,293.28L279.27,295.17L292.57,293.16L305.87,295.45L319.17,294.5L332.47,294.52L345.77,295.26L359.06,293.74L372.36,295.45L385.66,294.54L398.96,295.32L412.26,291.86L425.56,295.17L438.86,295.44L452.16,288.93L465.45,264.65L478.75,294.95L492.05,295.21L518.65,294.18L531.95,294.6L545.25,295.43L558.55,265.07L571.84,294.66L585.14,295.45L598.44,289.15L611.74,292.84L625.04,287.28L638.34,292.28L651.64,295.41L664.94,295.26L678.23,293.52L691.53,293.99L704.83,294.42L718.13,293.08L731.43,290.74L744.73,294.61L758.03,295.43L771.32,287.73L784.62,292.62L797.92,293.62L824.52,295.33L837.82,292.66L851.12,290.77L864.42,295.34L891.01,293.93L904.31,295.44L917.61,277.4L930.91,295.41L957.51,292.27L970.81,294L984.1,294.16L997.4,293.17L1010.7,295.45L1024,291.05" style="vector-effect: none; fill: none; stroke: rgb(247, 163, 92); stroke-opacity: 1; stroke-width: 2px; opacity: 1;"/></g><g class="points"/><g class="text"/></g><g class="trace scatter trace8abd4e" style="stroke-miterlimit: 2; opacity: 1;"><g class="fills"/><g class="errorbars"/><g class="lines"><path class="js-line" d="M0,295.25L26.6,294.91L39.9,292.79L79.79,295.11L93.09,295.38L106.39,291.53L119.69,295.03L132.99,295.44L146.29,294.27L159.58,293.76L172.88,291.69L186.18,286.01L199.48,295.45L212.78,245.42L226.08,292.39L239.38,295.2L252.68,290.08L265.97,294.18L279.27,290.84L292.57,294.68L305.87,294.29L319.17,292.77L332.47,283.28L345.77,294.34L359.06,294.27L385.66,294.17L398.96,292.7L412.26,295.42L425.56,292.93L465.45,295.44L478.75,294.04L505.35,294.29L518.65,292.77L531.95,293.97L545.25,288.24L558.55,15.55L571.84,294.63L585.14,289.42L598.44,275.92L611.74,294.26L625.04,295.31L638.34,290.41L651.64,294.1L691.53,293.81L704.83,294.56L718.13,293.9L731.43,295.4L744.73,294.16L758.03,272.02L771.32,292.53L784.62,294.92L811.22,294.29L824.52,276.17L837.82,293.39L851.12,295.19L864.42,264.81L877.71,293.83L891.01,294.09L904.31,289.84L917.61,188.95L930.91,293L944.21,293.23L957.51,294.89L970.81,294.87L984.1,293.43L997.4,293.58L1010.7,292.92L1024,268.75" style="vector-effect: none; fill: none; stroke: rgb(128, 133, 233); stroke-opacity: 1; stroke-width: 2px; opacity: 1;"/></g><g class="points"/><g class="text"/></g><g class="trace scatter trace0db8ec" style="stroke-miterlimit: 2; opacity: 1;"><g class="fills"/><g class="errorbars"/><g class="lines"><path class="js-line" d="M0,295.37L26.6,295.06L39.9,291.68L53.19,292.53L66.49,294.72L93.09,295.29L106.39,292.48L119.69,294.96L132.99,295.36L159.58,293.95L172.88,290.24L186.18,284.32L199.48,295.39L212.78,253.57L226.08,292.99L239.38,294.65L252.68,286.73L265.97,292.55L279.27,289.88L292.57,294.41L305.87,292.74L319.17,293.73L332.47,277.22L345.77,293.69L359.06,294.24L372.36,288.17L385.66,293.68L398.96,291.6L412.26,295.4L438.86,291.7L452.16,293.2L465.45,295.44L478.75,294.27L492.05,291.01L505.35,294L518.65,288.73L531.95,293.99L545.25,287.5L558.55,150.55L571.84,294.23L585.14,288.52L598.44,279.19L611.74,293.16L625.04,295.05L638.34,290.71L651.64,292.91L664.94,292.57L678.23,291.7L691.53,293.08L718.13,292.59L731.43,295.4L744.73,293.4L758.03,266.67L771.32,293.12L784.62,294.88L811.22,294.15L824.52,269.97L837.82,295.11L851.12,295.31L864.42,249.54L877.71,294.09L891.01,293.68L904.31,287.78L917.61,245.17L930.91,292.57L957.51,294.56L970.81,294.46L984.1,289.52L997.4,293.4L1010.7,289.4L1024,277.81" style="vector-effect: none; fill: none; stroke: rgb(241, 92, 128); stroke-opacity: 1; stroke-width: 2px; opacity: 1;"/></g><g class="points"/><g class="text"/></g></g></g></g><path class="xlines-above crisp" d="M0,0" style="fill: none;"/><path class="ylines-above crisp" d="M0,0" style="fill: none;"/><g class="overlines-above"/><g class="xaxislayer-above"><g class="xtick"><text text-anchor="start" x="0" y="377" transform="translate(60,0) rotate(90,0,372)" style="font-family: 'Lucida Grande', 'Open Sans', verdana, arial, sans-serif; font-size: 10px; fill: rgb(0, 0, 0); fill-opacity: 1; white-space: pre; opacity: 1;">JAKSZP010000259.1</text></g><g class="xtick"><text text-anchor="start" x="0" y="377" transform="translate(73.3,0) rotate(90,0,372)" style="font-family: 'Lucida Grande', 'Open Sans', verdana, arial, sans-serif; font-size: 10px; fill: rgb(0, 0, 0); fill-opacity: 1; white-space: pre; opacity: 1;">JAKSZP010000397.1</text></g><g class="xtick"><text text-anchor="start" x="0" y="377" transform="translate(86.6,0) rotate(90,0,372)" style="font-family: 'Lucida Grande', 'Open Sans', verdana, arial, sans-serif; font-size: 10px; fill: rgb(0, 0, 0); fill-opacity: 1; white-space: pre; opacity: 1;">JAKSZP010000656.1</text></g><g class="xtick"><text text-anchor="start" x="0" y="377" transform="translate(99.9,0) rotate(90,0,372)" style="font-family: 'Lucida Grande', 'Open Sans', verdana, arial, sans-serif; font-size: 10px; fill: rgb(0, 0, 0); fill-opacity: 1; white-space: pre; opacity: 1;">JAKSZP010000969.1</text></g><g class="xtick"><text text-anchor="start" x="0" y="377" transform="translate(113.19,0) rotate(90,0,372)" style="font-family: 'Lucida Grande', 'Open Sans', verdana, arial, sans-serif; font-size: 10px; fill: rgb(0, 0, 0); fill-opacity: 1; white-space: pre; opacity: 1;">JAKSZP010001341.1</text></g><g class="xtick"><text text-anchor="start" x="0" y="377" transform="translate(126.49,0) rotate(90,0,372)" style="font-family: 'Lucida Grande', 'Open Sans', verdana, arial, sans-serif; font-size: 10px; fill: rgb(0, 0, 0); fill-opacity: 1; white-space: pre; opacity: 1;">JAKSZP010001378.1</text></g><g class="xtick"><text text-anchor="start" x="0" y="377" transform="translate(139.79000000000002,0) rotate(90,0,372)" style="font-family: 'Lucida Grande', 'Open Sans', verdana, arial, sans-serif; font-size: 10px; fill: rgb(0, 0, 0); fill-opacity: 1; white-space: pre; opacity: 1;">JAKSZP010001433.1</text></g><g class="xtick"><text text-anchor="start" x="0" y="377" transform="translate(153.09,0) rotate(90,0,372)" style="font-family: 'Lucida Grande', 'Open Sans', verdana, arial, sans-serif; font-size: 10px; fill: rgb(0, 0, 0); fill-opacity: 1; white-space: pre; opacity: 1;">JAKSZP010001453.1</text></g><g class="xtick"><text text-anchor="start" x="0" y="377" transform="translate(166.39,0) rotate(90,0,372)" style="font-family: 'Lucida Grande', 'Open Sans', verdana, arial, sans-serif; font-size: 10px; fill: rgb(0, 0, 0); fill-opacity: 1; white-space: pre; opacity: 1;">JAKSZP010001488.1</text></g><g class="xtick"><text text-anchor="start" x="0" y="377" transform="translate(179.69,0) rotate(90,0,372)" style="font-family: 'Lucida Grande', 'Open Sans', verdana, arial, sans-serif; font-size: 10px; fill: rgb(0, 0, 0); fill-opacity: 1; white-space: pre; opacity: 1;">JAKSZP010002298.1</text></g><g class="xtick"><text text-anchor="start" x="0" y="377" transform="translate(192.99,0) rotate(90,0,372)" style="font-family: 'Lucida Grande', 'Open Sans', verdana, arial, sans-serif; font-size: 10px; fill: rgb(0, 0, 0); fill-opacity: 1; white-space: pre; opacity: 1;">JAKSZP010002857.1</text></g><g class="xtick"><text text-anchor="start" x="0" y="377" transform="translate(206.29,0) rotate(90,0,372)" style="font-family: 'Lucida Grande', 'Open Sans', verdana, arial, sans-serif; font-size: 10px; fill: rgb(0, 0, 0); fill-opacity: 1; white-space: pre; opacity: 1;">JAKSZP010002906.1</text></g><g class="xtick"><text text-anchor="start" x="0" y="377" transform="translate(219.58,0) rotate(90,0,372)" style="font-family: 'Lucida Grande', 'Open Sans', verdana, arial, sans-serif; font-size: 10px; fill: rgb(0, 0, 0); fill-opacity: 1; white-space: pre; opacity: 1;">JAKSZP010002907.1</text></g><g class="xtick"><text text-anchor="start" x="0" y="377" transform="translate(232.88,0) rotate(90,0,372)" style="font-family: 'Lucida Grande', 'Open Sans', verdana, arial, sans-serif; font-size: 10px; fill: rgb(0, 0, 0); fill-opacity: 1; white-space: pre; opacity: 1;">JAKSZP010003046.1</text></g><g class="xtick"><text text-anchor="start" x="0" y="377" transform="translate(246.18,0) rotate(90,0,372)" style="font-family: 'Lucida Grande', 'Open Sans', verdana, arial, sans-serif; font-size: 10px; fill: rgb(0, 0, 0); fill-opacity: 1; white-space: pre; opacity: 1;">JAKSZP010003157.1</text></g><g class="xtick"><text text-anchor="start" x="0" y="377" transform="translate(259.48,0) rotate(90,0,372)" style="font-family: 'Lucida Grande', 'Open Sans', verdana, arial, sans-serif; font-size: 10px; fill: rgb(0, 0, 0); fill-opacity: 1; white-space: pre; opacity: 1;">JAKSZP010003298.1</text></g><g class="xtick"><text text-anchor="start" x="0" y="377" transform="translate(272.78,0) rotate(90,0,372)" style="font-family: 'Lucida Grande', 'Open Sans', verdana, arial, sans-serif; font-size: 10px; fill: rgb(0, 0, 0); fill-opacity: 1; white-space: pre; opacity: 1;">JAKSZP010003936.1</text></g><g class="xtick"><text text-anchor="start" x="0" y="377" transform="translate(286.08000000000004,0) rotate(90,0,372)" style="font-family: 'Lucida Grande', 'Open Sans', verdana, arial, sans-serif; font-size: 10px; fill: rgb(0, 0, 0); fill-opacity: 1; white-space: pre; opacity: 1;">JAKSZP010004139.1</text></g><g class="xtick"><text text-anchor="start" x="0" y="377" transform="translate(299.38,0) rotate(90,0,372)" style="font-family: 'Lucida Grande', 'Open Sans', verdana, arial, sans-serif; font-size: 10px; fill: rgb(0, 0, 0); fill-opacity: 1; white-space: pre; opacity: 1;">JAKSZP010004140.1</text></g><g class="xtick"><text text-anchor="start" x="0" y="377" transform="translate(312.68,0) rotate(90,0,372)" style="font-family: 'Lucida Grande', 'Open Sans', verdana, arial, sans-serif; font-size: 10px; fill: rgb(0, 0, 0); fill-opacity: 1; white-space: pre; opacity: 1;">JAKSZP010004212.1</text></g><g class="xtick"><text text-anchor="start" x="0" y="377" transform="translate(325.97,0) rotate(90,0,372)" style="font-family: 'Lucida Grande', 'Open Sans', verdana, arial, sans-serif; font-size: 10px; fill: rgb(0, 0, 0); fill-opacity: 1; white-space: pre; opacity: 1;">JAKSZP010004398.1</text></g><g class="xtick"><text text-anchor="start" x="0" y="377" transform="translate(339.27,0) rotate(90,0,372)" style="font-family: 'Lucida Grande', 'Open Sans', verdana, arial, sans-serif; font-size: 10px; fill: rgb(0, 0, 0); fill-opacity: 1; white-space: pre; opacity: 1;">JAKSZP010004608.1</text></g><g class="xtick"><text text-anchor="start" x="0" y="377" transform="translate(352.57,0) rotate(90,0,372)" style="font-family: 'Lucida Grande', 'Open Sans', verdana, arial, sans-serif; font-size: 10px; fill: rgb(0, 0, 0); fill-opacity: 1; white-space: pre; opacity: 1;">JAKSZP010005423.1</text></g><g class="xtick"><text text-anchor="start" x="0" y="377" transform="translate(365.87,0) rotate(90,0,372)" style="font-family: 'Lucida Grande', 'Open Sans', verdana, arial, sans-serif; font-size: 10px; fill: rgb(0, 0, 0); fill-opacity: 1; white-space: pre; opacity: 1;">JAKSZP010005868.1</text></g><g class="xtick"><text text-anchor="start" x="0" y="377" transform="translate(379.17,0) rotate(90,0,372)" style="font-family: 'Lucida Grande', 'Open Sans', verdana, arial, sans-serif; font-size: 10px; fill: rgb(0, 0, 0); fill-opacity: 1; white-space: pre; opacity: 1;">JAKSZP010006348.1</text></g><g class="xtick"><text text-anchor="start" x="0" y="377" transform="translate(392.47,0) rotate(90,0,372)" style="font-family: 'Lucida Grande', 'Open Sans', verdana, arial, sans-serif; font-size: 10px; fill: rgb(0, 0, 0); fill-opacity: 1; white-space: pre; opacity: 1;">JAKSZP010006629.1</text></g><g class="xtick"><text text-anchor="start" x="0" y="377" transform="translate(405.77,0) rotate(90,0,372)" style="font-family: 'Lucida Grande', 'Open Sans', verdana, arial, sans-serif; font-size: 10px; fill: rgb(0, 0, 0); fill-opacity: 1; white-space: pre; opacity: 1;">JAKSZP010006768.1</text></g><g class="xtick"><text text-anchor="start" x="0" y="377" transform="translate(419.06,0) rotate(90,0,372)" style="font-family: 'Lucida Grande', 'Open Sans', verdana, arial, sans-serif; font-size: 10px; fill: rgb(0, 0, 0); fill-opacity: 1; white-space: pre; opacity: 1;">JAKSZP010006970.1</text></g><g class="xtick"><text text-anchor="start" x="0" y="377" transform="translate(432.36,0) rotate(90,0,372)" style="font-family: 'Lucida Grande', 'Open Sans', verdana, arial, sans-serif; font-size: 10px; fill: rgb(0, 0, 0); fill-opacity: 1; white-space: pre; opacity: 1;">JAKSZP010007410.1</text></g><g class="xtick"><text text-anchor="start" x="0" y="377" transform="translate(445.66,0) rotate(90,0,372)" style="font-family: 'Lucida Grande', 'Open Sans', verdana, arial, sans-serif; font-size: 10px; fill: rgb(0, 0, 0); fill-opacity: 1; white-space: pre; opacity: 1;">JAKSZP010008110.1</text></g><g class="xtick"><text text-anchor="start" x="0" y="377" transform="translate(458.96,0) rotate(90,0,372)" style="font-family: 'Lucida Grande', 'Open Sans', verdana, arial, sans-serif; font-size: 10px; fill: rgb(0, 0, 0); fill-opacity: 1; white-space: pre; opacity: 1;">JAKSZP010008292.1</text></g><g class="xtick"><text text-anchor="start" x="0" y="377" transform="translate(472.26,0) rotate(90,0,372)" style="font-family: 'Lucida Grande', 'Open Sans', verdana, arial, sans-serif; font-size: 10px; fill: rgb(0, 0, 0); fill-opacity: 1; white-space: pre; opacity: 1;">JAKSZP010009203.1</text></g><g class="xtick"><text text-anchor="start" x="0" y="377" transform="translate(485.56,0) rotate(90,0,372)" style="font-family: 'Lucida Grande', 'Open Sans', verdana, arial, sans-serif; font-size: 10px; fill: rgb(0, 0, 0); fill-opacity: 1; white-space: pre; opacity: 1;">JAKSZP010009300.1</text></g><g class="xtick"><text text-anchor="start" x="0" y="377" transform="translate(498.86,0) rotate(90,0,372)" style="font-family: 'Lucida Grande', 'Open Sans', verdana, arial, sans-serif; font-size: 10px; fill: rgb(0, 0, 0); fill-opacity: 1; white-space: pre; opacity: 1;">JAKSZP010009329.1</text></g><g class="xtick"><text text-anchor="start" x="0" y="377" transform="translate(512.1600000000001,0) rotate(90,0,372)" style="font-family: 'Lucida Grande', 'Open Sans', verdana, arial, sans-serif; font-size: 10px; fill: rgb(0, 0, 0); fill-opacity: 1; white-space: pre; opacity: 1;">JAKSZP010009410.1</text></g><g class="xtick"><text text-anchor="start" x="0" y="377" transform="translate(525.45,0) rotate(90,0,372)" style="font-family: 'Lucida Grande', 'Open Sans', verdana, arial, sans-serif; font-size: 10px; fill: rgb(0, 0, 0); fill-opacity: 1; white-space: pre; opacity: 1;">JAKSZP010010022.1</text></g><g class="xtick"><text text-anchor="start" x="0" y="377" transform="translate(538.75,0) rotate(90,0,372)" style="font-family: 'Lucida Grande', 'Open Sans', verdana, arial, sans-serif; font-size: 10px; fill: rgb(0, 0, 0); fill-opacity: 1; white-space: pre; opacity: 1;">JAKSZP010010360.1</text></g><g class="xtick"><text text-anchor="start" x="0" y="377" transform="translate(552.05,0) rotate(90,0,372)" style="font-family: 'Lucida Grande', 'Open Sans', verdana, arial, sans-serif; font-size: 10px; fill: rgb(0, 0, 0); fill-opacity: 1; white-space: pre; opacity: 1;">JAKSZP010010569.1</text></g><g class="xtick"><text text-anchor="start" x="0" y="377" transform="translate(565.35,0) rotate(90,0,372)" style="font-family: 'Lucida Grande', 'Open Sans', verdana, arial, sans-serif; font-size: 10px; fill: rgb(0, 0, 0); fill-opacity: 1; white-space: pre; opacity: 1;">JAKSZP010010638.1</text></g><g class="xtick"><text text-anchor="start" x="0" y="377" transform="translate(578.65,0) rotate(90,0,372)" style="font-family: 'Lucida Grande', 'Open Sans', verdana, arial, sans-serif; font-size: 10px; fill: rgb(0, 0, 0); fill-opacity: 1; white-space: pre; opacity: 1;">JAKSZP010010727.1</text></g><g class="xtick"><text text-anchor="start" x="0" y="377" transform="translate(591.95,0) rotate(90,0,372)" style="font-family: 'Lucida Grande', 'Open Sans', verdana, arial, sans-serif; font-size: 10px; fill: rgb(0, 0, 0); fill-opacity: 1; white-space: pre; opacity: 1;">JAKSZP010010751.1</text></g><g class="xtick"><text text-anchor="start" x="0" y="377" transform="translate(605.25,0) rotate(90,0,372)" style="font-family: 'Lucida Grande', 'Open Sans', verdana, arial, sans-serif; font-size: 10px; fill: rgb(0, 0, 0); fill-opacity: 1; white-space: pre; opacity: 1;">JAKSZP010011111.1</text></g><g class="xtick"><text text-anchor="start" x="0" y="377" transform="translate(618.55,0) rotate(90,0,372)" style="font-family: 'Lucida Grande', 'Open Sans', verdana, arial, sans-serif; font-size: 10px; fill: rgb(0, 0, 0); fill-opacity: 1; white-space: pre; opacity: 1;">JAKSZP010011191.1</text></g><g class="xtick"><text text-anchor="start" x="0" y="377" transform="translate(631.84,0) rotate(90,0,372)" style="font-family: 'Lucida Grande', 'Open Sans', verdana, arial, sans-serif; font-size: 10px; fill: rgb(0, 0, 0); fill-opacity: 1; white-space: pre; opacity: 1;">JAKSZP010011400.1</text></g><g class="xtick"><text text-anchor="start" x="0" y="377" transform="translate(645.14,0) rotate(90,0,372)" style="font-family: 'Lucida Grande', 'Open Sans', verdana, arial, sans-serif; font-size: 10px; fill: rgb(0, 0, 0); fill-opacity: 1; white-space: pre; opacity: 1;">JAKSZP010011468.1</text></g><g class="xtick"><text text-anchor="start" x="0" y="377" transform="translate(658.44,0) rotate(90,0,372)" style="font-family: 'Lucida Grande', 'Open Sans', verdana, arial, sans-serif; font-size: 10px; fill: rgb(0, 0, 0); fill-opacity: 1; white-space: pre; opacity: 1;">JAKSZP010011738.1</text></g><g class="xtick"><text text-anchor="start" x="0" y="377" transform="translate(671.74,0) rotate(90,0,372)" style="font-family: 'Lucida Grande', 'Open Sans', verdana, arial, sans-serif; font-size: 10px; fill: rgb(0, 0, 0); fill-opacity: 1; white-space: pre; opacity: 1;">JAKSZP010011822.1</text></g><g class="xtick"><text text-anchor="start" x="0" y="377" transform="translate(685.04,0) rotate(90,0,372)" style="font-family: 'Lucida Grande', 'Open Sans', verdana, arial, sans-serif; font-size: 10px; fill: rgb(0, 0, 0); fill-opacity: 1; white-space: pre; opacity: 1;">JAKSZP010011897.1</text></g><g class="xtick"><text text-anchor="start" x="0" y="377" transform="translate(698.34,0) rotate(90,0,372)" style="font-family: 'Lucida Grande', 'Open Sans', verdana, arial, sans-serif; font-size: 10px; fill: rgb(0, 0, 0); fill-opacity: 1; white-space: pre; opacity: 1;">JAKSZP010012281.1</text></g><g class="xtick"><text text-anchor="start" x="0" y="377" transform="translate(711.64,0) rotate(90,0,372)" style="font-family: 'Lucida Grande', 'Open Sans', verdana, arial, sans-serif; font-size: 10px; fill: rgb(0, 0, 0); fill-opacity: 1; white-space: pre; opacity: 1;">JAKSZP010013147.1</text></g><g class="xtick"><text text-anchor="start" x="0" y="377" transform="translate(724.94,0) rotate(90,0,372)" style="font-family: 'Lucida Grande', 'Open Sans', verdana, arial, sans-serif; font-size: 10px; fill: rgb(0, 0, 0); fill-opacity: 1; white-space: pre; opacity: 1;">JAKSZP010013158.1</text></g><g class="xtick"><text text-anchor="start" x="0" y="377" transform="translate(738.23,0) rotate(90,0,372)" style="font-family: 'Lucida Grande', 'Open Sans', verdana, arial, sans-serif; font-size: 10px; fill: rgb(0, 0, 0); fill-opacity: 1; white-space: pre; opacity: 1;">JAKSZP010013190.1</text></g><g class="xtick"><text text-anchor="start" x="0" y="377" transform="translate(751.53,0) rotate(90,0,372)" style="font-family: 'Lucida Grande', 'Open Sans', verdana, arial, sans-serif; font-size: 10px; fill: rgb(0, 0, 0); fill-opacity: 1; white-space: pre; opacity: 1;">JAKSZP010013241.1</text></g><g class="xtick"><text text-anchor="start" x="0" y="377" transform="translate(764.83,0) rotate(90,0,372)" style="font-family: 'Lucida Grande', 'Open Sans', verdana, arial, sans-serif; font-size: 10px; fill: rgb(0, 0, 0); fill-opacity: 1; white-space: pre; opacity: 1;">JAKSZP010013366.1</text></g><g class="xtick"><text text-anchor="start" x="0" y="377" transform="translate(778.13,0) rotate(90,0,372)" style="font-family: 'Lucida Grande', 'Open Sans', verdana, arial, sans-serif; font-size: 10px; fill: rgb(0, 0, 0); fill-opacity: 1; white-space: pre; opacity: 1;">JAKSZP010013699.1</text></g><g class="xtick"><text text-anchor="start" x="0" y="377" transform="translate(791.43,0) rotate(90,0,372)" style="font-family: 'Lucida Grande', 'Open Sans', verdana, arial, sans-serif; font-size: 10px; fill: rgb(0, 0, 0); fill-opacity: 1; white-space: pre; opacity: 1;">JAKSZP010013765.1</text></g><g class="xtick"><text text-anchor="start" x="0" y="377" transform="translate(804.73,0) rotate(90,0,372)" style="font-family: 'Lucida Grande', 'Open Sans', verdana, arial, sans-serif; font-size: 10px; fill: rgb(0, 0, 0); fill-opacity: 1; white-space: pre; opacity: 1;">JAKSZP010014445.1</text></g><g class="xtick"><text text-anchor="start" x="0" y="377" transform="translate(818.03,0) rotate(90,0,372)" style="font-family: 'Lucida Grande', 'Open Sans', verdana, arial, sans-serif; font-size: 10px; fill: rgb(0, 0, 0); fill-opacity: 1; white-space: pre; opacity: 1;">JAKSZP010014506.1</text></g><g class="xtick"><text text-anchor="start" x="0" y="377" transform="translate(831.32,0) rotate(90,0,372)" style="font-family: 'Lucida Grande', 'Open Sans', verdana, arial, sans-serif; font-size: 10px; fill: rgb(0, 0, 0); fill-opacity: 1; white-space: pre; opacity: 1;">JAKSZP010014523.1</text></g><g class="xtick"><text text-anchor="start" x="0" y="377" transform="translate(844.62,0) rotate(90,0,372)" style="font-family: 'Lucida Grande', 'Open Sans', verdana, arial, sans-serif; font-size: 10px; fill: rgb(0, 0, 0); fill-opacity: 1; white-space: pre; opacity: 1;">JAKSZP010014547.1</text></g><g class="xtick"><text text-anchor="start" x="0" y="377" transform="translate(857.92,0) rotate(90,0,372)" style="font-family: 'Lucida Grande', 'Open Sans', verdana, arial, sans-serif; font-size: 10px; fill: rgb(0, 0, 0); fill-opacity: 1; white-space: pre; opacity: 1;">JAKSZP010014696.1</text></g><g class="xtick"><text text-anchor="start" x="0" y="377" transform="translate(871.22,0) rotate(90,0,372)" style="font-family: 'Lucida Grande', 'Open Sans', verdana, arial, sans-serif; font-size: 10px; fill: rgb(0, 0, 0); fill-opacity: 1; white-space: pre; opacity: 1;">JAKSZP010015409.1</text></g><g class="xtick"><text text-anchor="start" x="0" y="377" transform="translate(884.52,0) rotate(90,0,372)" style="font-family: 'Lucida Grande', 'Open Sans', verdana, arial, sans-serif; font-size: 10px; fill: rgb(0, 0, 0); fill-opacity: 1; white-space: pre; opacity: 1;">JAKSZP010015774.1</text></g><g class="xtick"><text text-anchor="start" x="0" y="377" transform="translate(897.82,0) rotate(90,0,372)" style="font-family: 'Lucida Grande', 'Open Sans', verdana, arial, sans-serif; font-size: 10px; fill: rgb(0, 0, 0); fill-opacity: 1; white-space: pre; opacity: 1;">JAKSZP010015839.1</text></g><g class="xtick"><text text-anchor="start" x="0" y="377" transform="translate(911.12,0) rotate(90,0,372)" style="font-family: 'Lucida Grande', 'Open Sans', verdana, arial, sans-serif; font-size: 10px; fill: rgb(0, 0, 0); fill-opacity: 1; white-space: pre; opacity: 1;">JAKSZP010016022.1</text></g><g class="xtick"><text text-anchor="start" x="0" y="377" transform="translate(924.42,0) rotate(90,0,372)" style="font-family: 'Lucida Grande', 'Open Sans', verdana, arial, sans-serif; font-size: 10px; fill: rgb(0, 0, 0); fill-opacity: 1; white-space: pre; opacity: 1;">JAKSZP010016073.1</text></g><g class="xtick"><text text-anchor="start" x="0" y="377" transform="translate(937.71,0) rotate(90,0,372)" style="font-family: 'Lucida Grande', 'Open Sans', verdana, arial, sans-serif; font-size: 10px; fill: rgb(0, 0, 0); fill-opacity: 1; white-space: pre; opacity: 1;">JAKSZP010016102.1</text></g><g class="xtick"><text text-anchor="start" x="0" y="377" transform="translate(951.01,0) rotate(90,0,372)" style="font-family: 'Lucida Grande', 'Open Sans', verdana, arial, sans-serif; font-size: 10px; fill: rgb(0, 0, 0); fill-opacity: 1; white-space: pre; opacity: 1;">JAKSZP010016390.1</text></g><g class="xtick"><text text-anchor="start" x="0" y="377" transform="translate(964.31,0) rotate(90,0,372)" style="font-family: 'Lucida Grande', 'Open Sans', verdana, arial, sans-serif; font-size: 10px; fill: rgb(0, 0, 0); fill-opacity: 1; white-space: pre; opacity: 1;">JAKSZP010016393.1</text></g><g class="xtick"><text text-anchor="start" x="0" y="377" transform="translate(977.61,0) rotate(90,0,372)" style="font-family: 'Lucida Grande', 'Open Sans', verdana, arial, sans-serif; font-size: 10px; fill: rgb(0, 0, 0); fill-opacity: 1; white-space: pre; opacity: 1;">JAKSZP010016401.1</text></g><g class="xtick"><text text-anchor="start" x="0" y="377" transform="translate(990.91,0) rotate(90,0,372)" style="font-family: 'Lucida Grande', 'Open Sans', verdana, arial, sans-serif; font-size: 10px; fill: rgb(0, 0, 0); fill-opacity: 1; white-space: pre; opacity: 1;">JAKSZP010017094.1</text></g><g class="xtick"><text text-anchor="start" x="0" y="377" transform="translate(1004.21,0) rotate(90,0,372)" style="font-family: 'Lucida Grande', 'Open Sans', verdana, arial, sans-serif; font-size: 10px; fill: rgb(0, 0, 0); fill-opacity: 1; white-space: pre; opacity: 1;">JAKSZP010017175.1</text></g><g class="xtick"><text text-anchor="start" x="0" y="377" transform="translate(1017.51,0) rotate(90,0,372)" style="font-family: 'Lucida Grande', 'Open Sans', verdana, arial, sans-serif; font-size: 10px; fill: rgb(0, 0, 0); fill-opacity: 1; white-space: pre; opacity: 1;">JAKSZP010017383.1</text></g><g class="xtick"><text text-anchor="start" x="0" y="377" transform="translate(1030.81,0) rotate(90,0,372)" style="font-family: 'Lucida Grande', 'Open Sans', verdana, arial, sans-serif; font-size: 10px; fill: rgb(0, 0, 0); fill-opacity: 1; white-space: pre; opacity: 1;">JAKSZP010017862.1</text></g><g class="xtick"><text text-anchor="start" x="0" y="377" transform="translate(1044.1,0) rotate(90,0,372)" style="font-family: 'Lucida Grande', 'Open Sans', verdana, arial, sans-serif; font-size: 10px; fill: rgb(0, 0, 0); fill-opacity: 1; white-space: pre; opacity: 1;">JAKSZP010018392.1</text></g><g class="xtick"><text text-anchor="start" x="0" y="377" transform="translate(1057.4,0) rotate(90,0,372)" style="font-family: 'Lucida Grande', 'Open Sans', verdana, arial, sans-serif; font-size: 10px; fill: rgb(0, 0, 0); fill-opacity: 1; white-space: pre; opacity: 1;">JAKSZP010019011.1</text></g><g class="xtick"><text text-anchor="start" x="0" y="377" transform="translate(1070.7,0) rotate(90,0,372)" style="font-family: 'Lucida Grande', 'Open Sans', verdana, arial, sans-serif; font-size: 10px; fill: rgb(0, 0, 0); fill-opacity: 1; white-space: pre; opacity: 1;">JAKSZP010019195.1</text></g><g class="xtick"><text text-anchor="start" x="0" y="377" transform="translate(1084,0) rotate(90,0,372)" style="font-family: 'Lucida Grande', 'Open Sans', verdana, arial, sans-serif; font-size: 10px; fill: rgb(0, 0, 0); fill-opacity: 1; white-space: pre; opacity: 1;">JAKSZP010019356.1</text></g></g><g class="yaxislayer-above"><g class="ytick"><text text-anchor="end" x="54" y="3.5" transform="translate(0,345.45)" style="font-family: 'Lucida Grande', 'Open Sans', verdana, arial, sans-serif; font-size: 10px; fill: rgb(0, 0, 0); fill-opacity: 1; white-space: pre; opacity: 1;">0</text></g><g class="ytick"><text text-anchor="end" x="54" y="3.5" style="font-family: 'Lucida Grande', 'Open Sans', verdana, arial, sans-serif; font-size: 10px; fill: rgb(0, 0, 0); fill-opacity: 1; white-space: pre; opacity: 1;" transform="translate(0,288)">0.05</text></g><g class="ytick"><text text-anchor="end" x="54" y="3.5" style="font-family: 'Lucida Grande', 'Open Sans', verdana, arial, sans-serif; font-size: 10px; fill: rgb(0, 0, 0); fill-opacity: 1; white-space: pre; opacity: 1;" transform="translate(0,230.56)">0.1</text></g><g class="ytick"><text text-anchor="end" x="54" y="3.5" style="font-family: 'Lucida Grande', 'Open Sans', verdana, arial, sans-serif; font-size: 10px; fill: rgb(0, 0, 0); fill-opacity: 1; white-space: pre; opacity: 1;" transform="translate(0,173.11)">0.15</text></g><g class="ytick"><text text-anchor="end" x="54" y="3.5" style="font-family: 'Lucida Grande', 'Open Sans', verdana, arial, sans-serif; font-size: 10px; fill: rgb(0, 0, 0); fill-opacity: 1; white-space: pre; opacity: 1;" transform="translate(0,115.66)">0.2</text></g><g class="ytick"><text text-anchor="end" x="54" y="3.5" style="font-family: 'Lucida Grande', 'Open Sans', verdana, arial, sans-serif; font-size: 10px; fill: rgb(0, 0, 0); fill-opacity: 1; white-space: pre; opacity: 1;" transform="translate(0,58.21)">0.25</text></g></g><g class="overaxes-above"/></g></g><g class="polarlayer"/><g class="smithlayer"/><g class="ternarylayer"/><g class="geolayer"/><g class="funnelarealayer"/><g class="pielayer"/><g class="iciclelayer"/><g class="treemaplayer"/><g class="sunburstlayer"/><g class="glimages"/><defs id="topdefs-0980b0"><g class="clips"/></defs><g class="layer-above"><g class="imagelayer"/><g class="shapelayer"/></g><g class="infolayer"><g class="g-gtitle"><text class="gtitle" x="550" y="25" text-anchor="middle" dy="0em" style="opacity: 1; font-family: 'Lucida Grande', 'Open Sans', verdana, arial, sans-serif; font-size: 20px; fill: rgb(68, 68, 68); fill-opacity: 1; white-space: pre;"><tspan class="line" dy="0em" x="550" y="25">Samtools: idxstats: Mapped reads per contig</tspan><tspan class="line" dy="1.3em" x="550" y="25">​<tspan style="font-size:70%" dy="-0.6em">Normalised Counts, 6 samples</tspan><tspan dy="0.42em">​</tspan></tspan></text></g><g class="g-xtitle" transform="translate(0,76.203125)"><text class="xtitle" x="572" y="413" text-anchor="middle" style="opacity: 0.3; font-family: 'Lucida Grande', 'Open Sans', verdana, arial, sans-serif; font-size: 14px; fill: rgb(0, 0, 0); fill-opacity: 1; white-space: pre;">Chromosome name</text></g><g class="g-ytitle"><text class="ytitle" transform="rotate(-90,22,205.5)" x="22" y="205.5" text-anchor="middle" style="opacity: 0.3; font-family: 'Lucida Grande', 'Open Sans', verdana, arial, sans-serif; font-size: 14px; fill: rgb(0, 0, 0); fill-opacity: 1; white-space: pre;">Fraction of total count</text></g></g></svg>