<svg class="main-svg" xmlns="http://www.w3.org/2000/svg" xmlns:xlink="http://www.w3.org/1999/xlink" width="2200" height="1000" style="" viewBox="0 0 1100 500"><rect x="0" y="0" width="1100" height="500" style="fill: rgb(255, 255, 255); fill-opacity: 1;"/><defs id="defs-befb02"><g class="clips"><clipPath id="clipbefb02xyplot" class="plotclip"><rect width="1024" height="311"/></clipPath><clipPath class="axesclip" id="clipbefb02x"><rect x="60" y="0" width="1024" height="500"/></clipPath><clipPath class="axesclip" id="clipbefb02y"><rect x="0" y="50" width="1100" height="311"/></clipPath><clipPath class="axesclip" id="clipbefb02xy"><rect x="60" y="50" width="1024" height="311"/></clipPath></g><g class="gradients"/><g class="patterns"/></defs><g class="bglayer"/><g class="layer-below"><g class="imagelayer"/><g class="shapelayer"/></g><g class="cartesianlayer"><g class="subplot xy"><g class="layer-subplot"><g class="shapelayer"/><g class="imagelayer"/></g><g class="minor-gridlayer"><g class="x"/><g class="y"/></g><g class="gridlayer"><g class="x"><path class="xgrid crisp" transform="translate(73.3,0)" d="M0,50v311" style="stroke: rgb(0, 0, 0); stroke-opacity: 0.05; stroke-width: 1px;"/><path class="xgrid crisp" transform="translate(86.6,0)" d="M0,50v311" style="stroke: rgb(0, 0, 0); stroke-opacity: 0.05; stroke-width: 1px;"/><path class="xgrid crisp" transform="translate(99.9,0)" d="M0,50v311" style="stroke: rgb(0, 0, 0); stroke-opacity: 0.05; stroke-width: 1px;"/><path class="xgrid crisp" transform="translate(113.19,0)" d="M0,50v311" style="stroke: rgb(0, 0, 0); stroke-opacity: 0.05; stroke-width: 1px;"/><path class="xgrid crisp" transform="translate(126.49,0)" d="M0,50v311" style="stroke: rgb(0, 0, 0); stroke-opacity: 0.05; stroke-width: 1px;"/><path class="xgrid crisp" transform="translate(139.79000000000002,0)" d="M0,50v311" style="stroke: rgb(0, 0, 0); stroke-opacity: 0.05; stroke-width: 1px;"/><path class="xgrid crisp" transform="translate(153.09,0)" d="M0,50v311" style="stroke: rgb(0, 0, 0); stroke-opacity: 0.05; stroke-width: 1px;"/><path class="xgrid crisp" transform="translate(166.39,0)" d="M0,50v311" style="stroke: rgb(0, 0, 0); stroke-opacity: 0.05; stroke-width: 1px;"/><path class="xgrid crisp" transform="translate(179.69,0)" d="M0,50v311" style="stroke: rgb(0, 0, 0); stroke-opacity: 0.05; stroke-width: 1px;"/><path class="xgrid crisp" transform="translate(192.99,0)" d="M0,50v311" style="stroke: rgb(0, 0, 0); stroke-opacity: 0.05; stroke-width: 1px;"/><path class="xgrid crisp" transform="translate(206.29,0)" d="M0,50v311" style="stroke: rgb(0, 0, 0); stroke-opacity: 0.05; stroke-width: 1px;"/><path class="xgrid crisp" transform="translate(219.58,0)" d="M0,50v311" style="stroke: rgb(0, 0, 0); stroke-opacity: 0.05; stroke-width: 1px;"/><path class="xgrid crisp" transform="translate(232.88,0)" d="M0,50v311" style="stroke: rgb(0, 0, 0); stroke-opacity: 0.05; stroke-width: 1px;"/><path class="xgrid crisp" transform="translate(246.18,0)" d="M0,50v311" style="stroke: rgb(0, 0, 0); stroke-opacity: 0.05; stroke-width: 1px;"/><path class="xgrid crisp" transform="translate(259.48,0)" d="M0,50v311" style="stroke: rgb(0, 0, 0); stroke-opacity: 0.05; stroke-width: 1px;"/><path class="xgrid crisp" transform="translate(272.78,0)" d="M0,50v311" style="stroke: rgb(0, 0, 0); stroke-opacity: 0.05; stroke-width: 1px;"/><path class="xgrid crisp" transform="translate(286.08000000000004,0)" d="M0,50v311" style="stroke: rgb(0, 0, 0); stroke-opacity: 0.05; stroke-width: 1px;"/><path class="xgrid crisp" transform="translate(299.38,0)" d="M0,50v311" style="stroke: rgb(0, 0, 0); stroke-opacity: 0.05; stroke-width: 1px;"/><path class="xgrid crisp" transform="translate(312.68,0)" d="M0,50v311" style="stroke: rgb(0, 0, 0); stroke-opacity: 0.05; stroke-width: 1px;"/><path class="xgrid crisp" transform="translate(325.97,0)" d="M0,50v311" style="stroke: rgb(0, 0, 0); stroke-opacity: 0.05; stroke-width: 1px;"/><path class="xgrid crisp" transform="translate(339.27,0)" d="M0,50v311" style="stroke: rgb(0, 0, 0); stroke-opacity: 0.05; stroke-width: 1px;"/><path class="xgrid crisp" transform="translate(352.57,0)" d="M0,50v311" style="stroke: rgb(0, 0, 0); stroke-opacity: 0.05; stroke-width: 1px;"/><path class="xgrid crisp" transform="translate(365.87,0)" d="M0,50v311" style="stroke: rgb(0, 0, 0); stroke-opacity: 0.05; stroke-width: 1px;"/><path class="xgrid crisp" transform="translate(379.17,0)" d="M0,50v311" style="stroke: rgb(0, 0, 0); stroke-opacity: 0.05; stroke-width: 1px;"/><path class="xgrid crisp" transform="translate(392.47,0)" d="M0,50v311" style="stroke: rgb(0, 0, 0); stroke-opacity: 0.05; stroke-width: 1px;"/><path class="xgrid crisp" transform="translate(405.77,0)" d="M0,50v311" style="stroke: rgb(0, 0, 0); stroke-opacity: 0.05; stroke-width: 1px;"/><path class="xgrid crisp" transform="translate(419.06,0)" d="M0,50v311" style="stroke: rgb(0, 0, 0); stroke-opacity: 0.05; stroke-width: 1px;"/><path class="xgrid crisp" transform="translate(432.36,0)" d="M0,50v311" style="stroke: rgb(0, 0, 0); stroke-opacity: 0.05; stroke-width: 1px;"/><path class="xgrid crisp" transform="translate(445.66,0)" d="M0,50v311" style="stroke: rgb(0, 0, 0); stroke-opacity: 0.05; stroke-width: 1px;"/><path class="xgrid crisp" transform="translate(458.96,0)" d="M0,50v311" style="stroke: rgb(0, 0, 0); stroke-opacity: 0.05; stroke-width: 1px;"/><path class="xgrid crisp" transform="translate(472.26,0)" d="M0,50v311" style="stroke: rgb(0, 0, 0); stroke-opacity: 0.05; stroke-width: 1px;"/><path class="xgrid crisp" transform="translate(485.56,0)" d="M0,50v311" style="stroke: rgb(0, 0, 0); stroke-opacity: 0.05; stroke-width: 1px;"/><path class="xgrid crisp" transform="translate(498.86,0)" d="M0,50v311" style="stroke: rgb(0, 0, 0); stroke-opacity: 0.05; stroke-width: 1px;"/><path class="xgrid crisp" transform="translate(512.1600000000001,0)" d="M0,50v311" style="stroke: rgb(0, 0, 0); stroke-opacity: 0.05; stroke-width: 1px;"/><path class="xgrid crisp" transform="translate(525.45,0)" d="M0,50v311" style="stroke: rgb(0, 0, 0); stroke-opacity: 0.05; stroke-width: 1px;"/><path class="xgrid crisp" transform="translate(538.75,0)" d="M0,50v311" style="stroke: rgb(0, 0, 0); stroke-opacity: 0.05; stroke-width: 1px;"/><path class="xgrid crisp" transform="translate(552.05,0)" d="M0,50v311" style="stroke: rgb(0, 0, 0); stroke-opacity: 0.05; stroke-width: 1px;"/><path class="xgrid crisp" transform="translate(565.35,0)" d="M0,50v311" style="stroke: rgb(0, 0, 0); stroke-opacity: 0.05; stroke-width: 1px;"/><path class="xgrid crisp" transform="translate(578.65,0)" d="M0,50v311" style="stroke: rgb(0, 0, 0); stroke-opacity: 0.05; stroke-width: 1px;"/><path class="xgrid crisp" transform="translate(591.95,0)" d="M0,50v311" style="stroke: rgb(0, 0, 0); stroke-opacity: 0.05; stroke-width: 1px;"/><path class="xgrid crisp" transform="translate(605.25,0)" d="M0,50v311" style="stroke: rgb(0, 0, 0); stroke-opacity: 0.05; stroke-width: 1px;"/><path class="xgrid crisp" transform="translate(618.55,0)" d="M0,50v311" style="stroke: rgb(0, 0, 0); stroke-opacity: 0.05; stroke-width: 1px;"/><path class="xgrid crisp" transform="translate(631.84,0)" d="M0,50v311" style="stroke: rgb(0, 0, 0); stroke-opacity: 0.05; stroke-width: 1px;"/><path class="xgrid crisp" transform="translate(645.14,0)" d="M0,50v311" style="stroke: rgb(0, 0, 0); stroke-opacity: 0.05; stroke-width: 1px;"/><path class="xgrid crisp" transform="translate(658.44,0)" d="M0,50v311" style="stroke: rgb(0, 0, 0); stroke-opacity: 0.05; stroke-width: 1px;"/><path class="xgrid crisp" transform="translate(671.74,0)" d="M0,50v311" style="stroke: rgb(0, 0, 0); stroke-opacity: 0.05; stroke-width: 1px;"/><path class="xgrid crisp" transform="translate(685.04,0)" d="M0,50v311" style="stroke: rgb(0, 0, 0); stroke-opacity: 0.05; stroke-width: 1px;"/><path class="xgrid crisp" transform="translate(698.34,0)" d="M0,50v311" style="stroke: rgb(0, 0, 0); stroke-opacity: 0.05; stroke-width: 1px;"/><path class="xgrid crisp" transform="translate(711.64,0)" d="M0,50v311" style="stroke: rgb(0, 0, 0); stroke-opacity: 0.05; stroke-width: 1px;"/><path class="xgrid crisp" transform="translate(724.94,0)" d="M0,50v311" style="stroke: rgb(0, 0, 0); stroke-opacity: 0.05; stroke-width: 1px;"/><path class="xgrid crisp" transform="translate(738.23,0)" d="M0,50v311" style="stroke: rgb(0, 0, 0); stroke-opacity: 0.05; stroke-width: 1px;"/><path class="xgrid crisp" transform="translate(751.53,0)" d="M0,50v311" style="stroke: rgb(0, 0, 0); stroke-opacity: 0.05; stroke-width: 1px;"/><path class="xgrid crisp" transform="translate(764.83,0)" d="M0,50v311" style="stroke: rgb(0, 0, 0); stroke-opacity: 0.05; stroke-width: 1px;"/><path class="xgrid crisp" transform="translate(778.13,0)" d="M0,50v311" style="stroke: rgb(0, 0, 0); stroke-opacity: 0.05; stroke-width: 1px;"/><path class="xgrid crisp" transform="translate(791.43,0)" d="M0,50v311" style="stroke: rgb(0, 0, 0); stroke-opacity: 0.05; stroke-width: 1px;"/><path class="xgrid crisp" transform="translate(804.73,0)" d="M0,50v311" style="stroke: rgb(0, 0, 0); stroke-opacity: 0.05; stroke-width: 1px;"/><path class="xgrid crisp" transform="translate(818.03,0)" d="M0,50v311" style="stroke: rgb(0, 0, 0); stroke-opacity: 0.05; stroke-width: 1px;"/><path class="xgrid crisp" transform="translate(831.32,0)" d="M0,50v311" style="stroke: rgb(0, 0, 0); stroke-opacity: 0.05; stroke-width: 1px;"/><path class="xgrid crisp" transform="translate(844.62,0)" d="M0,50v311" style="stroke: rgb(0, 0, 0); stroke-opacity: 0.05; stroke-width: 1px;"/><path class="xgrid crisp" transform="translate(857.92,0)" d="M0,50v311" style="stroke: rgb(0, 0, 0); stroke-opacity: 0.05; stroke-width: 1px;"/><path class="xgrid crisp" transform="translate(871.22,0)" d="M0,50v311" style="stroke: rgb(0, 0, 0); stroke-opacity: 0.05; stroke-width: 1px;"/><path class="xgrid crisp" transform="translate(884.52,0)" d="M0,50v311" style="stroke: rgb(0, 0, 0); stroke-opacity: 0.05; stroke-width: 1px;"/><path class="xgrid crisp" transform="translate(897.82,0)" d="M0,50v311" style="stroke: rgb(0, 0, 0); stroke-opacity: 0.05; stroke-width: 1px;"/><path class="xgrid crisp" transform="translate(911.12,0)" d="M0,50v311" style="stroke: rgb(0, 0, 0); stroke-opacity: 0.05; stroke-width: 1px;"/><path class="xgrid crisp" transform="translate(924.42,0)" d="M0,50v311" style="stroke: rgb(0, 0, 0); stroke-opacity: 0.05; stroke-width: 1px;"/><path class="xgrid crisp" transform="translate(937.71,0)" d="M0,50v311" style="stroke: rgb(0, 0, 0); stroke-opacity: 0.05; stroke-width: 1px;"/><path class="xgrid crisp" transform="translate(951.01,0)" d="M0,50v311" style="stroke: rgb(0, 0, 0); stroke-opacity: 0.05; stroke-width: 1px;"/><path class="xgrid crisp" transform="translate(964.31,0)" d="M0,50v311" style="stroke: rgb(0, 0, 0); stroke-opacity: 0.05; stroke-width: 1px;"/><path class="xgrid crisp" transform="translate(977.61,0)" d="M0,50v311" style="stroke: rgb(0, 0, 0); stroke-opacity: 0.05; stroke-width: 1px;"/><path class="xgrid crisp" transform="translate(990.91,0)" d="M0,50v311" style="stroke: rgb(0, 0, 0); stroke-opacity: 0.05; stroke-width: 1px;"/><path class="xgrid crisp" transform="translate(1004.21,0)" d="M0,50v311" style="stroke: rgb(0, 0, 0); stroke-opacity: 0.05; stroke-width: 1px;"/><path class="xgrid crisp" transform="translate(1017.51,0)" d="M0,50v311" style="stroke: rgb(0, 0, 0); stroke-opacity: 0.05; stroke-width: 1px;"/><path class="xgrid crisp" transform="translate(1030.81,0)" d="M0,50v311" style="stroke: rgb(0, 0, 0); stroke-opacity: 0.05; stroke-width: 1px;"/><path class="xgrid crisp" transform="translate(1044.1,0)" d="M0,50v311" style="stroke: rgb(0, 0, 0); stroke-opacity: 0.05; stroke-width: 1px;"/><path class="xgrid crisp" transform="translate(1057.4,0)" d="M0,50v311" style="stroke: rgb(0, 0, 0); stroke-opacity: 0.05; stroke-width: 1px;"/><path class="xgrid crisp" transform="translate(1070.7,0)" d="M0,50v311" style="stroke: rgb(0, 0, 0); stroke-opacity: 0.05; stroke-width: 1px;"/></g><g class="y"><path class="ygrid crisp" transform="translate(0,308.42)" d="M60,0h1024" style="stroke: rgb(0, 0, 0); stroke-opacity: 0.05; stroke-width: 1px;"/><path class="ygrid crisp" transform="translate(0,271.39)" d="M60,0h1024" style="stroke: rgb(0, 0, 0); stroke-opacity: 0.05; stroke-width: 1px;"/><path class="ygrid crisp" transform="translate(0,234.36)" d="M60,0h1024" style="stroke: rgb(0, 0, 0); stroke-opacity: 0.05; stroke-width: 1px;"/><path class="ygrid crisp" transform="translate(0,197.33)" d="M60,0h1024" style="stroke: rgb(0, 0, 0); stroke-opacity: 0.05; stroke-width: 1px;"/><path class="ygrid crisp" transform="translate(0,160.3)" d="M60,0h1024" style="stroke: rgb(0, 0, 0); stroke-opacity: 0.05; stroke-width: 1px;"/><path class="ygrid crisp" transform="translate(0,123.27)" d="M60,0h1024" style="stroke: rgb(0, 0, 0); stroke-opacity: 0.05; stroke-width: 1px;"/><path class="ygrid crisp" transform="translate(0,86.24000000000001)" d="M60,0h1024" style="stroke: rgb(0, 0, 0); stroke-opacity: 0.05; stroke-width: 1px;"/></g></g><g class="zerolinelayer"><path class="yzl zl crisp" transform="translate(0,345.45)" d="M60,0h1024" style="stroke: rgb(0, 0, 0); stroke-opacity: 0.05; stroke-width: 1px;"/></g><g class="layer-between"><g class="shapelayer"/><g class="imagelayer"/></g><path class="xlines-below"/><path class="ylines-below"/><g class="overlines-below"/><g class="xaxislayer-below"/><g class="yaxislayer-below"/><g class="overaxes-below"/><g class="overplot"><g class="xy" transform="translate(60,50)" clip-path="url(#clipbefb02xyplot)"><g class="scatterlayer mlayer"><g class="trace scatter trace189485" style="stroke-miterlimit: 2; opacity: 1;"><g class="fills"/><g class="errorbars"/><g class="lines"><path class="js-line" d="M0,295.25L26.6,294.68L39.9,291.33L53.19,292.02L66.49,294.17L93.09,294.34L106.39,290.8L119.69,294.21L132.99,294.93L146.29,293.67L159.58,293.2L172.88,290.4L186.18,284.69L199.48,295.25L212.78,269.78L226.08,292.21L239.38,293.94L252.68,282.37L265.97,292.59L279.27,290.41L292.57,294.24L305.87,293.4L319.17,293.48L332.47,270.7L345.77,292.75L359.06,294.03L372.36,289.98L385.66,292.53L398.96,292.8L412.26,295.07L425.56,293.16L452.16,290.05L465.45,293.54L478.75,294.46L492.05,291.61L505.35,293.93L518.65,291.02L531.95,293.4L545.25,287.05L558.55,181.93L571.84,293.98L585.14,286.73L598.44,285.76L611.74,292.63L625.04,293.88L638.34,287.15L651.64,293.34L664.94,292.82L678.23,290.24L691.53,292.91L704.83,293.4L718.13,292.28L731.43,295.32L744.73,293.23L758.03,260.1L771.32,291.92L784.62,294.63L811.22,293.07L824.52,264.57L837.82,294.63L851.12,295.04L864.42,236.79L877.71,293.71L891.01,292.76L904.31,284.79L917.61,249.05L930.91,292.38L970.81,294.24L984.1,290.32L997.4,293.21L1010.7,287.38L1024,280.79" style="vector-effect: none; fill: none; stroke: rgb(124, 181, 236); stroke-opacity: 1; stroke-width: 2px; opacity: 1;"/></g><g class="points"/><g class="text"/></g><g class="trace scatter tracebece82" style="stroke-miterlimit: 2; opacity: 1;"><g class="fills"/><g class="errorbars"/><g class="lines"><path class="js-line" d="M0,293.99L13.3,291.49L26.6,291.58L39.9,295.44L53.19,292.9L66.49,293.61L79.79,282.61L93.09,292.92L106.39,295.41L119.69,288.59L132.99,288.76L146.29,293.09L159.58,294.27L172.88,295.45L186.18,295.44L199.48,291.06L212.78,266.61L226.08,293.61L239.38,291.67L252.68,295.44L265.97,294.18L279.27,294.48L292.57,293.69L305.87,295.45L319.17,294.74L345.77,295.41L359.06,293.65L372.36,295.45L385.66,294.25L398.96,295.4L412.26,292.31L425.56,294.95L438.86,295.45L452.16,290.46L465.45,262.97L478.75,291.99L492.05,295.2L505.35,292.97L518.65,294.86L531.95,294.35L545.25,295.42L558.55,194.5L571.84,294.48L585.14,295.45L598.44,270.38L611.74,289.74L625.04,286.43L638.34,291.45L651.64,295.43L664.94,295.21L678.23,291.65L691.53,293.97L704.83,293.74L718.13,294.22L731.43,291.87L744.73,294.85L758.03,295.43L771.32,291.1L784.62,293.41L797.92,294.23L811.22,294.28L824.52,295.21L837.82,294.3L851.12,293.91L864.42,295.3L877.71,293.62L891.01,293.53L904.31,295.44L917.61,226.43L930.91,295.41L944.21,292.23L970.81,292.43L984.1,294.26L997.4,291.98L1010.7,295.45L1024,279.63" style="vector-effect: none; fill: none; stroke: rgb(67, 67, 72); stroke-opacity: 1; stroke-width: 2px; opacity: 1;"/></g><g class="points"/><g class="text"/></g><g class="trace scatter trace7af320" style="stroke-miterlimit: 2; opacity: 1;"><g class="fills"/><g class="errorbars"/><g class="lines"><path class="js-line" d="M0,295.33L26.6,295.05L39.9,292.73L79.79,295.4L93.09,295.38L106.39,293.97L119.69,295.24L132.99,295.44L146.29,294.15L159.58,294.85L172.88,292.02L186.18,289.73L199.48,295.45L212.78,279.56L226.08,294.63L239.38,295.3L252.68,290.49L265.97,294.17L279.27,291.05L292.57,294.66L305.87,293.79L319.17,294.62L332.47,287.18L345.77,293.61L359.06,294.8L372.36,288.47L385.66,294.12L398.96,293.52L412.26,295.44L425.56,293.19L438.86,292.05L452.16,295.17L465.45,295.45L478.75,295.26L492.05,292.42L505.35,294.67L518.65,293.04L531.95,295.04L545.25,291.22L558.55,215.75L571.84,293.46L598.44,292.99L611.74,294.32L625.04,295.23L638.34,292.08L664.94,293.27L678.23,291.33L691.53,292.49L704.83,294.48L718.13,294.02L731.43,295.43L744.73,294.18L758.03,281.14L771.32,294.17L784.62,295.16L797.92,294.56L811.22,295.03L824.52,283.75L837.82,295.28L851.12,295.33L864.42,278.68L877.71,294.52L891.01,294.37L904.31,293.14L917.61,274.54L930.91,293.57L944.21,293.06L957.51,295.06L970.81,295L984.1,290.73L997.4,294.14L1010.7,293.34L1024,286.1" style="vector-effect: none; fill: none; stroke: rgb(144, 237, 125); stroke-opacity: 1; stroke-width: 2px; opacity: 1;"/></g><g class="points"/><g class="text"/></g><g class="trace scatter trace1c99f7" style="stroke-miterlimit: 2; opacity: 1;"><g class="fills"/><g class="errorbars"/><g class="lines"><path class="js-line" d="M0,286.6L13.3,287.57L26.6,291.45L39.9,295.45L53.19,291.47L66.49,292.7L79.79,278.25L93.09,288.04L106.39,295.42L119.69,289.53L132.99,293.88L159.58,293.71L172.88,295.44L186.18,295.45L199.48,290.61L212.78,281.58L226.08,293.1L239.38,288.23L252.68,295.44L265.97,292.58L279.27,295.08L292.57,292.43L305.87,295.45L319.17,294.2L332.47,294.23L345.77,295.2L359.06,293.2L372.36,295.45L385.66,294.26L398.96,295.28L412.26,290.71L425.56,295.08L438.86,295.44L452.16,286.84L465.45,254.83L478.75,294.79L492.05,295.13L518.65,293.77L531.95,294.32L545.25,295.42L558.55,255.37L571.84,294.41L585.14,295.45L598.44,287.14L611.74,292L625.04,284.67L638.34,291.27L651.64,295.4L664.94,295.2L678.23,292.9L691.53,293.52L704.83,294.09L718.13,292.33L731.43,289.24L744.73,294.35L758.03,295.42L771.32,285.27L784.62,291.72L797.92,293.04L824.52,295.29L837.82,291.78L851.12,289.28L864.42,295.3L877.71,293.91L891.01,293.45L904.31,295.44L917.61,271.64L930.91,295.39L944.21,292.89L957.51,291.26L970.81,293.54L984.1,293.75L997.4,292.45L1010.7,295.45L1024,289.65" style="vector-effect: none; fill: none; stroke: rgb(247, 163, 92); stroke-opacity: 1; stroke-width: 2px; opacity: 1;"/></g><g class="points"/><g class="text"/></g><g class="trace scatter tracea3c238" style="stroke-miterlimit: 2; opacity: 1;"><g class="fills"/><g class="errorbars"/><g class="lines"><path class="js-line" d="M0,295.25L26.6,294.91L39.9,292.79L79.79,295.11L93.09,295.38L106.39,291.53L119.69,295.03L132.99,295.44L146.29,294.27L159.58,293.76L172.88,291.69L186.18,286.01L199.48,295.45L212.78,245.42L226.08,292.39L239.38,295.2L252.68,290.08L265.97,294.18L279.27,290.84L292.57,294.68L305.87,294.29L319.17,292.77L332.47,283.28L345.77,294.34L359.06,294.27L385.66,294.17L398.96,292.7L412.26,295.42L425.56,292.93L465.45,295.44L478.75,294.04L505.35,294.29L518.65,292.77L531.95,293.97L545.25,288.24L558.55,15.55L571.84,294.63L585.14,289.42L598.44,275.92L611.74,294.26L625.04,295.31L638.34,290.41L651.64,294.1L691.53,293.81L704.83,294.56L718.13,293.9L731.43,295.4L744.73,294.16L758.03,272.02L771.32,292.53L784.62,294.92L811.22,294.29L824.52,276.17L837.82,293.39L851.12,295.19L864.42,264.81L877.71,293.83L891.01,294.09L904.31,289.84L917.61,188.95L930.91,293L944.21,293.23L957.51,294.89L970.81,294.87L984.1,293.43L997.4,293.58L1010.7,292.92L1024,268.75" style="vector-effect: none; fill: none; stroke: rgb(128, 133, 233); stroke-opacity: 1; stroke-width: 2px; opacity: 1;"/></g><g class="points"/><g class="text"/></g><g class="trace scatter trace0f7f79" style="stroke-miterlimit: 2; opacity: 1;"><g class="fills"/><g class="errorbars"/><g class="lines"><path class="js-line" d="M0,295.35L26.6,294.94L39.9,290.57L53.19,291.67L66.49,294.51L93.09,295.24L106.39,291.6L119.69,294.81L132.99,295.33L159.58,293.5L172.88,288.71L186.18,281.04L199.48,295.37L212.78,241.22L226.08,292.27L239.38,294.41L252.68,284.16L265.97,291.7L279.27,288.24L292.57,294.11L305.87,291.94L319.17,293.22L332.47,271.84L345.77,293.17L359.06,293.89L372.36,286.02L385.66,293.16L398.96,290.47L412.26,295.38L438.86,290.59L452.16,292.53L465.45,295.43L478.75,293.92L492.05,289.7L505.35,293.57L518.65,286.74L531.95,293.56L545.25,285.16L558.55,107.8L571.84,293.87L585.14,286.47L598.44,274.39L611.74,292.48L625.04,294.93L638.34,289.32L651.64,292.16L664.94,291.72L678.23,290.6L691.53,292.37L704.83,292.54L718.13,291.74L731.43,295.38L744.73,292.79L758.03,258.18L771.32,292.43L784.62,294.71L797.92,294.12L811.22,293.77L824.52,262.45L837.82,295.01L851.12,295.27L864.42,236L877.71,293.69L891.01,293.16L904.31,285.51L917.61,230.33L930.91,291.72L957.51,294.3L970.81,294.16L984.1,287.77L997.4,292.79L1010.7,287.61L1024,272.61" style="vector-effect: none; fill: none; stroke: rgb(241, 92, 128); stroke-opacity: 1; stroke-width: 2px; opacity: 1;"/></g><g class="points"/><g class="text"/></g></g></g></g><path class="xlines-above crisp" d="M0,0" style="fill: none;"/><path class="ylines-above crisp" d="M0,0" style="fill: none;"/><g class="overlines-above"/><g class="xaxislayer-above"><g class="xtick"><text text-anchor="start" x="0" y="377" transform="translate(60,0) rotate(90,0,372)" style="font-family: 'Lucida Grande', 'Open Sans', verdana, arial, sans-serif; font-size: 10px; fill: rgb(0, 0, 0); fill-opacity: 1; white-space: pre; opacity: 1;">JAKSZP010000259.1</text></g><g class="xtick"><text text-anchor="start" x="0" y="377" transform="translate(73.3,0) rotate(90,0,372)" style="font-family: 'Lucida Grande', 'Open Sans', verdana, arial, sans-serif; font-size: 10px; fill: rgb(0, 0, 0); fill-opacity: 1; white-space: pre; opacity: 1;">JAKSZP010000397.1</text></g><g class="xtick"><text text-anchor="start" x="0" y="377" transform="translate(86.6,0) rotate(90,0,372)" style="font-family: 'Lucida Grande', 'Open Sans', verdana, arial, sans-serif; font-size: 10px; fill: rgb(0, 0, 0); fill-opacity: 1; white-space: pre; opacity: 1;">JAKSZP010000656.1</text></g><g class="xtick"><text text-anchor="start" x="0" y="377" transform="translate(99.9,0) rotate(90,0,372)" style="font-family: 'Lucida Grande', 'Open Sans', verdana, arial, sans-serif; font-size: 10px; fill: rgb(0, 0, 0); fill-opacity: 1; white-space: pre; opacity: 1;">JAKSZP010000969.1</text></g><g class="xtick"><text text-anchor="start" x="0" y="377" transform="translate(113.19,0) rotate(90,0,372)" style="font-family: 'Lucida Grande', 'Open Sans', verdana, arial, sans-serif; font-size: 10px; fill: rgb(0, 0, 0); fill-opacity: 1; white-space: pre; opacity: 1;">JAKSZP010001341.1</text></g><g class="xtick"><text text-anchor="start" x="0" y="377" transform="translate(126.49,0) rotate(90,0,372)" style="font-family: 'Lucida Grande', 'Open Sans', verdana, arial, sans-serif; font-size: 10px; fill: rgb(0, 0, 0); fill-opacity: 1; white-space: pre; opacity: 1;">JAKSZP010001378.1</text></g><g class="xtick"><text text-anchor="start" x="0" y="377" transform="translate(139.79000000000002,0) rotate(90,0,372)" style="font-family: 'Lucida Grande', 'Open Sans', verdana, arial, sans-serif; font-size: 10px; fill: rgb(0, 0, 0); fill-opacity: 1; white-space: pre; opacity: 1;">JAKSZP010001433.1</text></g><g class="xtick"><text text-anchor="start" x="0" y="377" transform="translate(153.09,0) rotate(90,0,372)" style="font-family: 'Lucida Grande', 'Open Sans', verdana, arial, sans-serif; font-size: 10px; fill: rgb(0, 0, 0); fill-opacity: 1; white-space: pre; opacity: 1;">JAKSZP010001453.1</text></g><g class="xtick"><text text-anchor="start" x="0" y="377" transform="translate(166.39,0) rotate(90,0,372)" style="font-family: 'Lucida Grande', 'Open Sans', verdana, arial, sans-serif; font-size: 10px; fill: rgb(0, 0, 0); fill-opacity: 1; white-space: pre; opacity: 1;">JAKSZP010001488.1</text></g><g class="xtick"><text text-anchor="start" x="0" y="377" transform="translate(179.69,0) rotate(90,0,372)" style="font-family: 'Lucida Grande', 'Open Sans', verdana, arial, sans-serif; font-size: 10px; fill: rgb(0, 0, 0); fill-opacity: 1; white-space: pre; opacity: 1;">JAKSZP010002298.1</text></g><g class="xtick"><text text-anchor="start" x="0" y="377" transform="translate(192.99,0) rotate(90,0,372)" style="font-family: 'Lucida Grande', 'Open Sans', verdana, arial, sans-serif; font-size: 10px; fill: rgb(0, 0, 0); fill-opacity: 1; white-space: pre; opacity: 1;">JAKSZP010002857.1</text></g><g class="xtick"><text text-anchor="start" x="0" y="377" transform="translate(206.29,0) rotate(90,0,372)" style="font-family: 'Lucida Grande', 'Open Sans', verdana, arial, sans-serif; font-size: 10px; fill: rgb(0, 0, 0); fill-opacity: 1; white-space: pre; opacity: 1;">JAKSZP010002906.1</text></g><g class="xtick"><text text-anchor="start" x="0" y="377" transform="translate(219.58,0) rotate(90,0,372)" style="font-family: 'Lucida Grande', 'Open Sans', verdana, arial, sans-serif; font-size: 10px; fill: rgb(0, 0, 0); fill-opacity: 1; white-space: pre; opacity: 1;">JAKSZP010002907.1</text></g><g class="xtick"><text text-anchor="start" x="0" y="377" transform="translate(232.88,0) rotate(90,0,372)" style="font-family: 'Lucida Grande', 'Open Sans', verdana, arial, sans-serif; font-size: 10px; fill: rgb(0, 0, 0); fill-opacity: 1; white-space: pre; opacity: 1;">JAKSZP010003046.1</text></g><g class="xtick"><text text-anchor="start" x="0" y="377" transform="translate(246.18,0) rotate(90,0,372)" style="font-family: 'Lucida Grande', 'Open Sans', verdana, arial, sans-serif; font-size: 10px; fill: rgb(0, 0, 0); fill-opacity: 1; white-space: pre; opacity: 1;">JAKSZP010003157.1</text></g><g class="xtick"><text text-anchor="start" x="0" y="377" transform="translate(259.48,0) rotate(90,0,372)" style="font-family: 'Lucida Grande', 'Open Sans', verdana, arial, sans-serif; font-size: 10px; fill: rgb(0, 0, 0); fill-opacity: 1; white-space: pre; opacity: 1;">JAKSZP010003298.1</text></g><g class="xtick"><text text-anchor="start" x="0" y="377" transform="translate(272.78,0) rotate(90,0,372)" style="font-family: 'Lucida Grande', 'Open Sans', verdana, arial, sans-serif; font-size: 10px; fill: rgb(0, 0, 0); fill-opacity: 1; white-space: pre; opacity: 1;">JAKSZP010003936.1</text></g><g class="xtick"><text text-anchor="start" x="0" y="377" transform="translate(286.08000000000004,0) rotate(90,0,372)" style="font-family: 'Lucida Grande', 'Open Sans', verdana, arial, sans-serif; font-size: 10px; fill: rgb(0, 0, 0); fill-opacity: 1; white-space: pre; opacity: 1;">JAKSZP010004139.1</text></g><g class="xtick"><text text-anchor="start" x="0" y="377" transform="translate(299.38,0) rotate(90,0,372)" style="font-family: 'Lucida Grande', 'Open Sans', verdana, arial, sans-serif; font-size: 10px; fill: rgb(0, 0, 0); fill-opacity: 1; white-space: pre; opacity: 1;">JAKSZP010004140.1</text></g><g class="xtick"><text text-anchor="start" x="0" y="377" transform="translate(312.68,0) rotate(90,0,372)" style="font-family: 'Lucida Grande', 'Open Sans', verdana, arial, sans-serif; font-size: 10px; fill: rgb(0, 0, 0); fill-opacity: 1; white-space: pre; opacity: 1;">JAKSZP010004212.1</text></g><g class="xtick"><text text-anchor="start" x="0" y="377" transform="translate(325.97,0) rotate(90,0,372)" style="font-family: 'Lucida Grande', 'Open Sans', verdana, arial, sans-serif; font-size: 10px; fill: rgb(0, 0, 0); fill-opacity: 1; white-space: pre; opacity: 1;">JAKSZP010004398.1</text></g><g class="xtick"><text text-anchor="start" x="0" y="377" transform="translate(339.27,0) rotate(90,0,372)" style="font-family: 'Lucida Grande', 'Open Sans', verdana, arial, sans-serif; font-size: 10px; fill: rgb(0, 0, 0); fill-opacity: 1; white-space: pre; opacity: 1;">JAKSZP010004608.1</text></g><g class="xtick"><text text-anchor="start" x="0" y="377" transform="translate(352.57,0) rotate(90,0,372)" style="font-family: 'Lucida Grande', 'Open Sans', verdana, arial, sans-serif; font-size: 10px; fill: rgb(0, 0, 0); fill-opacity: 1; white-space: pre; opacity: 1;">JAKSZP010005423.1</text></g><g class="xtick"><text text-anchor="start" x="0" y="377" transform="translate(365.87,0) rotate(90,0,372)" style="font-family: 'Lucida Grande', 'Open Sans', verdana, arial, sans-serif; font-size: 10px; fill: rgb(0, 0, 0); fill-opacity: 1; white-space: pre; opacity: 1;">JAKSZP010005868.1</text></g><g class="xtick"><text text-anchor="start" x="0" y="377" transform="translate(379.17,0) rotate(90,0,372)" style="font-family: 'Lucida Grande', 'Open Sans', verdana, arial, sans-serif; font-size: 10px; fill: rgb(0, 0, 0); fill-opacity: 1; white-space: pre; opacity: 1;">JAKSZP010006348.1</text></g><g class="xtick"><text text-anchor="start" x="0" y="377" transform="translate(392.47,0) rotate(90,0,372)" style="font-family: 'Lucida Grande', 'Open Sans', verdana, arial, sans-serif; font-size: 10px; fill: rgb(0, 0, 0); fill-opacity: 1; white-space: pre; opacity: 1;">JAKSZP010006629.1</text></g><g class="xtick"><text text-anchor="start" x="0" y="377" transform="translate(405.77,0) rotate(90,0,372)" style="font-family: 'Lucida Grande', 'Open Sans', verdana, arial, sans-serif; font-size: 10px; fill: rgb(0, 0, 0); fill-opacity: 1; white-space: pre; opacity: 1;">JAKSZP010006768.1</text></g><g class="xtick"><text text-anchor="start" x="0" y="377" transform="translate(419.06,0) rotate(90,0,372)" style="font-family: 'Lucida Grande', 'Open Sans', verdana, arial, sans-serif; font-size: 10px; fill: rgb(0, 0, 0); fill-opacity: 1; white-space: pre; opacity: 1;">JAKSZP010006970.1</text></g><g class="xtick"><text text-anchor="start" x="0" y="377" transform="translate(432.36,0) rotate(90,0,372)" style="font-family: 'Lucida Grande', 'Open Sans', verdana, arial, sans-serif; font-size: 10px; fill: rgb(0, 0, 0); fill-opacity: 1; white-space: pre; opacity: 1;">JAKSZP010007410.1</text></g><g class="xtick"><text text-anchor="start" x="0" y="377" transform="translate(445.66,0) rotate(90,0,372)" style="font-family: 'Lucida Grande', 'Open Sans', verdana, arial, sans-serif; font-size: 10px; fill: rgb(0, 0, 0); fill-opacity: 1; white-space: pre; opacity: 1;">JAKSZP010008110.1</text></g><g class="xtick"><text text-anchor="start" x="0" y="377" transform="translate(458.96,0) rotate(90,0,372)" style="font-family: 'Lucida Grande', 'Open Sans', verdana, arial, sans-serif; font-size: 10px; fill: rgb(0, 0, 0); fill-opacity: 1; white-space: pre; opacity: 1;">JAKSZP010008292.1</text></g><g class="xtick"><text text-anchor="start" x="0" y="377" transform="translate(472.26,0) rotate(90,0,372)" style="font-family: 'Lucida Grande', 'Open Sans', verdana, arial, sans-serif; font-size: 10px; fill: rgb(0, 0, 0); fill-opacity: 1; white-space: pre; opacity: 1;">JAKSZP010009203.1</text></g><g class="xtick"><text text-anchor="start" x="0" y="377" transform="translate(485.56,0) rotate(90,0,372)" style="font-family: 'Lucida Grande', 'Open Sans', verdana, arial, sans-serif; font-size: 10px; fill: rgb(0, 0, 0); fill-opacity: 1; white-space: pre; opacity: 1;">JAKSZP010009300.1</text></g><g class="xtick"><text text-anchor="start" x="0" y="377" transform="translate(498.86,0) rotate(90,0,372)" style="font-family: 'Lucida Grande', 'Open Sans', verdana, arial, sans-serif; font-size: 10px; fill: rgb(0, 0, 0); fill-opacity: 1; white-space: pre; opacity: 1;">JAKSZP010009329.1</text></g><g class="xtick"><text text-anchor="start" x="0" y="377" transform="translate(512.1600000000001,0) rotate(90,0,372)" style="font-family: 'Lucida Grande', 'Open Sans', verdana, arial, sans-serif; font-size: 10px; fill: rgb(0, 0, 0); fill-opacity: 1; white-space: pre; opacity: 1;">JAKSZP010009410.1</text></g><g class="xtick"><text text-anchor="start" x="0" y="377" transform="translate(525.45,0) rotate(90,0,372)" style="font-family: 'Lucida Grande', 'Open Sans', verdana, arial, sans-serif; font-size: 10px; fill: rgb(0, 0, 0); fill-opacity: 1; white-space: pre; opacity: 1;">JAKSZP010010022.1</text></g><g class="xtick"><text text-anchor="start" x="0" y="377" transform="translate(538.75,0) rotate(90,0,372)" style="font-family: 'Lucida Grande', 'Open Sans', verdana, arial, sans-serif; font-size: 10px; fill: rgb(0, 0, 0); fill-opacity: 1; white-space: pre; opacity: 1;">JAKSZP010010360.1</text></g><g class="xtick"><text text-anchor="start" x="0" y="377" transform="translate(552.05,0) rotate(90,0,372)" style="font-family: 'Lucida Grande', 'Open Sans', verdana, arial, sans-serif; font-size: 10px; fill: rgb(0, 0, 0); fill-opacity: 1; white-space: pre; opacity: 1;">JAKSZP010010569.1</text></g><g class="xtick"><text text-anchor="start" x="0" y="377" transform="translate(565.35,0) rotate(90,0,372)" style="font-family: 'Lucida Grande', 'Open Sans', verdana, arial, sans-serif; font-size: 10px; fill: rgb(0, 0, 0); fill-opacity: 1; white-space: pre; opacity: 1;">JAKSZP010010638.1</text></g><g class="xtick"><text text-anchor="start" x="0" y="377" transform="translate(578.65,0) rotate(90,0,372)" style="font-family: 'Lucida Grande', 'Open Sans', verdana, arial, sans-serif; font-size: 10px; fill: rgb(0, 0, 0); fill-opacity: 1; white-space: pre; opacity: 1;">JAKSZP010010727.1</text></g><g class="xtick"><text text-anchor="start" x="0" y="377" transform="translate(591.95,0) rotate(90,0,372)" style="font-family: 'Lucida Grande', 'Open Sans', verdana, arial, sans-serif; font-size: 10px; fill: rgb(0, 0, 0); fill-opacity: 1; white-space: pre; opacity: 1;">JAKSZP010010751.1</text></g><g class="xtick"><text text-anchor="start" x="0" y="377" transform="translate(605.25,0) rotate(90,0,372)" style="font-family: 'Lucida Grande', 'Open Sans', verdana, arial, sans-serif; font-size: 10px; fill: rgb(0, 0, 0); fill-opacity: 1; white-space: pre; opacity: 1;">JAKSZP010011111.1</text></g><g class="xtick"><text text-anchor="start" x="0" y="377" transform="translate(618.55,0) rotate(90,0,372)" style="font-family: 'Lucida Grande', 'Open Sans', verdana, arial, sans-serif; font-size: 10px; fill: rgb(0, 0, 0); fill-opacity: 1; white-space: pre; opacity: 1;">JAKSZP010011191.1</text></g><g class="xtick"><text text-anchor="start" x="0" y="377" transform="translate(631.84,0) rotate(90,0,372)" style="font-family: 'Lucida Grande', 'Open Sans', verdana, arial, sans-serif; font-size: 10px; fill: rgb(0, 0, 0); fill-opacity: 1; white-space: pre; opacity: 1;">JAKSZP010011400.1</text></g><g class="xtick"><text text-anchor="start" x="0" y="377" transform="translate(645.14,0) rotate(90,0,372)" style="font-family: 'Lucida Grande', 'Open Sans', verdana, arial, sans-serif; font-size: 10px; fill: rgb(0, 0, 0); fill-opacity: 1; white-space: pre; opacity: 1;">JAKSZP010011468.1</text></g><g class="xtick"><text text-anchor="start" x="0" y="377" transform="translate(658.44,0) rotate(90,0,372)" style="font-family: 'Lucida Grande', 'Open Sans', verdana, arial, sans-serif; font-size: 10px; fill: rgb(0, 0, 0); fill-opacity: 1; white-space: pre; opacity: 1;">JAKSZP010011738.1</text></g><g class="xtick"><text text-anchor="start" x="0" y="377" transform="translate(671.74,0) rotate(90,0,372)" style="font-family: 'Lucida Grande', 'Open Sans', verdana, arial, sans-serif; font-size: 10px; fill: rgb(0, 0, 0); fill-opacity: 1; white-space: pre; opacity: 1;">JAKSZP010011822.1</text></g><g class="xtick"><text text-anchor="start" x="0" y="377" transform="translate(685.04,0) rotate(90,0,372)" style="font-family: 'Lucida Grande', 'Open Sans', verdana, arial, sans-serif; font-size: 10px; fill: rgb(0, 0, 0); fill-opacity: 1; white-space: pre; opacity: 1;">JAKSZP010011897.1</text></g><g class="xtick"><text text-anchor="start" x="0" y="377" transform="translate(698.34,0) rotate(90,0,372)" style="font-family: 'Lucida Grande', 'Open Sans', verdana, arial, sans-serif; font-size: 10px; fill: rgb(0, 0, 0); fill-opacity: 1; white-space: pre; opacity: 1;">JAKSZP010012281.1</text></g><g class="xtick"><text text-anchor="start" x="0" y="377" transform="translate(711.64,0) rotate(90,0,372)" style="font-family: 'Lucida Grande', 'Open Sans', verdana, arial, sans-serif; font-size: 10px; fill: rgb(0, 0, 0); fill-opacity: 1; white-space: pre; opacity: 1;">JAKSZP010013147.1</text></g><g class="xtick"><text text-anchor="start" x="0" y="377" transform="translate(724.94,0) rotate(90,0,372)" style="font-family: 'Lucida Grande', 'Open Sans', verdana, arial, sans-serif; font-size: 10px; fill: rgb(0, 0, 0); fill-opacity: 1; white-space: pre; opacity: 1;">JAKSZP010013158.1</text></g><g class="xtick"><text text-anchor="start" x="0" y="377" transform="translate(738.23,0) rotate(90,0,372)" style="font-family: 'Lucida Grande', 'Open Sans', verdana, arial, sans-serif; font-size: 10px; fill: rgb(0, 0, 0); fill-opacity: 1; white-space: pre; opacity: 1;">JAKSZP010013190.1</text></g><g class="xtick"><text text-anchor="start" x="0" y="377" transform="translate(751.53,0) rotate(90,0,372)" style="font-family: 'Lucida Grande', 'Open Sans', verdana, arial, sans-serif; font-size: 10px; fill: rgb(0, 0, 0); fill-opacity: 1; white-space: pre; opacity: 1;">JAKSZP010013241.1</text></g><g class="xtick"><text text-anchor="start" x="0" y="377" transform="translate(764.83,0) rotate(90,0,372)" style="font-family: 'Lucida Grande', 'Open Sans', verdana, arial, sans-serif; font-size: 10px; fill: rgb(0, 0, 0); fill-opacity: 1; white-space: pre; opacity: 1;">JAKSZP010013366.1</text></g><g class="xtick"><text text-anchor="start" x="0" y="377" transform="translate(778.13,0) rotate(90,0,372)" style="font-family: 'Lucida Grande', 'Open Sans', verdana, arial, sans-serif; font-size: 10px; fill: rgb(0, 0, 0); fill-opacity: 1; white-space: pre; opacity: 1;">JAKSZP010013699.1</text></g><g class="xtick"><text text-anchor="start" x="0" y="377" transform="translate(791.43,0) rotate(90,0,372)" style="font-family: 'Lucida Grande', 'Open Sans', verdana, arial, sans-serif; font-size: 10px; fill: rgb(0, 0, 0); fill-opacity: 1; white-space: pre; opacity: 1;">JAKSZP010013765.1</text></g><g class="xtick"><text text-anchor="start" x="0" y="377" transform="translate(804.73,0) rotate(90,0,372)" style="font-family: 'Lucida Grande', 'Open Sans', verdana, arial, sans-serif; font-size: 10px; fill: rgb(0, 0, 0); fill-opacity: 1; white-space: pre; opacity: 1;">JAKSZP010014445.1</text></g><g class="xtick"><text text-anchor="start" x="0" y="377" transform="translate(818.03,0) rotate(90,0,372)" style="font-family: 'Lucida Grande', 'Open Sans', verdana, arial, sans-serif; font-size: 10px; fill: rgb(0, 0, 0); fill-opacity: 1; white-space: pre; opacity: 1;">JAKSZP010014506.1</text></g><g class="xtick"><text text-anchor="start" x="0" y="377" transform="translate(831.32,0) rotate(90,0,372)" style="font-family: 'Lucida Grande', 'Open Sans', verdana, arial, sans-serif; font-size: 10px; fill: rgb(0, 0, 0); fill-opacity: 1; white-space: pre; opacity: 1;">JAKSZP010014523.1</text></g><g class="xtick"><text text-anchor="start" x="0" y="377" transform="translate(844.62,0) rotate(90,0,372)" style="font-family: 'Lucida Grande', 'Open Sans', verdana, arial, sans-serif; font-size: 10px; fill: rgb(0, 0, 0); fill-opacity: 1; white-space: pre; opacity: 1;">JAKSZP010014547.1</text></g><g class="xtick"><text text-anchor="start" x="0" y="377" transform="translate(857.92,0) rotate(90,0,372)" style="font-family: 'Lucida Grande', 'Open Sans', verdana, arial, sans-serif; font-size: 10px; fill: rgb(0, 0, 0); fill-opacity: 1; white-space: pre; opacity: 1;">JAKSZP010014696.1</text></g><g class="xtick"><text text-anchor="start" x="0" y="377" transform="translate(871.22,0) rotate(90,0,372)" style="font-family: 'Lucida Grande', 'Open Sans', verdana, arial, sans-serif; font-size: 10px; fill: rgb(0, 0, 0); fill-opacity: 1; white-space: pre; opacity: 1;">JAKSZP010015409.1</text></g><g class="xtick"><text text-anchor="start" x="0" y="377" transform="translate(884.52,0) rotate(90,0,372)" style="font-family: 'Lucida Grande', 'Open Sans', verdana, arial, sans-serif; font-size: 10px; fill: rgb(0, 0, 0); fill-opacity: 1; white-space: pre; opacity: 1;">JAKSZP010015774.1</text></g><g class="xtick"><text text-anchor="start" x="0" y="377" transform="translate(897.82,0) rotate(90,0,372)" style="font-family: 'Lucida Grande', 'Open Sans', verdana, arial, sans-serif; font-size: 10px; fill: rgb(0, 0, 0); fill-opacity: 1; white-space: pre; opacity: 1;">JAKSZP010015839.1</text></g><g class="xtick"><text text-anchor="start" x="0" y="377" transform="translate(911.12,0) rotate(90,0,372)" style="font-family: 'Lucida Grande', 'Open Sans', verdana, arial, sans-serif; font-size: 10px; fill: rgb(0, 0, 0); fill-opacity: 1; white-space: pre; opacity: 1;">JAKSZP010016022.1</text></g><g class="xtick"><text text-anchor="start" x="0" y="377" transform="translate(924.42,0) rotate(90,0,372)" style="font-family: 'Lucida Grande', 'Open Sans', verdana, arial, sans-serif; font-size: 10px; fill: rgb(0, 0, 0); fill-opacity: 1; white-space: pre; opacity: 1;">JAKSZP010016073.1</text></g><g class="xtick"><text text-anchor="start" x="0" y="377" transform="translate(937.71,0) rotate(90,0,372)" style="font-family: 'Lucida Grande', 'Open Sans', verdana, arial, sans-serif; font-size: 10px; fill: rgb(0, 0, 0); fill-opacity: 1; white-space: pre; opacity: 1;">JAKSZP010016102.1</text></g><g class="xtick"><text text-anchor="start" x="0" y="377" transform="translate(951.01,0) rotate(90,0,372)" style="font-family: 'Lucida Grande', 'Open Sans', verdana, arial, sans-serif; font-size: 10px; fill: rgb(0, 0, 0); fill-opacity: 1; white-space: pre; opacity: 1;">JAKSZP010016390.1</text></g><g class="xtick"><text text-anchor="start" x="0" y="377" transform="translate(964.31,0) rotate(90,0,372)" style="font-family: 'Lucida Grande', 'Open Sans', verdana, arial, sans-serif; font-size: 10px; fill: rgb(0, 0, 0); fill-opacity: 1; white-space: pre; opacity: 1;">JAKSZP010016393.1</text></g><g class="xtick"><text text-anchor="start" x="0" y="377" transform="translate(977.61,0) rotate(90,0,372)" style="font-family: 'Lucida Grande', 'Open Sans', verdana, arial, sans-serif; font-size: 10px; fill: rgb(0, 0, 0); fill-opacity: 1; white-space: pre; opacity: 1;">JAKSZP010016401.1</text></g><g class="xtick"><text text-anchor="start" x="0" y="377" transform="translate(990.91,0) rotate(90,0,372)" style="font-family: 'Lucida Grande', 'Open Sans', verdana, arial, sans-serif; font-size: 10px; fill: rgb(0, 0, 0); fill-opacity: 1; white-space: pre; opacity: 1;">JAKSZP010017094.1</text></g><g class="xtick"><text text-anchor="start" x="0" y="377" transform="translate(1004.21,0) rotate(90,0,372)" style="font-family: 'Lucida Grande', 'Open Sans', verdana, arial, sans-serif; font-size: 10px; fill: rgb(0, 0, 0); fill-opacity: 1; white-space: pre; opacity: 1;">JAKSZP010017175.1</text></g><g class="xtick"><text text-anchor="start" x="0" y="377" transform="translate(1017.51,0) rotate(90,0,372)" style="font-family: 'Lucida Grande', 'Open Sans', verdana, arial, sans-serif; font-size: 10px; fill: rgb(0, 0, 0); fill-opacity: 1; white-space: pre; opacity: 1;">JAKSZP010017383.1</text></g><g class="xtick"><text text-anchor="start" x="0" y="377" transform="translate(1030.81,0) rotate(90,0,372)" style="font-family: 'Lucida Grande', 'Open Sans', verdana, arial, sans-serif; font-size: 10px; fill: rgb(0, 0, 0); fill-opacity: 1; white-space: pre; opacity: 1;">JAKSZP010017862.1</text></g><g class="xtick"><text text-anchor="start" x="0" y="377" transform="translate(1044.1,0) rotate(90,0,372)" style="font-family: 'Lucida Grande', 'Open Sans', verdana, arial, sans-serif; font-size: 10px; fill: rgb(0, 0, 0); fill-opacity: 1; white-space: pre; opacity: 1;">JAKSZP010018392.1</text></g><g class="xtick"><text text-anchor="start" x="0" y="377" transform="translate(1057.4,0) rotate(90,0,372)" style="font-family: 'Lucida Grande', 'Open Sans', verdana, arial, sans-serif; font-size: 10px; fill: rgb(0, 0, 0); fill-opacity: 1; white-space: pre; opacity: 1;">JAKSZP010019011.1</text></g><g class="xtick"><text text-anchor="start" x="0" y="377" transform="translate(1070.7,0) rotate(90,0,372)" style="font-family: 'Lucida Grande', 'Open Sans', verdana, arial, sans-serif; font-size: 10px; fill: rgb(0, 0, 0); fill-opacity: 1; white-space: pre; opacity: 1;">JAKSZP010019195.1</text></g><g class="xtick"><text text-anchor="start" x="0" y="377" transform="translate(1084,0) rotate(90,0,372)" style="font-family: 'Lucida Grande', 'Open Sans', verdana, arial, sans-serif; font-size: 10px; fill: rgb(0, 0, 0); fill-opacity: 1; white-space: pre; opacity: 1;">JAKSZP010019356.1</text></g></g><g class="yaxislayer-above"><g class="ytick"><text text-anchor="end" x="54" y="3.5" transform="translate(0,345.45)" style="font-family: 'Lucida Grande', 'Open Sans', verdana, arial, sans-serif; font-size: 10px; fill: rgb(0, 0, 0); fill-opacity: 1; white-space: pre; opacity: 1;">0</text></g><g class="ytick"><text text-anchor="end" x="54" y="3.5" style="font-family: 'Lucida Grande', 'Open Sans', verdana, arial, sans-serif; font-size: 10px; fill: rgb(0, 0, 0); fill-opacity: 1; white-space: pre; opacity: 1;" transform="translate(0,308.42)">1M</text></g><g class="ytick"><text text-anchor="end" x="54" y="3.5" style="font-family: 'Lucida Grande', 'Open Sans', verdana, arial, sans-serif; font-size: 10px; fill: rgb(0, 0, 0); fill-opacity: 1; white-space: pre; opacity: 1;" transform="translate(0,271.39)">2M</text></g><g class="ytick"><text text-anchor="end" x="54" y="3.5" style="font-family: 'Lucida Grande', 'Open Sans', verdana, arial, sans-serif; font-size: 10px; fill: rgb(0, 0, 0); fill-opacity: 1; white-space: pre; opacity: 1;" transform="translate(0,234.36)">3M</text></g><g class="ytick"><text text-anchor="end" x="54" y="3.5" style="font-family: 'Lucida Grande', 'Open Sans', verdana, arial, sans-serif; font-size: 10px; fill: rgb(0, 0, 0); fill-opacity: 1; white-space: pre; opacity: 1;" transform="translate(0,197.33)">4M</text></g><g class="ytick"><text text-anchor="end" x="54" y="3.5" style="font-family: 'Lucida Grande', 'Open Sans', verdana, arial, sans-serif; font-size: 10px; fill: rgb(0, 0, 0); fill-opacity: 1; white-space: pre; opacity: 1;" transform="translate(0,160.3)">5M</text></g><g class="ytick"><text text-anchor="end" x="54" y="3.5" style="font-family: 'Lucida Grande', 'Open Sans', verdana, arial, sans-serif; font-size: 10px; fill: rgb(0, 0, 0); fill-opacity: 1; white-space: pre; opacity: 1;" transform="translate(0,123.27)">6M</text></g><g class="ytick"><text text-anchor="end" x="54" y="3.5" style="font-family: 'Lucida Grande', 'Open Sans', verdana, arial, sans-serif; font-size: 10px; fill: rgb(0, 0, 0); fill-opacity: 1; white-space: pre; opacity: 1;" transform="translate(0,86.24000000000001)">7M</text></g></g><g class="overaxes-above"/></g></g><g class="polarlayer"/><g class="smithlayer"/><g class="ternarylayer"/><g class="geolayer"/><g class="funnelarealayer"/><g class="pielayer"/><g class="iciclelayer"/><g class="treemaplayer"/><g class="sunburstlayer"/><g class="glimages"/><defs id="topdefs-befb02"><g class="clips"/></defs><g class="layer-above"><g class="imagelayer"/><g class="shapelayer"/></g><g class="infolayer"><g class="g-gtitle"><text class="gtitle" x="550" y="25" text-anchor="middle" dy="0em" style="opacity: 1; font-family: 'Lucida Grande', 'Open Sans', verdana, arial, sans-serif; font-size: 20px; fill: rgb(68, 68, 68); fill-opacity: 1; white-space: pre;"><tspan class="line" dy="0em" x="550" y="25">Samtools: idxstats: Mapped reads per contig</tspan><tspan class="line" dy="1.3em" x="550" y="25">​<tspan style="font-size:70%" dy="-0.6em">Raw Counts, 6 samples</tspan><tspan dy="0.42em">​</tspan></tspan></text></g><g class="g-xtitle" transform="translate(0,76.203125)"><text class="xtitle" x="572" y="413" text-anchor="middle" style="opacity: 0.3; font-family: 'Lucida Grande', 'Open Sans', verdana, arial, sans-serif; font-size: 14px; fill: rgb(0, 0, 0); fill-opacity: 1; white-space: pre;">Chromosome name</text></g><g class="g-ytitle"><text class="ytitle" transform="rotate(-90,22,205.5)" x="22" y="205.5" text-anchor="middle" style="opacity: 0.3; font-family: 'Lucida Grande', 'Open Sans', verdana, arial, sans-serif; font-size: 14px; fill: rgb(0, 0, 0); fill-opacity: 1; white-space: pre;"># mapped reads</text></g></g></svg>